<svg width="839" height="69" viewBox="0 0 839 69" fill="none" xmlns="http://www.w3.org/2000/svg">
<path d="M247.5 22L254.5 19H261L269.5 20.5L275.5 20L277.5 18.5L279 15.5H280.5L272.5 40.5L264 37.5L258.5 38L255 42.5L257.5 49L263 50.5L271 48.5L277 44L279 47L276 52.5L266 55H256L247 51L244 47L242 42.5L241 37.5L241.5 32L244 27L247.5 22Z" fill="#FDDA21"/>
<path d="M495.5 22L502.5 19H509L517.5 20.5L523.5 20L526 18L527.5 15H528.5L520.5 40L512 37.5L506.5 38L503 42.5L505.5 49L509.5 50H513L519 48L525 44L527 47L524 52.5L514 55H504L495 51L490 42.5L489.5 32L492 27L495.5 22Z" fill="#FDDA21"/>
<path d="M377.5 14L388.5 14.5L402.5 10L410.22 10.4211L415.911 14.7093L418.255 19.6572L415.911 28L409.215 33.8412L413.5 42.5L417.585 47.3654L422.942 48.0252L418.255 60.8897L410.22 63.5286L401.85 62L401 52L399.5 45.5L397.497 42.0877H395.488L396.158 54.2925L395.488 60.8897L374.5 59.5L377 48.0252L378.5 37L378 24L377.5 14Z" fill="#FDDA21"/>
<path d="M757.433 44.0001C757.433 53.3889 747.067 60.5001 738.5 60.5001C728.835 60.5001 722.5 53.3889 722.5 44.0001C722.5 34.6112 730 26.5 739.433 28.0001C749 28.5 757.433 34.6112 757.433 44.0001Z" fill="#FDDA21"/>
<path d="M312.5 27C312.5 36.3888 304.665 44 295 44C283 44 279 36.3888 279 27C280.5 20.5 284.335 13 294 13C302.5 15 312.5 17.6112 312.5 27Z" fill="#FDDA21"/>
<path d="M138.5 27C138.5 36.3888 130.665 44 121 44C109 44 105 36.3888 105 27C106.5 20.5 110.335 13 120 13C128.5 15 138.5 17.6112 138.5 27Z" fill="#FDDA21"/>
<path d="M531.124 19.0176L540 16L549.229 15.3348L547.5 33.5L548.223 37.7663L556.27 36.4271V24.0396L556.94 16.674L558.89 15.3348L560.963 15L567.5 15.3348L574 17.6448L571.357 39.1055L572.5 61.5L554.928 58.8586L554.593 55.8454V54L555.934 48.4799H548.558L545.541 59.5282L530.5 58.6448L531.795 38.7707L531.124 19.0176Z" fill="#FDDA21"/>
<path d="M422.5 9.5L427.5 8H433.75L451 10L465.5 8.5L468 11L467 19.5L464.5 27H450L450.5 32.5L452 59L443.5 63L434 62L433 50.5L432.5 40.5L433.5 28.5L425.5 28L420.5 30L419 28.5L418.5 20.5L420 12.5L422.5 9.5Z" fill="#FDDA21"/>
<path d="M174 9.5L179 8H185.25L202.5 10L217 8.5L219.5 11L218.5 19.5L216 27H201.5L202 32.5L203.5 59L195 63L185.5 62L184.5 50.5L184 40.5L185 28.5L177 28L172 30L170.5 28.5L170 20.5L171.5 12.5L174 9.5Z" fill="#FDDA21"/>
<path d="M592.501 11.3955C592.501 15.3192 588.979 18.5 584.895 18.5C580.501 19.5 577.501 16.9237 577.501 13C577.001 8 582.417 5 586.501 5C590.304 6.04478 592.501 7.47183 592.501 11.3955Z" fill="#FDDA21"/>
<path d="M574.5 22L587.5 20L592 21.5L593 27L592 42L594 56.5L575.5 57.5L577.5 43.5V34L574.5 22Z" fill="#FDDA21"/>
<path d="M605.5 17.5L608.5 16.5H617L624 29L631.5 16H644L652 41L654.5 56L639 62L632.5 46.5L624 55.5L617.5 45L612 59H601L595.5 55.5L596 50.5L597.5 45.5L605.5 17.5Z" fill="#FDDA21"/>
<path d="M760.495 15.4343L769 13L781.771 8.6767L788.194 8L797.396 9.35246L805.707 17.1237L805.042 28.6116L801.052 35.7071L795.069 40.0995L786.757 42.1268H778.114L775.787 58.0071L770.135 62.0617L763.487 61.3859L760.194 61L758.5 58.0071L761.194 38L760.194 24.5L760 17.5L760.495 15.4343Z" fill="#FDDA21"/>
<path d="M655.5 15.5L665 13L677 8.5L683 7.5L691.5 9.5L699.5 16.5L700.042 27.6116L696.052 34.7071L690.069 39.0995L681.757 41.1268L677.5 42.5L673.114 41.1268L670.787 57.0071L665.135 61.0617L658.487 60.3859L655.194 60L653.5 57.0071L656.194 37L655.194 23.5L655.5 15.5Z" fill="#FDDA21"/>
<path d="M342 17L352.5 17.5H364L372 17L374.5 22.5L373.5 32L366.5 29.5L363.5 32L365 42L363 43L364.5 44L367.5 43.5L372 40.5L373 42L373.5 43.5L374 47V56.5L362 58.5H352L342.5 58L343.5 51L344.5 36.5L343.5 26.5L342 17Z" fill="#FDDA21"/>
<path d="M308.5 38L311.5 35L320.5 32.5L323.5 40L328 28L330.5 25.5L334 24H339.5L341.5 25L339.5 42.5L330.5 61.5L326 66L316.5 61.5L313 55L310.5 47.5L308.5 38Z" fill="#FDDA21"/>
<path d="M807 22.5L810 19.5L813.5 17L819.5 16.5L834.5 18.5L831.5 26L829.5 37L834.5 41.5L836 47L834.5 56L828 60L821 62L805.5 60L806 45L809.5 47.5H813.5L815 44.5L813.5 38.5L807.5 30L807 22.5Z" fill="#FDDA21"/>
<path d="M139 21L142.5 18L150 17.5L157 20L158.5 28.5L161 33L163 32L164.5 28.5V25.5L163.5 22L162.5 19.5L164 17H166.5L168.5 17.5L171 28.5L167 48.5L159.5 55.5L150 55L144 52L140 44L141.5 30L139 21Z" fill="#FDDA21"/>
<path d="M17.5 19.5L25 15L35.5 15.5L37.5 22.5L58 52L57 61.5L36 60L29 50.5L19.5 49.5L16 61.5L1 60L1.5 55L9 48L14.5 38.5L17.5 19.5Z" fill="#FDDA21"/>
<path d="M62 13.5L79.5 7L88.5 6L96.5 10L98.5 17L95 31.5L102 36.5L104 46.5L99.5 57L85.5 62L60.5 60.5L63 37L62 13.5Z" fill="#FDDA21"/>
<path d="M19.24 38.4C19.24 37.184 19.528 36.096 20.104 35.136C20.744 34.176 21.576 33.6 22.6 33.408L28.936 43.104L28.552 43.296C27.72 42.528 27.08 42.08 26.632 41.952C25.8 41.76 24.776 41.6 23.56 41.472C22.408 41.28 21.576 41.12 21.064 40.992C20.616 40.864 20.2 40.608 19.816 40.224C19.432 39.84 19.24 39.232 19.24 38.4ZM1.192 56.448C1.192 57.664 1.896 58.72 3.304 59.616C4.712 60.512 6.44 60.96 8.488 60.96C10.664 60.96 12.52 60.576 14.056 59.808C15.592 59.04 16.36 58.144 16.36 57.12C16.36 52.384 16.584 49.024 17.032 47.04C23.176 47.232 27.208 47.744 29.128 48.576C31.112 49.344 32.872 51.488 34.408 55.008C35.304 57.312 35.784 58.912 35.848 59.808C37.448 59.936 39.88 60.192 43.144 60.576C46.408 61.024 49.192 61.248 51.496 61.248C52.968 61.248 54.28 60.704 55.432 59.616C56.648 58.464 57.256 57.408 57.256 56.448C57.256 54.208 56.52 51.616 55.048 48.672C53.64 45.728 52.104 43.168 50.44 40.992C48.84 38.752 46.536 35.744 43.528 31.968C40.52 28.128 38.312 25.248 36.904 23.328C35.048 20.704 33.992 18.208 33.736 15.84C29.96 15.328 27.048 15.328 25 15.84C22.952 16.288 20.648 17.504 18.088 19.488C18.088 28.96 15.592 38.08 10.6 46.848C9.896 48.064 8.136 49.664 5.32 51.648C2.568 53.568 1.192 55.168 1.192 56.448ZM21.928 39.168C21.928 39.296 21.928 39.424 21.928 39.552L22.024 39.744C22.344 39.936 23.368 40.128 25.096 40.32C24.968 40.128 24.712 39.744 24.328 39.168C23.944 38.592 23.592 38.08 23.272 37.632C22.952 37.12 22.76 36.8 22.696 36.672C22.184 37.376 21.928 38.208 21.928 39.168ZM0.0399999 57.216C0.0399999 55.616 0.648 54.24 1.864 53.088C3.144 51.872 4.584 50.72 6.184 49.632C7.848 48.48 8.968 47.424 9.544 46.464C14.408 37.952 16.84 29.216 16.84 20.256V19.008C19.08 17.28 21.064 16.064 22.792 15.36C24.52 14.592 26.76 14.208 29.512 14.208C30.408 14.208 32.648 14.464 36.232 14.976C36.232 15.04 36.264 15.264 36.328 15.648C36.392 16.032 36.424 16.288 36.424 16.416C36.68 18.592 37.608 20.768 39.208 22.944C40.68 24.992 42.984 28 46.12 31.968C49.256 35.936 51.624 39.008 53.224 41.184C54.824 43.36 56.328 45.984 57.736 49.056C59.208 52.064 59.944 54.784 59.944 57.216C59.944 58.688 59.144 60.16 57.544 61.632C56.008 63.168 54.248 63.936 52.264 63.936C49.832 63.936 46.952 63.712 43.624 63.264C40.36 62.816 37.992 62.56 36.52 62.496L34.888 62.4C34.888 62.336 34.856 62.08 34.792 61.632C34.728 61.184 34.696 60.896 34.696 60.768C34.568 59.744 34.152 58.304 33.448 56.448C32.168 53.504 30.76 51.712 29.224 51.072C27.752 50.432 24.456 50.016 19.336 49.824C19.144 50.848 19.048 53.536 19.048 57.888C19.048 59.552 18.088 60.928 16.168 62.016C14.248 63.104 11.944 63.648 9.256 63.648C6.76 63.648 4.584 63.04 2.728 61.824C0.936 60.608 0.0399999 59.072 0.0399999 57.216ZM77.8428 44.16C78.2268 44.224 78.7388 44.256 79.3788 44.256C81.9388 44.256 83.2188 43.36 83.2188 41.568C83.2188 39.776 82.0668 38.624 79.7628 38.112C79.1228 40.8 78.4828 42.816 77.8428 44.16ZM57.8747 64.32L59.1227 60.384C61.3628 52.256 62.4828 44.672 62.4828 37.632C62.4828 30.592 62.0668 23.168 61.2348 15.36L61.0428 13.536L62.8668 13.056C64.0188 12.8 65.9068 12 68.5308 10.656C71.2188 9.312 74.0668 8.096 77.0748 7.008C80.0828 5.92 83.0268 5.376 85.9068 5.376C89.8748 5.376 93.2668 6.56 96.0828 8.928C98.8988 11.296 100.307 14.656 100.307 19.008C100.307 23.872 98.7068 27.648 95.5068 30.336C98.5148 31.616 101.011 33.44 102.995 35.808C104.979 38.112 105.971 40.864 105.971 44.064C105.971 50.272 103.667 55.072 99.0588 58.464C94.4508 61.856 88.9468 63.552 82.5468 63.552C80.4348 63.552 77.9068 63.168 74.9628 62.4C72.0188 61.632 70.0988 61.248 69.2028 61.248C67.9228 61.248 66.6748 61.344 65.4588 61.536C64.2428 61.792 63.4108 61.984 62.9628 62.112C62.5148 62.304 61.5868 62.688 60.1788 63.264C58.7708 63.904 58.0027 64.256 57.8747 64.32ZM74.3868 44.352C74.9628 43.52 75.5708 42.08 76.2108 40.032C76.9148 37.92 77.2668 36.288 77.2668 35.136C79.1868 35.136 80.8508 35.648 82.2588 36.672C83.6668 37.696 84.3708 39.072 84.3708 40.8C84.3708 43.872 82.4508 45.408 78.6108 45.408C76.8828 45.408 75.4748 45.056 74.3868 44.352ZM76.9788 22.848C78.3868 21.888 79.4428 21.408 80.1468 21.408C81.4268 21.408 82.0668 22.08 82.0668 23.424C82.0668 24.576 81.5228 25.696 80.4348 26.784C79.3468 27.872 78.2908 28.608 77.2668 28.992C77.0748 25.728 76.9788 23.68 76.9788 22.848ZM60.3708 60.096C62.8028 59.072 65.4908 58.56 68.4348 58.56C69.7148 58.56 71.7948 58.944 74.6748 59.712C77.6188 60.48 79.9868 60.864 81.7788 60.864C87.7948 60.864 92.8828 59.36 97.0428 56.352C101.203 53.28 103.283 48.928 103.283 43.296C103.283 39.968 102.003 37.184 99.4428 34.944C96.9468 32.64 93.9708 31.008 90.5148 30.048C93.0108 28.576 94.8028 27.008 95.8908 25.344C97.0428 23.616 97.6188 21.248 97.6188 18.24C97.6188 14.464 96.4028 11.584 93.9708 9.6C91.6028 7.552 88.6588 6.528 85.1388 6.528C82.5148 6.528 79.7628 7.104 76.8828 8.256C74.0668 9.344 71.3468 10.56 68.7228 11.904C66.0988 13.248 64.0188 14.048 62.4828 14.304C63.3788 22.688 63.8268 30.208 63.8268 36.864C63.8268 44.224 62.6748 51.968 60.3708 60.096ZM111.318 31.968C111.318 31.2 111.574 30.528 112.086 29.952C112.662 29.376 113.302 29.088 114.006 29.088C114.774 29.088 115.414 29.28 115.926 29.664C116.502 29.984 116.79 30.368 116.79 30.816C116.79 31.52 116.534 32.128 116.022 32.64C115.574 33.088 115.03 33.312 114.39 33.312C112.342 33.312 111.318 32.864 111.318 31.968ZM104.79 26.4C104.79 32.928 106.55 37.088 110.07 38.88L108.918 39.456C110.134 41.12 112.726 41.952 116.694 41.952C122.454 41.952 127.254 40.672 131.094 38.112C134.934 35.488 136.854 32.032 136.854 27.744C136.854 23.776 135.062 20.448 131.478 17.76C127.894 15.072 123.254 13.728 117.558 13.728C114.486 13.728 111.766 14.944 109.398 17.376C107.03 19.744 105.494 22.752 104.79 26.4ZM103.638 27.168V26.976V26.784C105.558 17.312 110.454 12.576 118.326 12.576C124.406 12.576 129.462 14.08 133.494 17.088C137.526 20.096 139.542 23.904 139.542 28.512C139.542 33.504 137.366 37.44 133.014 40.32C128.726 43.2 123.542 44.64 117.462 44.64C112.854 44.64 109.75 43.552 108.15 41.376L106.614 39.36L107.094 39.168C104.79 36.48 103.638 32.48 103.638 27.168ZM139.965 21.216C140.093 21.92 140.477 23.2 141.117 25.056C141.757 26.848 142.077 28.192 142.077 29.088C142.077 29.792 141.885 31.744 141.501 34.944C141.181 38.08 141.021 40.736 141.021 42.912C141.021 46.048 142.237 48.704 144.669 50.88C147.101 52.992 150.365 54.048 154.461 54.048C159.133 54.048 162.877 51.616 165.693 46.752C168.509 41.824 169.917 35.424 169.917 27.552C169.917 24.736 169.533 22.304 168.765 20.256C167.997 18.208 167.101 17.184 166.077 17.184C164.413 17.184 163.389 17.888 163.005 19.296C163.133 19.872 163.581 20.96 164.349 22.56C165.117 24.16 165.501 25.44 165.501 26.4C165.501 28.448 165.021 30.208 164.061 31.68C163.101 33.088 161.917 33.792 160.509 33.792C159.357 33.792 158.365 32.512 157.533 29.952C156.701 27.392 156.285 24.288 156.285 20.64C156.285 19.936 155.389 19.36 153.597 18.912C151.869 18.4 149.757 18.144 147.261 18.144C143.421 18.144 140.989 19.168 139.965 21.216ZM138.524 21.216L138.909 20.64C140.573 18.208 143.613 16.992 148.029 16.992C150.845 16.992 153.373 17.344 155.613 18.048C157.853 18.752 158.973 19.872 158.973 21.408C158.973 23.584 159.133 25.568 159.453 27.36C159.773 29.088 160.093 30.336 160.413 31.104C160.797 31.872 161.117 32.384 161.373 32.64C162.077 32.512 162.749 31.936 163.389 30.912C164.029 29.888 164.349 28.64 164.349 27.168C164.349 26.464 163.997 25.408 163.293 24C162.589 22.528 162.141 21.408 161.949 20.64C161.949 20.576 161.917 20.512 161.853 20.448C161.853 20.384 161.821 20.288 161.757 20.16C161.885 19.904 161.949 19.712 161.949 19.584C162.205 18.496 162.813 17.632 163.773 16.992C164.733 16.352 165.757 16.032 166.845 16.032C168.637 16.032 170.045 17.216 171.069 19.584C172.093 21.952 172.605 24.864 172.605 28.32C172.605 36.896 171.005 43.776 167.805 48.96C164.605 54.144 160.413 56.736 155.229 56.736C150.685 56.736 146.973 55.488 144.093 52.992C141.277 50.496 139.869 47.392 139.869 43.68C139.869 41.376 140.029 38.656 140.349 35.52C140.733 32.32 140.925 30.464 140.925 29.952C140.925 29.312 140.605 28.032 139.965 26.112C139.325 24.128 138.941 22.848 138.812 22.272L138.524 21.216ZM171.543 21.792C171.543 24.096 171.927 26.24 172.695 28.224C174.999 26.752 177.655 26.016 180.663 26.016C182.711 26.016 184.727 26.24 186.711 26.688C185.943 31.296 185.559 36.672 185.559 42.816C185.559 44.608 185.623 46.464 185.751 48.384C185.943 50.304 186.167 52.384 186.423 54.624C186.679 56.864 186.871 58.72 186.999 60.192C189.623 60.64 192.823 60.864 196.599 60.864C198.391 60.864 199.959 60.448 201.303 59.616C202.647 58.72 203.319 57.408 203.319 55.68C203.319 54.144 203.031 51.36 202.455 47.328C201.943 43.296 201.623 39.84 201.495 36.96C201.495 35.936 201.431 34.048 201.303 31.296C201.239 28.48 201.175 26.4 201.111 25.056C202.007 25.12 203.671 25.344 206.103 25.728C208.599 26.048 210.583 26.208 212.055 26.208C215.191 26.208 217.015 25.248 217.527 23.328C218.679 18.912 219.255 14.816 219.255 11.04C219.255 9.824 218.647 9.216 217.431 9.216C216.279 9.216 214.391 9.44 211.767 9.888C209.207 10.272 207.095 10.464 205.431 10.464C202.743 10.464 198.967 10.144 194.103 9.504C189.303 8.864 185.687 8.512 183.255 8.448C177.431 8.448 174.071 9.632 173.175 12C172.087 14.88 171.543 18.144 171.543 21.792ZM170.294 22.56C170.294 18.016 170.806 14.4 171.831 11.712C173.047 8.512 177.111 6.912 184.023 6.912C186.711 6.976 190.423 7.392 195.159 8.16C199.959 8.928 203.639 9.312 206.199 9.312C207.671 9.312 209.687 9.12 212.247 8.736C214.807 8.288 216.791 8.064 218.199 8.064C219.223 8.064 220.087 8.384 220.791 9.024C221.559 9.728 221.943 10.656 221.943 11.808C221.943 15.2 221.335 19.424 220.119 24.48C219.351 27.424 216.919 28.896 212.823 28.896C211.287 28.896 208.279 28.576 203.799 27.936C203.863 29.216 203.927 30.976 203.991 33.216C204.119 35.456 204.183 36.96 204.183 37.728C204.311 40.48 204.631 43.872 205.143 47.904C205.719 51.872 206.007 54.72 206.007 56.448C206.007 58.816 205.111 60.576 203.319 61.728C201.527 62.944 199.543 63.552 197.367 63.552C193.399 63.552 190.071 63.328 187.383 62.88L185.943 62.592L185.847 61.152C185.719 59.808 185.527 57.984 185.271 55.68C185.015 53.376 184.791 51.264 184.599 49.344C184.471 47.36 184.407 45.44 184.407 43.584C184.407 37.888 184.695 33.024 185.271 28.992C183.927 28.8 182.647 28.704 181.431 28.704C178.615 28.704 176.311 29.312 174.519 30.528L172.503 31.872L171.639 29.664C170.742 27.296 170.294 24.928 170.294 22.56ZM242.139 36.48C242.139 42.048 243.963 46.528 247.611 49.92C251.259 53.312 255.739 55.008 261.051 55.008C267.579 55.008 273.435 52.64 278.619 47.904C278.043 46.688 277.403 45.792 276.699 45.216C274.971 46.88 272.763 48.224 270.075 49.248C267.451 50.272 264.891 50.784 262.395 50.784C259.899 50.784 257.883 50.208 256.347 49.056C254.811 47.84 254.043 45.984 254.043 43.488C254.043 41.376 254.811 39.616 256.347 38.208C257.947 36.736 259.867 36 262.107 36C265.691 36 269.211 37.28 272.667 39.84C273.563 35.36 274.555 31.2 275.643 27.36C276.091 25.76 276.859 23.68 277.947 21.12C279.099 18.56 279.835 16.896 280.155 16.128H279.771C279.323 17.536 278.363 18.784 276.891 19.872C275.419 20.96 274.011 21.504 272.667 21.504C270.683 21.504 268.315 21.184 265.562 20.544C262.811 19.904 260.443 19.584 258.459 19.584C254.107 19.584 250.299 21.344 247.035 24.864C243.771 28.32 242.139 32.192 242.139 36.48ZM240.986 37.152C240.986 31.776 242.651 27.296 245.979 23.712C249.307 20.128 253.659 18.336 259.035 18.336C261.211 18.336 263.707 18.688 266.523 19.392C269.339 20.032 271.643 20.352 273.435 20.352C274.267 20.352 275.259 19.968 276.411 19.2C277.563 18.368 278.331 17.376 278.715 16.224C278.779 16.096 278.875 15.84 279.003 15.456L279.099 14.976H283.323C280.891 20.608 279.195 25.184 278.235 28.704C277.019 32.736 276.059 36.8 275.355 40.896C275.227 41.216 275.035 42.208 274.779 43.872C273.819 43.232 273.019 42.656 272.379 42.144C269.307 39.84 266.139 38.688 262.875 38.688C261.147 38.688 259.675 39.232 258.459 40.32C257.307 41.408 256.731 42.72 256.731 44.256C256.731 47.84 258.875 49.632 263.163 49.632C265.467 49.632 267.803 49.152 270.171 48.192C272.603 47.232 274.587 46.016 276.123 44.544C276.763 43.904 277.179 43.52 277.371 43.392L278.619 44.448C279.259 45.024 279.803 45.6 280.251 46.176C280.571 46.688 280.891 47.296 281.211 48C281.275 48.064 281.371 48.256 281.499 48.576C281.627 48.832 281.691 49.024 281.691 49.152L280.731 50.112C275.227 55.168 268.923 57.696 261.819 57.696C255.995 57.696 251.067 55.808 247.035 52.032C243.003 48.256 240.986 43.296 240.986 37.152ZM286.537 31.968C286.537 31.2 286.793 30.528 287.305 29.952C287.881 29.376 288.521 29.088 289.225 29.088C289.993 29.088 290.633 29.28 291.145 29.664C291.721 29.984 292.009 30.368 292.009 30.816C292.009 31.52 291.753 32.128 291.241 32.64C290.793 33.088 290.249 33.312 289.609 33.312C287.561 33.312 286.537 32.864 286.537 31.968ZM280.009 26.4C280.009 32.928 281.769 37.088 285.289 38.88L284.137 39.456C285.353 41.12 287.945 41.952 291.913 41.952C297.673 41.952 302.473 40.672 306.313 38.112C310.153 35.488 312.073 32.032 312.073 27.744C312.073 23.776 310.281 20.448 306.697 17.76C303.113 15.072 298.473 13.728 292.777 13.728C289.705 13.728 286.985 14.944 284.617 17.376C282.249 19.744 280.713 22.752 280.009 26.4ZM278.857 27.168V26.976V26.784C280.777 17.312 285.673 12.576 293.545 12.576C299.625 12.576 304.681 14.08 308.713 17.088C312.745 20.096 314.761 23.904 314.761 28.512C314.761 33.504 312.585 37.44 308.233 40.32C303.945 43.2 298.761 44.64 292.681 44.64C288.073 44.64 284.969 43.552 283.369 41.376L281.833 39.36L282.313 39.168C280.009 36.48 278.857 32.48 278.857 27.168ZM309.918 38.496C309.918 40.032 310.494 42.848 311.646 46.944C312.798 50.976 313.662 53.664 314.238 55.008C315.262 57.632 316.798 59.872 318.846 61.728C320.958 63.648 323.294 64.608 325.854 64.608C328.222 62.816 330.558 59.52 332.862 54.72C335.166 49.856 337.054 45.184 338.526 40.704C339.998 36.224 340.862 32.96 341.118 30.912L341.598 27.84C341.598 25.472 340.894 24.288 339.486 24.288C337.182 24.288 335.166 24.512 333.438 24.96C331.134 25.536 329.662 26.72 329.022 28.512C326.526 35.552 324.958 40.608 324.318 43.68L320.574 32.832C318.846 33.152 317.182 33.632 315.582 34.272C313.214 35.232 311.678 36.032 310.974 36.672C310.27 37.248 309.918 37.856 309.918 38.496ZM308.669 39.072C308.669 37.984 309.181 36.96 310.206 36C311.23 35.04 312.574 34.272 314.238 33.696C315.902 33.056 317.374 32.576 318.654 32.256C319.998 31.872 321.31 31.584 322.59 31.392L324.798 38.016L327.87 28.704C328.702 26.144 330.622 24.512 333.63 23.808C335.55 23.36 337.758 23.136 340.254 23.136C341.47 23.136 342.43 23.648 343.134 24.672C343.902 25.696 344.286 27.008 344.286 28.608C344.286 29.248 344.094 30.56 343.71 32.544C343.39 34.464 342.494 37.728 341.022 42.336C339.55 46.88 337.662 51.552 335.358 56.352C332.798 61.472 330.11 65.12 327.294 67.296C323.582 67.296 320.574 66.176 318.27 63.936C315.966 61.696 314.27 59.2 313.182 56.448L312.702 55.008C312.382 53.984 311.998 52.8 311.55 51.456C311.102 50.048 310.654 48.576 310.206 47.04C309.758 45.504 309.406 44 309.149 42.528C308.829 41.056 308.669 39.904 308.669 39.072ZM341.87 18.528C341.87 16.544 342.927 15.552 345.039 15.552C349.071 16.512 352.879 16.992 356.463 16.992C361.135 16.992 366.447 16.768 372.399 16.32C372.463 16.32 372.591 16.32 372.783 16.32C373.039 16.256 373.199 16.224 373.263 16.224C373.391 16.416 373.487 16.544 373.551 16.608C373.615 16.608 373.647 16.64 373.647 16.704C373.711 16.704 373.807 16.8 373.935 16.992C375.855 19.168 376.815 21.856 376.815 25.056C376.815 27.168 376.335 29.76 375.375 32.832C375.311 32.96 375.183 33.408 374.991 34.176C374.799 34.88 374.671 35.296 374.607 35.424C374.415 35.36 374.031 35.104 373.455 34.656C372.943 34.144 372.591 33.856 372.399 33.792C370.927 32.64 369.007 32.064 366.639 32.064C366.447 32.064 366.255 32.064 366.062 32.064C365.935 32.064 365.839 32.096 365.775 32.16C365.711 32.16 365.647 32.16 365.583 32.16H365.487C366.639 33.696 367.215 35.712 367.215 38.208C367.215 38.976 367.151 40.32 367.023 42.24C367.023 42.304 366.991 42.432 366.927 42.624C366.927 42.816 366.927 42.944 366.927 43.008L366.351 43.584C368.399 43.008 370.351 41.888 372.207 40.224C372.335 40.096 372.623 39.808 373.071 39.36C373.583 38.912 373.903 38.624 374.031 38.496L375.183 40.8C376.335 43.296 376.911 46.08 376.911 49.152C376.911 52.672 376.623 55.36 376.047 57.216C375.983 57.344 375.887 57.568 375.759 57.888C375.695 58.144 375.663 58.336 375.663 58.464L374.415 58.56C368.271 59.072 362.447 59.328 356.943 59.328C352.271 59.328 348.047 59.2 344.271 58.944C344.143 58.944 343.791 58.944 343.215 58.944C342.703 58.88 342.383 58.848 342.255 58.848L342.447 56.832C342.639 55.104 342.895 53.088 343.215 50.784C343.599 48.416 343.887 46.336 344.079 44.544C344.271 42.688 344.367 40.736 344.367 38.688C344.367 31.648 343.535 24.928 341.87 18.528ZM343.407 18.816C344.815 24.64 345.519 30.624 345.519 36.768C345.519 39.328 345.391 41.824 345.135 44.256C344.943 46.688 344.655 49.152 344.271 51.648C343.887 54.08 343.663 55.616 343.599 56.256C347.375 56.512 351.567 56.64 356.174 56.64C361.551 56.64 367.311 56.384 373.455 55.872C373.967 54.08 374.223 51.584 374.223 48.384C374.223 45.504 373.711 43.008 372.687 40.896C369.615 43.648 366.127 45.024 362.223 45.024C359.663 45.024 357.231 44.672 354.927 43.968C354.927 43.392 355.151 42.592 355.599 41.568C357.263 42.272 358.543 42.624 359.439 42.624C361.551 42.624 363.183 42.176 364.335 41.28C364.463 39.36 364.527 38.08 364.527 37.44C364.527 35.392 364.079 33.76 363.183 32.544C360.431 33.248 358.159 33.6 356.367 33.6C356.175 32.896 356.079 32 356.079 30.912C360.239 29.888 363.503 29.376 365.871 29.376C368.431 29.376 370.735 30.08 372.783 31.488C373.679 28.672 374.127 26.272 374.127 24.288C374.127 21.6 373.327 19.328 371.727 17.472C365.775 17.92 360.431 18.144 355.695 18.144C353.583 18.144 351.343 17.984 348.975 17.664C346.671 17.344 345.359 17.184 345.039 17.184C343.951 17.184 343.407 17.728 343.407 18.816ZM393.66 27.168C395.644 27.168 397.276 27.328 398.556 27.648C399.9 27.968 400.572 28.384 400.572 28.896C400.572 29.728 400.284 30.4 399.708 30.912C399.196 31.36 398.524 31.712 397.692 31.968C396.924 32.224 395.964 32.448 394.812 32.64C394.492 32.704 394.268 32.736 394.14 32.736L393.66 27.168ZM376.188 58.656C381.116 59.68 386.524 60.192 392.412 60.192C393.436 60.192 394.204 59.84 394.716 59.136C395.292 58.432 395.58 57.568 395.58 56.544C395.58 49.824 395.164 43.68 394.332 38.112C397.788 40.608 400.06 43.36 401.148 46.368C402.236 49.312 402.78 54.176 402.78 60.96C404.508 62.24 406.492 62.88 408.732 62.88C412.38 62.88 415.42 61.312 417.852 58.176C420.284 55.04 421.628 51.616 421.884 47.904C419.196 47.904 417.212 47.488 415.932 46.656C414.652 45.824 413.788 44.352 413.34 42.24C412.828 39.744 411.804 37.76 410.268 36.288C408.732 34.752 406.716 33.984 404.22 33.984C408.188 32.896 411.356 31.136 413.724 28.704C416.156 26.208 417.372 23.296 417.372 19.968C417.372 17.344 416.188 15.072 413.82 13.152C411.516 11.168 408.732 10.176 405.468 10.176C402.972 10.176 399.836 11.04 396.06 12.768C392.284 14.432 389.148 15.264 386.652 15.264C385.692 15.264 384.796 15.232 383.964 15.168C383.132 15.04 382.204 14.912 381.18 14.784C380.156 14.656 379.26 14.56 378.492 14.496C378.62 16.416 378.812 18.816 379.068 21.696C379.324 24.512 379.516 27.04 379.644 29.28C379.836 31.52 379.932 33.92 379.932 36.48C379.932 39.04 379.74 41.472 379.355 43.776C378.972 46.08 378.428 48.64 377.724 51.456C377.02 54.208 376.508 56.608 376.188 58.656ZM374.747 60.96L375.035 59.136C375.419 57.024 375.932 54.56 376.572 51.744C377.276 48.928 377.82 46.432 378.204 44.256C378.588 42.08 378.78 39.744 378.78 37.248C378.78 34.752 378.684 32.384 378.492 30.144C378.364 27.904 378.172 25.376 377.916 22.56C377.66 19.744 377.468 17.344 377.34 15.36C377.34 15.168 377.308 14.784 377.244 14.208C377.18 13.632 377.148 13.28 377.148 13.152C377.276 13.152 377.66 13.184 378.3 13.248C378.94 13.312 379.324 13.344 379.452 13.344C380.156 13.408 381.372 13.568 383.1 13.824C384.828 14.016 386.268 14.112 387.42 14.112C389.596 14.112 392.604 13.28 396.444 11.616C400.284 9.888 403.548 9.024 406.236 9.024C409.948 9.024 413.18 10.208 415.932 12.576C418.684 14.88 420.06 17.6 420.06 20.736C420.06 26.56 416.988 31.136 410.844 34.464C413.532 36.192 415.26 38.912 416.028 42.624C416.348 44.16 416.924 45.248 417.756 45.888C418.652 46.464 420.284 46.752 422.652 46.752H424.667C424.667 46.816 424.635 47.136 424.572 47.712C424.572 48.288 424.572 48.64 424.572 48.768C424.252 52.928 422.716 56.768 419.964 60.288C417.212 63.808 413.724 65.568 409.5 65.568C406.812 65.568 404.444 64.8 402.396 63.264C402.332 63.264 402.204 63.168 402.012 62.976C401.82 62.784 401.692 62.688 401.628 62.688V61.728C401.628 56.544 401.34 52.672 400.764 50.112C400.252 47.552 399.228 45.376 397.692 43.584C398.076 47.232 398.268 51.808 398.268 57.312C398.268 58.784 397.82 60.064 396.924 61.152C396.028 62.304 394.78 62.88 393.18 62.88C387.228 62.88 381.692 62.368 376.572 61.344L374.747 60.96ZM419.793 21.792C419.793 24.096 420.177 26.24 420.945 28.224C423.249 26.752 425.905 26.016 428.913 26.016C430.961 26.016 432.977 26.24 434.961 26.688C434.193 31.296 433.809 36.672 433.809 42.816C433.809 44.608 433.873 46.464 434.001 48.384C434.193 50.304 434.417 52.384 434.673 54.624C434.929 56.864 435.121 58.72 435.249 60.192C437.873 60.64 441.073 60.864 444.849 60.864C446.641 60.864 448.209 60.448 449.553 59.616C450.897 58.72 451.569 57.408 451.569 55.68C451.569 54.144 451.281 51.36 450.705 47.328C450.193 43.296 449.873 39.84 449.745 36.96C449.745 35.936 449.681 34.048 449.553 31.296C449.489 28.48 449.425 26.4 449.361 25.056C450.257 25.12 451.921 25.344 454.353 25.728C456.849 26.048 458.833 26.208 460.305 26.208C463.441 26.208 465.265 25.248 465.777 23.328C466.929 18.912 467.505 14.816 467.505 11.04C467.505 9.824 466.897 9.216 465.681 9.216C464.529 9.216 462.641 9.44 460.017 9.888C457.457 10.272 455.345 10.464 453.681 10.464C450.993 10.464 447.217 10.144 442.353 9.504C437.553 8.864 433.937 8.512 431.505 8.448C425.681 8.448 422.321 9.632 421.425 12C420.337 14.88 419.793 18.144 419.793 21.792ZM418.544 22.56C418.544 18.016 419.056 14.4 420.081 11.712C421.297 8.512 425.361 6.912 432.273 6.912C434.961 6.976 438.673 7.392 443.409 8.16C448.209 8.928 451.889 9.312 454.449 9.312C455.921 9.312 457.937 9.12 460.497 8.736C463.057 8.288 465.041 8.064 466.449 8.064C467.473 8.064 468.337 8.384 469.041 9.024C469.809 9.728 470.193 10.656 470.193 11.808C470.193 15.2 469.585 19.424 468.369 24.48C467.601 27.424 465.169 28.896 461.073 28.896C459.537 28.896 456.529 28.576 452.049 27.936C452.113 29.216 452.177 30.976 452.241 33.216C452.369 35.456 452.433 36.96 452.433 37.728C452.561 40.48 452.881 43.872 453.393 47.904C453.969 51.872 454.257 54.72 454.257 56.448C454.257 58.816 453.361 60.576 451.569 61.728C449.777 62.944 447.793 63.552 445.617 63.552C441.649 63.552 438.321 63.328 435.633 62.88L434.193 62.592L434.097 61.152C433.969 59.808 433.777 57.984 433.521 55.68C433.265 53.376 433.041 51.264 432.849 49.344C432.721 47.36 432.657 45.44 432.657 43.584C432.657 37.888 432.945 33.024 433.521 28.992C432.177 28.8 430.897 28.704 429.681 28.704C426.865 28.704 424.561 29.312 422.769 30.528L420.753 31.872L419.889 29.664C418.992 27.296 418.544 24.928 418.544 22.56ZM490.389 36.48C490.389 42.048 492.213 46.528 495.861 49.92C499.509 53.312 503.989 55.008 509.301 55.008C515.829 55.008 521.685 52.64 526.869 47.904C526.293 46.688 525.653 45.792 524.949 45.216C523.221 46.88 521.013 48.224 518.325 49.248C515.701 50.272 513.141 50.784 510.645 50.784C508.149 50.784 506.133 50.208 504.597 49.056C503.061 47.84 502.293 45.984 502.293 43.488C502.293 41.376 503.061 39.616 504.597 38.208C506.197 36.736 508.117 36 510.357 36C513.941 36 517.461 37.28 520.917 39.84C521.813 35.36 522.805 31.2 523.893 27.36C524.341 25.76 525.109 23.68 526.197 21.12C527.349 18.56 528.085 16.896 528.405 16.128H528.021C527.573 17.536 526.613 18.784 525.141 19.872C523.669 20.96 522.261 21.504 520.917 21.504C518.933 21.504 516.565 21.184 513.812 20.544C511.061 19.904 508.693 19.584 506.709 19.584C502.357 19.584 498.549 21.344 495.285 24.864C492.021 28.32 490.389 32.192 490.389 36.48ZM489.236 37.152C489.236 31.776 490.901 27.296 494.229 23.712C497.557 20.128 501.909 18.336 507.285 18.336C509.461 18.336 511.957 18.688 514.773 19.392C517.589 20.032 519.893 20.352 521.685 20.352C522.517 20.352 523.509 19.968 524.661 19.2C525.813 18.368 526.581 17.376 526.965 16.224C527.029 16.096 527.125 15.84 527.253 15.456L527.349 14.976H531.573C529.141 20.608 527.445 25.184 526.485 28.704C525.269 32.736 524.309 36.8 523.605 40.896C523.477 41.216 523.285 42.208 523.029 43.872C522.069 43.232 521.269 42.656 520.629 42.144C517.557 39.84 514.389 38.688 511.125 38.688C509.397 38.688 507.925 39.232 506.709 40.32C505.557 41.408 504.981 42.72 504.981 44.256C504.981 47.84 507.125 49.632 511.413 49.632C513.717 49.632 516.053 49.152 518.421 48.192C520.853 47.232 522.837 46.016 524.373 44.544C525.013 43.904 525.429 43.52 525.621 43.392L526.869 44.448C527.509 45.024 528.053 45.6 528.501 46.176C528.821 46.688 529.141 47.296 529.461 48C529.525 48.064 529.621 48.256 529.749 48.576C529.877 48.832 529.941 49.024 529.941 49.152L528.981 50.112C523.477 55.168 517.173 57.696 510.069 57.696C504.245 57.696 499.317 55.808 495.285 52.032C491.253 48.256 489.236 43.296 489.236 37.152ZM531.567 56.352C532.335 56.608 533.167 56.8 534.063 56.928C535.023 57.056 536.591 57.248 538.767 57.504C541.007 57.696 543.183 57.952 545.295 58.272C545.999 54.112 546.383 50.528 546.447 47.52C553.359 47.328 556.943 47.232 557.199 47.232C557.071 48.192 556.687 49.568 556.047 51.36C555.471 53.152 555.183 54.496 555.183 55.392C555.183 56.416 555.535 57.248 556.239 57.888C556.943 58.464 557.807 58.752 558.831 58.752C562.863 58.752 567.023 59.136 571.311 59.904C571.311 59.52 571.087 56.992 570.639 52.32C570.191 47.584 569.967 43.872 569.967 41.184C569.967 33.312 571.055 25.376 573.231 17.376C568.879 15.968 565.039 15.264 561.711 15.264C560.367 15.264 559.279 15.68 558.447 16.512C557.615 17.344 557.199 18.464 557.199 19.872V36.96C556.303 37.024 554.863 37.216 552.879 37.536C550.895 37.792 549.519 37.92 548.751 37.92C548.175 37.92 547.599 37.76 547.023 37.44C546.447 37.12 546.159 36.736 546.159 36.288C546.159 33.536 547.151 26.688 549.135 15.744C543.759 15.744 537.999 16.928 531.855 19.296C532.559 24.736 532.911 31.2 532.911 38.688C532.911 45.088 532.463 50.976 531.567 56.352ZM530.223 58.368L530.511 56.832C531.343 51.84 531.759 46.048 531.759 39.456C531.759 32.48 531.375 26.112 530.607 20.352C530.607 20.288 530.575 20 530.511 19.488C530.447 18.976 530.415 18.688 530.415 18.624L531.855 18.144C538.447 15.584 544.463 14.304 549.903 14.304H552.207C552.207 14.752 552.079 15.616 551.823 16.896C549.903 27.328 548.911 33.92 548.847 36.672C549.039 36.736 549.263 36.768 549.519 36.768C550.031 36.768 551.183 36.64 552.975 36.384C554.767 36.128 555.791 36 556.047 36C556.047 34.4 556.015 31.904 555.951 28.512C555.951 25.056 555.951 22.368 555.951 20.448C555.951 18.528 556.527 16.992 557.679 15.84C558.831 14.624 560.367 14.016 562.287 14.016C565.743 14.016 569.839 14.784 574.575 16.32C574.959 16.512 575.535 16.704 576.303 16.896C576.303 17.024 576.239 17.344 576.111 17.856C575.983 18.304 575.887 18.592 575.823 18.72C573.711 26.336 572.655 34.08 572.655 41.952C572.655 44.512 572.879 48.16 573.327 52.896C573.775 57.568 573.999 60.16 573.999 60.672V62.976C573.359 62.848 572.591 62.72 571.695 62.592C567.535 61.824 563.503 61.44 559.599 61.44C558.063 61.44 556.751 60.96 555.663 60C554.575 58.976 554.031 57.696 554.031 56.16C554.031 55.2 554.511 53.184 555.471 50.112C553.999 50.176 551.887 50.208 549.135 50.208C549.071 51.488 548.655 54.528 547.887 59.328C547.887 59.456 547.855 59.776 547.791 60.288C547.727 60.8 547.663 61.12 547.599 61.248C546.831 61.056 546.223 60.96 545.775 60.96C544.047 60.704 542.287 60.48 540.495 60.288C538.703 60.096 537.359 59.968 536.463 59.904C535.631 59.776 534.799 59.648 533.967 59.52C533.135 59.328 532.399 59.136 531.759 58.944L530.223 58.368ZM575.612 23.04C577.788 25.792 578.876 30.976 578.876 38.592C578.876 40.064 578.684 42.208 578.3 45.024C577.916 47.84 577.532 50.4 577.148 52.704C576.764 54.944 576.572 56.096 576.572 56.16C577.788 55.968 579.068 55.872 580.412 55.872C581.82 55.872 583.452 55.936 585.308 56.064C587.164 56.128 588.668 56.16 589.82 56.16C590.844 56.16 591.676 55.872 592.316 55.296C592.956 54.656 593.276 53.824 593.276 52.8C593.276 52.544 592.956 51.072 592.316 48.384C591.676 45.632 591.356 43.904 591.356 43.2C591.356 41.344 591.58 38.656 592.028 35.136C592.476 31.616 592.7 28.448 592.7 25.632C592.7 24.224 592.252 23.104 591.356 22.272C590.524 21.44 589.436 21.024 588.092 21.024C585.724 21.024 581.564 21.696 575.612 23.04ZM578.108 12.768C578.108 14.304 578.62 15.648 579.644 16.8C580.668 17.888 581.884 18.432 583.292 18.432C585.724 18.432 587.772 17.728 589.436 16.32C591.1 14.912 591.932 13.088 591.932 10.848C591.932 7.584 589.884 5.952 585.788 5.952C583.676 5.952 581.852 6.592 580.316 7.872C578.844 9.088 578.108 10.72 578.108 12.768ZM573.692 23.712L573.788 22.464C578.14 21.376 580.732 20.768 581.564 20.64C580.22 20.064 579.1 19.136 578.204 17.856C577.372 16.512 576.956 15.072 576.956 13.536C576.956 10.976 577.884 8.896 579.74 7.296C581.596 5.632 583.868 4.8 586.556 4.8C589.18 4.8 591.164 5.44 592.508 6.72C593.916 8 594.62 9.632 594.62 11.616C594.62 15.456 592.86 18.24 589.34 19.968C591.068 20.096 592.508 20.768 593.66 21.984C594.812 23.136 595.388 24.608 595.388 26.4C595.388 29.28 595.164 32.512 594.716 36.096C594.268 39.616 594.044 42.24 594.044 43.968C594.044 44.352 594.364 45.888 595.004 48.576C595.644 51.2 595.964 52.864 595.964 53.568C595.964 55.168 595.42 56.448 594.332 57.408C593.308 58.368 592.06 58.848 590.588 58.848C589.372 58.848 587.804 58.816 585.884 58.752C583.964 58.624 582.332 58.56 580.988 58.56C579.708 58.56 578.524 58.656 577.436 58.848L575.516 59.136L575.324 57.216C575.324 56.704 575.708 54.048 576.476 49.248C577.308 44.448 577.724 41.152 577.724 39.36C577.724 36.288 577.5 33.728 577.052 31.68C576.668 29.568 576.252 28.064 575.804 27.168C575.356 26.208 574.652 25.056 573.692 23.712ZM596.507 53.76C596.507 54.4 596.859 55.104 597.563 55.872C598.267 56.64 599.355 57.312 600.827 57.888C603.131 58.336 606.459 58.496 610.811 58.368L617.627 41.856C618.971 46.464 621.307 50.656 624.635 54.432C628.795 51.296 631.675 47.52 633.275 43.104C633.851 45.152 634.971 48.608 636.635 53.472C638.299 58.336 639.291 60.992 639.611 61.44C640.571 60.288 641.883 59.392 643.547 58.752C645.275 58.048 646.811 57.6 648.155 57.408C649.563 57.216 650.779 56.8 651.803 56.16C652.891 55.456 653.435 54.432 653.435 53.088C653.051 50.976 652.507 48.288 651.803 45.024C651.099 41.696 649.755 36.736 647.771 30.144C645.851 23.488 644.059 18.976 642.395 16.608C637.083 16.608 633.435 16.704 631.451 16.896L624.635 30.24C624.315 30.88 624.059 30.976 623.867 30.528C623.291 29.632 622.139 27.296 620.411 23.52C618.683 19.744 617.371 17.568 616.475 16.992L609.851 17.184C607.611 17.184 606.395 17.536 606.203 18.24C605.499 20.16 603.707 26.176 600.827 36.288C597.947 46.4 596.507 52.224 596.507 53.76ZM595.355 54.528C595.355 52.928 596.699 47.36 599.387 37.824C602.075 28.288 603.963 21.824 605.051 18.432C605.243 17.856 605.371 17.504 605.435 17.376C605.499 17.248 605.979 16.992 606.875 16.608C607.771 16.224 609.019 16.032 610.619 16.032C612.283 16.032 613.659 16.032 614.747 16.032C615.835 15.968 616.571 15.936 616.955 15.936C617.403 15.872 617.691 15.84 617.819 15.84C618.587 16.288 619.259 16.896 619.835 17.664C620.411 18.432 620.859 19.2 621.179 19.968C621.563 20.672 622.107 21.856 622.811 23.52C623.579 25.12 624.251 26.528 624.827 27.744C628.411 20.704 630.427 16.704 630.875 15.744C633.563 15.552 638.011 15.456 644.219 15.456C646.267 18.4 648.283 23.072 650.267 29.472C652.251 35.872 653.723 41.536 654.683 46.464L656.123 53.856C656.123 55.648 655.547 57.056 654.395 58.08C653.307 59.04 652.027 59.648 650.555 59.904C649.083 60.096 647.483 60.48 645.755 61.056C644.027 61.632 642.747 62.432 641.915 63.456L640.379 65.376L638.843 63.36C638.331 62.72 636.603 57.952 633.659 49.056C631.931 51.808 629.083 54.72 625.115 57.792C622.107 54.336 619.867 51.072 618.395 48L612.923 60.96L611.675 61.056C607.515 61.184 603.963 60.992 601.019 60.48C599.227 59.84 597.819 58.976 596.795 57.888C595.835 56.8 595.355 55.68 595.355 54.528ZM670.389 33.12C670.389 31.584 670.645 30.144 671.157 28.8C672.309 28.8 673.397 28.992 674.421 29.376C675.509 29.696 676.053 30.272 676.053 31.104C676.053 32.256 675.509 33.248 674.421 34.08C673.333 34.912 672.053 35.328 670.581 35.328C670.453 34.432 670.389 33.696 670.389 33.12ZM654.549 56.352C654.549 58.912 656.949 60.192 661.749 60.192C664.501 60.192 666.965 59.616 669.141 58.464C670.485 55.776 671.157 52.416 671.157 48.384C671.157 45.888 671.029 43.2 670.773 40.32C673.077 40.896 675.957 41.184 679.413 41.184C684.533 41.184 689.205 39.52 693.429 36.192C697.717 32.8 699.861 28.192 699.861 22.368C699.861 18.272 698.229 14.912 694.965 12.288C691.765 9.6 687.861 8.256 683.253 8.256C680.117 8.256 675.829 9.344 670.389 11.52C665.013 13.696 660.501 15.008 656.853 15.456C656.277 15.584 655.989 16 655.989 16.704C655.989 19.328 656.181 22.656 656.565 26.688C657.013 30.656 657.237 34.112 657.237 37.056C657.237 39.36 657.013 42.048 656.565 45.12C656.117 48.128 655.669 50.72 655.221 52.896C654.773 55.008 654.549 56.16 654.549 56.352ZM673.077 33.888C674.229 33.376 674.837 32.8 674.901 32.16C674.389 31.904 673.845 31.744 673.269 31.68C673.141 32.256 673.077 32.992 673.077 33.888ZM653.397 57.12C653.397 56.864 653.621 55.648 654.069 53.472C654.517 51.232 654.965 48.64 655.413 45.696C655.861 42.688 656.085 40.064 656.085 37.824C656.085 35.008 655.861 31.616 655.413 27.648C655.029 23.616 654.837 20.224 654.837 17.472C654.837 15.616 655.573 14.56 657.045 14.304C660.693 13.856 665.237 12.544 670.677 10.368C676.181 8.128 680.629 7.008 684.021 7.008C689.077 7.008 693.429 8.544 697.077 11.616C700.725 14.624 702.549 18.464 702.549 23.136C702.549 29.536 700.213 34.592 695.541 38.304C690.869 42.016 685.749 43.872 680.181 43.872C677.557 43.872 675.381 43.744 673.653 43.488C673.781 45.024 673.845 46.912 673.845 49.152C673.845 53.504 673.109 57.152 671.637 60.096L671.349 60.672L670.773 60.96C668.405 62.24 665.653 62.88 662.517 62.88C659.125 62.88 656.757 62.304 655.413 61.152C654.069 60 653.397 58.656 653.397 57.12ZM729.787 47.328C729.787 46.432 730.075 45.664 730.651 45.024C731.291 44.384 732.059 44.064 732.955 44.064C733.851 44.064 734.619 44.256 735.259 44.64C735.899 45.024 736.219 45.536 736.219 46.176C736.219 47.008 735.931 47.744 735.355 48.384C734.843 48.96 734.171 49.248 733.339 49.248C732.379 49.248 731.547 49.056 730.843 48.672C730.139 48.288 729.787 47.84 729.787 47.328ZM723.259 41.76C723.259 48.288 725.019 52.448 728.539 54.24L727.387 54.816C728.347 56.096 729.755 57.12 731.611 57.888C733.467 58.656 735.323 59.04 737.179 59.04C743.131 59.04 747.963 57.632 751.675 54.816C755.387 51.936 757.243 48.032 757.243 43.104C757.243 39.008 755.259 35.488 751.291 32.544C747.323 29.6 742.555 28.128 736.987 28.128C733.659 28.128 730.715 29.44 728.155 32.064C725.659 34.624 724.027 37.856 723.259 41.76ZM732.475 47.712C732.987 47.968 733.531 48.096 734.107 48.096C734.747 48.096 735.067 47.776 735.067 47.136C734.811 46.88 734.363 46.752 733.723 46.752C733.019 46.752 732.603 47.072 732.475 47.712ZM722.107 42.528V42.336V42.144C723.003 37.472 724.827 33.792 727.579 31.104C730.395 28.352 733.787 26.976 737.755 26.976C743.771 26.976 748.955 28.608 753.307 31.872C757.723 35.072 759.931 39.072 759.931 43.872C759.931 49.248 757.915 53.568 753.883 56.832C749.915 60.096 744.603 61.728 737.947 61.728C735.899 61.728 733.787 61.28 731.611 60.384C729.499 59.552 727.835 58.336 726.619 56.736C725.659 55.456 725.147 54.784 725.083 54.72C725.147 54.72 725.211 54.72 725.275 54.72C725.403 54.656 725.499 54.592 725.563 54.528C723.259 51.904 722.107 47.904 722.107 42.528ZM775.202 33.12C775.202 31.584 775.458 30.144 775.97 28.8C777.122 28.8 778.21 28.992 779.234 29.376C780.322 29.696 780.866 30.272 780.866 31.104C780.866 32.256 780.322 33.248 779.234 34.08C778.146 34.912 776.866 35.328 775.394 35.328C775.266 34.432 775.202 33.696 775.202 33.12ZM759.362 56.352C759.362 58.912 761.762 60.192 766.562 60.192C769.314 60.192 771.778 59.616 773.954 58.464C775.298 55.776 775.97 52.416 775.97 48.384C775.97 45.888 775.842 43.2 775.586 40.32C777.89 40.896 780.77 41.184 784.226 41.184C789.346 41.184 794.018 39.52 798.242 36.192C802.53 32.8 804.674 28.192 804.674 22.368C804.674 18.272 803.042 14.912 799.778 12.288C796.578 9.6 792.674 8.256 788.066 8.256C784.93 8.256 780.642 9.344 775.202 11.52C769.826 13.696 765.314 15.008 761.666 15.456C761.09 15.584 760.802 16 760.802 16.704C760.802 19.328 760.994 22.656 761.378 26.688C761.826 30.656 762.05 34.112 762.05 37.056C762.05 39.36 761.826 42.048 761.378 45.12C760.93 48.128 760.482 50.72 760.034 52.896C759.586 55.008 759.362 56.16 759.362 56.352ZM777.89 33.888C779.042 33.376 779.65 32.8 779.714 32.16C779.202 31.904 778.658 31.744 778.082 31.68C777.954 32.256 777.89 32.992 777.89 33.888ZM758.21 57.12C758.21 56.864 758.434 55.648 758.882 53.472C759.33 51.232 759.778 48.64 760.226 45.696C760.674 42.688 760.898 40.064 760.898 37.824C760.898 35.008 760.674 31.616 760.226 27.648C759.842 23.616 759.65 20.224 759.65 17.472C759.65 15.616 760.386 14.56 761.858 14.304C765.506 13.856 770.05 12.544 775.49 10.368C780.994 8.128 785.442 7.008 788.834 7.008C793.89 7.008 798.242 8.544 801.89 11.616C805.538 14.624 807.362 18.464 807.362 23.136C807.362 29.536 805.026 34.592 800.354 38.304C795.682 42.016 790.562 43.872 784.994 43.872C782.37 43.872 780.194 43.744 778.466 43.488C778.594 45.024 778.658 46.912 778.658 49.152C778.658 53.504 777.922 57.152 776.45 60.096L776.162 60.672L775.586 60.96C773.218 62.24 770.466 62.88 767.33 62.88C763.938 62.88 761.57 62.304 760.226 61.152C758.882 60 758.21 58.656 758.21 57.12ZM806.811 58.176C807.899 58.368 809.307 58.688 811.035 59.136C812.763 59.584 814.331 59.936 815.739 60.192C817.211 60.512 818.651 60.672 820.059 60.672C824.347 60.672 827.995 59.36 831.003 56.736C834.075 54.112 835.611 50.944 835.611 47.232C835.611 44.928 834.907 42.88 833.499 41.088C832.091 39.296 830.235 38.048 827.931 37.344C824.795 36.384 823.035 35.616 822.651 35.04C822.523 34.784 822.459 34.56 822.459 34.368C822.459 33.792 822.907 33.504 823.803 33.504C825.659 33.504 827.323 33.728 828.795 34.176C829.627 28.032 831.163 22.88 833.403 18.72C826.875 17.44 822.011 16.8 818.811 16.8C815.931 16.8 813.403 17.632 811.227 19.296C809.051 20.96 807.963 22.944 807.963 25.248C807.963 28.64 809.307 31.776 811.995 34.656C814.747 37.6 816.123 40.736 816.123 44.064C816.123 45.28 815.739 46.336 814.971 47.232C814.203 48.064 813.275 48.48 812.187 48.48C811.675 48.48 811.163 48.384 810.651 48.192C810.139 47.936 809.563 47.616 808.923 47.232C808.283 46.784 807.771 46.464 807.387 46.272L806.811 58.176ZM805.562 60.48L806.235 46.944C806.235 46.752 806.267 46.272 806.331 45.504C806.395 44.672 806.427 44.16 806.427 43.968L809.115 45.312C809.563 45.568 810.075 45.888 810.651 46.272C811.227 46.592 811.675 46.848 811.995 47.04C812.379 47.232 812.699 47.328 812.955 47.328C813.467 47.328 813.915 47.104 814.299 46.656C814.747 46.144 814.971 45.536 814.971 44.832C814.971 42.144 813.755 39.456 811.323 36.768C808.315 33.504 806.811 29.92 806.811 26.016C806.811 22.688 808.059 20.128 810.555 18.336C813.115 16.544 816.123 15.648 819.579 15.648C822.971 15.648 827.963 16.288 834.555 17.568C834.747 17.632 835.195 17.76 835.899 17.952C836.603 18.08 837.019 18.144 837.147 18.144C837.083 18.336 836.891 18.72 836.571 19.296C836.251 19.872 836.027 20.224 835.899 20.352C833.659 24.512 832.187 29.472 831.483 35.232C831.483 35.296 831.419 35.584 831.291 36.096C831.227 36.608 831.195 36.928 831.195 37.056C833.371 38.144 835.099 39.648 836.379 41.568C837.659 43.488 838.299 45.632 838.299 48C838.299 52.288 836.571 55.936 833.115 58.944C829.659 61.888 825.563 63.36 820.827 63.36C819.291 63.36 817.851 63.232 816.507 62.976C815.163 62.72 813.563 62.368 811.707 61.92C809.915 61.472 808.411 61.12 807.195 60.864L805.562 60.48Z" fill="white"/>
</svg>
