<svg width="248" height="76" viewBox="0 0 248 76" fill="none" xmlns="http://www.w3.org/2000/svg">
<path d="M125.282 12.9179L128.811 11.3441H132.089L136.374 12.131L138 12.5L139.4 11.8687L140.408 11.0818L141.164 9.50806H141.921L137.887 22.6229L133.601 21.0491L130.828 21.3114L129.064 23.6721L130.355 26.8197L133 27L135 26.8197L137 26L140 24L141.164 26.0328L139.5 28.5L134.61 30.2295H129.568L125.03 28.1311L123.517 26.0328L122.509 23.6721L122.005 21.0491L122.257 18.1639L123.517 15.5409L125.282 12.9179Z" fill="#FDDA21"/>
<path d="M40.5004 51.5L43.5004 49.5H47.0004L51.0004 50.5H53.0004L54.7517 49.8875L55.7184 48.575L56.0004 48H57.0004L52.8979 60.125L48.5389 58.8125L45.7184 59.075L43.9235 61.4375L45.2056 64.85L47.2568 65.375L49.0004 65L52.1286 64.325L55.2056 62.225L56.2312 63.8L54.6927 66.6875L49.5645 68H44.4363L40 65.5L37.5 61.4375V56L38.5 53.5L40.5004 51.5Z" fill="#FDDA21"/>
<path d="M190.486 9.01761L195.936 9.26982L202.872 7L206.697 7.21243L209.517 9.3754L210.678 11.8711L209.517 16.0793L206.199 19.0256L208.322 23.3931L210.346 25.8473L213 26.18L210.678 32.6689L206.697 34L202.55 33.229L202.129 28.1849L201.386 24.9063L200.394 23.1851H199.398L199.73 29.3413L199.398 32.6689L189 31.968L190.239 26.18L190.982 20.6189L190.734 14.0616L190.486 9.01761Z" fill="#FDDA21"/>
<path d="M171.613 61.8851C171.613 66.8104 166.387 70.5409 162.067 70.5409C157.194 70.5409 153.5 66.4252 153.5 61.4999C154 56.9998 157.744 53.213 162.5 53.9999C167.324 54.2622 171.613 56.9598 171.613 61.8851Z" fill="#FDDA21"/>
<path d="M158.056 15.5411C158.056 20.4664 153.873 24 149 24C142.95 24 141.165 20.4664 141.165 15.5411C141.921 12.1312 143.627 8.5 148.5 8.5C152.786 9.54919 158.056 10.6158 158.056 15.5411Z" fill="#FDDA21"/>
<path d="M70.5 15.5C70.5 20.3459 66.7901 24 61.597 24C55.1493 24 53.5 20.3459 53.5 15.5C54.306 12.1452 55.8069 8.5 61 8.5C65.5672 9.53226 70.5 10.6541 70.5 15.5Z" fill="#FDDA21"/>
<path d="M58.3013 49.4872L62.5862 47.9946L67.0415 47.6656L66.2069 56.6505L66.5 58.5L70.5 58L70.4405 51.9712L71 48.5L71.5 48L72.5 47.5H76L79 48V48.8082L78.362 54.1157L77.724 59.4232L78.2759 70.5L69.7931 69.1935L69.6312 67.7031V66.7903L70.2786 64.0599H66.7178L65.2611 69.5247L58 68.5L58.625 59.2576L58.3013 49.4872Z" fill="#FDDA21"/>
<path d="M213.02 6.73636L215.545 6H218.702L227.414 6.98182L234.737 6.24545L236 7.47273L235.495 11.6455L234.232 15.3273H226.909L227.162 18.0273L227.919 31.0364L223.626 33L218.828 32.5091L218.323 26.8636L218.071 21.9545L218.576 16.0636L214.535 15.8182L212.01 16.8L211.253 16.0636L211 12.1364L211.758 8.20909L212 7.5L213.02 6.73636Z" fill="#FDDA21"/>
<path d="M89.0202 6.76364L91.5455 6H94.702L103.414 7.01818L110.737 6.25455L112 7.52727L111.495 11.8545L110.232 15.6727H102.909L103.162 18.4727L103.919 31.9636L99.5 33.4909L94.5758 33L94.0707 27.5L93.5 22.5L94.2407 16.1818H90.5354L88.0101 17.2L87.2525 16.4364L87 12.3636L87.5 8.5L88 7.5L89.0202 6.76364Z" fill="#FDDA21"/>
<path d="M89 45.7302C89 48.0187 87.1257 49.8739 84.9523 49.8739C82.6137 50.4571 81.0171 48.9545 81.0171 46.666C80.7511 43.7498 83.8267 42.5 86 42.5C88.0238 43.1094 89 43.4417 89 45.7302Z" fill="#FDDA21"/>
<path d="M80 51.0133L86.6667 50L88.9744 50.76L89.4872 53.5467L88.9744 61.1467L89.5 68.5L80.5 69L81.5385 61.9067V57.0933L80 51.0133Z" fill="#FDDA21"/>
<path d="M95.0844 48.7826L96.6098 48.2609H100.932L104.491 54.7826L108.305 48H114.661L118.728 61.0435L120 68.8696L115.5 70L112.118 72L108.813 63.913L105 68.5L101.186 63.1304L98.3895 70.4348L93 70L90.5 68L90.2539 66L91.0166 63.3913L95.0844 48.7826Z" fill="#FDDA21"/>
<path d="M172.972 47.7129L177.116 46.4971L183.338 44.338L186.468 44L190.951 44.6755L195 48.5566L194.676 54.294L192.732 57.8377L189.817 60.0314L185.768 61.0439H181.556L180.423 68.975L177.669 71L174.43 70.6625L172.826 70.4698L171.5 68.5L173.313 58.9829L172.826 52.2406L172.731 48.7446L172.5 48L172.972 47.7129Z" fill="#FDDA21"/>
<path d="M120.5 47.5L123 47L125.5 46.5L128.5 45L131 44.5L134 44L138 44.5L142.232 47.7049L142.5 53.5136L140.529 57.2228L137.571 59.519L133.464 60.5788L131.36 61.2967L129.193 60.5788L128.043 68.8804L125.25 71L121.964 70.6467L120.337 70.445L119.5 68.8804L120.831 58.4215L120.337 51.3642L120 49L120.5 47.5Z" fill="#FDDA21"/>
<path d="M173 10L178 11L184 10.5H187.5L189 12.7831L188.508 17.5904L187.5 18L185 17L183.585 17.5904L184.323 22.6506L183.338 23.1566L184.077 23.6627L185.554 23.4096L187.769 21.8916L188.262 22.6506L188.508 23.4096L188.754 25.1807V29.988L182.846 31H177.923L172.5 30.5L173.5 27L174 20L173.5 15L173 12V10Z" fill="#FDDA21"/>
<path d="M156 20.6667L157.545 19.0238L162 18L163.727 21.7619L166.045 15.1905L167 14.5L169 14L171.5 14L172.5 14.5L171.5 23L167 33L164.5 35.5L160.121 33.5357L158.318 29.9762L157.03 25.869L156 20.6667Z" fill="#FDDA21"/>
<path d="M196.5 51L197.361 49.5165L199.5 48.5L202.344 48L210.213 49.011L208.639 52.8022L207.59 58.3626L210.213 60.6374L211 63.4176L210.213 67.967L206.803 69.989L203.131 71L195.5 70L196 62.5L197.098 63.6703H199.197L200 63L199.984 62.1538L199.197 59.1209L196.049 54.8242L196.5 51Z" fill="#FDDA21"/>
<path d="M71 12.2338L72.6854 11.2468L75.5 10.5L79.5 11.5L80.75 16.6753L82 18.8961L83 18L83.75 16.6753V15.1948L83.25 13.4675L82.5 11.5L83.25 10.7361L84.5 10.5L85.75 11.2468L87 16.6753L85 26.5455L81.25 30L76.5 29.7532L73.5 28.2727L71.5 24.3247L72.25 17.4156L71 12.2338Z" fill="#FDDA21"/>
<path d="M10 11.5L14 9.5H17L19 10L20.5702 13.7097L27 22L30.5 28.5L30 32.5L25.5 33L19.807 32.2581L19 32L18 29L16 27L10.5 26.5L9.63158 33L2 32.2581L1.5 30.5L2 29.5L3.5 27.5L6 26L8.5 21.5L10 11.5Z" fill="#FDDA21"/>
<path d="M32.7586 8.75L39.5 6L42 5H46.1609L49.5 7.5L51.2184 10.5L48.5 17L52.9885 20.25L54 25.25L51.7241 30.5L44.6437 33L31 32.5L33.2644 20.5L32 9.5L32.7586 8.75Z" fill="#FDDA21"/>
<path d="M10.9169 21.2C10.9169 20.592 11.0609 20.048 11.3489 19.568C11.6689 19.088 12.0849 18.8 12.5969 18.704L15.7649 23.552L15.5729 23.648C15.1569 23.264 14.8369 23.04 14.6129 22.976C14.1969 22.88 13.6849 22.8 13.0769 22.736C12.5009 22.64 12.0849 22.56 11.8289 22.496C11.6049 22.432 11.3969 22.304 11.2049 22.112C11.0129 21.92 10.9169 21.616 10.9169 21.2ZM1.89288 30.224C1.89288 30.832 2.24488 31.36 2.94888 31.808C3.65288 32.256 4.51688 32.48 5.54088 32.48C6.62888 32.48 7.55688 32.288 8.32488 31.904C9.09288 31.52 9.47688 31.072 9.47688 30.56C9.47688 28.192 9.58888 26.512 9.81288 25.52C12.8849 25.616 14.9009 25.872 15.8609 26.288C16.8529 26.672 17.7329 27.744 18.5009 29.504C18.9489 30.656 19.1889 31.456 19.2209 31.904C20.0209 31.968 21.2369 32.096 22.8689 32.288C24.5009 32.512 25.8929 32.624 27.0449 32.624C27.7809 32.624 28.4369 32.352 29.0129 31.808C29.6209 31.232 29.9249 30.704 29.9249 30.224C29.9249 29.104 29.5569 27.808 28.8209 26.336C28.1169 24.864 27.3489 23.584 26.5169 22.496C25.7169 21.376 24.5649 19.872 23.0609 17.984C21.5569 16.064 20.4529 14.624 19.7489 13.664C18.8209 12.352 18.2929 11.104 18.1649 9.92C16.2769 9.664 14.8209 9.664 13.7969 9.92C12.7729 10.144 11.6209 10.752 10.3409 11.744C10.3409 16.48 9.09288 21.04 6.59688 25.424C6.24488 26.032 5.36488 26.832 3.95688 27.824C2.58088 28.784 1.89288 29.584 1.89288 30.224ZM12.2609 21.584C12.2609 21.648 12.2609 21.712 12.2609 21.776L12.3089 21.872C12.4689 21.968 12.9809 22.064 13.8449 22.16C13.7809 22.064 13.6529 21.872 13.4609 21.584C13.2689 21.296 13.0929 21.04 12.9329 20.816C12.7729 20.56 12.6769 20.4 12.6449 20.336C12.3889 20.688 12.2609 21.104 12.2609 21.584ZM1.31687 30.608C1.31687 29.808 1.62087 29.12 2.22888 28.544C2.86888 27.936 3.58888 27.36 4.38888 26.816C5.22088 26.24 5.78088 25.712 6.06888 25.232C8.50088 20.976 9.71688 16.608 9.71688 12.128V11.504C10.8369 10.64 11.8289 10.032 12.6929 9.68C13.5569 9.296 14.6769 9.104 16.0529 9.104C16.5009 9.104 17.6209 9.232 19.4129 9.488C19.4129 9.52 19.4289 9.632 19.4609 9.824C19.4929 10.016 19.5089 10.144 19.5089 10.208C19.6369 11.296 20.1009 12.384 20.9009 13.472C21.6369 14.496 22.7889 16 24.3569 17.984C25.9249 19.968 27.1089 21.504 27.9089 22.592C28.7089 23.68 29.4609 24.992 30.1649 26.528C30.9009 28.032 31.2689 29.392 31.2689 30.608C31.2689 31.344 30.8689 32.08 30.0689 32.816C29.3009 33.584 28.4209 33.968 27.4289 33.968C26.2129 33.968 24.7729 33.856 23.1089 33.632C21.4769 33.408 20.2929 33.28 19.5569 33.248L18.7409 33.2C18.7409 33.168 18.7249 33.04 18.6929 32.816C18.6609 32.592 18.6449 32.448 18.6449 32.384C18.5809 31.872 18.3729 31.152 18.0209 30.224C17.3809 28.752 16.6769 27.856 15.9089 27.536C15.1729 27.216 13.5249 27.008 10.9649 26.912C10.8689 27.424 10.8209 28.768 10.8209 30.944C10.8209 31.776 10.3409 32.464 9.38088 33.008C8.42088 33.552 7.26888 33.824 5.92488 33.824C4.67688 33.824 3.58888 33.52 2.66088 32.912C1.76487 32.304 1.31687 31.536 1.31687 30.608ZM40.2183 24.08C40.4103 24.112 40.6663 24.128 40.9863 24.128C42.2663 24.128 42.9062 23.68 42.9062 22.784C42.9062 21.888 42.3303 21.312 41.1783 21.056C40.8583 22.4 40.5383 23.408 40.2183 24.08ZM30.2342 34.16L30.8582 32.192C31.9783 28.128 32.5383 24.336 32.5383 20.816C32.5383 17.296 32.3303 13.584 31.9143 9.68L31.8183 8.768L32.7303 8.528C33.3063 8.4 34.2503 8 35.5623 7.328C36.9063 6.656 38.3303 6.048 39.8343 5.504C41.3383 4.96 42.8103 4.688 44.2503 4.688C46.2343 4.688 47.9303 5.28 49.3383 6.464C50.7463 7.648 51.4503 9.328 51.4503 11.504C51.4503 13.936 50.6503 15.824 49.0503 17.168C50.5543 17.808 51.8023 18.72 52.7943 19.904C53.7863 21.056 54.2823 22.432 54.2823 24.032C54.2823 27.136 53.1303 29.536 50.8263 31.232C48.5223 32.928 45.7703 33.776 42.5703 33.776C41.5143 33.776 40.2503 33.584 38.7783 33.2C37.3063 32.816 36.3463 32.624 35.8983 32.624C35.2583 32.624 34.6343 32.672 34.0263 32.768C33.4183 32.896 33.0023 32.992 32.7783 33.056C32.5543 33.152 32.0903 33.344 31.3863 33.632C30.6823 33.952 30.2982 34.128 30.2342 34.16ZM38.4903 24.176C38.7783 23.76 39.0823 23.04 39.4023 22.016C39.7543 20.96 39.9303 20.144 39.9303 19.568C40.8903 19.568 41.7223 19.824 42.4263 20.336C43.1303 20.848 43.4823 21.536 43.4823 22.4C43.4823 23.936 42.5223 24.704 40.6023 24.704C39.7383 24.704 39.0343 24.528 38.4903 24.176ZM39.7863 13.424C40.4903 12.944 41.0183 12.704 41.3703 12.704C42.0103 12.704 42.3303 13.04 42.3303 13.712C42.3303 14.288 42.0583 14.848 41.5143 15.392C40.9703 15.936 40.4423 16.304 39.9303 16.496C39.8343 14.864 39.7863 13.84 39.7863 13.424ZM31.4823 32.048C32.6983 31.536 34.0423 31.28 35.5143 31.28C36.1543 31.28 37.1943 31.472 38.6343 31.856C40.1063 32.24 41.2903 32.432 42.1863 32.432C45.1943 32.432 47.7383 31.68 49.8183 30.176C51.8983 28.64 52.9383 26.464 52.9383 23.648C52.9383 21.984 52.2983 20.592 51.0183 19.472C49.7703 18.32 48.2823 17.504 46.5543 17.024C47.8023 16.288 48.6983 15.504 49.2423 14.672C49.8183 13.808 50.1063 12.624 50.1063 11.12C50.1063 9.232 49.4983 7.792 48.2823 6.8C47.0983 5.776 45.6263 5.264 43.8663 5.264C42.5543 5.264 41.1783 5.552 39.7383 6.128C38.3303 6.672 36.9703 7.28 35.6583 7.952C34.3463 8.624 33.3063 9.024 32.5383 9.152C32.9863 13.344 33.2103 17.104 33.2103 20.432C33.2103 24.112 32.6343 27.984 31.4823 32.048ZM56.956 17.984C56.956 17.6 57.084 17.264 57.34 16.976C57.628 16.688 57.948 16.544 58.3 16.544C58.684 16.544 59.004 16.64 59.26 16.832C59.548 16.992 59.692 17.184 59.692 17.408C59.692 17.76 59.564 18.064 59.308 18.32C59.084 18.544 58.812 18.656 58.492 18.656C57.468 18.656 56.956 18.432 56.956 17.984ZM53.692 15.2C53.692 18.464 54.572 20.544 56.332 21.44L55.756 21.728C56.364 22.56 57.66 22.976 59.644 22.976C62.524 22.976 64.924 22.336 66.844 21.056C68.764 19.744 69.724 18.016 69.724 15.872C69.724 13.888 68.828 12.224 67.036 10.88C65.244 9.536 62.924 8.864 60.076 8.864C58.54 8.864 57.18 9.472 55.996 10.688C54.812 11.872 54.044 13.376 53.692 15.2ZM53.116 15.584V15.488V15.392C54.076 10.656 56.524 8.288 60.46 8.288C63.5 8.288 66.028 9.04 68.044 10.544C70.06 12.048 71.068 13.952 71.068 16.256C71.068 18.752 69.98 20.72 67.804 22.16C65.66 23.6 63.068 24.32 60.028 24.32C57.724 24.32 56.172 23.776 55.372 22.688L54.604 21.68L54.844 21.584C53.692 20.24 53.116 18.24 53.116 15.584ZM71.2791 12.608C71.3431 12.96 71.5351 13.6 71.8551 14.528C72.1751 15.424 72.3351 16.096 72.3351 16.544C72.3351 16.896 72.2391 17.872 72.0471 19.472C71.8871 21.04 71.8071 22.368 71.8071 23.456C71.8071 25.024 72.4151 26.352 73.6311 27.44C74.8471 28.496 76.4791 29.024 78.5271 29.024C80.8631 29.024 82.7351 27.808 84.1431 25.376C85.5511 22.912 86.2551 19.712 86.2551 15.776C86.2551 14.368 86.0631 13.152 85.6791 12.128C85.2951 11.104 84.8471 10.592 84.3351 10.592C83.5031 10.592 82.9911 10.944 82.7991 11.648C82.8631 11.936 83.0871 12.48 83.4711 13.28C83.8551 14.08 84.0471 14.72 84.0471 15.2C84.0471 16.224 83.8071 17.104 83.3271 17.84C82.8471 18.544 82.2551 18.896 81.5511 18.896C80.9751 18.896 80.4791 18.256 80.0631 16.976C79.6471 15.696 79.4391 14.144 79.4391 12.32C79.4391 11.968 78.9911 11.68 78.0951 11.456C77.2311 11.2 76.1751 11.072 74.9271 11.072C73.0071 11.072 71.7911 11.584 71.2791 12.608ZM70.5591 12.608L70.7511 12.32C71.5831 11.104 73.1031 10.496 75.3111 10.496C76.7191 10.496 77.9831 10.672 79.1031 11.024C80.2231 11.376 80.7831 11.936 80.7831 12.704C80.7831 13.792 80.8631 14.784 81.0231 15.68C81.1831 16.544 81.3431 17.168 81.5031 17.552C81.6951 17.936 81.8551 18.192 81.9831 18.32C82.3351 18.256 82.6711 17.968 82.9911 17.456C83.3111 16.944 83.4711 16.32 83.4711 15.584C83.4711 15.232 83.2951 14.704 82.9431 14C82.5911 13.264 82.3671 12.704 82.2711 12.32C82.2711 12.288 82.2551 12.256 82.2231 12.224C82.2231 12.192 82.2071 12.144 82.1751 12.08C82.2391 11.952 82.2711 11.856 82.2711 11.792C82.3991 11.248 82.7031 10.816 83.1831 10.496C83.6631 10.176 84.1751 10.016 84.7191 10.016C85.6151 10.016 86.3191 10.608 86.8311 11.792C87.3431 12.976 87.5991 14.432 87.5991 16.16C87.5991 20.448 86.7991 23.888 85.1991 26.48C83.5991 29.072 81.5031 30.368 78.9111 30.368C76.6391 30.368 74.7831 29.744 73.3431 28.496C71.9351 27.248 71.2311 25.696 71.2311 23.84C71.2311 22.688 71.3111 21.328 71.4711 19.76C71.6631 18.16 71.7591 17.232 71.7591 16.976C71.7591 16.656 71.5991 16.016 71.2791 15.056C70.9591 14.064 70.7671 13.424 70.7031 13.136L70.5591 12.608ZM87.0681 12.896C87.0681 14.048 87.2601 15.12 87.6441 16.112C88.7961 15.376 90.1241 15.008 91.6281 15.008C92.6521 15.008 93.6601 15.12 94.6521 15.344C94.2681 17.648 94.0761 20.336 94.0761 23.408C94.0761 24.304 94.1081 25.232 94.1721 26.192C94.2681 27.152 94.3801 28.192 94.5081 29.312C94.6361 30.432 94.7321 31.36 94.7961 32.096C96.1081 32.32 97.7081 32.432 99.5961 32.432C100.492 32.432 101.276 32.224 101.948 31.808C102.62 31.36 102.956 30.704 102.956 29.84C102.956 29.072 102.812 27.68 102.524 25.664C102.268 23.648 102.108 21.92 102.044 20.48C102.044 19.968 102.012 19.024 101.948 17.648C101.916 16.24 101.884 15.2 101.852 14.528C102.3 14.56 103.132 14.672 104.348 14.864C105.596 15.024 106.588 15.104 107.324 15.104C108.892 15.104 109.804 14.624 110.06 13.664C110.636 11.456 110.924 9.408 110.924 7.52C110.924 6.912 110.62 6.608 110.012 6.608C109.436 6.608 108.492 6.72 107.18 6.944C105.9 7.136 104.844 7.232 104.012 7.232C102.668 7.232 100.78 7.072 98.3481 6.752C95.9481 6.432 94.1401 6.256 92.9241 6.224C90.0121 6.224 88.3321 6.816 87.8841 8C87.3401 9.44 87.0681 11.072 87.0681 12.896ZM86.4441 13.28C86.4441 11.008 86.7001 9.2 87.2121 7.856C87.8201 6.256 89.8521 5.456 93.3081 5.456C94.6521 5.488 96.5081 5.696 98.8761 6.08C101.276 6.464 103.116 6.656 104.396 6.656C105.132 6.656 106.14 6.56 107.42 6.368C108.7 6.144 109.692 6.032 110.396 6.032C110.908 6.032 111.34 6.192 111.692 6.512C112.076 6.864 112.268 7.328 112.268 7.904C112.268 9.6 111.964 11.712 111.356 14.24C110.972 15.712 109.756 16.448 107.708 16.448C106.94 16.448 105.436 16.288 103.196 15.968C103.228 16.608 103.26 17.488 103.292 18.608C103.356 19.728 103.388 20.48 103.388 20.864C103.452 22.24 103.612 23.936 103.868 25.952C104.156 27.936 104.3 29.36 104.3 30.224C104.3 31.408 103.852 32.288 102.956 32.864C102.06 33.472 101.068 33.776 99.9801 33.776C97.9961 33.776 96.3321 33.664 94.9881 33.44L94.2681 33.296L94.2201 32.576C94.1561 31.904 94.0601 30.992 93.9321 29.84C93.8041 28.688 93.6921 27.632 93.5961 26.672C93.5321 25.68 93.5001 24.72 93.5001 23.792C93.5001 20.944 93.6441 18.512 93.9321 16.496C93.2601 16.4 92.6201 16.352 92.0121 16.352C90.6041 16.352 89.4521 16.656 88.5561 17.264L87.5481 17.936L87.1161 16.832C86.6681 15.648 86.4441 14.464 86.4441 13.28ZM122.366 20.24C122.366 23.024 123.278 25.264 125.102 26.96C126.926 28.656 129.166 29.504 131.822 29.504C135.086 29.504 138.014 28.32 140.606 25.952C140.318 25.344 139.998 24.896 139.646 24.608C138.782 25.44 137.678 26.112 136.334 26.624C135.022 27.136 133.742 27.392 132.494 27.392C131.246 27.392 130.238 27.104 129.47 26.528C128.702 25.92 128.318 24.992 128.318 23.744C128.318 22.688 128.702 21.808 129.47 21.104C130.27 20.368 131.23 20 132.35 20C134.142 20 135.902 20.64 137.63 21.92C138.078 19.68 138.574 17.6 139.118 15.68C139.342 14.88 139.726 13.84 140.27 12.56C140.846 11.28 141.214 10.448 141.374 10.064H141.182C140.958 10.768 140.478 11.392 139.742 11.936C139.006 12.48 138.302 12.752 137.63 12.752C136.638 12.752 135.454 12.592 134.078 12.272C132.702 11.952 131.518 11.792 130.526 11.792C128.35 11.792 126.446 12.672 124.814 14.432C123.182 16.16 122.366 18.096 122.366 20.24ZM121.79 20.576C121.79 17.888 122.622 15.648 124.286 13.856C125.95 12.064 128.126 11.168 130.814 11.168C131.902 11.168 133.15 11.344 134.558 11.696C135.966 12.016 137.118 12.176 138.014 12.176C138.43 12.176 138.926 11.984 139.502 11.6C140.078 11.184 140.462 10.688 140.654 10.112C140.686 10.048 140.734 9.92 140.798 9.728L140.846 9.488H142.958C141.742 12.304 140.894 14.592 140.414 16.352C139.806 18.368 139.326 20.4 138.974 22.448C138.91 22.608 138.814 23.104 138.686 23.936C138.206 23.616 137.806 23.328 137.486 23.072C135.95 21.92 134.366 21.344 132.734 21.344C131.87 21.344 131.134 21.616 130.526 22.16C129.95 22.704 129.662 23.36 129.662 24.128C129.662 25.92 130.734 26.816 132.878 26.816C134.03 26.816 135.198 26.576 136.382 26.096C137.598 25.616 138.59 25.008 139.358 24.272C139.678 23.952 139.886 23.76 139.982 23.696L140.606 24.224C140.926 24.512 141.198 24.8 141.422 25.088C141.582 25.344 141.742 25.648 141.902 26C141.934 26.032 141.982 26.128 142.046 26.288C142.11 26.416 142.142 26.512 142.142 26.576L141.662 27.056C138.91 29.584 135.758 30.848 132.206 30.848C129.294 30.848 126.83 29.904 124.814 28.016C122.798 26.128 121.79 23.648 121.79 20.576ZM144.565 17.984C144.565 17.6 144.693 17.264 144.949 16.976C145.237 16.688 145.557 16.544 145.909 16.544C146.293 16.544 146.613 16.64 146.869 16.832C147.157 16.992 147.301 17.184 147.301 17.408C147.301 17.76 147.173 18.064 146.917 18.32C146.693 18.544 146.421 18.656 146.101 18.656C145.077 18.656 144.565 18.432 144.565 17.984ZM141.301 15.2C141.301 18.464 142.181 20.544 143.941 21.44L143.365 21.728C143.973 22.56 145.269 22.976 147.253 22.976C150.133 22.976 152.533 22.336 154.453 21.056C156.373 19.744 157.333 18.016 157.333 15.872C157.333 13.888 156.437 12.224 154.645 10.88C152.853 9.536 150.533 8.864 147.685 8.864C146.149 8.864 144.789 9.472 143.605 10.688C142.421 11.872 141.653 13.376 141.301 15.2ZM140.725 15.584V15.488V15.392C141.685 10.656 144.133 8.288 148.069 8.288C151.109 8.288 153.637 9.04 155.653 10.544C157.669 12.048 158.677 13.952 158.677 16.256C158.677 18.752 157.589 20.72 155.413 22.16C153.269 23.6 150.677 24.32 147.637 24.32C145.333 24.32 143.781 23.776 142.981 22.688L142.213 21.68L142.453 21.584C141.301 20.24 140.725 18.24 140.725 15.584ZM156.256 21.248C156.256 22.016 156.544 23.424 157.12 25.472C157.696 27.488 158.128 28.832 158.416 29.504C158.928 30.816 159.696 31.936 160.72 32.864C161.776 33.824 162.944 34.304 164.224 34.304C165.408 33.408 166.576 31.76 167.728 29.36C168.88 26.928 169.824 24.592 170.56 22.352C171.296 20.112 171.728 18.48 171.856 17.456L172.096 15.92C172.096 14.736 171.744 14.144 171.04 14.144C169.888 14.144 168.88 14.256 168.016 14.48C166.864 14.768 166.128 15.36 165.808 16.256C164.56 19.776 163.776 22.304 163.456 23.84L161.584 18.416C160.72 18.576 159.888 18.816 159.088 19.136C157.904 19.616 157.136 20.016 156.784 20.336C156.432 20.624 156.256 20.928 156.256 21.248ZM155.632 21.536C155.632 20.992 155.888 20.48 156.4 20C156.912 19.52 157.584 19.136 158.416 18.848C159.248 18.528 159.984 18.288 160.624 18.128C161.296 17.936 161.952 17.792 162.592 17.696L163.696 21.008L165.232 16.352C165.648 15.072 166.608 14.256 168.112 13.904C169.072 13.68 170.176 13.568 171.424 13.568C172.032 13.568 172.512 13.824 172.864 14.336C173.248 14.848 173.44 15.504 173.44 16.304C173.44 16.624 173.344 17.28 173.152 18.272C172.992 19.232 172.544 20.864 171.808 23.168C171.072 25.44 170.128 27.776 168.976 30.176C167.696 32.736 166.352 34.56 164.944 35.648C163.088 35.648 161.584 35.088 160.432 33.968C159.28 32.848 158.432 31.6 157.888 30.224L157.648 29.504C157.488 28.992 157.296 28.4 157.072 27.728C156.848 27.024 156.624 26.288 156.4 25.52C156.176 24.752 156 24 155.872 23.264C155.712 22.528 155.632 21.952 155.632 21.536ZM172.232 11.264C172.232 10.272 172.76 9.776 173.816 9.776C175.832 10.256 177.736 10.496 179.528 10.496C181.864 10.496 184.52 10.384 187.496 10.16C187.528 10.16 187.592 10.16 187.688 10.16C187.816 10.128 187.896 10.112 187.928 10.112C187.992 10.208 188.04 10.272 188.072 10.304C188.104 10.304 188.12 10.32 188.12 10.352C188.152 10.352 188.2 10.4 188.264 10.496C189.224 11.584 189.704 12.928 189.704 14.528C189.704 15.584 189.464 16.88 188.984 18.416C188.952 18.48 188.888 18.704 188.792 19.088C188.696 19.44 188.632 19.648 188.6 19.712C188.504 19.68 188.312 19.552 188.024 19.328C187.768 19.072 187.592 18.928 187.496 18.896C186.76 18.32 185.8 18.032 184.616 18.032C184.52 18.032 184.424 18.032 184.328 18.032C184.264 18.032 184.216 18.048 184.184 18.08C184.152 18.08 184.12 18.08 184.088 18.08H184.04C184.616 18.848 184.904 19.856 184.904 21.104C184.904 21.488 184.872 22.16 184.808 23.12C184.808 23.152 184.792 23.216 184.76 23.312C184.76 23.408 184.76 23.472 184.76 23.504L184.472 23.792C185.496 23.504 186.472 22.944 187.4 22.112C187.464 22.048 187.608 21.904 187.832 21.68C188.088 21.456 188.248 21.312 188.312 21.248L188.888 22.4C189.464 23.648 189.752 25.04 189.752 26.576C189.752 28.336 189.608 29.68 189.32 30.608C189.288 30.672 189.24 30.784 189.176 30.944C189.144 31.072 189.128 31.168 189.128 31.232L188.504 31.28C185.432 31.536 182.52 31.664 179.768 31.664C177.432 31.664 175.32 31.6 173.432 31.472C173.368 31.472 173.192 31.472 172.904 31.472C172.648 31.44 172.488 31.424 172.424 31.424L172.52 30.416C172.616 29.552 172.744 28.544 172.904 27.392C173.096 26.208 173.24 25.168 173.336 24.272C173.432 23.344 173.48 22.368 173.48 21.344C173.48 17.824 173.064 14.464 172.232 11.264ZM173 11.408C173.704 14.32 174.056 17.312 174.056 20.384C174.056 21.664 173.992 22.912 173.864 24.128C173.768 25.344 173.624 26.576 173.432 27.824C173.24 29.04 173.128 29.808 173.096 30.128C174.984 30.256 177.08 30.32 179.384 30.32C182.072 30.32 184.952 30.192 188.024 29.936C188.28 29.04 188.408 27.792 188.408 26.192C188.408 24.752 188.152 23.504 187.64 22.448C186.104 23.824 184.36 24.512 182.408 24.512C181.128 24.512 179.912 24.336 178.76 23.984C178.76 23.696 178.872 23.296 179.096 22.784C179.928 23.136 180.568 23.312 181.016 23.312C182.072 23.312 182.888 23.088 183.464 22.64C183.528 21.68 183.56 21.04 183.56 20.72C183.56 19.696 183.336 18.88 182.888 18.272C181.512 18.624 180.376 18.8 179.48 18.8C179.384 18.448 179.336 18 179.336 17.456C181.416 16.944 183.048 16.688 184.232 16.688C185.512 16.688 186.664 17.04 187.688 17.744C188.136 16.336 188.36 15.136 188.36 14.144C188.36 12.8 187.96 11.664 187.16 10.736C184.184 10.96 181.512 11.072 179.144 11.072C178.088 11.072 176.968 10.992 175.784 10.832C174.632 10.672 173.976 10.592 173.816 10.592C173.272 10.592 173 10.864 173 11.408ZM198.127 15.584C199.119 15.584 199.935 15.664 200.575 15.824C201.247 15.984 201.583 16.192 201.583 16.448C201.583 16.864 201.439 17.2 201.151 17.456C200.895 17.68 200.559 17.856 200.143 17.984C199.759 18.112 199.279 18.224 198.703 18.32C198.543 18.352 198.431 18.368 198.367 18.368L198.127 15.584ZM189.391 31.328C191.855 31.84 194.559 32.096 197.503 32.096C198.015 32.096 198.399 31.92 198.655 31.568C198.943 31.216 199.087 30.784 199.087 30.272C199.087 26.912 198.879 23.84 198.463 21.056C200.191 22.304 201.327 23.68 201.871 25.184C202.415 26.656 202.687 29.088 202.687 32.48C203.551 33.12 204.543 33.44 205.663 33.44C207.487 33.44 209.007 32.656 210.223 31.088C211.439 29.52 212.111 27.808 212.239 25.952C210.895 25.952 209.903 25.744 209.263 25.328C208.623 24.912 208.191 24.176 207.967 23.12C207.711 21.872 207.199 20.88 206.431 20.144C205.663 19.376 204.655 18.992 203.407 18.992C205.391 18.448 206.975 17.568 208.159 16.352C209.375 15.104 209.983 13.648 209.983 11.984C209.983 10.672 209.391 9.536 208.207 8.576C207.055 7.584 205.663 7.088 204.031 7.088C202.783 7.088 201.215 7.52 199.327 8.384C197.439 9.216 195.871 9.632 194.623 9.632C194.143 9.632 193.695 9.616 193.279 9.584C192.863 9.52 192.399 9.456 191.887 9.392C191.375 9.328 190.927 9.28 190.543 9.248C190.607 10.208 190.703 11.408 190.831 12.848C190.959 14.256 191.055 15.52 191.119 16.64C191.215 17.76 191.263 18.96 191.263 20.24C191.263 21.52 191.167 22.736 190.975 23.888C190.783 25.04 190.511 26.32 190.159 27.728C189.807 29.104 189.551 30.304 189.391 31.328ZM188.671 32.48L188.815 31.568C189.007 30.512 189.263 29.28 189.583 27.872C189.935 26.464 190.207 25.216 190.399 24.128C190.591 23.04 190.687 21.872 190.687 20.624C190.687 19.376 190.639 18.192 190.543 17.072C190.479 15.952 190.383 14.688 190.255 13.28C190.127 11.872 190.031 10.672 189.967 9.68C189.967 9.584 189.951 9.392 189.919 9.104C189.887 8.816 189.871 8.64 189.871 8.576C189.935 8.576 190.127 8.592 190.447 8.624C190.767 8.656 190.959 8.672 191.023 8.672C191.375 8.704 191.983 8.784 192.847 8.912C193.711 9.008 194.431 9.056 195.007 9.056C196.095 9.056 197.599 8.64 199.519 7.808C201.439 6.944 203.071 6.512 204.415 6.512C206.271 6.512 207.887 7.104 209.263 8.288C210.639 9.44 211.327 10.8 211.327 12.368C211.327 15.28 209.791 17.568 206.719 19.232C208.063 20.096 208.927 21.456 209.311 23.312C209.471 24.08 209.759 24.624 210.175 24.944C210.623 25.232 211.439 25.376 212.623 25.376H213.631C213.631 25.408 213.615 25.568 213.583 25.856C213.583 26.144 213.583 26.32 213.583 26.384C213.423 28.464 212.655 30.384 211.279 32.144C209.903 33.904 208.159 34.784 206.047 34.784C204.703 34.784 203.519 34.4 202.495 33.632C202.463 33.632 202.399 33.584 202.303 33.488C202.207 33.392 202.143 33.344 202.111 33.344V32.864C202.111 30.272 201.967 28.336 201.679 27.056C201.423 25.776 200.911 24.688 200.143 23.792C200.335 25.616 200.431 27.904 200.431 30.656C200.431 31.392 200.207 32.032 199.759 32.576C199.311 33.152 198.687 33.44 197.887 33.44C194.911 33.44 192.143 33.184 189.583 32.672L188.671 32.48ZM211.193 12.896C211.193 14.048 211.385 15.12 211.769 16.112C212.921 15.376 214.249 15.008 215.753 15.008C216.777 15.008 217.785 15.12 218.777 15.344C218.393 17.648 218.201 20.336 218.201 23.408C218.201 24.304 218.233 25.232 218.297 26.192C218.393 27.152 218.505 28.192 218.633 29.312C218.761 30.432 218.857 31.36 218.921 32.096C220.233 32.32 221.833 32.432 223.721 32.432C224.617 32.432 225.401 32.224 226.073 31.808C226.745 31.36 227.081 30.704 227.081 29.84C227.081 29.072 226.937 27.68 226.649 25.664C226.393 23.648 226.233 21.92 226.169 20.48C226.169 19.968 226.137 19.024 226.073 17.648C226.041 16.24 226.009 15.2 225.977 14.528C226.425 14.56 227.257 14.672 228.473 14.864C229.721 15.024 230.713 15.104 231.449 15.104C233.017 15.104 233.929 14.624 234.185 13.664C234.761 11.456 235.049 9.408 235.049 7.52C235.049 6.912 234.745 6.608 234.137 6.608C233.561 6.608 232.617 6.72 231.305 6.944C230.025 7.136 228.969 7.232 228.137 7.232C226.793 7.232 224.905 7.072 222.473 6.752C220.073 6.432 218.265 6.256 217.049 6.224C214.137 6.224 212.457 6.816 212.009 8C211.465 9.44 211.193 11.072 211.193 12.896ZM210.569 13.28C210.569 11.008 210.825 9.2 211.337 7.856C211.945 6.256 213.977 5.456 217.433 5.456C218.777 5.488 220.633 5.696 223.001 6.08C225.401 6.464 227.241 6.656 228.521 6.656C229.257 6.656 230.265 6.56 231.545 6.368C232.825 6.144 233.817 6.032 234.521 6.032C235.033 6.032 235.465 6.192 235.817 6.512C236.201 6.864 236.393 7.328 236.393 7.904C236.393 9.6 236.089 11.712 235.481 14.24C235.097 15.712 233.881 16.448 231.833 16.448C231.065 16.448 229.561 16.288 227.321 15.968C227.353 16.608 227.385 17.488 227.417 18.608C227.481 19.728 227.513 20.48 227.513 20.864C227.577 22.24 227.737 23.936 227.993 25.952C228.281 27.936 228.425 29.36 228.425 30.224C228.425 31.408 227.977 32.288 227.081 32.864C226.185 33.472 225.193 33.776 224.105 33.776C222.121 33.776 220.457 33.664 219.113 33.44L218.393 33.296L218.345 32.576C218.281 31.904 218.185 30.992 218.057 29.84C217.929 28.688 217.817 27.632 217.721 26.672C217.657 25.68 217.625 24.72 217.625 23.792C217.625 20.944 217.769 18.512 218.057 16.496C217.385 16.4 216.745 16.352 216.137 16.352C214.729 16.352 213.577 16.656 212.681 17.264L211.673 17.936L211.241 16.832C210.793 15.648 210.569 14.464 210.569 13.28ZM37.5458 58.24C37.5458 61.024 38.4578 63.264 40.2818 64.96C42.1058 66.656 44.3458 67.504 47.0018 67.504C50.2658 67.504 53.1938 66.32 55.7858 63.952C55.4978 63.344 55.1778 62.896 54.8258 62.608C53.9618 63.44 52.8578 64.112 51.5138 64.624C50.2018 65.136 48.9218 65.392 47.6738 65.392C46.4258 65.392 45.4178 65.104 44.6498 64.528C43.8818 63.92 43.4978 62.992 43.4978 61.744C43.4978 60.688 43.8818 59.808 44.6498 59.104C45.4498 58.368 46.4098 58 47.5298 58C49.3218 58 51.0818 58.64 52.8098 59.92C53.2578 57.68 53.7538 55.6 54.2978 53.68C54.5218 52.88 54.9058 51.84 55.4498 50.56C56.0258 49.28 56.3938 48.448 56.5538 48.064H56.3618C56.1378 48.768 55.6578 49.392 54.9218 49.936C54.1858 50.48 53.4818 50.752 52.8098 50.752C51.8178 50.752 50.6338 50.592 49.2578 50.272C47.8818 49.952 46.6978 49.792 45.7058 49.792C43.5298 49.792 41.6258 50.672 39.9938 52.432C38.3618 54.16 37.5458 56.096 37.5458 58.24ZM36.9698 58.576C36.9698 55.888 37.8018 53.648 39.4658 51.856C41.1298 50.064 43.3058 49.168 45.9938 49.168C47.0818 49.168 48.3298 49.344 49.7378 49.696C51.1458 50.016 52.2978 50.176 53.1938 50.176C53.6098 50.176 54.1058 49.984 54.6818 49.6C55.2578 49.184 55.6418 48.688 55.8338 48.112C55.8658 48.048 55.9138 47.92 55.9778 47.728L56.0258 47.488H58.1378C56.9218 50.304 56.0738 52.592 55.5938 54.352C54.9858 56.368 54.5058 58.4 54.1538 60.448C54.0898 60.608 53.9938 61.104 53.8658 61.936C53.3858 61.616 52.9858 61.328 52.6658 61.072C51.1298 59.92 49.5458 59.344 47.9138 59.344C47.0498 59.344 46.3138 59.616 45.7058 60.16C45.1298 60.704 44.8418 61.36 44.8418 62.128C44.8418 63.92 45.9138 64.816 48.0578 64.816C49.2098 64.816 50.3778 64.576 51.5618 64.096C52.7778 63.616 53.7698 63.008 54.5378 62.272C54.8578 61.952 55.0658 61.76 55.1618 61.696L55.7858 62.224C56.1058 62.512 56.3778 62.8 56.6018 63.088C56.7618 63.344 56.9218 63.648 57.0818 64C57.1138 64.032 57.1618 64.128 57.2258 64.288C57.2898 64.416 57.3218 64.512 57.3218 64.576L56.8418 65.056C54.0898 67.584 50.9378 68.848 47.3858 68.848C44.4738 68.848 42.0098 67.904 39.9938 66.016C37.9778 64.128 36.9698 61.648 36.9698 58.576ZM58.1352 68.176C58.5192 68.304 58.9352 68.4 59.3832 68.464C59.8632 68.528 60.6472 68.624 61.7352 68.752C62.8552 68.848 63.9432 68.976 64.9992 69.136C65.3512 67.056 65.5432 65.264 65.5752 63.76C69.0312 63.664 70.8232 63.616 70.9512 63.616C70.8872 64.096 70.6952 64.784 70.3752 65.68C70.0872 66.576 69.9432 67.248 69.9432 67.696C69.9432 68.208 70.1192 68.624 70.4712 68.944C70.8232 69.232 71.2552 69.376 71.7672 69.376C73.7832 69.376 75.8632 69.568 78.0072 69.952C78.0072 69.76 77.8952 68.496 77.6712 66.16C77.4472 63.792 77.3352 61.936 77.3352 60.592C77.3352 56.656 77.8792 52.688 78.9672 48.688C76.7912 47.984 74.8712 47.632 73.2072 47.632C72.5352 47.632 71.9912 47.84 71.5752 48.256C71.1592 48.672 70.9512 49.232 70.9512 49.936V58.48C70.5032 58.512 69.7832 58.608 68.7912 58.768C67.7992 58.896 67.1112 58.96 66.7272 58.96C66.4392 58.96 66.1512 58.88 65.8632 58.72C65.5752 58.56 65.4312 58.368 65.4312 58.144C65.4312 56.768 65.9272 53.344 66.9192 47.872C64.2312 47.872 61.3512 48.464 58.2792 49.648C58.6312 52.368 58.8072 55.6 58.8072 59.344C58.8072 62.544 58.5832 65.488 58.1352 68.176ZM57.4632 69.184L57.6072 68.416C58.0232 65.92 58.2312 63.024 58.2312 59.728C58.2312 56.24 58.0392 53.056 57.6552 50.176C57.6552 50.144 57.6392 50 57.6072 49.744C57.5752 49.488 57.5592 49.344 57.5592 49.312L58.2792 49.072C61.5752 47.792 64.5832 47.152 67.3032 47.152H68.4552C68.4552 47.376 68.3912 47.808 68.2632 48.448C67.3032 53.664 66.8072 56.96 66.7752 58.336C66.8712 58.368 66.9832 58.384 67.1112 58.384C67.3672 58.384 67.9432 58.32 68.8392 58.192C69.7352 58.064 70.2472 58 70.3752 58C70.3752 57.2 70.3592 55.952 70.3272 54.256C70.3272 52.528 70.3272 51.184 70.3272 50.224C70.3272 49.264 70.6152 48.496 71.1912 47.92C71.7672 47.312 72.5352 47.008 73.4952 47.008C75.2232 47.008 77.2712 47.392 79.6392 48.16C79.8312 48.256 80.1192 48.352 80.5032 48.448C80.5032 48.512 80.4712 48.672 80.4072 48.928C80.3432 49.152 80.2952 49.296 80.2632 49.36C79.2072 53.168 78.6792 57.04 78.6792 60.976C78.6792 62.256 78.7912 64.08 79.0152 66.448C79.2392 68.784 79.3512 70.08 79.3512 70.336V71.488C79.0312 71.424 78.6472 71.36 78.1992 71.296C76.1192 70.912 74.1032 70.72 72.1512 70.72C71.3832 70.72 70.7272 70.48 70.1832 70C69.6392 69.488 69.3672 68.848 69.3672 68.08C69.3672 67.6 69.6072 66.592 70.0872 65.056C69.3512 65.088 68.2952 65.104 66.9192 65.104C66.8872 65.744 66.6792 67.264 66.2952 69.664C66.2952 69.728 66.2792 69.888 66.2472 70.144C66.2152 70.4 66.1832 70.56 66.1512 70.624C65.7672 70.528 65.4632 70.48 65.2392 70.48C64.3752 70.352 63.4952 70.24 62.5992 70.144C61.7032 70.048 61.0312 69.984 60.5832 69.952C60.1672 69.888 59.7512 69.824 59.3352 69.76C58.9192 69.664 58.5512 69.568 58.2312 69.472L57.4632 69.184ZM80.1574 51.52C81.2454 52.896 81.7894 55.488 81.7894 59.296C81.7894 60.032 81.6934 61.104 81.5014 62.512C81.3094 63.92 81.1174 65.2 80.9254 66.352C80.7334 67.472 80.6374 68.048 80.6374 68.08C81.2454 67.984 81.8854 67.936 82.5574 67.936C83.2614 67.936 84.0774 67.968 85.0054 68.032C85.9334 68.064 86.6854 68.08 87.2614 68.08C87.7734 68.08 88.1894 67.936 88.5094 67.648C88.8294 67.328 88.9894 66.912 88.9894 66.4C88.9894 66.272 88.8294 65.536 88.5094 64.192C88.1894 62.816 88.0294 61.952 88.0294 61.6C88.0294 60.672 88.1414 59.328 88.3654 57.568C88.5894 55.808 88.7014 54.224 88.7014 52.816C88.7014 52.112 88.4774 51.552 88.0294 51.136C87.6134 50.72 87.0694 50.512 86.3974 50.512C85.2134 50.512 83.1334 50.848 80.1574 51.52ZM81.4054 46.384C81.4054 47.152 81.6614 47.824 82.1734 48.4C82.6854 48.944 83.2934 49.216 83.9974 49.216C85.2134 49.216 86.2374 48.864 87.0694 48.16C87.9014 47.456 88.3174 46.544 88.3174 45.424C88.3174 43.792 87.2934 42.976 85.2454 42.976C84.1894 42.976 83.2774 43.296 82.5094 43.936C81.7734 44.544 81.4054 45.36 81.4054 46.384ZM79.1974 51.856L79.2454 51.232C81.4214 50.688 82.7174 50.384 83.1334 50.32C82.4614 50.032 81.9014 49.568 81.4534 48.928C81.0374 48.256 80.8294 47.536 80.8294 46.768C80.8294 45.488 81.2934 44.448 82.2214 43.648C83.1494 42.816 84.2854 42.4 85.6294 42.4C86.9414 42.4 87.9334 42.72 88.6054 43.36C89.3094 44 89.6614 44.816 89.6614 45.808C89.6614 47.728 88.7814 49.12 87.0214 49.984C87.8854 50.048 88.6054 50.384 89.1814 50.992C89.7574 51.568 90.0454 52.304 90.0454 53.2C90.0454 54.64 89.9334 56.256 89.7094 58.048C89.4854 59.808 89.3734 61.12 89.3734 61.984C89.3734 62.176 89.5334 62.944 89.8534 64.288C90.1734 65.6 90.3334 66.432 90.3334 66.784C90.3334 67.584 90.0614 68.224 89.5174 68.704C89.0054 69.184 88.3814 69.424 87.6454 69.424C87.0374 69.424 86.2534 69.408 85.2934 69.376C84.3334 69.312 83.5174 69.28 82.8454 69.28C82.2054 69.28 81.6134 69.328 81.0694 69.424L80.1094 69.568L80.0134 68.608C80.0134 68.352 80.2054 67.024 80.5894 64.624C81.0054 62.224 81.2134 60.576 81.2134 59.68C81.2134 58.144 81.1014 56.864 80.8774 55.84C80.6854 54.784 80.4774 54.032 80.2534 53.584C80.0294 53.104 79.6774 52.528 79.1974 51.856ZM90.6049 66.88C90.6049 67.2 90.7809 67.552 91.1329 67.936C91.4849 68.32 92.0289 68.656 92.7649 68.944C93.9169 69.168 95.5809 69.248 97.7569 69.184L101.165 60.928C101.837 63.232 103.005 65.328 104.669 67.216C106.749 65.648 108.189 63.76 108.989 61.552C109.277 62.576 109.837 64.304 110.669 66.736C111.501 69.168 111.997 70.496 112.157 70.72C112.637 70.144 113.293 69.696 114.125 69.376C114.989 69.024 115.757 68.8 116.429 68.704C117.133 68.608 117.741 68.4 118.253 68.08C118.797 67.728 119.069 67.216 119.069 66.544C118.877 65.488 118.605 64.144 118.253 62.512C117.901 60.848 117.229 58.368 116.237 55.072C115.277 51.744 114.381 49.488 113.549 48.304C110.893 48.304 109.069 48.352 108.077 48.448L104.669 55.12C104.509 55.44 104.381 55.488 104.285 55.264C103.997 54.816 103.421 53.648 102.557 51.76C101.693 49.872 101.037 48.784 100.589 48.496L97.2769 48.592C96.1569 48.592 95.5489 48.768 95.4529 49.12C95.1009 50.08 94.2049 53.088 92.7649 58.144C91.3249 63.2 90.6049 66.112 90.6049 66.88ZM90.0289 67.264C90.0289 66.464 90.7009 63.68 92.0449 58.912C93.3889 54.144 94.3329 50.912 94.8769 49.216C94.9729 48.928 95.0369 48.752 95.0689 48.688C95.1009 48.624 95.3409 48.496 95.7889 48.304C96.2369 48.112 96.8609 48.016 97.6609 48.016C98.4929 48.016 99.1809 48.016 99.7249 48.016C100.269 47.984 100.637 47.968 100.829 47.968C101.053 47.936 101.197 47.92 101.261 47.92C101.645 48.144 101.981 48.448 102.269 48.832C102.557 49.216 102.781 49.6 102.941 49.984C103.133 50.336 103.405 50.928 103.757 51.76C104.141 52.56 104.477 53.264 104.765 53.872C106.557 50.352 107.565 48.352 107.789 47.872C109.133 47.776 111.357 47.728 114.461 47.728C115.485 49.2 116.493 51.536 117.485 54.736C118.477 57.936 119.213 60.768 119.693 63.232L120.413 66.928C120.413 67.824 120.125 68.528 119.549 69.04C119.005 69.52 118.365 69.824 117.629 69.952C116.893 70.048 116.093 70.24 115.229 70.528C114.365 70.816 113.725 71.216 113.309 71.728L112.541 72.688L111.773 71.68C111.517 71.36 110.653 68.976 109.181 64.528C108.317 65.904 106.893 67.36 104.909 68.896C103.405 67.168 102.285 65.536 101.549 64L98.8129 70.48L98.1889 70.528C96.1089 70.592 94.3329 70.496 92.8609 70.24C91.9649 69.92 91.2609 69.488 90.7489 68.944C90.2689 68.4 90.0289 67.84 90.0289 67.264ZM127.546 56.56C127.546 55.792 127.674 55.072 127.93 54.4C128.506 54.4 129.05 54.496 129.562 54.688C130.106 54.848 130.378 55.136 130.378 55.552C130.378 56.128 130.106 56.624 129.562 57.04C129.018 57.456 128.378 57.664 127.642 57.664C127.578 57.216 127.546 56.848 127.546 56.56ZM119.626 68.176C119.626 69.456 120.826 70.096 123.226 70.096C124.602 70.096 125.834 69.808 126.922 69.232C127.594 67.888 127.93 66.208 127.93 64.192C127.93 62.944 127.866 61.6 127.738 60.16C128.89 60.448 130.33 60.592 132.058 60.592C134.618 60.592 136.954 59.76 139.066 58.096C141.21 56.4 142.282 54.096 142.282 51.184C142.282 49.136 141.466 47.456 139.834 46.144C138.234 44.8 136.282 44.128 133.978 44.128C132.41 44.128 130.266 44.672 127.546 45.76C124.858 46.848 122.602 47.504 120.778 47.728C120.49 47.792 120.346 48 120.346 48.352C120.346 49.664 120.442 51.328 120.634 53.344C120.858 55.328 120.97 57.056 120.97 58.528C120.97 59.68 120.858 61.024 120.634 62.56C120.41 64.064 120.186 65.36 119.962 66.448C119.738 67.504 119.626 68.08 119.626 68.176ZM128.89 56.944C129.466 56.688 129.77 56.4 129.802 56.08C129.546 55.952 129.274 55.872 128.986 55.84C128.922 56.128 128.89 56.496 128.89 56.944ZM119.05 68.56C119.05 68.432 119.162 67.824 119.386 66.736C119.61 65.616 119.834 64.32 120.058 62.848C120.282 61.344 120.394 60.032 120.394 58.912C120.394 57.504 120.282 55.808 120.058 53.824C119.866 51.808 119.77 50.112 119.77 48.736C119.77 47.808 120.138 47.28 120.874 47.152C122.698 46.928 124.97 46.272 127.69 45.184C130.442 44.064 132.666 43.504 134.362 43.504C136.89 43.504 139.066 44.272 140.89 45.808C142.714 47.312 143.626 49.232 143.626 51.568C143.626 54.768 142.458 57.296 140.122 59.152C137.786 61.008 135.226 61.936 132.442 61.936C131.13 61.936 130.042 61.872 129.178 61.744C129.242 62.512 129.274 63.456 129.274 64.576C129.274 66.752 128.906 68.576 128.17 70.048L128.026 70.336L127.738 70.48C126.554 71.12 125.178 71.44 123.61 71.44C121.914 71.44 120.73 71.152 120.058 70.576C119.386 70 119.05 69.328 119.05 68.56ZM157.245 63.664C157.245 63.216 157.389 62.832 157.677 62.512C157.997 62.192 158.381 62.032 158.829 62.032C159.277 62.032 159.661 62.128 159.981 62.32C160.301 62.512 160.461 62.768 160.461 63.088C160.461 63.504 160.317 63.872 160.029 64.192C159.773 64.48 159.437 64.624 159.021 64.624C158.541 64.624 158.125 64.528 157.773 64.336C157.421 64.144 157.245 63.92 157.245 63.664ZM153.981 60.88C153.981 64.144 154.861 66.224 156.621 67.12L156.045 67.408C156.525 68.048 157.229 68.56 158.157 68.944C159.085 69.328 160.013 69.52 160.941 69.52C163.917 69.52 166.333 68.816 168.189 67.408C170.045 65.968 170.973 64.016 170.973 61.552C170.973 59.504 169.981 57.744 167.997 56.272C166.013 54.8 163.629 54.064 160.845 54.064C159.181 54.064 157.709 54.72 156.429 56.032C155.181 57.312 154.365 58.928 153.981 60.88ZM158.589 63.856C158.845 63.984 159.117 64.048 159.405 64.048C159.725 64.048 159.885 63.888 159.885 63.568C159.757 63.44 159.533 63.376 159.213 63.376C158.861 63.376 158.653 63.536 158.589 63.856ZM153.405 61.264V61.168V61.072C153.853 58.736 154.765 56.896 156.141 55.552C157.549 54.176 159.245 53.488 161.229 53.488C164.237 53.488 166.829 54.304 169.005 55.936C171.213 57.536 172.317 59.536 172.317 61.936C172.317 64.624 171.309 66.784 169.293 68.416C167.309 70.048 164.653 70.864 161.325 70.864C160.301 70.864 159.245 70.64 158.157 70.192C157.101 69.776 156.269 69.168 155.661 68.368C155.181 67.728 154.925 67.392 154.893 67.36C154.925 67.36 154.957 67.36 154.989 67.36C155.053 67.328 155.101 67.296 155.133 67.264C153.981 65.952 153.405 63.952 153.405 61.264ZM179.952 56.56C179.952 55.792 180.08 55.072 180.336 54.4C180.912 54.4 181.456 54.496 181.968 54.688C182.512 54.848 182.784 55.136 182.784 55.552C182.784 56.128 182.512 56.624 181.968 57.04C181.424 57.456 180.784 57.664 180.048 57.664C179.984 57.216 179.952 56.848 179.952 56.56ZM172.032 68.176C172.032 69.456 173.232 70.096 175.632 70.096C177.008 70.096 178.24 69.808 179.328 69.232C180 67.888 180.336 66.208 180.336 64.192C180.336 62.944 180.272 61.6 180.144 60.16C181.296 60.448 182.736 60.592 184.464 60.592C187.024 60.592 189.36 59.76 191.472 58.096C193.616 56.4 194.688 54.096 194.688 51.184C194.688 49.136 193.872 47.456 192.24 46.144C190.64 44.8 188.688 44.128 186.384 44.128C184.816 44.128 182.672 44.672 179.952 45.76C177.264 46.848 175.008 47.504 173.184 47.728C172.896 47.792 172.752 48 172.752 48.352C172.752 49.664 172.848 51.328 173.04 53.344C173.264 55.328 173.376 57.056 173.376 58.528C173.376 59.68 173.264 61.024 173.04 62.56C172.816 64.064 172.592 65.36 172.368 66.448C172.144 67.504 172.032 68.08 172.032 68.176ZM181.296 56.944C181.872 56.688 182.176 56.4 182.208 56.08C181.952 55.952 181.68 55.872 181.392 55.84C181.328 56.128 181.296 56.496 181.296 56.944ZM171.456 68.56C171.456 68.432 171.568 67.824 171.792 66.736C172.016 65.616 172.24 64.32 172.464 62.848C172.688 61.344 172.8 60.032 172.8 58.912C172.8 57.504 172.688 55.808 172.464 53.824C172.272 51.808 172.176 50.112 172.176 48.736C172.176 47.808 172.544 47.28 173.28 47.152C175.104 46.928 177.376 46.272 180.096 45.184C182.848 44.064 185.072 43.504 186.768 43.504C189.296 43.504 191.472 44.272 193.296 45.808C195.12 47.312 196.032 49.232 196.032 51.568C196.032 54.768 194.864 57.296 192.528 59.152C190.192 61.008 187.632 61.936 184.848 61.936C183.536 61.936 182.448 61.872 181.584 61.744C181.648 62.512 181.68 63.456 181.68 64.576C181.68 66.752 181.312 68.576 180.576 70.048L180.432 70.336L180.144 70.48C178.96 71.12 177.584 71.44 176.016 71.44C174.32 71.44 173.136 71.152 172.464 70.576C171.792 70 171.456 69.328 171.456 68.56ZM195.757 69.088C196.301 69.184 197.005 69.344 197.869 69.568C198.733 69.792 199.517 69.968 200.221 70.096C200.957 70.256 201.677 70.336 202.381 70.336C204.525 70.336 206.349 69.68 207.853 68.368C209.389 67.056 210.157 65.472 210.157 63.616C210.157 62.464 209.805 61.44 209.101 60.544C208.397 59.648 207.469 59.024 206.317 58.672C204.749 58.192 203.869 57.808 203.677 57.52C203.613 57.392 203.581 57.28 203.581 57.184C203.581 56.896 203.805 56.752 204.253 56.752C205.181 56.752 206.013 56.864 206.749 57.088C207.165 54.016 207.933 51.44 209.053 49.36C205.789 48.72 203.357 48.4 201.757 48.4C200.317 48.4 199.053 48.816 197.965 49.648C196.877 50.48 196.333 51.472 196.333 52.624C196.333 54.32 197.005 55.888 198.349 57.328C199.725 58.8 200.413 60.368 200.413 62.032C200.413 62.64 200.221 63.168 199.837 63.616C199.453 64.032 198.989 64.24 198.445 64.24C198.189 64.24 197.933 64.192 197.677 64.096C197.421 63.968 197.133 63.808 196.813 63.616C196.493 63.392 196.237 63.232 196.045 63.136L195.757 69.088ZM195.133 70.24L195.469 63.472C195.469 63.376 195.485 63.136 195.517 62.752C195.549 62.336 195.565 62.08 195.565 61.984L196.909 62.656C197.133 62.784 197.389 62.944 197.677 63.136C197.965 63.296 198.189 63.424 198.349 63.52C198.541 63.616 198.701 63.664 198.829 63.664C199.085 63.664 199.309 63.552 199.501 63.328C199.725 63.072 199.837 62.768 199.837 62.416C199.837 61.072 199.229 59.728 198.013 58.384C196.509 56.752 195.757 54.96 195.757 53.008C195.757 51.344 196.381 50.064 197.629 49.168C198.909 48.272 200.413 47.824 202.141 47.824C203.837 47.824 206.333 48.144 209.629 48.784C209.725 48.816 209.949 48.88 210.301 48.976C210.653 49.04 210.861 49.072 210.925 49.072C210.893 49.168 210.797 49.36 210.637 49.648C210.477 49.936 210.365 50.112 210.301 50.176C209.181 52.256 208.445 54.736 208.093 57.616C208.093 57.648 208.061 57.792 207.997 58.048C207.965 58.304 207.949 58.464 207.949 58.528C209.037 59.072 209.901 59.824 210.541 60.784C211.181 61.744 211.501 62.816 211.501 64C211.501 66.144 210.637 67.968 208.909 69.472C207.181 70.944 205.133 71.68 202.765 71.68C201.997 71.68 201.277 71.616 200.605 71.488C199.933 71.36 199.133 71.184 198.205 70.96C197.309 70.736 196.557 70.56 195.949 70.432L195.133 70.24Z" fill="white"/>
</svg>
