<svg width="332" height="70" viewBox="0 0 332 70" fill="none" xmlns="http://www.w3.org/2000/svg">
<path d="M93 15L105.5 11.5L119 12L127.5 14.5L129 22L126 30.5L119 29H109.5V34L120 33L121 34L118.5 44.5L108.5 46L106.5 56.5L92 55L93.5 35.5L93 15Z" fill="#FDDA21"/>
<path d="M148.5 19.5L155 15.5L160 15L165 15.5L179.5 38L189 51.5L188.5 60.5L182 62L167.5 61L164 53L158 48.5L150.5 49L147.5 60.5L140.5 62L134 60.5L132.5 57L133.5 53.5L142.5 45.5L147.5 32.5L149 24L148.5 19.5Z" fill="#FDDA21"/>
<circle cx="124" cy="55" r="8" fill="#FDDA21"/>
<path d="M209 54L213.5 51.5L220 52.5L230 56L236 55.5L240.5 49L241 51L238 65L231.5 68L224 67L214.5 62.5L210 60L208 56.5L209 54Z" fill="#FDDA21"/>
<circle cx="199" cy="55" r="8" fill="#FDDA21"/>
<path d="M239.5 34.5004C239.5 42.5085 231.837 49.0004 223 49.0004C210.5 49.5004 207 42.5085 207 34.5004C208 23.0004 214 18.5006 223 19.5005C231.837 19.5005 241 26.0004 239.5 34.5004Z" fill="#FDDA21"/>
<path d="M92.6208 53.856C93.2608 54.048 93.9648 54.24 94.7328 54.432C95.5648 54.56 96.3648 54.688 97.1328 54.816C97.9648 54.88 99.2768 55.008 101.069 55.2C102.861 55.392 104.621 55.616 106.349 55.872C106.989 51.776 107.373 47.968 107.501 44.448C113.261 44.32 116.909 44.064 118.445 43.68C119.597 39.264 120.173 36.128 120.173 34.272C120.173 33.76 119.917 33.504 119.405 33.504C118.381 33.504 116.717 33.696 114.413 34.08C112.109 34.4 110.573 34.56 109.805 34.56C109.229 34.56 108.653 34.4 108.077 34.08C107.501 33.76 107.213 33.376 107.213 32.928C107.213 30.56 107.469 28.8 107.981 27.648C108.941 27.072 110.157 26.784 111.629 26.784C113.229 26.784 115.373 27.232 118.061 28.128C120.813 29.024 122.509 29.472 123.149 29.472C124.237 29.344 125.133 29.024 125.837 28.512C126.541 27.936 126.893 27.296 126.893 26.592L128.141 18.624C127.373 15.872 125.485 14.08 122.477 13.248C119.533 12.352 115.533 11.904 110.477 11.904C105.101 11.904 99.3408 13.088 93.1968 15.456C93.7088 21.088 93.9648 27.712 93.9648 35.328C93.9648 42.304 93.5168 48.48 92.6208 53.856ZM91.2767 55.968C91.4688 55.392 91.5648 54.848 91.5648 54.336C92.3968 49.344 92.8128 43.264 92.8128 36.096C92.8128 28.544 92.5568 21.984 92.0448 16.416C92.0448 16.288 92.0128 16.032 91.9488 15.648C91.8848 15.264 91.8528 15.04 91.8528 14.976L93.1968 14.4C99.4688 11.968 105.485 10.752 111.245 10.752C113.741 10.752 115.821 10.848 117.485 11.04C119.213 11.168 121.101 11.488 123.149 12C125.197 12.448 126.861 13.248 128.141 14.4C129.421 15.552 130.317 17.024 130.829 18.816C130.829 18.88 130.829 18.944 130.829 19.008C130.829 19.072 130.861 19.168 130.925 19.296L130.829 19.68C130.701 20.192 130.477 21.504 130.157 23.616C129.837 25.728 129.645 27.04 129.581 27.552C129.453 29.024 128.813 30.112 127.661 30.816C126.573 31.52 125.389 31.936 124.109 32.064L124.013 32.16H123.917C123.021 32.16 121.197 31.712 118.445 30.816C115.757 29.92 113.741 29.472 112.397 29.472C111.565 29.472 110.861 29.568 110.285 29.76C110.029 30.784 109.901 31.936 109.901 33.216C110.029 33.344 110.253 33.408 110.573 33.408C111.341 33.408 112.813 33.248 114.989 32.928C117.229 32.544 118.957 32.352 120.173 32.352C120.941 32.352 121.581 32.608 122.093 33.12C122.605 33.632 122.861 34.272 122.861 35.04C122.861 37.088 122.253 40.416 121.037 45.024C121.037 45.088 121.005 45.28 120.941 45.6C120.877 45.856 120.813 46.016 120.749 46.08C120.557 46.144 120.205 46.24 119.693 46.368C117.709 46.88 114.541 47.136 110.189 47.136C109.933 50.08 109.517 53.344 108.941 56.928C108.941 57.056 108.909 57.376 108.845 57.888C108.781 58.336 108.717 58.624 108.653 58.752L106.829 58.464C105.101 58.208 103.341 57.984 101.549 57.792C99.7568 57.6 98.4128 57.472 97.5168 57.408C96.6848 57.28 95.8528 57.152 95.0208 57.024C94.1888 56.832 93.4528 56.64 92.8128 56.448L91.2767 55.968ZM115.277 56.736C115.277 53.344 116.237 50.816 118.157 49.152C120.077 47.488 122.445 46.656 125.261 46.656C127.821 46.656 129.869 47.424 131.405 48.96C132.941 50.432 133.709 52.384 133.709 54.816C133.709 57.696 132.621 60.064 130.445 61.92C128.333 63.84 125.773 64.8 122.765 64.8C120.717 64.8 118.957 64 117.485 62.4C116.013 60.8 115.277 58.912 115.277 56.736ZM116.429 55.968C116.429 57.632 116.973 59.072 118.061 60.288C119.213 61.504 120.525 62.112 121.997 62.112C124.493 62.112 126.605 61.376 128.333 59.904C130.125 58.368 131.021 56.416 131.021 54.048C131.021 52.192 130.445 50.688 129.293 49.536C128.205 48.384 126.605 47.808 124.493 47.808C122.317 47.808 120.429 48.544 118.829 50.016C117.229 51.488 116.429 53.472 116.429 55.968ZM150.396 38.4C150.396 37.184 150.684 36.096 151.26 35.136C151.9 34.176 152.732 33.6 153.756 33.408L160.092 43.104L159.708 43.296C158.876 42.528 158.236 42.08 157.788 41.952C156.956 41.76 155.932 41.6 154.716 41.472C153.564 41.28 152.732 41.12 152.22 40.992C151.772 40.864 151.356 40.608 150.972 40.224C150.588 39.84 150.396 39.232 150.396 38.4ZM132.348 56.448C132.348 57.664 133.052 58.72 134.46 59.616C135.868 60.512 137.596 60.96 139.644 60.96C141.82 60.96 143.676 60.576 145.212 59.808C146.748 59.04 147.516 58.144 147.516 57.12C147.516 52.384 147.74 49.024 148.188 47.04C154.332 47.232 158.364 47.744 160.284 48.576C162.268 49.344 164.028 51.488 165.564 55.008C166.46 57.312 166.94 58.912 167.004 59.808C168.604 59.936 171.036 60.192 174.3 60.576C177.564 61.024 180.348 61.248 182.652 61.248C184.124 61.248 185.436 60.704 186.588 59.616C187.804 58.464 188.412 57.408 188.412 56.448C188.412 54.208 187.676 51.616 186.204 48.672C184.796 45.728 183.26 43.168 181.596 40.992C179.996 38.752 177.692 35.744 174.684 31.968C171.676 28.128 169.468 25.248 168.06 23.328C166.204 20.704 165.148 18.208 164.892 15.84C161.116 15.328 158.204 15.328 156.156 15.84C154.108 16.288 151.804 17.504 149.244 19.488C149.244 28.96 146.748 38.08 141.756 46.848C141.052 48.064 139.292 49.664 136.476 51.648C133.724 53.568 132.348 55.168 132.348 56.448ZM153.084 39.168C153.084 39.296 153.084 39.424 153.084 39.552L153.18 39.744C153.5 39.936 154.524 40.128 156.252 40.32C156.124 40.128 155.868 39.744 155.484 39.168C155.1 38.592 154.748 38.08 154.428 37.632C154.108 37.12 153.916 36.8 153.852 36.672C153.34 37.376 153.084 38.208 153.084 39.168ZM131.196 57.216C131.196 55.616 131.804 54.24 133.02 53.088C134.3 51.872 135.74 50.72 137.34 49.632C139.004 48.48 140.124 47.424 140.7 46.464C145.564 37.952 147.996 29.216 147.996 20.256V19.008C150.236 17.28 152.22 16.064 153.948 15.36C155.676 14.592 157.916 14.208 160.668 14.208C161.564 14.208 163.804 14.464 167.388 14.976C167.388 15.04 167.42 15.264 167.484 15.648C167.548 16.032 167.58 16.288 167.58 16.416C167.836 18.592 168.764 20.768 170.364 22.944C171.836 24.992 174.14 28 177.276 31.968C180.412 35.936 182.78 39.008 184.38 41.184C185.98 43.36 187.484 45.984 188.892 49.056C190.364 52.064 191.1 54.784 191.1 57.216C191.1 58.688 190.3 60.16 188.7 61.632C187.164 63.168 185.404 63.936 183.42 63.936C180.988 63.936 178.108 63.712 174.78 63.264C171.516 62.816 169.148 62.56 167.676 62.496L166.044 62.4C166.044 62.336 166.012 62.08 165.948 61.632C165.884 61.184 165.852 60.896 165.852 60.768C165.724 59.744 165.308 58.304 164.604 56.448C163.324 53.504 161.916 51.712 160.38 51.072C158.908 50.432 155.612 50.016 150.492 49.824C150.3 50.848 150.204 53.536 150.204 57.888C150.204 59.552 149.244 60.928 147.324 62.016C145.404 63.104 143.1 63.648 140.412 63.648C137.916 63.648 135.74 63.04 133.884 61.824C132.092 60.608 131.196 59.072 131.196 57.216ZM190.183 56.736C190.183 53.344 191.143 50.816 193.063 49.152C194.983 47.488 197.351 46.656 200.167 46.656C202.727 46.656 204.775 47.424 206.311 48.96C207.847 50.432 208.615 52.384 208.615 54.816C208.615 57.696 207.527 60.064 205.351 61.92C203.239 63.84 200.679 64.8 197.671 64.8C195.623 64.8 193.863 64 192.391 62.4C190.919 60.8 190.183 58.912 190.183 56.736ZM191.335 55.968C191.335 57.632 191.879 59.072 192.967 60.288C194.119 61.504 195.431 62.112 196.903 62.112C199.399 62.112 201.511 61.376 203.239 59.904C205.031 58.368 205.927 56.416 205.927 54.048C205.927 52.192 205.351 50.688 204.199 49.536C203.111 48.384 201.511 47.808 199.399 47.808C197.223 47.808 195.335 48.544 193.735 50.016C192.135 51.488 191.335 53.472 191.335 55.968ZM208.215 56.16C209.558 58.528 212.695 60.928 217.623 63.36C222.615 65.856 226.775 67.104 230.103 67.104C232.663 67.104 234.679 65.824 236.151 63.264C237.623 60.768 239.031 56.448 240.375 50.304L240.087 50.208C238.999 52.384 237.879 54.016 236.727 55.104C235.639 56.128 234.199 56.64 232.406 56.64C231.063 56.64 229.015 56.224 226.263 55.392C223.575 54.496 221.143 53.696 218.967 52.992C216.855 52.288 214.743 52.128 212.631 52.512C210.519 52.896 209.047 54.112 208.215 56.16ZM213.783 35.04C213.783 34.272 214.039 33.632 214.551 33.12C215.127 32.608 215.767 32.352 216.471 32.352C217.239 32.352 217.879 32.544 218.391 32.928C218.967 33.248 219.255 33.632 219.255 34.08C219.255 34.784 218.999 35.392 218.487 35.904C218.039 36.352 217.495 36.576 216.855 36.576C216.023 36.576 215.287 36.416 214.647 36.096C214.071 35.776 213.783 35.424 213.783 35.04ZM207.255 32.16C207.255 38.688 209.015 42.848 212.535 44.64L211.383 45.216C212.599 46.88 215.191 47.712 219.159 47.712C224.919 47.712 229.719 46.432 233.559 43.872C237.399 41.248 239.319 37.792 239.319 33.504C239.319 29.536 237.527 26.208 233.943 23.52C230.359 20.832 225.719 19.488 220.023 19.488C216.951 19.488 214.231 20.704 211.863 23.136C209.495 25.504 207.959 28.512 207.255 32.16ZM206.774 56.928L207.159 56.064C208.183 53.568 209.879 52.032 212.247 51.456C214.679 50.88 217.047 50.944 219.351 51.648C221.719 52.352 224.311 53.184 227.127 54.144C229.943 55.04 231.959 55.488 233.175 55.488C234.519 55.488 235.607 55.104 236.439 54.336C237.271 53.504 238.167 52.096 239.127 50.112L239.895 48.672C239.959 48.672 240.503 48.832 241.527 49.152C241.591 49.152 241.623 49.184 241.623 49.248C241.623 49.248 241.655 49.248 241.719 49.248L243.447 49.824C243.447 49.952 243.383 50.24 243.255 50.688C243.191 51.072 243.127 51.328 243.063 51.456C241.655 57.728 240.087 62.336 238.359 65.28C236.695 68.288 234.199 69.792 230.871 69.792C227.159 69.792 222.679 68.448 217.431 65.76C212.183 63.136 208.823 60.512 207.351 57.888L206.774 56.928ZM206.006 32.64C206.838 28.416 208.503 24.992 210.999 22.368C213.495 19.744 216.759 18.432 220.791 18.432C226.935 18.432 231.991 19.936 235.959 22.944C239.991 25.952 242.007 29.728 242.007 34.272C242.007 39.072 239.927 42.976 235.767 45.984C231.607 48.928 226.327 50.4 219.927 50.4C215.319 50.4 212.215 49.312 210.615 47.136C210.551 47.072 210.039 46.4 209.079 45.12C209.143 45.12 209.207 45.12 209.271 45.12C209.399 45.056 209.495 44.992 209.559 44.928C207.19 42.176 206.006 38.08 206.006 32.64Z" fill="white"/>
</svg>
