<svg width="257" height="76" viewBox="0 0 257 76" fill="none" xmlns="http://www.w3.org/2000/svg">
<path d="M18.5 62C18.5 66.9706 14.2467 70 9 70C3.75329 70 0 66.9706 0 62C0 57.0294 3.25329 53.5 8.5 53.5C13.3857 54.8235 18.5 57.0294 18.5 62Z" fill="#FDDA21"/>
<path d="M104.5 54.7419C104.5 59.2849 100.5 59.8226 95.7503 62C90.9178 62 87.0007 59.043 87.0007 54.5C86.501 49.2581 90.6675 46.5 95.5 46.5C100.25 47.4677 104.5 50.1989 104.5 54.7419Z" fill="#FDDA21"/>
<path d="M120.992 22.0627C120.992 26.8272 116.733 30.6896 111.794 30.6896C106.855 30.6896 102.852 26.8272 102.852 22.0627C102.852 17.2981 106.855 13.6895 111.794 13.6895C116.393 14.9581 120.992 17.2981 120.992 22.0627Z" fill="#FDDA21"/>
<path d="M130.165 8.24552C130.165 10.2367 128.365 11.8508 126.278 11.8508C124.192 11.8508 122.5 11.0509 122.5 9.05974C122.5 6 124.913 4.5 127 4.5C128.943 5.03019 130.165 6.25437 130.165 8.24552Z" fill="#FDDA21"/>
<path d="M208.665 45.7983C208.665 47.7894 206.865 49.4035 204.778 49.4035C202.692 49.4035 201 48.6036 201 46.6125C201.255 43.5677 203.512 42.5527 205.599 42.5527C207.542 43.0829 208.665 43.8071 208.665 45.7983Z" fill="#FDDA21"/>
<path d="M18.1885 51.4334L18.955 50.6722L20.2325 50.1647L23.2984 49.911L26.6199 50.6722L27.1309 52.1946L28.1529 56.7618L29.1749 57.7767L30.4524 57.0155L30.9634 54.7319L29.9414 51.4334V50.6722L30.4524 49.6572L32 49.5L33.5184 49.911L34.2849 58.2842L31.7299 66.6574L28.6639 68.4335L25.5979 68.941L20.5931 66.6574L18.6995 63.8663L19.2105 56.2543L18.1885 51.4334Z" fill="#FDDA21"/>
<path d="M35.3074 47.1187L40.9284 47.3725L47.5 45H50L52.027 45.3026L54.9354 47.4787L56.133 49.9896L54.9354 54.2233L51.5138 57.1875L53.7033 61.5815L55 63.5H57L58 64.5L55.5 70L52.027 72.2529L47.3158 70.9137V66.4025L46.5493 63.1039L45.5259 61.3723H44.4994L44.8416 67.5659L44 70.5L33.7744 70.2085L35.0519 64.3854L35.8184 58.7905L35.5629 52.1934L35.3074 47.1187Z" fill="#FDDA21"/>
<path d="M212.439 44.7364L214.864 44H217.894L226.258 44.9818L233.288 44.2455L234 44.5L234.5 45.4727L234.015 49.6455L234 51.5L232.803 53.3273H225.773L226.015 56.0273L226.742 69.0364L225 70.5091L222.621 71L218.015 70.5091L217.53 64.8636L217.288 59.9545L217.773 54.0636L213.894 53.8182L211.47 54.8L210.742 54.0636L210 50L211 46L211.5 45L212.439 44.7364Z" fill="#FDDA21"/>
<path d="M106.635 48.8969L108.168 48.3895H112.511L116.088 54.7328L119.921 48.1357H126.308L130.396 60.8224L131.674 68.4344L123.753 71.4792L120.432 63.6135L116.088 68.1807L112.767 62.8523L109.956 69.9568H104.335L102 68V65.5L103 63L106.635 48.8969Z" fill="#FDDA21"/>
<path d="M135.635 48.7612L137.168 48.2537H141.511L145.088 54.5971L148.5 48H154.5L159.396 60.6867L160.5 68L152.753 71.3435L149.432 63.4777L145.088 68.045L141.767 62.7165L138.956 69.8211H133.335L131 67.8643V65.3643L131.826 62.7165L135.635 48.7612Z" fill="#FDDA21"/>
<path d="M88 7.5L90.8432 5.82227L103.618 6.8372L103.363 26.121L102.085 30.4344L96.2087 33.2255L87.7772 32.2106L88.5 24L92.3762 25.3598L94 24.5L94.1647 14.9567H91.3542L87.5217 15.7179L87 13L87.5217 9L88 7.5Z" fill="#FDDA21"/>
<path d="M70.9997 51.5L74.6427 49.5299H77.9642L82.3076 50.2911L83.8406 50.5L85.3736 50.0373L87.4176 47.5H87.9286L83.8406 59.9329L79.4972 58.918L76.6867 59.1717L74.8982 61.4553L76.1757 64.7539L80.0082 65.0076L83.0741 63.9927L86.1401 62.2165L87.1621 63.7389L85.6291 66.53L80.5192 67.7987H75.4092L70.8102 65.7688L68.2552 61.4553L68.2549 56L69.2772 53.5896L70.9997 51.5Z" fill="#FDDA21"/>
<path d="M121 13.5L128.143 12L130 13L130.953 15.5523L130.442 23.1643L130.5 30.5L121.5 31L122.5 24L123 20L121 13.5Z" fill="#FDDA21"/>
<path d="M199.5 51.0149L206.143 50L208.442 50.7612L208.953 53.5523L208.442 61.1643L209.464 68.5225L200.011 69.03L201.033 61.9255V57.1045L199.5 51.0149Z" fill="#FDDA21"/>
<path d="M158.5 50.6724L160.288 49.15L164.121 48.8963L166.313 49.15L167.698 50.165L168.464 54.4785L169.742 56.7621L170.764 56.2546L171.53 54.4785V52.956L171.019 51.1799L170.508 49.9112V49.15L171.275 48.6426L172.5 48.5L173.574 48.8963L174.852 54.4785L172.808 64.6278L169 67.5L164.121 67.9263L161.055 66.4039L159.011 62.3442L159.777 55.2397L158.5 50.6724Z" fill="#FDDA21"/>
<path d="M234.5 51.8209L235 48.5L237.5 47.2537L240.376 47L243.187 47.7612L245.5 50L247.5 54.1045L248.041 56L249.5 53.5L250 51L249.5 48L252 47H253.5L255.219 47.7612L255 51.5L249 58.5L248.5 69.5L245.742 71.3584L240.376 70.3435L240.632 60.9553L236.288 54.1045L234.5 51.8209Z" fill="#FDDA21"/>
<path d="M133.533 9.37321L137.621 9.88067L141.453 11.6568L145.03 14.9553L149.374 19.7763L150.14 11.9105L149.885 6.58214L148.607 1.7612L152.184 1L154 1.7612L156.5 3.5L157.039 19.0151L155 34.5L148.607 34.7466L147.33 30.4331L143.497 25.1047L139.92 22.0599L138.643 31.1943L136.088 32.2092L132 30.4331L133.022 24.851L133.277 19.2688L132.255 13.9404V9.88067L133.533 9.37321Z" fill="#FDDA21"/>
<path d="M176.033 47.3732L180.121 47.8807L183.953 49.6568L187.53 52.9553L191.874 57.7763L192.64 49.9105L192.385 44.5821L191.107 39.7612L194.684 39L196.728 39.2537L199 41.5L199.539 57.0151L197.5 72.5L191.107 72.7466L189.83 68.4331L185.997 63.1047L182.42 60.0599L181.143 69.1943L178.588 70.2092L174.5 68.4331L175.522 62.851L175.777 57.2688L174.755 51.9404V47.8807L176.033 47.3732Z" fill="#FDDA21"/>
<path d="M87.8137 11.888C87.8137 13.2 88.0057 14.368 88.3897 15.392C89.5417 14.656 90.8857 14.288 92.4217 14.288C93.1897 14.288 94.1817 14.4 95.3977 14.624C95.0137 16.928 94.8217 19.904 94.8217 23.552C94.8217 24.128 94.5817 24.608 94.1017 24.992C93.6217 25.344 93.0937 25.52 92.5177 25.52C91.7497 25.52 90.6297 25.152 89.1577 24.416L88.8697 31.088C89.4137 31.184 90.1177 31.344 90.9817 31.568C91.8457 31.792 92.6297 31.968 93.3337 32.096C94.0697 32.256 94.7897 32.336 95.4937 32.336C97.6377 32.336 99.4617 31.68 100.966 30.368C102.502 29.056 103.27 27.472 103.27 25.616C103.27 24.4 103.174 22.448 102.982 19.76C102.79 17.072 102.694 15.328 102.694 14.528C102.694 11.552 102.87 9.12 103.222 7.232C102.39 7.232 100.726 7.072 98.2297 6.752C95.7657 6.4 93.9577 6.224 92.8057 6.224C90.7897 6.224 89.4457 6.688 88.7737 7.616C88.1337 8.448 87.8137 9.872 87.8137 11.888ZM87.1897 12.272C87.1897 10.032 87.5737 8.4 88.3417 7.376C89.2057 6.192 90.8217 5.6 93.1897 5.6C94.3737 5.6 96.1977 5.776 98.6617 6.128C101.158 6.48 102.806 6.656 103.606 6.656H104.758C104.726 6.752 104.678 6.944 104.614 7.232C104.55 7.488 104.518 7.664 104.518 7.76C104.198 9.616 104.038 12 104.038 14.912C104.038 15.648 104.134 17.376 104.326 20.096C104.518 22.784 104.614 24.752 104.614 26C104.614 28.144 103.75 29.968 102.022 31.472C100.294 32.944 98.2457 33.68 95.8777 33.68C95.1097 33.68 94.3897 33.616 93.7177 33.488C93.0457 33.36 92.2457 33.184 91.3177 32.96C90.4217 32.736 89.6697 32.56 89.0617 32.432L88.2457 32.24L88.6777 23.264L90.0217 23.936C91.3017 24.608 92.2617 24.944 92.9017 24.944C93.2537 24.944 93.5577 24.848 93.8137 24.656C94.1017 24.464 94.2457 24.224 94.2457 23.936C94.2457 20.64 94.3897 17.92 94.6777 15.776C94.0057 15.68 93.3817 15.632 92.8057 15.632C91.0137 15.632 89.4777 16.128 88.1977 17.12C87.5257 15.52 87.1897 13.904 87.1897 12.272ZM107.151 23.744C107.151 23.296 107.295 22.912 107.583 22.592C107.903 22.272 108.287 22.112 108.735 22.112C109.183 22.112 109.567 22.208 109.887 22.4C110.207 22.592 110.367 22.848 110.367 23.168C110.367 23.584 110.223 23.952 109.935 24.272C109.679 24.56 109.343 24.704 108.927 24.704C108.447 24.704 108.031 24.608 107.679 24.416C107.327 24.224 107.151 24 107.151 23.744ZM103.887 20.96C103.887 24.224 104.767 26.304 106.527 27.2L105.951 27.488C106.431 28.128 107.135 28.64 108.063 29.024C108.991 29.408 109.919 29.6 110.847 29.6C113.823 29.6 116.239 28.896 118.095 27.488C119.951 26.048 120.879 24.096 120.879 21.632C120.879 19.584 119.887 17.824 117.903 16.352C115.919 14.88 113.535 14.144 110.751 14.144C109.087 14.144 107.615 14.8 106.335 16.112C105.087 17.392 104.271 19.008 103.887 20.96ZM108.495 23.936C108.751 24.064 109.023 24.128 109.311 24.128C109.631 24.128 109.791 23.968 109.791 23.648C109.663 23.52 109.439 23.456 109.119 23.456C108.767 23.456 108.559 23.616 108.495 23.936ZM103.311 21.344V21.248V21.152C103.759 18.816 104.671 16.976 106.047 15.632C107.455 14.256 109.151 13.568 111.135 13.568C114.143 13.568 116.735 14.384 118.911 16.016C121.119 17.616 122.223 19.616 122.223 22.016C122.223 24.704 121.215 26.864 119.199 28.496C117.215 30.128 114.559 30.944 111.231 30.944C110.207 30.944 109.151 30.736 108.063 30.32C107.007 29.872 106.175 29.248 105.567 28.448C105.087 27.808 104.831 27.472 104.799 27.44C104.831 27.44 104.863 27.44 104.895 27.44C104.959 27.408 105.007 27.376 105.039 27.344C103.887 26.032 103.311 24.032 103.311 21.344ZM121.939 13.52C123.027 14.896 123.571 17.488 123.571 21.296C123.571 22.032 123.475 23.104 123.283 24.512C123.091 25.92 122.899 27.2 122.707 28.352C122.515 29.472 122.419 30.048 122.419 30.08C123.027 29.984 123.667 29.936 124.339 29.936C125.043 29.936 125.859 29.968 126.787 30.032C127.715 30.064 128.467 30.08 129.043 30.08C129.555 30.08 129.971 29.936 130.291 29.648C130.611 29.328 130.771 28.912 130.771 28.4C130.771 28.272 130.611 27.536 130.291 26.192C129.971 24.816 129.811 23.952 129.811 23.6C129.811 22.672 129.923 21.328 130.147 19.568C130.371 17.808 130.483 16.224 130.483 14.816C130.483 14.112 130.259 13.552 129.811 13.136C129.395 12.72 128.851 12.512 128.179 12.512C126.995 12.512 124.915 12.848 121.939 13.52ZM123.187 8.384C123.187 9.152 123.443 9.824 123.955 10.4C124.467 10.944 125.075 11.216 125.779 11.216C126.995 11.216 128.019 10.864 128.851 10.16C129.683 9.456 130.099 8.544 130.099 7.424C130.099 5.792 129.075 4.976 127.027 4.976C125.971 4.976 125.059 5.296 124.291 5.936C123.555 6.544 123.187 7.36 123.187 8.384ZM120.979 13.856L121.027 13.232C123.203 12.688 124.499 12.384 124.915 12.32C124.243 12.032 123.683 11.568 123.235 10.928C122.819 10.256 122.611 9.536 122.611 8.768C122.611 7.488 123.075 6.448 124.003 5.648C124.931 4.816 126.067 4.4 127.411 4.4C128.723 4.4 129.715 4.72 130.387 5.36C131.091 6 131.443 6.816 131.443 7.808C131.443 9.728 130.563 11.12 128.803 11.984C129.667 12.048 130.387 12.384 130.963 12.992C131.539 13.568 131.827 14.304 131.827 15.2C131.827 16.64 131.715 18.256 131.491 20.048C131.267 21.808 131.155 23.12 131.155 23.984C131.155 24.176 131.315 24.944 131.635 26.288C131.955 27.6 132.115 28.432 132.115 28.784C132.115 29.584 131.843 30.224 131.299 30.704C130.787 31.184 130.163 31.424 129.427 31.424C128.819 31.424 128.035 31.408 127.075 31.376C126.115 31.312 125.299 31.28 124.627 31.28C123.987 31.28 123.395 31.328 122.851 31.424L121.891 31.568L121.795 30.608C121.795 30.352 121.987 29.024 122.371 26.624C122.787 24.224 122.995 22.576 122.995 21.68C122.995 20.144 122.883 18.864 122.659 17.84C122.467 16.784 122.259 16.032 122.035 15.584C121.811 15.104 121.459 14.528 120.979 13.856ZM132.866 30.08C133.826 30.72 134.914 31.04 136.13 31.04C137.186 31.04 138.114 30.816 138.914 30.368C139.426 28.416 139.682 26.144 139.682 23.552C139.682 22.592 139.602 21.664 139.442 20.768C141.394 21.472 143.378 23.28 145.394 26.192C147.442 29.072 148.61 31.68 148.898 34.016C149.538 34.208 150.578 34.304 152.018 34.304C152.786 34.304 153.682 34.064 154.706 33.584C155.218 32.656 155.634 30.224 155.954 26.288C156.306 22.32 156.53 18.592 156.626 15.104L156.722 9.92C156.722 8.064 156.642 6.016 156.482 3.776C156.45 3.744 156.354 3.648 156.194 3.488C156.066 3.296 155.97 3.168 155.906 3.104C155.842 3.008 155.714 2.88 155.522 2.72C155.362 2.56 155.218 2.448 155.09 2.384C154.962 2.288 154.786 2.176 154.562 2.048C154.37 1.92 154.162 1.824 153.938 1.76C153.746 1.696 153.506 1.648 153.218 1.616C152.962 1.552 152.69 1.52 152.402 1.52C152.114 1.52 151.106 1.664 149.378 1.952C150.146 3.328 150.578 5.872 150.674 9.584C150.77 13.296 150.45 17.376 149.714 21.824C145.33 13.792 140.274 9.776 134.546 9.776C133.554 9.776 133.058 10.032 133.058 10.544C133.058 11.888 133.25 13.536 133.634 15.488C134.018 17.408 134.21 19.072 134.21 20.48C134.21 23.104 133.762 26.304 132.866 30.08ZM132.098 30.896L132.242 30.224C133.138 26.544 133.586 23.424 133.586 20.864C133.586 19.552 133.394 17.92 133.01 15.968C132.626 13.984 132.434 12.304 132.434 10.928C132.434 10.288 132.594 9.84 132.914 9.584C133.266 9.296 133.922 9.152 134.882 9.152C140.322 9.152 145.202 12.56 149.522 19.376C149.874 16.432 150.082 13.888 150.146 11.744C150.242 9.6 150.146 7.856 149.858 6.512C149.602 5.136 149.394 4.208 149.234 3.728C149.106 3.248 148.85 2.592 148.466 1.76C149.906 1.216 151.362 0.943999 152.834 0.943999C153.154 0.943999 153.458 0.975999 153.746 1.04C154.066 1.072 154.354 1.152 154.61 1.28C154.898 1.376 155.154 1.472 155.378 1.568C155.602 1.664 155.81 1.792 156.002 1.952C156.226 2.112 156.402 2.256 156.53 2.384C156.69 2.512 156.85 2.672 157.01 2.864C157.17 3.024 157.282 3.152 157.346 3.248C157.41 3.312 157.49 3.424 157.586 3.584L157.778 3.776C157.97 6.368 158.066 8.544 158.066 10.304C158.066 11.712 158.034 13.76 157.97 16.448C157.906 19.136 157.682 22.576 157.298 26.768C156.914 30.928 156.418 33.584 155.81 34.736C154.402 35.344 153.266 35.648 152.402 35.648C150.866 35.648 149.538 35.472 148.418 35.12C148.13 32.592 147.17 30.176 145.538 27.872C143.938 25.568 142.418 23.904 140.978 22.88C140.978 23.008 140.978 23.184 140.978 23.408C141.01 23.632 141.026 23.808 141.026 23.936C141.026 26.688 140.722 29.184 140.114 31.424C138.93 32.064 137.73 32.384 136.514 32.384C135.138 32.384 133.874 32.032 132.722 31.328L132.098 30.896ZM4.16694 63.664C4.16694 63.216 4.31094 62.832 4.59894 62.512C4.91894 62.192 5.30294 62.032 5.75094 62.032C6.19894 62.032 6.58294 62.128 6.90294 62.32C7.22294 62.512 7.38294 62.768 7.38294 63.088C7.38294 63.504 7.23894 63.872 6.95094 64.192C6.69494 64.48 6.35894 64.624 5.94294 64.624C5.46294 64.624 5.04694 64.528 4.69494 64.336C4.34294 64.144 4.16694 63.92 4.16694 63.664ZM0.902938 60.88C0.902938 64.144 1.78294 66.224 3.54294 67.12L2.96694 67.408C3.44694 68.048 4.15094 68.56 5.07894 68.944C6.00694 69.328 6.93494 69.52 7.86294 69.52C10.8389 69.52 13.2549 68.816 15.1109 67.408C16.9669 65.968 17.8949 64.016 17.8949 61.552C17.8949 59.504 16.9029 57.744 14.9189 56.272C12.9349 54.8 10.5509 54.064 7.76694 54.064C6.10294 54.064 4.63094 54.72 3.35094 56.032C2.10294 57.312 1.28694 58.928 0.902938 60.88ZM5.51094 63.856C5.76694 63.984 6.03894 64.048 6.32694 64.048C6.64694 64.048 6.80694 63.888 6.80694 63.568C6.67894 63.44 6.45494 63.376 6.13494 63.376C5.78294 63.376 5.57494 63.536 5.51094 63.856ZM0.326937 61.264V61.168V61.072C0.774937 58.736 1.68694 56.896 3.06294 55.552C4.47094 54.176 6.16694 53.488 8.15094 53.488C11.1589 53.488 13.7509 54.304 15.9269 55.936C18.1349 57.536 19.2389 59.536 19.2389 61.936C19.2389 64.624 18.2309 66.784 16.2149 68.416C14.2309 70.048 11.5749 70.864 8.24694 70.864C7.22294 70.864 6.16694 70.64 5.07894 70.192C4.02294 69.776 3.19094 69.168 2.58294 68.368C2.10294 67.728 1.84694 67.392 1.81494 67.36C1.84694 67.36 1.87894 67.36 1.91094 67.36C1.97494 67.328 2.02294 67.296 2.05494 67.264C0.902938 65.952 0.326937 63.952 0.326937 61.264ZM19.1463 51.568C19.2103 51.92 19.4023 52.56 19.7223 53.488C20.0423 54.384 20.2023 55.056 20.2023 55.504C20.2023 55.856 20.1063 56.832 19.9143 58.432C19.7543 60 19.6743 61.328 19.6743 62.416C19.6743 63.984 20.2823 65.312 21.4983 66.4C22.7143 67.456 24.3463 67.984 26.3943 67.984C28.7303 67.984 30.6023 66.768 32.0103 64.336C33.4183 61.872 34.1223 58.672 34.1223 54.736C34.1223 53.328 33.9303 52.112 33.5463 51.088C33.1623 50.064 32.7143 49.552 32.2023 49.552C31.3703 49.552 30.8583 49.904 30.6663 50.608C30.7303 50.896 30.9543 51.44 31.3383 52.24C31.7223 53.04 31.9143 53.68 31.9143 54.16C31.9143 55.184 31.6743 56.064 31.1943 56.8C30.7143 57.504 30.1223 57.856 29.4183 57.856C28.8423 57.856 28.3463 57.216 27.9303 55.936C27.5143 54.656 27.3063 53.104 27.3063 51.28C27.3063 50.928 26.8583 50.64 25.9623 50.416C25.0983 50.16 24.0423 50.032 22.7943 50.032C20.8743 50.032 19.6583 50.544 19.1463 51.568ZM18.4263 51.568L18.6183 51.28C19.4503 50.064 20.9703 49.456 23.1783 49.456C24.5863 49.456 25.8503 49.632 26.9703 49.984C28.0903 50.336 28.6503 50.896 28.6503 51.664C28.6503 52.752 28.7303 53.744 28.8903 54.64C29.0503 55.504 29.2103 56.128 29.3703 56.512C29.5623 56.896 29.7223 57.152 29.8503 57.28C30.2023 57.216 30.5383 56.928 30.8583 56.416C31.1783 55.904 31.3383 55.28 31.3383 54.544C31.3383 54.192 31.1623 53.664 30.8103 52.96C30.4583 52.224 30.2343 51.664 30.1383 51.28C30.1383 51.248 30.1223 51.216 30.0903 51.184C30.0903 51.152 30.0743 51.104 30.0423 51.04C30.1063 50.912 30.1383 50.816 30.1383 50.752C30.2663 50.208 30.5703 49.776 31.0503 49.456C31.5303 49.136 32.0423 48.976 32.5863 48.976C33.4823 48.976 34.1863 49.568 34.6983 50.752C35.2103 51.936 35.4663 53.392 35.4663 55.12C35.4663 59.408 34.6663 62.848 33.0663 65.44C31.4663 68.032 29.3703 69.328 26.7783 69.328C24.5063 69.328 22.6503 68.704 21.2103 67.456C19.8023 66.208 19.0983 64.656 19.0983 62.8C19.0983 61.648 19.1783 60.288 19.3383 58.72C19.5303 57.12 19.6263 56.192 19.6263 55.936C19.6263 55.616 19.4663 54.976 19.1463 54.016C18.8263 53.024 18.6343 52.384 18.5703 52.096L18.4263 51.568ZM43.4313 53.584C44.4233 53.584 45.2393 53.664 45.8793 53.824C46.5513 53.984 46.8873 54.192 46.8873 54.448C46.8873 54.864 46.7433 55.2 46.4553 55.456C46.1993 55.68 45.8633 55.856 45.4473 55.984C45.0633 56.112 44.5833 56.224 44.0073 56.32C43.8473 56.352 43.7353 56.368 43.6713 56.368L43.4313 53.584ZM34.6953 69.328C37.1593 69.84 39.8633 70.096 42.8073 70.096C43.3193 70.096 43.7033 69.92 43.9593 69.568C44.2473 69.216 44.3913 68.784 44.3913 68.272C44.3913 64.912 44.1833 61.84 43.7673 59.056C45.4953 60.304 46.6313 61.68 47.1753 63.184C47.7193 64.656 47.9913 67.088 47.9913 70.48C48.8553 71.12 49.8473 71.44 50.9673 71.44C52.7913 71.44 54.3113 70.656 55.5273 69.088C56.7433 67.52 57.4153 65.808 57.5433 63.952C56.1993 63.952 55.2073 63.744 54.5673 63.328C53.9273 62.912 53.4953 62.176 53.2713 61.12C53.0153 59.872 52.5033 58.88 51.7353 58.144C50.9673 57.376 49.9593 56.992 48.7113 56.992C50.6953 56.448 52.2793 55.568 53.4633 54.352C54.6793 53.104 55.2873 51.648 55.2873 49.984C55.2873 48.672 54.6953 47.536 53.5113 46.576C52.3593 45.584 50.9673 45.088 49.3353 45.088C48.0873 45.088 46.5193 45.52 44.6313 46.384C42.7433 47.216 41.1753 47.632 39.9273 47.632C39.4473 47.632 38.9993 47.616 38.5833 47.584C38.1673 47.52 37.7033 47.456 37.1913 47.392C36.6793 47.328 36.2313 47.28 35.8473 47.248C35.9113 48.208 36.0073 49.408 36.1353 50.848C36.2633 52.256 36.3593 53.52 36.4233 54.64C36.5193 55.76 36.5673 56.96 36.5673 58.24C36.5673 59.52 36.4713 60.736 36.2793 61.888C36.0873 63.04 35.8153 64.32 35.4633 65.728C35.1113 67.104 34.8553 68.304 34.6953 69.328ZM33.9753 70.48L34.1193 69.568C34.3113 68.512 34.5673 67.28 34.8873 65.872C35.2393 64.464 35.5113 63.216 35.7033 62.128C35.8953 61.04 35.9913 59.872 35.9913 58.624C35.9913 57.376 35.9433 56.192 35.8473 55.072C35.7833 53.952 35.6873 52.688 35.5593 51.28C35.4313 49.872 35.3353 48.672 35.2713 47.68C35.2713 47.584 35.2553 47.392 35.2233 47.104C35.1913 46.816 35.1753 46.64 35.1753 46.576C35.2393 46.576 35.4313 46.592 35.7513 46.624C36.0713 46.656 36.2633 46.672 36.3273 46.672C36.6793 46.704 37.2873 46.784 38.1513 46.912C39.0153 47.008 39.7353 47.056 40.3113 47.056C41.3993 47.056 42.9033 46.64 44.8233 45.808C46.7433 44.944 48.3753 44.512 49.7193 44.512C51.5753 44.512 53.1913 45.104 54.5673 46.288C55.9433 47.44 56.6313 48.8 56.6313 50.368C56.6313 53.28 55.0953 55.568 52.0233 57.232C53.3673 58.096 54.2313 59.456 54.6153 61.312C54.7753 62.08 55.0633 62.624 55.4793 62.944C55.9273 63.232 56.7433 63.376 57.9273 63.376H58.9353C58.9353 63.408 58.9193 63.568 58.8873 63.856C58.8873 64.144 58.8873 64.32 58.8873 64.384C58.7273 66.464 57.9593 68.384 56.5833 70.144C55.2073 71.904 53.4633 72.784 51.3513 72.784C50.0073 72.784 48.8233 72.4 47.7993 71.632C47.7673 71.632 47.7033 71.584 47.6073 71.488C47.5113 71.392 47.4473 71.344 47.4153 71.344V70.864C47.4153 68.272 47.2713 66.336 46.9833 65.056C46.7273 63.776 46.2153 62.688 45.4473 61.792C45.6393 63.616 45.7353 65.904 45.7353 68.656C45.7353 69.392 45.5113 70.032 45.0633 70.576C44.6153 71.152 43.9913 71.44 43.1913 71.44C40.2153 71.44 37.4473 71.184 34.8873 70.672L33.9753 70.48ZM68.9677 58.24C68.9677 61.024 69.8797 63.264 71.7037 64.96C73.5277 66.656 75.7677 67.504 78.4237 67.504C81.6877 67.504 84.6157 66.32 87.2077 63.952C86.9197 63.344 86.5997 62.896 86.2477 62.608C85.3837 63.44 84.2797 64.112 82.9357 64.624C81.6237 65.136 80.3437 65.392 79.0957 65.392C77.8477 65.392 76.8397 65.104 76.0717 64.528C75.3037 63.92 74.9197 62.992 74.9197 61.744C74.9197 60.688 75.3037 59.808 76.0717 59.104C76.8717 58.368 77.8317 58 78.9517 58C80.7437 58 82.5037 58.64 84.2317 59.92C84.6797 57.68 85.1757 55.6 85.7197 53.68C85.9437 52.88 86.3277 51.84 86.8717 50.56C87.4477 49.28 87.8157 48.448 87.9757 48.064H87.7837C87.5597 48.768 87.0797 49.392 86.3437 49.936C85.6077 50.48 84.9037 50.752 84.2317 50.752C83.2397 50.752 82.0557 50.592 80.6797 50.272C79.3037 49.952 78.1197 49.792 77.1277 49.792C74.9517 49.792 73.0477 50.672 71.4157 52.432C69.7837 54.16 68.9677 56.096 68.9677 58.24ZM68.3917 58.576C68.3917 55.888 69.2237 53.648 70.8877 51.856C72.5517 50.064 74.7277 49.168 77.4157 49.168C78.5037 49.168 79.7517 49.344 81.1597 49.696C82.5677 50.016 83.7197 50.176 84.6157 50.176C85.0317 50.176 85.5277 49.984 86.1037 49.6C86.6797 49.184 87.0637 48.688 87.2557 48.112C87.2877 48.048 87.3357 47.92 87.3997 47.728L87.4477 47.488H89.5597C88.3437 50.304 87.4957 52.592 87.0157 54.352C86.4077 56.368 85.9277 58.4 85.5757 60.448C85.5117 60.608 85.4157 61.104 85.2877 61.936C84.8077 61.616 84.4077 61.328 84.0877 61.072C82.5517 59.92 80.9677 59.344 79.3357 59.344C78.4717 59.344 77.7357 59.616 77.1277 60.16C76.5517 60.704 76.2637 61.36 76.2637 62.128C76.2637 63.92 77.3357 64.816 79.4797 64.816C80.6317 64.816 81.7997 64.576 82.9837 64.096C84.1997 63.616 85.1917 63.008 85.9597 62.272C86.2797 61.952 86.4877 61.76 86.5837 61.696L87.2077 62.224C87.5277 62.512 87.7997 62.8 88.0237 63.088C88.1837 63.344 88.3437 63.648 88.5037 64C88.5357 64.032 88.5837 64.128 88.6477 64.288C88.7117 64.416 88.7437 64.512 88.7437 64.576L88.2637 65.056C85.5117 67.584 82.3597 68.848 78.8077 68.848C75.8957 68.848 73.4317 67.904 71.4157 66.016C69.3997 64.128 68.3917 61.648 68.3917 58.576ZM91.1669 55.984C91.1669 55.6 91.2949 55.264 91.5509 54.976C91.8389 54.688 92.1589 54.544 92.5109 54.544C92.8949 54.544 93.2149 54.64 93.4709 54.832C93.7589 54.992 93.9029 55.184 93.9029 55.408C93.9029 55.76 93.7749 56.064 93.5189 56.32C93.2949 56.544 93.0229 56.656 92.7029 56.656C91.6789 56.656 91.1669 56.432 91.1669 55.984ZM87.9029 53.2C87.9029 56.464 88.7829 58.544 90.5429 59.44L89.9669 59.728C90.5749 60.56 91.8709 60.976 93.8549 60.976C96.7349 60.976 99.1349 60.336 101.055 59.056C102.975 57.744 103.935 56.016 103.935 53.872C103.935 51.888 103.039 50.224 101.247 48.88C99.4549 47.536 97.1349 46.864 94.2869 46.864C92.7509 46.864 91.3909 47.472 90.2069 48.688C89.0229 49.872 88.2549 51.376 87.9029 53.2ZM87.3269 53.584V53.488V53.392C88.2869 48.656 90.7349 46.288 94.6709 46.288C97.7109 46.288 100.239 47.04 102.255 48.544C104.271 50.048 105.279 51.952 105.279 54.256C105.279 56.752 104.191 58.72 102.015 60.16C99.8709 61.6 97.2789 62.32 94.2389 62.32C91.9349 62.32 90.3829 61.776 89.5829 60.688L88.8149 59.68L89.0549 59.584C87.9029 58.24 87.3269 56.24 87.3269 53.584ZM102.761 66.88C102.761 67.2 102.937 67.552 103.289 67.936C103.641 68.32 104.185 68.656 104.921 68.944C106.073 69.168 107.737 69.248 109.913 69.184L113.321 60.928C113.993 63.232 115.161 65.328 116.825 67.216C118.905 65.648 120.345 63.76 121.145 61.552C121.433 62.576 121.993 64.304 122.825 66.736C123.657 69.168 124.153 70.496 124.313 70.72C124.793 70.144 125.449 69.696 126.281 69.376C127.145 69.024 127.913 68.8 128.585 68.704C129.289 68.608 129.897 68.4 130.409 68.08C130.953 67.728 131.225 67.216 131.225 66.544C131.033 65.488 130.761 64.144 130.409 62.512C130.057 60.848 129.385 58.368 128.393 55.072C127.433 51.744 126.537 49.488 125.705 48.304C123.049 48.304 121.225 48.352 120.233 48.448L116.825 55.12C116.665 55.44 116.537 55.488 116.441 55.264C116.153 54.816 115.577 53.648 114.713 51.76C113.849 49.872 113.193 48.784 112.745 48.496L109.433 48.592C108.313 48.592 107.705 48.768 107.609 49.12C107.257 50.08 106.361 53.088 104.921 58.144C103.481 63.2 102.761 66.112 102.761 66.88ZM102.185 67.264C102.185 66.464 102.857 63.68 104.201 58.912C105.545 54.144 106.489 50.912 107.033 49.216C107.129 48.928 107.193 48.752 107.225 48.688C107.257 48.624 107.497 48.496 107.945 48.304C108.393 48.112 109.017 48.016 109.817 48.016C110.649 48.016 111.337 48.016 111.881 48.016C112.425 47.984 112.793 47.968 112.985 47.968C113.209 47.936 113.353 47.92 113.417 47.92C113.801 48.144 114.137 48.448 114.425 48.832C114.713 49.216 114.937 49.6 115.097 49.984C115.289 50.336 115.561 50.928 115.913 51.76C116.297 52.56 116.633 53.264 116.921 53.872C118.713 50.352 119.721 48.352 119.945 47.872C121.289 47.776 123.513 47.728 126.617 47.728C127.641 49.2 128.649 51.536 129.641 54.736C130.633 57.936 131.369 60.768 131.849 63.232L132.569 66.928C132.569 67.824 132.281 68.528 131.705 69.04C131.161 69.52 130.521 69.824 129.785 69.952C129.049 70.048 128.249 70.24 127.385 70.528C126.521 70.816 125.881 71.216 125.465 71.728L124.697 72.688L123.929 71.68C123.673 71.36 122.809 68.976 121.337 64.528C120.473 65.904 119.049 67.36 117.065 68.896C115.561 67.168 114.441 65.536 113.705 64L110.969 70.48L110.345 70.528C108.265 70.592 106.489 70.496 105.017 70.24C104.121 69.92 103.417 69.488 102.905 68.944C102.425 68.4 102.185 67.84 102.185 67.264ZM131.542 66.88C131.542 67.2 131.718 67.552 132.07 67.936C132.422 68.32 132.966 68.656 133.702 68.944C134.854 69.168 136.518 69.248 138.694 69.184L142.102 60.928C142.774 63.232 143.942 65.328 145.606 67.216C147.686 65.648 149.126 63.76 149.926 61.552C150.214 62.576 150.774 64.304 151.606 66.736C152.438 69.168 152.934 70.496 153.094 70.72C153.574 70.144 154.23 69.696 155.062 69.376C155.926 69.024 156.694 68.8 157.366 68.704C158.07 68.608 158.678 68.4 159.19 68.08C159.734 67.728 160.006 67.216 160.006 66.544C159.814 65.488 159.542 64.144 159.19 62.512C158.838 60.848 158.166 58.368 157.174 55.072C156.214 51.744 155.318 49.488 154.486 48.304C151.83 48.304 150.006 48.352 149.014 48.448L145.606 55.12C145.446 55.44 145.318 55.488 145.222 55.264C144.934 54.816 144.358 53.648 143.494 51.76C142.63 49.872 141.974 48.784 141.526 48.496L138.214 48.592C137.094 48.592 136.486 48.768 136.39 49.12C136.038 50.08 135.142 53.088 133.702 58.144C132.262 63.2 131.542 66.112 131.542 66.88ZM130.966 67.264C130.966 66.464 131.638 63.68 132.982 58.912C134.326 54.144 135.27 50.912 135.814 49.216C135.91 48.928 135.974 48.752 136.006 48.688C136.038 48.624 136.278 48.496 136.726 48.304C137.174 48.112 137.798 48.016 138.598 48.016C139.43 48.016 140.118 48.016 140.662 48.016C141.206 47.984 141.574 47.968 141.766 47.968C141.99 47.936 142.134 47.92 142.198 47.92C142.582 48.144 142.918 48.448 143.206 48.832C143.494 49.216 143.718 49.6 143.878 49.984C144.07 50.336 144.342 50.928 144.694 51.76C145.078 52.56 145.414 53.264 145.702 53.872C147.494 50.352 148.502 48.352 148.726 47.872C150.07 47.776 152.294 47.728 155.398 47.728C156.422 49.2 157.43 51.536 158.422 54.736C159.414 57.936 160.15 60.768 160.63 63.232L161.35 66.928C161.35 67.824 161.062 68.528 160.486 69.04C159.942 69.52 159.302 69.824 158.566 69.952C157.83 70.048 157.03 70.24 156.166 70.528C155.302 70.816 154.662 71.216 154.246 71.728L153.478 72.688L152.71 71.68C152.454 71.36 151.59 68.976 150.118 64.528C149.254 65.904 147.83 67.36 145.846 68.896C144.342 67.168 143.222 65.536 142.486 64L139.75 70.48L139.126 70.528C137.046 70.592 135.27 70.496 133.798 70.24C132.902 69.92 132.198 69.488 131.686 68.944C131.206 68.4 130.966 67.84 130.966 67.264ZM159.49 50.608C159.554 50.96 159.746 51.6 160.066 52.528C160.386 53.424 160.546 54.096 160.546 54.544C160.546 54.896 160.45 55.872 160.258 57.472C160.098 59.04 160.018 60.368 160.018 61.456C160.018 63.024 160.626 64.352 161.842 65.44C163.058 66.496 164.69 67.024 166.738 67.024C169.074 67.024 170.946 65.808 172.354 63.376C173.762 60.912 174.466 57.712 174.466 53.776C174.466 52.368 174.274 51.152 173.89 50.128C173.506 49.104 173.058 48.592 172.546 48.592C171.714 48.592 171.202 48.944 171.01 49.648C171.074 49.936 171.298 50.48 171.682 51.28C172.066 52.08 172.258 52.72 172.258 53.2C172.258 54.224 172.018 55.104 171.538 55.84C171.058 56.544 170.466 56.896 169.762 56.896C169.186 56.896 168.69 56.256 168.274 54.976C167.858 53.696 167.65 52.144 167.65 50.32C167.65 49.968 167.202 49.68 166.306 49.456C165.442 49.2 164.386 49.072 163.138 49.072C161.218 49.072 160.002 49.584 159.49 50.608ZM158.77 50.608L158.962 50.32C159.794 49.104 161.314 48.496 163.522 48.496C164.93 48.496 166.194 48.672 167.314 49.024C168.434 49.376 168.994 49.936 168.994 50.704C168.994 51.792 169.074 52.784 169.234 53.68C169.394 54.544 169.554 55.168 169.714 55.552C169.906 55.936 170.066 56.192 170.194 56.32C170.546 56.256 170.882 55.968 171.202 55.456C171.522 54.944 171.682 54.32 171.682 53.584C171.682 53.232 171.506 52.704 171.154 52C170.802 51.264 170.578 50.704 170.482 50.32C170.482 50.288 170.466 50.256 170.434 50.224C170.434 50.192 170.418 50.144 170.386 50.08C170.45 49.952 170.482 49.856 170.482 49.792C170.61 49.248 170.914 48.816 171.394 48.496C171.874 48.176 172.386 48.016 172.93 48.016C173.826 48.016 174.53 48.608 175.042 49.792C175.554 50.976 175.81 52.432 175.81 54.16C175.81 58.448 175.01 61.888 173.41 64.48C171.81 67.072 169.714 68.368 167.122 68.368C164.85 68.368 162.994 67.744 161.554 66.496C160.146 65.248 159.442 63.696 159.442 61.84C159.442 60.688 159.522 59.328 159.682 57.76C159.874 56.16 159.97 55.232 159.97 54.976C159.97 54.656 159.81 54.016 159.49 53.056C159.17 52.064 158.978 51.424 158.914 51.136L158.77 50.608ZM175.382 68.08C176.342 68.72 177.43 69.04 178.646 69.04C179.702 69.04 180.63 68.816 181.43 68.368C181.942 66.416 182.198 64.144 182.198 61.552C182.198 60.592 182.118 59.664 181.958 58.768C183.91 59.472 185.894 61.28 187.91 64.192C189.958 67.072 191.126 69.68 191.414 72.016C192.054 72.208 193.094 72.304 194.534 72.304C195.302 72.304 196.198 72.064 197.222 71.584C197.734 70.656 198.15 68.224 198.47 64.288C198.822 60.32 199.046 56.592 199.142 53.104L199.238 47.92C199.238 46.064 199.158 44.016 198.998 41.776C198.966 41.744 198.87 41.648 198.71 41.488C198.582 41.296 198.486 41.168 198.422 41.104C198.358 41.008 198.23 40.88 198.038 40.72C197.878 40.56 197.734 40.448 197.606 40.384C197.478 40.288 197.302 40.176 197.078 40.048C196.886 39.92 196.678 39.824 196.454 39.76C196.262 39.696 196.022 39.648 195.734 39.616C195.478 39.552 195.206 39.52 194.918 39.52C194.63 39.52 193.622 39.664 191.894 39.952C192.662 41.328 193.094 43.872 193.19 47.584C193.286 51.296 192.966 55.376 192.23 59.824C187.846 51.792 182.79 47.776 177.062 47.776C176.07 47.776 175.574 48.032 175.574 48.544C175.574 49.888 175.766 51.536 176.15 53.488C176.534 55.408 176.726 57.072 176.726 58.48C176.726 61.104 176.278 64.304 175.382 68.08ZM174.614 68.896L174.758 68.224C175.654 64.544 176.102 61.424 176.102 58.864C176.102 57.552 175.91 55.92 175.526 53.968C175.142 51.984 174.95 50.304 174.95 48.928C174.95 48.288 175.11 47.84 175.43 47.584C175.782 47.296 176.438 47.152 177.398 47.152C182.838 47.152 187.718 50.56 192.038 57.376C192.39 54.432 192.598 51.888 192.662 49.744C192.758 47.6 192.662 45.856 192.374 44.512C192.118 43.136 191.91 42.208 191.75 41.728C191.622 41.248 191.366 40.592 190.982 39.76C192.422 39.216 193.878 38.944 195.35 38.944C195.67 38.944 195.974 38.976 196.262 39.04C196.582 39.072 196.87 39.152 197.126 39.28C197.414 39.376 197.67 39.472 197.894 39.568C198.118 39.664 198.326 39.792 198.518 39.952C198.742 40.112 198.918 40.256 199.046 40.384C199.206 40.512 199.366 40.672 199.526 40.864C199.686 41.024 199.798 41.152 199.862 41.248C199.926 41.312 200.006 41.424 200.102 41.584L200.294 41.776C200.486 44.368 200.582 46.544 200.582 48.304C200.582 49.712 200.55 51.76 200.486 54.448C200.422 57.136 200.198 60.576 199.814 64.768C199.43 68.928 198.934 71.584 198.326 72.736C196.918 73.344 195.782 73.648 194.918 73.648C193.382 73.648 192.054 73.472 190.934 73.12C190.646 70.592 189.686 68.176 188.054 65.872C186.454 63.568 184.934 61.904 183.494 60.88C183.494 61.008 183.494 61.184 183.494 61.408C183.526 61.632 183.542 61.808 183.542 61.936C183.542 64.688 183.238 67.184 182.63 69.424C181.446 70.064 180.246 70.384 179.03 70.384C177.654 70.384 176.39 70.032 175.238 69.328L174.614 68.896ZM200.407 51.52C201.495 52.896 202.039 55.488 202.039 59.296C202.039 60.032 201.943 61.104 201.751 62.512C201.559 63.92 201.367 65.2 201.175 66.352C200.983 67.472 200.887 68.048 200.887 68.08C201.495 67.984 202.135 67.936 202.807 67.936C203.511 67.936 204.327 67.968 205.255 68.032C206.183 68.064 206.935 68.08 207.511 68.08C208.023 68.08 208.439 67.936 208.759 67.648C209.079 67.328 209.239 66.912 209.239 66.4C209.239 66.272 209.079 65.536 208.759 64.192C208.439 62.816 208.279 61.952 208.279 61.6C208.279 60.672 208.391 59.328 208.615 57.568C208.839 55.808 208.951 54.224 208.951 52.816C208.951 52.112 208.727 51.552 208.279 51.136C207.863 50.72 207.319 50.512 206.647 50.512C205.463 50.512 203.383 50.848 200.407 51.52ZM201.655 46.384C201.655 47.152 201.911 47.824 202.423 48.4C202.935 48.944 203.543 49.216 204.247 49.216C205.463 49.216 206.487 48.864 207.319 48.16C208.151 47.456 208.567 46.544 208.567 45.424C208.567 43.792 207.543 42.976 205.495 42.976C204.439 42.976 203.527 43.296 202.759 43.936C202.023 44.544 201.655 45.36 201.655 46.384ZM199.447 51.856L199.495 51.232C201.671 50.688 202.967 50.384 203.383 50.32C202.711 50.032 202.151 49.568 201.703 48.928C201.287 48.256 201.079 47.536 201.079 46.768C201.079 45.488 201.543 44.448 202.471 43.648C203.399 42.816 204.535 42.4 205.879 42.4C207.191 42.4 208.183 42.72 208.855 43.36C209.559 44 209.911 44.816 209.911 45.808C209.911 47.728 209.031 49.12 207.271 49.984C208.135 50.048 208.855 50.384 209.431 50.992C210.007 51.568 210.295 52.304 210.295 53.2C210.295 54.64 210.183 56.256 209.959 58.048C209.735 59.808 209.623 61.12 209.623 61.984C209.623 62.176 209.783 62.944 210.103 64.288C210.423 65.6 210.583 66.432 210.583 66.784C210.583 67.584 210.311 68.224 209.767 68.704C209.255 69.184 208.631 69.424 207.895 69.424C207.287 69.424 206.503 69.408 205.543 69.376C204.583 69.312 203.767 69.28 203.095 69.28C202.455 69.28 201.863 69.328 201.319 69.424L200.359 69.568L200.263 68.608C200.263 68.352 200.455 67.024 200.839 64.624C201.255 62.224 201.463 60.576 201.463 59.68C201.463 58.144 201.351 56.864 201.127 55.84C200.935 54.784 200.727 54.032 200.503 53.584C200.279 53.104 199.927 52.528 199.447 51.856ZM210.951 50.896C210.951 52.048 211.143 53.12 211.527 54.112C212.679 53.376 214.007 53.008 215.511 53.008C216.535 53.008 217.543 53.12 218.535 53.344C218.151 55.648 217.959 58.336 217.959 61.408C217.959 62.304 217.991 63.232 218.055 64.192C218.151 65.152 218.263 66.192 218.391 67.312C218.519 68.432 218.615 69.36 218.679 70.096C219.991 70.32 221.591 70.432 223.479 70.432C224.375 70.432 225.159 70.224 225.831 69.808C226.503 69.36 226.839 68.704 226.839 67.84C226.839 67.072 226.695 65.68 226.407 63.664C226.151 61.648 225.991 59.92 225.927 58.48C225.927 57.968 225.895 57.024 225.831 55.648C225.799 54.24 225.767 53.2 225.735 52.528C226.183 52.56 227.015 52.672 228.231 52.864C229.479 53.024 230.471 53.104 231.207 53.104C232.775 53.104 233.687 52.624 233.943 51.664C234.519 49.456 234.807 47.408 234.807 45.52C234.807 44.912 234.503 44.608 233.895 44.608C233.319 44.608 232.375 44.72 231.063 44.944C229.783 45.136 228.727 45.232 227.895 45.232C226.551 45.232 224.663 45.072 222.231 44.752C219.831 44.432 218.023 44.256 216.807 44.224C213.895 44.224 212.215 44.816 211.767 46C211.223 47.44 210.951 49.072 210.951 50.896ZM210.327 51.28C210.327 49.008 210.583 47.2 211.095 45.856C211.703 44.256 213.735 43.456 217.191 43.456C218.535 43.488 220.391 43.696 222.759 44.08C225.159 44.464 226.999 44.656 228.279 44.656C229.015 44.656 230.023 44.56 231.303 44.368C232.583 44.144 233.575 44.032 234.279 44.032C234.791 44.032 235.223 44.192 235.575 44.512C235.959 44.864 236.151 45.328 236.151 45.904C236.151 47.6 235.847 49.712 235.239 52.24C234.855 53.712 233.639 54.448 231.591 54.448C230.823 54.448 229.319 54.288 227.079 53.968C227.111 54.608 227.143 55.488 227.175 56.608C227.239 57.728 227.271 58.48 227.271 58.864C227.335 60.24 227.495 61.936 227.751 63.952C228.039 65.936 228.183 67.36 228.183 68.224C228.183 69.408 227.735 70.288 226.839 70.864C225.943 71.472 224.951 71.776 223.863 71.776C221.879 71.776 220.215 71.664 218.871 71.44L218.151 71.296L218.103 70.576C218.039 69.904 217.943 68.992 217.815 67.84C217.687 66.688 217.575 65.632 217.479 64.672C217.415 63.68 217.383 62.72 217.383 61.792C217.383 58.944 217.527 56.512 217.815 54.496C217.143 54.4 216.503 54.352 215.895 54.352C214.487 54.352 213.335 54.656 212.439 55.264L211.431 55.936L210.999 54.832C210.551 53.648 210.327 52.464 210.327 51.28ZM234.994 50.8C234.994 51.504 235.202 52.08 235.618 52.528C236.77 53.808 237.602 54.752 238.114 55.36C238.626 55.968 239.282 56.976 240.082 58.384C240.882 59.792 241.282 61.008 241.282 62.032C241.282 65.616 241.234 68.176 241.138 69.712C242.45 69.968 244.146 70.096 246.226 70.096C247.026 70.096 247.682 69.744 248.194 69.04C248.738 68.336 249.01 67.488 249.01 66.496C249.01 65.536 248.962 64.32 248.866 62.848C248.77 61.344 248.722 60.112 248.722 59.152C248.722 58.64 249.01 58.032 249.586 57.328C249.778 57.104 250.274 56.544 251.074 55.648C251.874 54.72 252.418 54.08 252.706 53.728C252.994 53.344 253.378 52.816 253.858 52.144C254.37 51.44 254.722 50.832 254.914 50.32C255.106 49.776 255.202 49.264 255.202 48.784C255.202 48.368 255.01 48.016 254.626 47.728C254.274 47.408 253.842 47.248 253.33 47.248C252.05 47.248 250.962 47.52 250.066 48.064C250.674 48.736 250.978 49.6 250.978 50.656C250.978 52.32 250.082 54.256 248.29 56.464C247.746 55.184 247.282 54.16 246.898 53.392C246.514 52.592 245.97 51.632 245.266 50.512C244.594 49.36 243.858 48.496 243.058 47.92C242.29 47.344 241.49 47.056 240.658 47.056C239.09 47.056 237.746 47.424 236.626 48.16C235.538 48.896 234.994 49.776 234.994 50.8ZM234.418 51.184C234.418 49.616 235.058 48.448 236.338 47.68C237.618 46.88 239.186 46.48 241.042 46.48C242.002 46.48 242.914 46.784 243.778 47.392C244.642 47.968 245.426 48.8 246.13 49.888C246.834 50.944 247.362 51.808 247.714 52.48C248.066 53.152 248.466 53.984 248.914 54.976C249.906 53.6 250.402 52.288 250.402 51.04C250.402 50.272 250.178 49.616 249.73 49.072C249.41 48.752 249.154 48.464 248.962 48.208C249.026 48.176 249.186 48.096 249.442 47.968C249.73 47.808 249.906 47.696 249.97 47.632C251.058 46.992 252.306 46.672 253.714 46.672C254.45 46.672 255.106 46.912 255.682 47.392C256.258 47.84 256.546 48.432 256.546 49.168C256.546 49.52 256.482 49.904 256.354 50.32C256.258 50.704 256.146 51.056 256.018 51.376C255.922 51.696 255.714 52.096 255.394 52.576C255.106 53.024 254.882 53.376 254.722 53.632C254.562 53.856 254.258 54.224 253.81 54.736C253.394 55.248 253.106 55.6 252.946 55.792C252.818 55.952 252.514 56.304 252.034 56.848C251.554 57.392 251.282 57.696 251.218 57.76C251.122 57.856 251.01 57.968 250.882 58.096C250.786 58.224 250.722 58.304 250.69 58.336C250.274 58.88 250.066 59.28 250.066 59.536C250.066 60.432 250.114 61.632 250.21 63.136C250.306 64.64 250.354 65.888 250.354 66.88C250.354 68.096 250.002 69.152 249.298 70.048C248.594 70.976 247.698 71.44 246.61 71.44C244.466 71.44 242.706 71.312 241.33 71.056C240.946 70.928 240.642 70.864 240.418 70.864L240.466 70.048C240.562 68.544 240.61 66 240.61 62.416C240.61 60.4 238.834 57.44 235.282 53.536C234.706 52.864 234.418 52.08 234.418 51.184Z" fill="white"/>
</svg>
