<svg width="701" height="72" viewBox="0 0 701 72" fill="none" xmlns="http://www.w3.org/2000/svg">
<path d="M198 47C198 56.3888 190.165 64 180.5 64C170.835 64 163 56.3888 163 47C163 37.6112 170.835 30 180.5 30C189.5 32.5 198 37.6112 198 47Z" fill="#FDDA21"/>
<path d="M371 32C371 41.3888 363 42.5 353.5 47C343.835 47 337 41.3888 337 32C337 22.6112 343.335 16 353 16C362.5 18 371 22.6112 371 32Z" fill="#FDDA21"/>
<path d="M68.5 43C68.5 52.3888 60.165 60 50.5 60C40.835 60 33 52.3888 33 43C33 33.6112 40.835 26.5 50.5 26.5C59.5 29 68.5 33.6112 68.5 43Z" fill="#FDDA21"/>
<path d="M87 14.8955C87 18.8192 83.4782 22 79.3944 22C75.3106 22 72 20.4237 72 16.5C72.5 10.5 76.9162 8.5 81 8.5C84.8028 9.54478 87 10.9718 87 14.8955Z" fill="#FDDA21"/>
<path d="M579.5 14.3955C579.5 18.3192 575.978 21.5 571.894 21.5C567.811 21.5 564.5 19.9237 564.5 16C565 10 569.416 8 573.5 8C577.303 9.04478 579.5 10.4718 579.5 14.3955Z" fill="#FDDA21"/>
<path d="M200 25.5L201.5 24L204 23L210 22.5L216.5 24L217.5 27L219.5 36L221.5 38L224 36.5L225 32L223 25.5V24L224 22H226.5L230 22.5L231.5 39L226.5 55.5L220.5 59L214.5 60L204 57L201 50L202 35L200 25.5Z" fill="#FDDA21"/>
<path d="M233.5 17L244.5 17.5L258.5 13L266.22 13.4211L271.911 17.7093L274.255 22.6572L271.911 31L265.215 36.8412L269.5 45.5L273.585 50.3654L278.942 51.0252L274.255 63.8897L266.22 66.5286L257.85 65L257 55L255.5 48.5L253.497 45.0877H251.488L252.158 57.2925L251.488 63.8897L230.5 62.5L233 51.0252L234.5 40L234 27L233.5 17Z" fill="#FDDA21"/>
<path d="M587 12.5L592 11H598.25L615.5 13L630 11.5L632.5 14L631.5 22.5L629 30H614.5L615 35.5L616.5 62L608 66L598.5 65L597.5 53.5L597 43.5L598 31.5L590 31L585 33L583.5 31.5L583 23.5L584.5 15.5L587 12.5Z" fill="#FDDA21"/>
<path d="M377 20.5L380 19.5H388.5L395.5 32L403 19H415.5L423.5 44L426 59L410.5 65L404 49.5L395.5 58.5L389 48L383.5 62H372.5L367 58.5L367.5 53.5L369 48.5L377 20.5Z" fill="#FDDA21"/>
<path d="M434 20.5L437 19.5H445.5L452.5 32L460 19H472.5L480.5 44L483 59L467.5 65L461 49.5L452.5 58.5L446 48L440.5 62H429.5L424 58.5L424.5 53.5L426 48.5L434 20.5Z" fill="#FDDA21"/>
<path d="M4 13L9.5 11L34.5 13L34 51L31.5 59.5L20 65L3.5 63L4 47L12.5 49.5L15 47.5L16 29H10.5L3 30.5L1 25.5L1.5 17L4 13Z" fill="#FDDA21"/>
<path d="M305.5 25.5L312.5 22.5H319L327.5 24L333.5 23.5L337.5 18.5H338.5L330.5 43L322 41L316.5 41.5L313 46L315.5 52.5L323 53L329 51L335 47.5L337 50.5L334 56L324 58.5H314L305 54.5L300 46L299.5 35.5L302 30.5L305.5 25.5Z" fill="#FDDA21"/>
<path d="M69.5 25.5L82.5 23.5L87 25L88 30.5L87 45.5L89 60L70.5 61L72.5 47V37.5L69.5 25.5Z" fill="#FDDA21"/>
<path d="M562 25L575 23L579.5 24.5L580.5 30L579.5 45L581.5 59.5L563 60.5L565 46.5V37L562 25Z" fill="#FDDA21"/>
<path d="M480 24L483.5 21L491 20.5L498 23L499.5 31.5L502 36L504 35L505.5 31.5V28.5L504.5 25L503.5 22.5L505 20H507.5L509.5 20.5L512 31.5L508 51.5L500.5 58.5L491 58L485 55L481 47L482.5 33L480 24Z" fill="#FDDA21"/>
<path d="M631.5 26L633.5 20L638.229 17.5L643 16.5L648.5 18L653.5 22.5L658 30.5L659.5 34L662 29.5L663.5 25L662 19L665.5 17L672.5 17.5V26L661 41.5L660.5 62.5L653.5 64.5L644 63.5L643.5 44L635 30.5L631.5 26Z" fill="#FDDA21"/>
<path d="M94.5 18L102.5 19L110 22.5L117 29L125.5 38.5L127 23L126.5 12.5L124 3L131 1.5L135 2L140 5.5L140.5 37L137.5 68H124L121.5 59.5L114 49L107 43L104.5 61L99.5 63L91.5 59.5L93.5 48.5L94 37.5L92 27V19L94.5 18Z" fill="#FDDA21"/>
<path d="M515 17.5L523 18.5L530.5 22L537.5 28.5L546 38L547.5 22.5L547 12L544.5 2.5L551.5 1L555.5 1.5L560.5 5L561 36.5L558 67.5H544.5L542 59L534.5 48.5L527.5 42.5L525 60.5L520 62.5L512 59L514 48L514.5 37L512.5 26.5V18.5L515 17.5Z" fill="#FDDA21"/>
<path d="M1.768 22.776C1.768 25.4 2.152 27.736 2.92 29.784C5.224 28.312 7.912 27.576 10.984 27.576C12.52 27.576 14.504 27.8 16.936 28.248C16.168 32.856 15.784 38.808 15.784 46.104C15.784 47.256 15.304 48.216 14.344 48.984C13.384 49.688 12.328 50.04 11.176 50.04C9.64 50.04 7.4 49.304 4.456 47.832L3.88 61.176C4.968 61.368 6.376 61.688 8.104 62.136C9.832 62.584 11.4 62.936 12.808 63.192C14.28 63.512 15.72 63.672 17.128 63.672C21.416 63.672 25.064 62.36 28.072 59.736C31.144 57.112 32.68 53.944 32.68 50.232C32.68 47.8 32.488 43.896 32.104 38.52C31.72 33.144 31.528 29.656 31.528 28.056C31.528 22.104 31.88 17.24 32.584 13.464C30.92 13.464 27.592 13.144 22.6 12.504C17.672 11.8 14.056 11.448 11.752 11.448C7.72 11.448 5.032 12.376 3.688 14.232C2.408 15.896 1.768 18.744 1.768 22.776ZM0.52 23.544C0.52 19.064 1.288 15.8 2.824 13.752C4.552 11.384 7.784 10.2 12.52 10.2C14.888 10.2 18.536 10.552 23.464 11.256C28.456 11.96 31.752 12.312 33.352 12.312H35.656C35.592 12.504 35.496 12.888 35.368 13.464C35.24 13.976 35.176 14.328 35.176 14.52C34.536 18.232 34.216 23 34.216 28.824C34.216 30.296 34.408 33.752 34.792 39.192C35.176 44.568 35.368 48.504 35.368 51C35.368 55.288 33.64 58.936 30.184 61.944C26.728 64.888 22.632 66.36 17.896 66.36C16.36 66.36 14.92 66.232 13.576 65.976C12.232 65.72 10.632 65.368 8.776 64.92C6.984 64.472 5.48 64.12 4.264 63.864L2.632 63.48L3.496 45.528L6.184 46.872C8.744 48.216 10.664 48.888 11.944 48.888C12.648 48.888 13.256 48.696 13.768 48.312C14.344 47.928 14.632 47.448 14.632 46.872C14.632 40.28 14.92 34.84 15.496 30.552C14.152 30.36 12.904 30.264 11.752 30.264C8.168 30.264 5.096 31.256 2.536 33.24C1.192 30.04 0.52 26.808 0.52 23.544ZM40.4433 46.488C40.4433 45.592 40.7313 44.824 41.3073 44.184C41.9473 43.544 42.7153 43.224 43.6113 43.224C44.5073 43.224 45.2753 43.416 45.9153 43.8C46.5553 44.184 46.8753 44.696 46.8753 45.336C46.8753 46.168 46.5873 46.904 46.0113 47.544C45.4993 48.12 44.8273 48.408 43.9953 48.408C43.0353 48.408 42.2033 48.216 41.4993 47.832C40.7953 47.448 40.4433 47 40.4433 46.488ZM33.9153 40.92C33.9153 47.448 35.6753 51.608 39.1953 53.4L38.0433 53.976C39.0033 55.256 40.4113 56.28 42.2673 57.048C44.1233 57.816 45.9793 58.2 47.8353 58.2C53.7873 58.2 58.6193 56.792 62.3313 53.976C66.0433 51.096 67.8993 47.192 67.8993 42.264C67.8993 38.168 65.9153 34.648 61.9473 31.704C57.9793 28.76 53.2113 27.288 47.6432 27.288C44.3153 27.288 41.3713 28.6 38.8113 31.224C36.3153 33.784 34.6833 37.016 33.9153 40.92ZM43.1313 46.872C43.6433 47.128 44.1873 47.256 44.7633 47.256C45.4033 47.256 45.7233 46.936 45.7233 46.296C45.4673 46.04 45.0193 45.912 44.3793 45.912C43.6753 45.912 43.2593 46.232 43.1313 46.872ZM32.7632 41.688V41.496V41.304C33.6592 36.632 35.4833 32.952 38.2353 30.264C41.0513 27.512 44.4433 26.136 48.4113 26.136C54.4273 26.136 59.6113 27.768 63.9633 31.032C68.3793 34.232 70.5873 38.232 70.5873 43.032C70.5873 48.408 68.5713 52.728 64.5393 55.992C60.5713 59.256 55.2593 60.888 48.6033 60.888C46.5553 60.888 44.4433 60.472 42.2673 59.64C40.1553 58.744 38.4913 57.496 37.2753 55.896C36.3153 54.616 35.8033 53.944 35.7393 53.88C35.8033 53.88 35.8673 53.88 35.9313 53.88C36.0593 53.816 36.1553 53.752 36.2193 53.688C33.9153 51.064 32.7632 47.064 32.7632 41.688ZM70.018 26.04C72.194 28.792 73.282 33.976 73.282 41.592C73.282 43.064 73.09 45.208 72.706 48.024C72.322 50.84 71.938 53.4 71.554 55.704C71.17 57.944 70.978 59.096 70.978 59.16C72.194 58.968 73.474 58.872 74.818 58.872C76.226 58.872 77.858 58.936 79.714 59.064C81.57 59.128 83.074 59.16 84.226 59.16C85.25 59.16 86.082 58.872 86.722 58.296C87.362 57.656 87.682 56.824 87.682 55.8C87.682 55.544 87.362 54.072 86.722 51.384C86.082 48.632 85.762 46.904 85.762 46.2C85.762 44.344 85.986 41.656 86.434 38.136C86.882 34.616 87.106 31.448 87.106 28.632C87.106 27.224 86.658 26.104 85.762 25.272C84.93 24.44 83.842 24.024 82.498 24.024C80.13 24.024 75.97 24.696 70.018 26.04ZM72.514 15.768C72.514 17.304 73.026 18.648 74.05 19.8C75.074 20.888 76.29 21.432 77.698 21.432C80.13 21.432 82.178 20.728 83.842 19.32C85.506 17.912 86.338 16.088 86.338 13.848C86.338 10.584 84.29 8.952 80.194 8.952C78.082 8.952 76.258 9.592 74.722 10.872C73.25 12.088 72.514 13.72 72.514 15.768ZM68.098 26.712L68.194 25.464C72.546 24.376 75.138 23.768 75.97 23.64C74.626 23.064 73.506 22.136 72.61 20.856C71.778 19.512 71.362 18.072 71.362 16.536C71.362 13.976 72.29 11.896 74.146 10.296C76.002 8.632 78.274 7.8 80.962 7.8C83.586 7.8 85.57 8.44 86.914 9.72C88.322 11 89.026 12.632 89.026 14.616C89.026 18.456 87.266 21.24 83.746 22.968C85.474 23.096 86.914 23.768 88.066 24.984C89.218 26.136 89.794 27.608 89.794 29.4C89.794 32.28 89.57 35.512 89.122 39.096C88.674 42.616 88.45 45.24 88.45 46.968C88.45 47.352 88.77 48.888 89.41 51.576C90.05 54.2 90.37 55.864 90.37 56.568C90.37 58.168 89.826 59.448 88.738 60.408C87.714 61.368 86.466 61.848 84.994 61.848C83.778 61.848 82.21 61.816 80.29 61.752C78.37 61.624 76.738 61.56 75.394 61.56C74.114 61.56 72.93 61.656 71.842 61.848L69.922 62.136L69.73 60.216C69.73 59.704 70.114 57.048 70.882 52.248C71.714 47.448 72.13 44.152 72.13 42.36C72.13 39.288 71.906 36.728 71.458 34.68C71.074 32.568 70.658 31.064 70.21 30.168C69.762 29.208 69.058 28.056 68.098 26.712ZM91.873 59.16C93.793 60.44 95.969 61.08 98.401 61.08C100.513 61.08 102.369 60.632 103.969 59.736C104.993 55.832 105.505 51.288 105.505 46.104C105.505 44.184 105.345 42.328 105.025 40.536C108.929 41.944 112.897 45.56 116.929 51.384C121.025 57.144 123.361 62.36 123.937 67.032C125.217 67.416 127.297 67.608 130.177 67.608C131.713 67.608 133.505 67.128 135.553 66.168C136.577 64.312 137.409 59.448 138.049 51.576C138.753 43.64 139.201 36.184 139.393 29.208L139.585 18.84C139.585 15.128 139.425 11.032 139.105 6.552C139.041 6.488 138.849 6.296 138.529 5.976C138.273 5.592 138.081 5.336 137.953 5.20799C137.825 5.016 137.569 4.76 137.185 4.44C136.865 4.12 136.577 3.896 136.321 3.768C136.065 3.576 135.713 3.352 135.265 3.096C134.881 2.84 134.465 2.648 134.017 2.51999C133.633 2.392 133.153 2.296 132.577 2.232C132.065 2.104 131.521 2.04 130.945 2.04C130.369 2.04 128.353 2.328 124.897 2.904C126.433 5.656 127.297 10.744 127.489 18.168C127.681 25.592 127.041 33.752 125.569 42.648C116.801 26.584 106.689 18.552 95.233 18.552C93.249 18.552 92.257 19.064 92.257 20.088C92.257 22.776 92.641 26.072 93.409 29.976C94.177 33.816 94.561 37.144 94.561 39.96C94.561 45.208 93.665 51.608 91.873 59.16ZM90.337 60.792L90.625 59.448C92.417 52.088 93.313 45.848 93.313 40.728C93.313 38.104 92.929 34.84 92.161 30.936C91.393 26.968 91.009 23.608 91.009 20.856C91.009 19.576 91.329 18.68 91.969 18.168C92.673 17.592 93.985 17.304 95.905 17.304C106.785 17.304 116.545 24.12 125.185 37.752C125.889 31.864 126.305 26.776 126.433 22.488C126.625 18.2 126.433 14.712 125.857 12.024C125.345 9.272 124.929 7.416 124.609 6.456C124.353 5.496 123.841 4.184 123.073 2.51999C125.953 1.432 128.865 0.887999 131.809 0.887999C132.449 0.887999 133.057 0.951998 133.633 1.08C134.273 1.144 134.849 1.304 135.361 1.56C135.937 1.752 136.449 1.944 136.897 2.136C137.345 2.328 137.761 2.584 138.145 2.904C138.593 3.224 138.945 3.512 139.201 3.768C139.521 4.024 139.841 4.344 140.161 4.72799C140.481 5.04799 140.705 5.304 140.833 5.496C140.961 5.624 141.121 5.848 141.313 6.168L141.697 6.552C142.081 11.736 142.273 16.088 142.273 19.608C142.273 22.424 142.209 26.52 142.081 31.896C141.953 37.272 141.505 44.152 140.737 52.536C139.969 60.856 138.977 66.168 137.761 68.472C134.945 69.688 132.673 70.296 130.945 70.296C127.873 70.296 125.217 69.944 122.977 69.24C122.401 64.184 120.481 59.352 117.217 54.744C114.017 50.136 110.977 46.808 108.097 44.76C108.097 45.016 108.097 45.368 108.097 45.816C108.161 46.264 108.193 46.616 108.193 46.872C108.193 52.376 107.585 57.368 106.369 61.848C104.001 63.128 101.601 63.768 99.169 63.768C96.417 63.768 93.889 63.064 91.585 61.656L90.337 60.792ZM170.193 50.328C170.193 49.432 170.481 48.664 171.057 48.024C171.697 47.384 172.465 47.064 173.361 47.064C174.257 47.064 175.025 47.256 175.665 47.64C176.305 48.024 176.625 48.536 176.625 49.176C176.625 50.008 176.337 50.744 175.761 51.384C175.249 51.96 174.577 52.248 173.745 52.248C172.785 52.248 171.953 52.056 171.249 51.672C170.545 51.288 170.193 50.84 170.193 50.328ZM163.665 44.76C163.665 51.288 165.425 55.448 168.945 57.24L167.793 57.816C168.753 59.096 170.161 60.12 172.017 60.888C173.873 61.656 175.729 62.04 177.585 62.04C183.537 62.04 188.369 60.632 192.081 57.816C195.793 54.936 197.649 51.032 197.649 46.104C197.649 42.008 195.665 38.488 191.697 35.544C187.729 32.6 182.961 31.128 177.393 31.128C174.065 31.128 171.121 32.44 168.561 35.064C166.065 37.624 164.433 40.856 163.665 44.76ZM172.881 50.712C173.393 50.968 173.937 51.096 174.513 51.096C175.153 51.096 175.473 50.776 175.473 50.136C175.217 49.88 174.769 49.752 174.129 49.752C173.425 49.752 173.009 50.072 172.881 50.712ZM162.513 45.528V45.336V45.144C163.409 40.472 165.233 36.792 167.985 34.104C170.801 31.352 174.193 29.976 178.161 29.976C184.177 29.976 189.361 31.608 193.713 34.872C198.129 38.072 200.337 42.072 200.337 46.872C200.337 52.248 198.321 56.568 194.289 59.832C190.321 63.096 185.009 64.728 178.353 64.728C176.305 64.728 174.193 64.28 172.017 63.384C169.905 62.552 168.241 61.336 167.025 59.736C166.065 58.456 165.553 57.784 165.489 57.72C165.553 57.72 165.617 57.72 165.681 57.72C165.809 57.656 165.905 57.592 165.969 57.528C163.665 54.904 162.513 50.904 162.513 45.528ZM200.152 26.136C200.28 26.84 200.664 28.12 201.304 29.976C201.944 31.768 202.264 33.112 202.264 34.008C202.264 34.712 202.072 36.664 201.688 39.864C201.368 43 201.208 45.656 201.208 47.832C201.208 50.968 202.424 53.624 204.856 55.8C207.288 57.912 210.552 58.968 214.648 58.968C219.32 58.968 223.064 56.536 225.88 51.672C228.696 46.744 230.104 40.344 230.104 32.472C230.104 29.656 229.72 27.224 228.952 25.176C228.184 23.128 227.288 22.104 226.264 22.104C224.6 22.104 223.576 22.808 223.192 24.216C223.32 24.792 223.768 25.88 224.536 27.48C225.304 29.08 225.688 30.36 225.688 31.32C225.688 33.368 225.208 35.128 224.248 36.6C223.288 38.008 222.104 38.712 220.696 38.712C219.544 38.712 218.552 37.432 217.72 34.872C216.888 32.312 216.472 29.208 216.472 25.56C216.472 24.856 215.576 24.28 213.784 23.832C212.056 23.32 209.944 23.064 207.448 23.064C203.608 23.064 201.176 24.088 200.152 26.136ZM198.712 26.136L199.096 25.56C200.76 23.128 203.8 21.912 208.216 21.912C211.032 21.912 213.56 22.264 215.8 22.968C218.04 23.672 219.16 24.792 219.16 26.328C219.16 28.504 219.32 30.488 219.64 32.28C219.96 34.008 220.28 35.256 220.6 36.024C220.984 36.792 221.304 37.304 221.56 37.56C222.264 37.432 222.936 36.856 223.576 35.832C224.216 34.808 224.536 33.56 224.536 32.088C224.536 31.384 224.184 30.328 223.48 28.92C222.776 27.448 222.328 26.328 222.136 25.56C222.136 25.496 222.104 25.432 222.04 25.368C222.04 25.304 222.008 25.208 221.944 25.08C222.072 24.824 222.136 24.632 222.136 24.504C222.392 23.416 223 22.552 223.96 21.912C224.92 21.272 225.944 20.952 227.032 20.952C228.824 20.952 230.232 22.136 231.256 24.504C232.28 26.872 232.792 29.784 232.792 33.24C232.792 41.816 231.192 48.696 227.992 53.88C224.792 59.064 220.6 61.656 215.416 61.656C210.872 61.656 207.16 60.408 204.28 57.912C201.464 55.416 200.056 52.312 200.056 48.6C200.056 46.296 200.216 43.576 200.536 40.44C200.92 37.24 201.112 35.384 201.112 34.872C201.112 34.232 200.792 32.952 200.152 31.032C199.512 29.048 199.128 27.768 199 27.192L198.712 26.136ZM248.722 30.168C250.706 30.168 252.338 30.328 253.618 30.648C254.962 30.968 255.634 31.384 255.634 31.896C255.634 32.728 255.346 33.4 254.77 33.912C254.258 34.36 253.586 34.712 252.754 34.968C251.986 35.224 251.026 35.448 249.874 35.64C249.554 35.704 249.33 35.736 249.202 35.736L248.722 30.168ZM231.25 61.656C236.178 62.68 241.586 63.192 247.474 63.192C248.498 63.192 249.266 62.84 249.778 62.136C250.354 61.432 250.642 60.568 250.642 59.544C250.642 52.824 250.226 46.68 249.394 41.112C252.85 43.608 255.122 46.36 256.21 49.368C257.298 52.312 257.842 57.176 257.842 63.96C259.57 65.24 261.554 65.88 263.794 65.88C267.442 65.88 270.482 64.312 272.914 61.176C275.346 58.04 276.69 54.616 276.946 50.904C274.258 50.904 272.274 50.488 270.994 49.656C269.714 48.824 268.85 47.352 268.402 45.24C267.89 42.744 266.866 40.76 265.33 39.288C263.794 37.752 261.778 36.984 259.282 36.984C263.25 35.896 266.418 34.136 268.786 31.704C271.218 29.208 272.434 26.296 272.434 22.968C272.434 20.344 271.25 18.072 268.882 16.152C266.578 14.168 263.794 13.176 260.53 13.176C258.034 13.176 254.898 14.04 251.122 15.768C247.346 17.432 244.21 18.264 241.714 18.264C240.754 18.264 239.858 18.232 239.026 18.168C238.194 18.04 237.266 17.912 236.242 17.784C235.218 17.656 234.322 17.56 233.554 17.496C233.682 19.416 233.874 21.816 234.13 24.696C234.386 27.512 234.578 30.04 234.706 32.28C234.898 34.52 234.994 36.92 234.994 39.48C234.994 42.04 234.802 44.472 234.418 46.776C234.034 49.08 233.49 51.64 232.786 54.456C232.082 57.208 231.57 59.608 231.25 61.656ZM229.81 63.96L230.098 62.136C230.482 60.024 230.994 57.56 231.634 54.744C232.338 51.928 232.882 49.432 233.266 47.256C233.65 45.08 233.842 42.744 233.842 40.248C233.842 37.752 233.746 35.384 233.554 33.144C233.426 30.904 233.234 28.376 232.978 25.56C232.722 22.744 232.53 20.344 232.402 18.36C232.402 18.168 232.37 17.784 232.306 17.208C232.242 16.632 232.21 16.28 232.21 16.152C232.338 16.152 232.722 16.184 233.362 16.248C234.002 16.312 234.386 16.344 234.514 16.344C235.218 16.408 236.434 16.568 238.162 16.824C239.89 17.016 241.33 17.112 242.482 17.112C244.658 17.112 247.666 16.28 251.506 14.616C255.346 12.888 258.61 12.024 261.298 12.024C265.01 12.024 268.242 13.208 270.994 15.576C273.746 17.88 275.122 20.6 275.122 23.736C275.122 29.56 272.05 34.136 265.906 37.464C268.594 39.192 270.322 41.912 271.09 45.624C271.41 47.16 271.986 48.248 272.818 48.888C273.714 49.464 275.346 49.752 277.714 49.752H279.73C279.73 49.816 279.698 50.136 279.634 50.712C279.634 51.288 279.634 51.64 279.634 51.768C279.314 55.928 277.778 59.768 275.026 63.288C272.274 66.808 268.786 68.568 264.562 68.568C261.874 68.568 259.506 67.8 257.458 66.264C257.394 66.264 257.266 66.168 257.074 65.976C256.882 65.784 256.754 65.688 256.69 65.688V64.728C256.69 59.544 256.402 55.672 255.826 53.112C255.314 50.552 254.29 48.376 252.754 46.584C253.138 50.232 253.33 54.808 253.33 60.312C253.33 61.784 252.882 63.064 251.986 64.152C251.09 65.304 249.842 65.88 248.242 65.88C242.29 65.88 236.754 65.368 231.634 64.344L229.81 63.96ZM299.795 39.48C299.795 45.048 301.619 49.528 305.267 52.92C308.915 56.312 313.395 58.008 318.707 58.008C325.235 58.008 331.091 55.64 336.275 50.904C335.699 49.688 335.059 48.792 334.355 48.216C332.627 49.88 330.419 51.224 327.731 52.248C325.107 53.272 322.547 53.784 320.051 53.784C317.555 53.784 315.539 53.208 314.003 52.056C312.467 50.84 311.699 48.984 311.699 46.488C311.699 44.376 312.467 42.616 314.003 41.208C315.603 39.736 317.523 39 319.763 39C323.347 39 326.867 40.28 330.323 42.84C331.219 38.36 332.211 34.2 333.299 30.36C333.747 28.76 334.515 26.68 335.603 24.12C336.755 21.56 337.491 19.896 337.811 19.128H337.427C336.979 20.536 336.019 21.784 334.547 22.872C333.075 23.96 331.667 24.504 330.323 24.504C328.339 24.504 325.971 24.184 323.219 23.544C320.467 22.904 318.099 22.584 316.115 22.584C311.763 22.584 307.955 24.344 304.691 27.864C301.427 31.32 299.795 35.192 299.795 39.48ZM298.643 40.152C298.643 34.776 300.307 30.296 303.635 26.712C306.963 23.128 311.315 21.336 316.691 21.336C318.867 21.336 321.363 21.688 324.179 22.392C326.995 23.032 329.299 23.352 331.091 23.352C331.923 23.352 332.915 22.968 334.067 22.2C335.219 21.368 335.987 20.376 336.371 19.224C336.435 19.096 336.531 18.84 336.659 18.456L336.755 17.976H340.979C338.547 23.608 336.851 28.184 335.891 31.704C334.675 35.736 333.715 39.8 333.011 43.896C332.883 44.216 332.691 45.208 332.435 46.872C331.475 46.232 330.675 45.656 330.035 45.144C326.963 42.84 323.795 41.688 320.531 41.688C318.803 41.688 317.331 42.232 316.115 43.32C314.963 44.408 314.387 45.72 314.387 47.256C314.387 50.84 316.531 52.632 320.819 52.632C323.123 52.632 325.459 52.152 327.827 51.192C330.259 50.232 332.243 49.016 333.779 47.544C334.419 46.904 334.835 46.52 335.027 46.392L336.275 47.448C336.915 48.024 337.459 48.6 337.907 49.176C338.227 49.688 338.547 50.296 338.867 51C338.931 51.064 339.027 51.256 339.155 51.576C339.283 51.832 339.347 52.024 339.347 52.152L338.387 53.112C332.883 58.168 326.579 60.696 319.475 60.696C313.651 60.696 308.723 58.808 304.691 55.032C300.659 51.256 298.643 46.296 298.643 40.152ZM344.193 34.968C344.193 34.2 344.449 33.528 344.961 32.952C345.537 32.376 346.177 32.088 346.881 32.088C347.649 32.088 348.289 32.28 348.801 32.664C349.377 32.984 349.665 33.368 349.665 33.816C349.665 34.52 349.409 35.128 348.897 35.64C348.449 36.088 347.905 36.312 347.265 36.312C345.217 36.312 344.193 35.864 344.193 34.968ZM337.665 29.4C337.665 35.928 339.425 40.088 342.945 41.88L341.793 42.456C343.009 44.12 345.601 44.952 349.569 44.952C355.329 44.952 360.129 43.672 363.969 41.112C367.809 38.488 369.729 35.032 369.729 30.744C369.729 26.776 367.937 23.448 364.353 20.76C360.769 18.072 356.129 16.728 350.433 16.728C347.361 16.728 344.641 17.944 342.273 20.376C339.905 22.744 338.369 25.752 337.665 29.4ZM336.513 30.168V29.976V29.784C338.433 20.312 343.329 15.576 351.201 15.576C357.281 15.576 362.337 17.08 366.369 20.088C370.401 23.096 372.417 26.904 372.417 31.512C372.417 36.504 370.241 40.44 365.889 43.32C361.601 46.2 356.417 47.64 350.337 47.64C345.729 47.64 342.625 46.552 341.025 44.376L339.489 42.36L339.969 42.168C337.665 39.48 336.513 35.48 336.513 30.168ZM367.382 56.76C367.382 57.4 367.734 58.104 368.438 58.872C369.142 59.64 370.23 60.312 371.702 60.888C374.006 61.336 377.334 61.496 381.686 61.368L388.502 44.856C389.846 49.464 392.182 53.656 395.51 57.432C399.67 54.296 402.55 50.52 404.15 46.104C404.726 48.152 405.846 51.608 407.51 56.472C409.174 61.336 410.166 63.992 410.486 64.44C411.446 63.288 412.758 62.392 414.422 61.752C416.15 61.048 417.686 60.6 419.03 60.408C420.438 60.216 421.654 59.8 422.678 59.16C423.766 58.456 424.31 57.432 424.31 56.088C423.926 53.976 423.382 51.288 422.678 48.024C421.974 44.696 420.63 39.736 418.646 33.144C416.726 26.488 414.934 21.976 413.27 19.608C407.958 19.608 404.31 19.704 402.326 19.896L395.51 33.24C395.19 33.88 394.934 33.976 394.742 33.528C394.166 32.632 393.014 30.296 391.286 26.52C389.558 22.744 388.246 20.568 387.35 19.992L380.726 20.184C378.486 20.184 377.27 20.536 377.078 21.24C376.374 23.16 374.582 29.176 371.702 39.288C368.822 49.4 367.382 55.224 367.382 56.76ZM366.23 57.528C366.23 55.928 367.574 50.36 370.262 40.824C372.95 31.288 374.838 24.824 375.926 21.432C376.118 20.856 376.246 20.504 376.31 20.376C376.374 20.248 376.854 19.992 377.75 19.608C378.646 19.224 379.894 19.032 381.494 19.032C383.158 19.032 384.534 19.032 385.622 19.032C386.71 18.968 387.446 18.936 387.83 18.936C388.278 18.872 388.566 18.84 388.694 18.84C389.462 19.288 390.134 19.896 390.71 20.664C391.286 21.432 391.734 22.2 392.054 22.968C392.438 23.672 392.982 24.856 393.686 26.52C394.454 28.12 395.126 29.528 395.702 30.744C399.286 23.704 401.302 19.704 401.75 18.744C404.438 18.552 408.886 18.456 415.094 18.456C417.142 21.4 419.158 26.072 421.142 32.472C423.126 38.872 424.598 44.536 425.558 49.464L426.998 56.856C426.998 58.648 426.422 60.056 425.27 61.08C424.182 62.04 422.902 62.648 421.43 62.904C419.958 63.096 418.358 63.48 416.63 64.056C414.902 64.632 413.622 65.432 412.79 66.456L411.254 68.376L409.718 66.36C409.206 65.72 407.478 60.952 404.534 52.056C402.806 54.808 399.958 57.72 395.99 60.792C392.982 57.336 390.742 54.072 389.27 51L383.798 63.96L382.55 64.056C378.39 64.184 374.838 63.992 371.894 63.48C370.102 62.84 368.694 61.976 367.67 60.888C366.71 59.8 366.23 58.68 366.23 57.528ZM424.944 56.76C424.944 57.4 425.296 58.104 426 58.872C426.704 59.64 427.792 60.312 429.264 60.888C431.568 61.336 434.896 61.496 439.248 61.368L446.064 44.856C447.408 49.464 449.744 53.656 453.072 57.432C457.232 54.296 460.112 50.52 461.712 46.104C462.288 48.152 463.408 51.608 465.072 56.472C466.736 61.336 467.728 63.992 468.048 64.44C469.008 63.288 470.32 62.392 471.984 61.752C473.712 61.048 475.248 60.6 476.592 60.408C478 60.216 479.216 59.8 480.24 59.16C481.328 58.456 481.872 57.432 481.872 56.088C481.488 53.976 480.944 51.288 480.24 48.024C479.536 44.696 478.192 39.736 476.208 33.144C474.288 26.488 472.496 21.976 470.832 19.608C465.52 19.608 461.872 19.704 459.888 19.896L453.072 33.24C452.752 33.88 452.496 33.976 452.304 33.528C451.728 32.632 450.576 30.296 448.848 26.52C447.12 22.744 445.808 20.568 444.912 19.992L438.288 20.184C436.048 20.184 434.832 20.536 434.64 21.24C433.936 23.16 432.144 29.176 429.264 39.288C426.384 49.4 424.944 55.224 424.944 56.76ZM423.792 57.528C423.792 55.928 425.136 50.36 427.824 40.824C430.512 31.288 432.4 24.824 433.488 21.432C433.68 20.856 433.808 20.504 433.872 20.376C433.936 20.248 434.416 19.992 435.312 19.608C436.208 19.224 437.456 19.032 439.056 19.032C440.72 19.032 442.096 19.032 443.184 19.032C444.272 18.968 445.008 18.936 445.392 18.936C445.84 18.872 446.128 18.84 446.256 18.84C447.024 19.288 447.696 19.896 448.272 20.664C448.848 21.432 449.296 22.2 449.616 22.968C450 23.672 450.544 24.856 451.248 26.52C452.016 28.12 452.688 29.528 453.264 30.744C456.848 23.704 458.864 19.704 459.312 18.744C462 18.552 466.448 18.456 472.656 18.456C474.704 21.4 476.72 26.072 478.704 32.472C480.688 38.872 482.16 44.536 483.12 49.464L484.56 56.856C484.56 58.648 483.984 60.056 482.832 61.08C481.744 62.04 480.464 62.648 478.992 62.904C477.52 63.096 475.92 63.48 474.192 64.056C472.464 64.632 471.184 65.432 470.352 66.456L468.816 68.376L467.28 66.36C466.768 65.72 465.04 60.952 462.096 52.056C460.368 54.808 457.52 57.72 453.552 60.792C450.544 57.336 448.304 54.072 446.832 51L441.36 63.96L440.112 64.056C435.952 64.184 432.4 63.992 429.456 63.48C427.664 62.84 426.256 61.976 425.232 60.888C424.272 59.8 423.792 58.68 423.792 57.528ZM480.84 24.216C480.968 24.92 481.352 26.2 481.992 28.056C482.632 29.848 482.952 31.192 482.952 32.088C482.952 32.792 482.76 34.744 482.376 37.944C482.056 41.08 481.896 43.736 481.896 45.912C481.896 49.048 483.112 51.704 485.544 53.88C487.976 55.992 491.24 57.048 495.336 57.048C500.008 57.048 503.752 54.616 506.568 49.752C509.384 44.824 510.792 38.424 510.792 30.552C510.792 27.736 510.408 25.304 509.64 23.256C508.872 21.208 507.976 20.184 506.952 20.184C505.288 20.184 504.264 20.888 503.88 22.296C504.008 22.872 504.456 23.96 505.224 25.56C505.992 27.16 506.376 28.44 506.376 29.4C506.376 31.448 505.896 33.208 504.936 34.68C503.976 36.088 502.792 36.792 501.384 36.792C500.232 36.792 499.24 35.512 498.408 32.952C497.576 30.392 497.16 27.288 497.16 23.64C497.16 22.936 496.264 22.36 494.472 21.912C492.744 21.4 490.632 21.144 488.136 21.144C484.296 21.144 481.864 22.168 480.84 24.216ZM479.399 24.216L479.784 23.64C481.448 21.208 484.488 19.992 488.904 19.992C491.72 19.992 494.248 20.344 496.488 21.048C498.728 21.752 499.848 22.872 499.848 24.408C499.848 26.584 500.008 28.568 500.328 30.36C500.648 32.088 500.968 33.336 501.288 34.104C501.672 34.872 501.992 35.384 502.248 35.64C502.952 35.512 503.624 34.936 504.264 33.912C504.904 32.888 505.224 31.64 505.224 30.168C505.224 29.464 504.872 28.408 504.168 27C503.464 25.528 503.016 24.408 502.824 23.64C502.824 23.576 502.792 23.512 502.728 23.448C502.728 23.384 502.696 23.288 502.632 23.16C502.76 22.904 502.824 22.712 502.824 22.584C503.08 21.496 503.688 20.632 504.648 19.992C505.608 19.352 506.632 19.032 507.72 19.032C509.512 19.032 510.92 20.216 511.944 22.584C512.968 24.952 513.48 27.864 513.48 31.32C513.48 39.896 511.88 46.776 508.68 51.96C505.48 57.144 501.288 59.736 496.104 59.736C491.56 59.736 487.848 58.488 484.968 55.992C482.152 53.496 480.744 50.392 480.744 46.68C480.744 44.376 480.904 41.656 481.224 38.52C481.608 35.32 481.8 33.464 481.8 32.952C481.8 32.312 481.48 31.032 480.84 29.112C480.2 27.128 479.816 25.848 479.688 25.272L479.399 24.216ZM512.623 59.16C514.543 60.44 516.719 61.08 519.151 61.08C521.263 61.08 523.119 60.632 524.719 59.736C525.743 55.832 526.255 51.288 526.255 46.104C526.255 44.184 526.095 42.328 525.775 40.536C529.679 41.944 533.647 45.56 537.679 51.384C541.775 57.144 544.111 62.36 544.687 67.032C545.967 67.416 548.047 67.608 550.927 67.608C552.463 67.608 554.255 67.128 556.303 66.168C557.327 64.312 558.159 59.448 558.799 51.576C559.503 43.64 559.951 36.184 560.143 29.208L560.335 18.84C560.335 15.128 560.175 11.032 559.855 6.552C559.791 6.488 559.599 6.296 559.279 5.976C559.023 5.592 558.831 5.336 558.703 5.20799C558.575 5.016 558.319 4.76 557.935 4.44C557.615 4.12 557.327 3.896 557.071 3.768C556.815 3.576 556.463 3.352 556.015 3.096C555.631 2.84 555.215 2.648 554.767 2.51999C554.383 2.392 553.903 2.296 553.327 2.232C552.815 2.104 552.271 2.04 551.695 2.04C551.119 2.04 549.103 2.328 545.647 2.904C547.183 5.656 548.047 10.744 548.239 18.168C548.431 25.592 547.791 33.752 546.319 42.648C537.551 26.584 527.439 18.552 515.983 18.552C513.999 18.552 513.007 19.064 513.007 20.088C513.007 22.776 513.391 26.072 514.159 29.976C514.927 33.816 515.311 37.144 515.311 39.96C515.311 45.208 514.415 51.608 512.623 59.16ZM511.087 60.792L511.375 59.448C513.167 52.088 514.063 45.848 514.063 40.728C514.063 38.104 513.679 34.84 512.911 30.936C512.143 26.968 511.759 23.608 511.759 20.856C511.759 19.576 512.079 18.68 512.719 18.168C513.423 17.592 514.735 17.304 516.655 17.304C527.535 17.304 537.295 24.12 545.935 37.752C546.639 31.864 547.055 26.776 547.183 22.488C547.375 18.2 547.183 14.712 546.607 12.024C546.095 9.272 545.679 7.416 545.359 6.456C545.103 5.496 544.591 4.184 543.823 2.51999C546.703 1.432 549.615 0.887999 552.559 0.887999C553.199 0.887999 553.807 0.951998 554.383 1.08C555.023 1.144 555.599 1.304 556.111 1.56C556.687 1.752 557.199 1.944 557.647 2.136C558.095 2.328 558.511 2.584 558.895 2.904C559.343 3.224 559.695 3.512 559.951 3.768C560.271 4.024 560.591 4.344 560.911 4.72799C561.231 5.04799 561.455 5.304 561.583 5.496C561.711 5.624 561.871 5.848 562.063 6.168L562.447 6.552C562.831 11.736 563.023 16.088 563.023 19.608C563.023 22.424 562.959 26.52 562.831 31.896C562.703 37.272 562.255 44.152 561.487 52.536C560.719 60.856 559.727 66.168 558.511 68.472C555.695 69.688 553.423 70.296 551.695 70.296C548.623 70.296 545.967 69.944 543.727 69.24C543.151 64.184 541.231 59.352 537.967 54.744C534.767 50.136 531.727 46.808 528.847 44.76C528.847 45.016 528.847 45.368 528.847 45.816C528.911 46.264 528.943 46.616 528.943 46.872C528.943 52.376 528.335 57.368 527.119 61.848C524.751 63.128 522.351 63.768 519.919 63.768C517.167 63.768 514.639 63.064 512.335 61.656L511.087 60.792ZM562.674 26.04C564.85 28.792 565.938 33.976 565.938 41.592C565.938 43.064 565.746 45.208 565.362 48.024C564.978 50.84 564.594 53.4 564.21 55.704C563.826 57.944 563.634 59.096 563.634 59.16C564.85 58.968 566.13 58.872 567.474 58.872C568.882 58.872 570.514 58.936 572.37 59.064C574.226 59.128 575.73 59.16 576.882 59.16C577.906 59.16 578.738 58.872 579.378 58.296C580.018 57.656 580.338 56.824 580.338 55.8C580.338 55.544 580.018 54.072 579.378 51.384C578.738 48.632 578.418 46.904 578.418 46.2C578.418 44.344 578.642 41.656 579.09 38.136C579.538 34.616 579.762 31.448 579.762 28.632C579.762 27.224 579.314 26.104 578.418 25.272C577.586 24.44 576.498 24.024 575.154 24.024C572.786 24.024 568.626 24.696 562.674 26.04ZM565.17 15.768C565.17 17.304 565.682 18.648 566.706 19.8C567.73 20.888 568.946 21.432 570.354 21.432C572.786 21.432 574.834 20.728 576.498 19.32C578.162 17.912 578.994 16.088 578.994 13.848C578.994 10.584 576.946 8.952 572.85 8.952C570.738 8.952 568.914 9.592 567.378 10.872C565.906 12.088 565.17 13.72 565.17 15.768ZM560.754 26.712L560.85 25.464C565.202 24.376 567.794 23.768 568.626 23.64C567.282 23.064 566.162 22.136 565.266 20.856C564.434 19.512 564.018 18.072 564.018 16.536C564.018 13.976 564.946 11.896 566.802 10.296C568.658 8.632 570.93 7.8 573.618 7.8C576.242 7.8 578.226 8.44 579.57 9.72C580.978 11 581.682 12.632 581.682 14.616C581.682 18.456 579.922 21.24 576.402 22.968C578.13 23.096 579.57 23.768 580.722 24.984C581.874 26.136 582.45 27.608 582.45 29.4C582.45 32.28 582.226 35.512 581.778 39.096C581.33 42.616 581.106 45.24 581.106 46.968C581.106 47.352 581.426 48.888 582.066 51.576C582.706 54.2 583.026 55.864 583.026 56.568C583.026 58.168 582.482 59.448 581.394 60.408C580.37 61.368 579.122 61.848 577.65 61.848C576.434 61.848 574.866 61.816 572.946 61.752C571.026 61.624 569.394 61.56 568.05 61.56C566.77 61.56 565.586 61.656 564.498 61.848L562.578 62.136L562.386 60.216C562.386 59.704 562.77 57.048 563.538 52.248C564.37 47.448 564.786 44.152 564.786 42.36C564.786 39.288 564.562 36.728 564.114 34.68C563.73 32.568 563.314 31.064 562.866 30.168C562.418 29.208 561.714 28.056 560.754 26.712ZM583.761 24.792C583.761 27.096 584.145 29.24 584.913 31.224C587.217 29.752 589.873 29.016 592.881 29.016C594.929 29.016 596.945 29.24 598.929 29.688C598.161 34.296 597.777 39.672 597.777 45.816C597.777 47.608 597.841 49.464 597.969 51.384C598.161 53.304 598.385 55.384 598.641 57.624C598.897 59.864 599.089 61.72 599.217 63.192C601.841 63.64 605.041 63.864 608.817 63.864C610.609 63.864 612.177 63.448 613.521 62.616C614.865 61.72 615.537 60.408 615.537 58.68C615.537 57.144 615.249 54.36 614.673 50.328C614.161 46.296 613.841 42.84 613.713 39.96C613.713 38.936 613.649 37.048 613.521 34.296C613.457 31.48 613.393 29.4 613.329 28.056C614.225 28.12 615.889 28.344 618.321 28.728C620.817 29.048 622.801 29.208 624.273 29.208C627.409 29.208 629.233 28.248 629.745 26.328C630.897 21.912 631.473 17.816 631.473 14.04C631.473 12.824 630.865 12.216 629.649 12.216C628.497 12.216 626.609 12.44 623.985 12.888C621.425 13.272 619.313 13.464 617.649 13.464C614.961 13.464 611.185 13.144 606.321 12.504C601.521 11.864 597.905 11.512 595.473 11.448C589.649 11.448 586.289 12.632 585.393 15C584.305 17.88 583.761 21.144 583.761 24.792ZM582.513 25.56C582.513 21.016 583.025 17.4 584.049 14.712C585.265 11.512 589.329 9.912 596.241 9.912C598.929 9.976 602.641 10.392 607.377 11.16C612.177 11.928 615.857 12.312 618.417 12.312C619.889 12.312 621.905 12.12 624.465 11.736C627.025 11.288 629.009 11.064 630.417 11.064C631.441 11.064 632.305 11.384 633.009 12.024C633.777 12.728 634.161 13.656 634.161 14.808C634.161 18.2 633.553 22.424 632.337 27.48C631.569 30.424 629.137 31.896 625.041 31.896C623.505 31.896 620.497 31.576 616.017 30.936C616.081 32.216 616.145 33.976 616.209 36.216C616.337 38.456 616.401 39.96 616.401 40.728C616.529 43.48 616.849 46.872 617.361 50.904C617.937 54.872 618.225 57.72 618.225 59.448C618.225 61.816 617.329 63.576 615.537 64.728C613.745 65.944 611.761 66.552 609.585 66.552C605.617 66.552 602.289 66.328 599.601 65.88L598.161 65.592L598.065 64.152C597.937 62.808 597.745 60.984 597.489 58.68C597.233 56.376 597.009 54.264 596.817 52.344C596.689 50.36 596.625 48.44 596.625 46.584C596.625 40.888 596.913 36.024 597.489 31.992C596.145 31.8 594.865 31.704 593.649 31.704C590.833 31.704 588.529 32.312 586.737 33.528L584.721 34.872L583.857 32.664C582.961 30.296 582.513 27.928 582.513 25.56ZM631.848 24.6C631.848 26.008 632.264 27.16 633.096 28.056C635.4 30.616 637.064 32.504 638.088 33.72C639.112 34.936 640.424 36.952 642.024 39.768C643.624 42.584 644.424 45.016 644.424 47.064C644.424 54.232 644.328 59.352 644.136 62.424C646.76 62.936 650.152 63.192 654.312 63.192C655.912 63.192 657.224 62.488 658.248 61.08C659.336 59.672 659.88 57.976 659.88 55.992C659.88 54.072 659.784 51.64 659.592 48.696C659.4 45.688 659.304 43.224 659.304 41.304C659.304 40.28 659.88 39.064 661.032 37.656C661.416 37.208 662.408 36.088 664.008 34.296C665.608 32.44 666.696 31.16 667.272 30.456C667.848 29.688 668.616 28.632 669.576 27.288C670.6 25.88 671.304 24.664 671.688 23.64C672.072 22.552 672.264 21.528 672.264 20.568C672.264 19.736 671.88 19.032 671.112 18.456C670.408 17.816 669.544 17.496 668.52 17.496C665.96 17.496 663.784 18.04 661.992 19.128C663.208 20.472 663.816 22.2 663.816 24.312C663.816 27.64 662.024 31.512 658.44 35.928C657.352 33.368 656.424 31.32 655.656 29.784C654.888 28.184 653.8 26.264 652.392 24.024C651.048 21.72 649.576 19.992 647.976 18.84C646.44 17.688 644.84 17.112 643.176 17.112C640.04 17.112 637.352 17.848 635.112 19.32C632.936 20.792 631.848 22.552 631.848 24.6ZM630.696 25.368C630.696 22.232 631.976 19.896 634.536 18.36C637.096 16.76 640.232 15.96 643.944 15.96C645.864 15.96 647.688 16.568 649.416 17.784C651.144 18.936 652.712 20.6 654.12 22.776C655.528 24.888 656.584 26.616 657.288 27.96C657.992 29.304 658.792 30.968 659.688 32.952C661.672 30.2 662.664 27.576 662.664 25.08C662.664 23.544 662.216 22.232 661.32 21.144C660.68 20.504 660.168 19.928 659.784 19.416C659.912 19.352 660.232 19.192 660.744 18.936C661.32 18.616 661.672 18.392 661.8 18.264C663.976 16.984 666.472 16.344 669.288 16.344C670.76 16.344 672.072 16.824 673.224 17.784C674.376 18.68 674.952 19.864 674.952 21.336C674.952 22.04 674.824 22.808 674.568 23.64C674.376 24.408 674.152 25.112 673.896 25.752C673.704 26.392 673.288 27.192 672.648 28.152C672.072 29.048 671.624 29.752 671.304 30.264C670.984 30.712 670.376 31.448 669.48 32.472C668.648 33.496 668.072 34.2 667.752 34.584C667.496 34.904 666.888 35.608 665.928 36.696C664.968 37.784 664.424 38.392 664.296 38.52C664.104 38.712 663.88 38.936 663.624 39.192C663.432 39.448 663.304 39.608 663.24 39.672C662.408 40.76 661.992 41.56 661.992 42.072C661.992 43.864 662.088 46.264 662.28 49.272C662.472 52.28 662.568 54.776 662.568 56.76C662.568 59.192 661.864 61.304 660.456 63.096C659.048 64.952 657.256 65.88 655.08 65.88C650.792 65.88 647.272 65.624 644.52 65.112C643.752 64.856 643.144 64.728 642.696 64.728L642.792 63.096C642.984 60.088 643.08 55 643.08 47.832C643.08 43.8 639.528 37.88 632.424 30.072C631.272 28.728 630.696 27.16 630.696 25.368Z" fill="white"/>
</svg>
