<svg width="350" height="154" viewBox="0 0 350 154" fill="none" xmlns="http://www.w3.org/2000/svg">
<path d="M56.3405 27.0146L62.0135 24.0112L69.355 23.0101L77.364 25.0123H83.037L86.0403 22.6764L89.0437 19.0056L84.3718 38.6943L82.7033 45.0347L69.355 41.364L64.6831 45.0347V49.0392L66.6854 54.0448H74.6943L80.701 52.0426L85.5398 48.8724L88.3763 52.71L76.3629 60.0515H66.3517L56.3405 56.7145L51.6686 49.0392L50.3337 43.3662V36.6921L52.6697 31.3528L56.3405 27.0146Z" fill="#FDDA21"/>
<path d="M7.00672 103.353L12.6797 100.349L20.0213 99.3483L28.0302 101.351H33.7032L37 100L40 96L35.0381 115.033L33.3695 121.373L20.0213 117.702L15.3494 121.373V125.377L17.3516 130.383L22 131.5L26 131L31.5 129.048L36.206 125.211L39.0425 129.048L27.0291 136.39H17.0179L7.00672 133.053L2.33483 125.377L1 119.704V113.03L3.33595 107.691L7.00672 103.353Z" fill="#FDDA21"/>
<path d="M121.413 32.3539C121.413 41.016 109.754 47.037 100.723 47.037C91.6926 47.037 88.3762 39.6812 88.3762 31.019C88.3762 22.3569 93.0274 17.3371 102.058 17.3371C111.089 17.3371 121.413 23.6917 121.413 32.3539Z" fill="#FDDA21"/>
<path d="M269.039 125.018C270.04 135.029 258.381 140.702 249.351 140.702C240.32 140.702 234 132.679 234 124.017C234 115.355 240.32 109 249.351 109C258.381 109 269.707 115.34 269.039 125.018Z" fill="#FDDA21"/>
<path d="M117.409 40.0291L125.418 37.6932L129.422 36.692L132.092 44.701L135.429 38.3606L137.431 31.019L140.434 29.0168L144.105 28.3494H150.446L150.779 40.0291L142.77 61.72L135.095 70.0627L128.755 67.7267L122.748 61.0526L117.409 40.0291Z" fill="#FDDA21"/>
<path d="M151.781 21.0078L166.797 21.6753L182.148 21.0078L183.149 28.3494L182.482 35.3572H172.804L174.473 41.0302L174.806 48.0381L182.148 44.701L183.149 61.0526L151.781 61.7201L153.783 42.3651L151.781 21.0078Z" fill="#FDDA21"/>
<path d="M186.82 18.3382L197.498 18.6719L211.514 14H218.856L224.529 18.3382L226.865 23.3438L225.196 32.0202L217.855 37.6932L226.197 51.3751L231.537 52.0426L226.865 65.0571L218.856 67.7268L211.514 66.3919L210.513 55.7133L208.844 49.0392L206.175 46.0358L204.84 58.383L204.173 65.0571L184.484 64.056L188.155 40.3628L187.487 27.0146L186.82 18.3382Z" fill="#FDDA21"/>
<path d="M228.867 15.3348L234.874 12.3315H243.216L258.233 13.6663H266.909L275.586 12.3315L277.254 18.6719L275.586 27.682L271.915 31.3528L259.902 30.0179L261.57 63.3886L251.225 66.0582L243.884 64.7234L241.881 53.3774V41.364L242.549 31.3528L229.534 32.6876L227.866 25.0123L228.867 15.3348Z" fill="#FDDA21"/>
<path d="M104.448 93.3415C104.448 96.2904 101.346 99.3483 97.1076 99.3483C92.1026 102.018 88.7649 96.6241 88.7649 93.6753C88.765 89.4044 92.5343 86 96.7732 86C101.012 86 104.448 90.3927 104.448 93.3415Z" fill="#FDDA21"/>
<path d="M42.3796 99.682L51.3897 96.6786L60.3998 96.0112L59.3987 118.37L67.4076 117.035V104.688L68.5 97.5L72.0795 95.6775L86 98L82.4244 119.704L84.093 142.73L66.0728 139.393L65.7391 136.39L67.0739 129.048H59.7324L56.729 140.061L42.3796 139.059L43.0471 119.371L42.3796 99.682Z" fill="#FDDA21"/>
<path d="M85.7615 103.353L98.1086 100.683L105.116 103.353V137.057L86.7626 138.058L89.4322 120.372L88.7648 112.029L85.7615 103.353Z" fill="#FDDA21"/>
<path d="M117.13 98.0134L125.806 97.0123L129.477 98.0134L135.818 109.359L142.158 97.0123H153.504L157.509 102.352L165.518 136.056L161 139.5L150.834 142.73L149.166 140.06L145.5 129.5L143.827 128.714L136 136L128.476 127.38L121.802 140.06H114.5L109.789 138.392L106.785 135.722L109.789 122.04L117.13 98.0134Z" fill="#FDDA21"/>
<path d="M166.518 96.3449L177 93.5L187.876 89.6708L193.882 88.0023L203.56 90.3382L211.903 98.0135L211.235 109.359L207.231 116.367L201.224 120.706L192.881 122.708H184.205L181.869 138.392L176.196 142.396L165.517 140.394L167.853 118.703L166.518 96.3449Z" fill="#FDDA21"/>
<path d="M272.002 96.3427L293.359 89.6685L299.366 88L309.044 90.3359L316.719 98.5V109.357L312.714 116.365L306.708 120.703L298.365 122.705H289.689L287.353 138.39L281.68 142.394L275.006 141.727L272 140.5L270 138.39L273 118.5L271.5 101.5L272.002 96.3427Z" fill="#FDDA21"/>
<path d="M329 97L346.459 99.0123L342.788 108.69L341.787 117.366L346.459 122.372L347.46 128.378L346.126 136.721L339.451 141.059L331.109 142.394L317.427 140.392L318.428 126.376L320.43 127.377L323 129L325.102 128.378L326.771 125.709L325.769 121.037L320.096 113.028L318.428 105.019L321 100.5L324.5 98.5L329 97Z" fill="#FDDA21"/>
<path d="M50.951 40.48C50.951 46.048 52.775 50.528 56.423 53.92C60.071 57.312 64.551 59.008 69.863 59.008C76.391 59.008 82.247 56.64 87.431 51.904C86.855 50.688 86.215 49.792 85.511 49.216C83.783 50.88 81.575 52.224 78.887 53.248C76.263 54.272 73.703 54.784 71.207 54.784C68.711 54.784 66.695 54.208 65.159 53.056C63.623 51.84 62.855 49.984 62.855 47.488C62.855 45.376 63.623 43.616 65.159 42.208C66.759 40.736 68.679 40 70.919 40C74.503 40 78.023 41.28 81.479 43.84C82.375 39.36 83.367 35.2 84.455 31.36C84.903 29.76 85.671 27.68 86.759 25.12C87.911 22.56 88.647 20.896 88.967 20.128H88.583C88.135 21.536 87.175 22.784 85.703 23.872C84.231 24.96 82.823 25.504 81.479 25.504C79.495 25.504 77.127 25.184 74.375 24.544C71.623 23.904 69.255 23.584 67.271 23.584C62.919 23.584 59.111 25.344 55.847 28.864C52.583 32.32 50.951 36.192 50.951 40.48ZM49.799 41.152C49.799 35.776 51.463 31.296 54.791 27.712C58.119 24.128 62.471 22.336 67.847 22.336C70.023 22.336 72.519 22.688 75.335 23.392C78.151 24.032 80.455 24.352 82.247 24.352C83.079 24.352 84.071 23.968 85.223 23.2C86.375 22.368 87.143 21.376 87.527 20.224C87.591 20.096 87.687 19.84 87.815 19.456L87.911 18.976H92.135C89.703 24.608 88.007 29.184 87.047 32.704C85.831 36.736 84.871 40.8 84.167 44.896C84.039 45.216 83.847 46.208 83.591 47.872C82.631 47.232 81.831 46.656 81.191 46.144C78.119 43.84 74.951 42.688 71.687 42.688C69.959 42.688 68.487 43.232 67.271 44.32C66.119 45.408 65.543 46.72 65.543 48.256C65.543 51.84 67.687 53.632 71.975 53.632C74.279 53.632 76.615 53.152 78.983 52.192C81.415 51.232 83.399 50.016 84.935 48.544C85.575 47.904 85.991 47.52 86.183 47.392L87.431 48.448C88.071 49.024 88.615 49.6 89.063 50.176C89.383 50.688 89.703 51.296 90.023 52C90.087 52.064 90.183 52.256 90.311 52.576C90.439 52.832 90.503 53.024 90.503 53.152L89.543 54.112C84.039 59.168 77.735 61.696 70.631 61.696C64.807 61.696 59.879 59.808 55.847 56.032C51.815 52.256 49.799 47.296 49.799 41.152ZM95.3495 35.968C95.3495 35.2 95.6055 34.528 96.1175 33.952C96.6935 33.376 97.3335 33.088 98.0375 33.088C98.8055 33.088 99.4455 33.28 99.9575 33.664C100.534 33.984 100.822 34.368 100.822 34.816C100.822 35.52 100.566 36.128 100.054 36.64C99.6055 37.088 99.0615 37.312 98.4215 37.312C96.3735 37.312 95.3495 36.864 95.3495 35.968ZM88.8215 30.4C88.8215 36.928 90.5815 41.088 94.1015 42.88L92.9495 43.456C94.1655 45.12 96.7575 45.952 100.726 45.952C106.486 45.952 111.286 44.672 115.126 42.112C118.966 39.488 120.886 36.032 120.886 31.744C120.886 27.776 119.094 24.448 115.51 21.76C111.926 19.072 107.286 17.728 101.59 17.728C98.5175 17.728 95.7975 18.944 93.4295 21.376C91.0615 23.744 89.5255 26.752 88.8215 30.4ZM87.6695 31.168V30.976V30.784C89.5895 21.312 94.4855 16.576 102.358 16.576C108.438 16.576 113.494 18.08 117.526 21.088C121.558 24.096 123.574 27.904 123.574 32.512C123.574 37.504 121.398 41.44 117.046 44.32C112.758 47.2 107.574 48.64 101.494 48.64C96.8855 48.64 93.7815 47.552 92.1815 45.376L90.6455 43.36L91.1255 43.168C88.8215 40.48 87.6695 36.48 87.6695 31.168ZM118.73 42.496C118.73 44.032 119.306 46.848 120.458 50.944C121.61 54.976 122.474 57.664 123.05 59.008C124.074 61.632 125.61 63.872 127.658 65.728C129.77 67.648 132.106 68.608 134.666 68.608C137.034 66.816 139.37 63.52 141.674 58.72C143.978 53.856 145.866 49.184 147.338 44.704C148.81 40.224 149.674 36.96 149.93 34.912L150.41 31.84C150.41 29.472 149.706 28.288 148.298 28.288C145.994 28.288 143.978 28.512 142.25 28.96C139.946 29.536 138.474 30.72 137.834 32.512C135.338 39.552 133.77 44.608 133.13 47.68L129.386 36.832C127.658 37.152 125.994 37.632 124.394 38.272C122.026 39.232 120.49 40.032 119.786 40.672C119.082 41.248 118.73 41.856 118.73 42.496ZM117.482 43.072C117.482 41.984 117.994 40.96 119.018 40C120.042 39.04 121.386 38.272 123.05 37.696C124.714 37.056 126.186 36.576 127.466 36.256C128.81 35.872 130.122 35.584 131.402 35.392L133.61 42.016L136.682 32.704C137.514 30.144 139.434 28.512 142.442 27.808C144.362 27.36 146.57 27.136 149.066 27.136C150.282 27.136 151.242 27.648 151.946 28.672C152.714 29.696 153.098 31.008 153.098 32.608C153.098 33.248 152.906 34.56 152.522 36.544C152.202 38.464 151.306 41.728 149.834 46.336C148.362 50.88 146.474 55.552 144.17 60.352C141.61 65.472 138.922 69.12 136.106 71.296C132.394 71.296 129.386 70.176 127.082 67.936C124.778 65.696 123.082 63.2 121.994 60.448L121.514 59.008C121.194 57.984 120.81 56.8 120.362 55.456C119.914 54.048 119.466 52.576 119.018 51.04C118.57 49.504 118.218 48 117.962 46.528C117.642 45.056 117.482 43.904 117.482 43.072ZM150.683 22.528C150.683 20.544 151.739 19.552 153.851 19.552C157.883 20.512 161.691 20.992 165.275 20.992C169.947 20.992 175.259 20.768 181.211 20.32C181.275 20.32 181.403 20.32 181.595 20.32C181.851 20.256 182.011 20.224 182.075 20.224C182.203 20.416 182.299 20.544 182.363 20.608C182.427 20.608 182.459 20.64 182.459 20.704C182.523 20.704 182.619 20.8 182.747 20.992C184.667 23.168 185.627 25.856 185.627 29.056C185.627 31.168 185.147 33.76 184.187 36.832C184.123 36.96 183.995 37.408 183.803 38.176C183.611 38.88 183.483 39.296 183.419 39.424C183.227 39.36 182.843 39.104 182.267 38.656C181.755 38.144 181.403 37.856 181.211 37.792C179.739 36.64 177.819 36.064 175.451 36.064C175.259 36.064 175.067 36.064 174.875 36.064C174.747 36.064 174.651 36.096 174.587 36.16C174.523 36.16 174.459 36.16 174.395 36.16H174.299C175.451 37.696 176.027 39.712 176.027 42.208C176.027 42.976 175.963 44.32 175.835 46.24C175.835 46.304 175.803 46.432 175.739 46.624C175.739 46.816 175.739 46.944 175.739 47.008L175.163 47.584C177.211 47.008 179.163 45.888 181.019 44.224C181.147 44.096 181.435 43.808 181.883 43.36C182.395 42.912 182.715 42.624 182.843 42.496L183.995 44.8C185.147 47.296 185.723 50.08 185.723 53.152C185.723 56.672 185.435 59.36 184.859 61.216C184.795 61.344 184.699 61.568 184.571 61.888C184.507 62.144 184.475 62.336 184.475 62.464L183.227 62.56C177.083 63.072 171.259 63.328 165.755 63.328C161.083 63.328 156.859 63.2 153.083 62.944C152.955 62.944 152.603 62.944 152.027 62.944C151.515 62.88 151.195 62.848 151.067 62.848L151.259 60.832C151.451 59.104 151.707 57.088 152.027 54.784C152.411 52.416 152.699 50.336 152.891 48.544C153.083 46.688 153.179 44.736 153.179 42.688C153.179 35.648 152.347 28.928 150.683 22.528ZM152.219 22.816C153.627 28.64 154.331 34.624 154.331 40.768C154.331 43.328 154.203 45.824 153.947 48.256C153.755 50.688 153.467 53.152 153.083 55.648C152.699 58.08 152.475 59.616 152.411 60.256C156.187 60.512 160.379 60.64 164.987 60.64C170.363 60.64 176.123 60.384 182.267 59.872C182.779 58.08 183.035 55.584 183.035 52.384C183.035 49.504 182.523 47.008 181.499 44.896C178.427 47.648 174.939 49.024 171.035 49.024C168.475 49.024 166.043 48.672 163.739 47.968C163.739 47.392 163.963 46.592 164.411 45.568C166.075 46.272 167.355 46.624 168.251 46.624C170.363 46.624 171.995 46.176 173.147 45.28C173.275 43.36 173.339 42.08 173.339 41.44C173.339 39.392 172.891 37.76 171.995 36.544C169.243 37.248 166.971 37.6 165.179 37.6C164.987 36.896 164.891 36 164.891 34.912C169.051 33.888 172.315 33.376 174.683 33.376C177.243 33.376 179.547 34.08 181.595 35.488C182.491 32.672 182.939 30.272 182.939 28.288C182.939 25.6 182.139 23.328 180.539 21.472C174.587 21.92 169.243 22.144 164.507 22.144C162.395 22.144 160.155 21.984 157.787 21.664C155.483 21.344 154.171 21.184 153.851 21.184C152.763 21.184 152.219 21.728 152.219 22.816ZM202.472 31.168C204.456 31.168 206.088 31.328 207.368 31.648C208.712 31.968 209.384 32.384 209.384 32.896C209.384 33.728 209.096 34.4 208.52 34.912C208.008 35.36 207.336 35.712 206.504 35.968C205.736 36.224 204.776 36.448 203.624 36.64C203.304 36.704 203.08 36.736 202.952 36.736L202.472 31.168ZM185 62.656C189.928 63.68 195.336 64.192 201.224 64.192C202.248 64.192 203.016 63.84 203.528 63.136C204.104 62.432 204.392 61.568 204.392 60.544C204.392 53.824 203.976 47.68 203.144 42.112C206.6 44.608 208.872 47.36 209.96 50.368C211.048 53.312 211.592 58.176 211.592 64.96C213.32 66.24 215.304 66.88 217.544 66.88C221.192 66.88 224.232 65.312 226.664 62.176C229.096 59.04 230.44 55.616 230.696 51.904C228.008 51.904 226.024 51.488 224.744 50.656C223.464 49.824 222.6 48.352 222.152 46.24C221.64 43.744 220.616 41.76 219.08 40.288C217.544 38.752 215.528 37.984 213.032 37.984C217 36.896 220.168 35.136 222.536 32.704C224.968 30.208 226.184 27.296 226.184 23.968C226.184 21.344 225 19.072 222.632 17.152C220.328 15.168 217.544 14.176 214.28 14.176C211.784 14.176 208.648 15.04 204.872 16.768C201.096 18.432 197.96 19.264 195.464 19.264C194.504 19.264 193.608 19.232 192.776 19.168C191.944 19.04 191.016 18.912 189.992 18.784C188.968 18.656 188.072 18.56 187.304 18.496C187.432 20.416 187.624 22.816 187.88 25.696C188.136 28.512 188.328 31.04 188.456 33.28C188.648 35.52 188.744 37.92 188.744 40.48C188.744 43.04 188.552 45.472 188.168 47.776C187.784 50.08 187.24 52.64 186.536 55.456C185.832 58.208 185.32 60.608 185 62.656ZM183.56 64.96L183.848 63.136C184.232 61.024 184.744 58.56 185.384 55.744C186.088 52.928 186.632 50.432 187.016 48.256C187.4 46.08 187.592 43.744 187.592 41.248C187.592 38.752 187.496 36.384 187.304 34.144C187.176 31.904 186.984 29.376 186.728 26.56C186.472 23.744 186.28 21.344 186.152 19.36C186.152 19.168 186.12 18.784 186.056 18.208C185.992 17.632 185.96 17.28 185.96 17.152C186.088 17.152 186.472 17.184 187.112 17.248C187.752 17.312 188.136 17.344 188.264 17.344C188.968 17.408 190.184 17.568 191.912 17.824C193.64 18.016 195.08 18.112 196.232 18.112C198.408 18.112 201.416 17.28 205.256 15.616C209.096 13.888 212.36 13.024 215.048 13.024C218.76 13.024 221.992 14.208 224.744 16.576C227.496 18.88 228.872 21.6 228.872 24.736C228.872 30.56 225.8 35.136 219.656 38.464C222.344 40.192 224.072 42.912 224.84 46.624C225.16 48.16 225.736 49.248 226.568 49.888C227.464 50.464 229.096 50.752 231.464 50.752H233.48C233.48 50.816 233.448 51.136 233.384 51.712C233.384 52.288 233.384 52.64 233.384 52.768C233.064 56.928 231.528 60.768 228.776 64.288C226.024 67.808 222.536 69.568 218.312 69.568C215.624 69.568 213.256 68.8 211.208 67.264C211.144 67.264 211.016 67.168 210.824 66.976C210.632 66.784 210.504 66.688 210.44 66.688V65.728C210.44 60.544 210.152 56.672 209.576 54.112C209.064 51.552 208.04 49.376 206.504 47.584C206.888 51.232 207.08 55.808 207.08 61.312C207.08 62.784 206.632 64.064 205.736 65.152C204.84 66.304 203.592 66.88 201.992 66.88C196.04 66.88 190.504 66.368 185.384 65.344L183.56 64.96ZM228.605 25.792C228.605 28.096 228.989 30.24 229.757 32.224C232.061 30.752 234.717 30.016 237.725 30.016C239.773 30.016 241.789 30.24 243.773 30.688C243.005 35.296 242.621 40.672 242.621 46.816C242.621 48.608 242.685 50.464 242.813 52.384C243.005 54.304 243.229 56.384 243.485 58.624C243.741 60.864 243.933 62.72 244.061 64.192C246.685 64.64 249.885 64.864 253.661 64.864C255.453 64.864 257.021 64.448 258.365 63.616C259.709 62.72 260.381 61.408 260.381 59.68C260.381 58.144 260.093 55.36 259.517 51.328C259.005 47.296 258.685 43.84 258.557 40.96C258.557 39.936 258.493 38.048 258.365 35.296C258.301 32.48 258.237 30.4 258.173 29.056C259.069 29.12 260.733 29.344 263.165 29.728C265.661 30.048 267.645 30.208 269.117 30.208C272.253 30.208 274.077 29.248 274.589 27.328C275.741 22.912 276.317 18.816 276.317 15.04C276.317 13.824 275.709 13.216 274.493 13.216C273.341 13.216 271.453 13.44 268.829 13.888C266.269 14.272 264.157 14.464 262.493 14.464C259.805 14.464 256.029 14.144 251.165 13.504C246.365 12.864 242.749 12.512 240.317 12.448C234.493 12.448 231.133 13.632 230.237 16C229.149 18.88 228.605 22.144 228.605 25.792ZM227.357 26.56C227.357 22.016 227.869 18.4 228.893 15.712C230.109 12.512 234.173 10.912 241.085 10.912C243.773 10.976 247.485 11.392 252.221 12.16C257.021 12.928 260.701 13.312 263.261 13.312C264.733 13.312 266.749 13.12 269.309 12.736C271.869 12.288 273.853 12.064 275.261 12.064C276.285 12.064 277.149 12.384 277.853 13.024C278.621 13.728 279.005 14.656 279.005 15.808C279.005 19.2 278.397 23.424 277.181 28.48C276.413 31.424 273.981 32.896 269.885 32.896C268.349 32.896 265.341 32.576 260.861 31.936C260.925 33.216 260.989 34.976 261.053 37.216C261.181 39.456 261.245 40.96 261.245 41.728C261.373 44.48 261.693 47.872 262.205 51.904C262.781 55.872 263.069 58.72 263.069 60.448C263.069 62.816 262.173 64.576 260.381 65.728C258.589 66.944 256.605 67.552 254.429 67.552C250.461 67.552 247.133 67.328 244.445 66.88L243.005 66.592L242.909 65.152C242.781 63.808 242.589 61.984 242.333 59.68C242.077 57.376 241.853 55.264 241.661 53.344C241.533 51.36 241.469 49.44 241.469 47.584C241.469 41.888 241.757 37.024 242.333 32.992C240.989 32.8 239.709 32.704 238.493 32.704C235.677 32.704 233.373 33.312 231.581 34.528L229.565 35.872L228.701 33.664C227.805 31.296 227.357 28.928 227.357 26.56ZM1.59163 117.48C1.59163 123.048 3.41563 127.528 7.06363 130.92C10.7116 134.312 15.1916 136.008 20.5036 136.008C27.0316 136.008 32.8876 133.64 38.0716 128.904C37.4956 127.688 36.8556 126.792 36.1516 126.216C34.4236 127.88 32.2156 129.224 29.5276 130.248C26.9036 131.272 24.3436 131.784 21.8476 131.784C19.3516 131.784 17.3356 131.208 15.7996 130.056C14.2636 128.84 13.4956 126.984 13.4956 124.488C13.4956 122.376 14.2636 120.616 15.7996 119.208C17.3996 117.736 19.3196 117 21.5596 117C25.1436 117 28.6636 118.28 32.1196 120.84C33.0156 116.36 34.0076 112.2 35.0956 108.36C35.5436 106.76 36.3116 104.68 37.3996 102.12C38.5516 99.56 39.2876 97.896 39.6076 97.128H39.2236C38.7756 98.536 37.8156 99.784 36.3436 100.872C34.8716 101.96 33.4636 102.504 32.1196 102.504C30.1356 102.504 27.7676 102.184 25.0156 101.544C22.2636 100.904 19.8956 100.584 17.9116 100.584C13.5596 100.584 9.75163 102.344 6.48763 105.864C3.22363 109.32 1.59163 113.192 1.59163 117.48ZM0.439625 118.152C0.439625 112.776 2.10363 108.296 5.43163 104.712C8.75963 101.128 13.1116 99.336 18.4876 99.336C20.6636 99.336 23.1596 99.688 25.9756 100.392C28.7916 101.032 31.0956 101.352 32.8876 101.352C33.7196 101.352 34.7116 100.968 35.8636 100.2C37.0156 99.368 37.7836 98.376 38.1676 97.224C38.2316 97.096 38.3276 96.84 38.4556 96.456L38.5516 95.976H42.7756C40.3436 101.608 38.6476 106.184 37.6876 109.704C36.4716 113.736 35.5116 117.8 34.8076 121.896C34.6796 122.216 34.4876 123.208 34.2316 124.872C33.2716 124.232 32.4716 123.656 31.8316 123.144C28.7596 120.84 25.5916 119.688 22.3276 119.688C20.5996 119.688 19.1276 120.232 17.9116 121.32C16.7596 122.408 16.1836 123.72 16.1836 125.256C16.1836 128.84 18.3276 130.632 22.6156 130.632C24.9196 130.632 27.2556 130.152 29.6236 129.192C32.0556 128.232 34.0396 127.016 35.5756 125.544C36.2156 124.904 36.6316 124.52 36.8236 124.392L38.0716 125.448C38.7116 126.024 39.2556 126.6 39.7036 127.176C40.0236 127.688 40.3436 128.296 40.6636 129C40.7276 129.064 40.8236 129.256 40.9516 129.576C41.0796 129.832 41.1436 130.024 41.1436 130.152L40.1836 131.112C34.6796 136.168 28.3756 138.696 21.2716 138.696C15.4476 138.696 10.5196 136.808 6.48763 133.032C2.45563 129.256 0.439625 124.296 0.439625 118.152ZM42.7704 137.352C43.5384 137.608 44.3704 137.8 45.2664 137.928C46.2264 138.056 47.7944 138.248 49.9704 138.504C52.2104 138.696 54.3864 138.952 56.4984 139.272C57.2024 135.112 57.5864 131.528 57.6504 128.52C64.5624 128.328 68.1464 128.232 68.4024 128.232C68.2744 129.192 67.8904 130.568 67.2504 132.36C66.6744 134.152 66.3864 135.496 66.3864 136.392C66.3864 137.416 66.7384 138.248 67.4424 138.888C68.1464 139.464 69.0104 139.752 70.0344 139.752C74.0664 139.752 78.2264 140.136 82.5144 140.904C82.5144 140.52 82.2904 137.992 81.8424 133.32C81.3944 128.584 81.1704 124.872 81.1704 122.184C81.1704 114.312 82.2584 106.376 84.4344 98.376C80.0824 96.968 76.2424 96.264 72.9144 96.264C71.5704 96.264 70.4824 96.68 69.6504 97.512C68.8184 98.344 68.4024 99.464 68.4024 100.872V117.96C67.5064 118.024 66.0664 118.216 64.0824 118.536C62.0984 118.792 60.7224 118.92 59.9544 118.92C59.3784 118.92 58.8024 118.76 58.2264 118.44C57.6504 118.12 57.3624 117.736 57.3624 117.288C57.3624 114.536 58.3544 107.688 60.3384 96.744C54.9624 96.744 49.2024 97.928 43.0584 100.296C43.7624 105.736 44.1144 112.2 44.1144 119.688C44.1144 126.088 43.6664 131.976 42.7704 137.352ZM41.4264 139.368L41.7144 137.832C42.5464 132.84 42.9624 127.048 42.9624 120.456C42.9624 113.48 42.5784 107.112 41.8104 101.352C41.8104 101.288 41.7784 101 41.7144 100.488C41.6504 99.976 41.6184 99.688 41.6184 99.624L43.0584 99.144C49.6504 96.584 55.6664 95.304 61.1064 95.304H63.4104C63.4104 95.752 63.2824 96.616 63.0264 97.896C61.1064 108.328 60.1144 114.92 60.0504 117.672C60.2424 117.736 60.4664 117.768 60.7224 117.768C61.2344 117.768 62.3864 117.64 64.1784 117.384C65.9704 117.128 66.9944 117 67.2504 117C67.2504 115.4 67.2184 112.904 67.1544 109.512C67.1544 106.056 67.1544 103.368 67.1544 101.448C67.1544 99.528 67.7304 97.992 68.8824 96.84C70.0344 95.624 71.5704 95.016 73.4904 95.016C76.9464 95.016 81.0424 95.784 85.7784 97.32C86.1624 97.512 86.7384 97.704 87.5064 97.896C87.5064 98.024 87.4424 98.344 87.3144 98.856C87.1864 99.304 87.0904 99.592 87.0264 99.72C84.9144 107.336 83.8584 115.08 83.8584 122.952C83.8584 125.512 84.0824 129.16 84.5304 133.896C84.9784 138.568 85.2024 141.16 85.2024 141.672V143.976C84.5624 143.848 83.7944 143.72 82.8984 143.592C78.7384 142.824 74.7064 142.44 70.8024 142.44C69.2664 142.44 67.9544 141.96 66.8664 141C65.7784 139.976 65.2344 138.696 65.2344 137.16C65.2344 136.2 65.7144 134.184 66.6744 131.112C65.2024 131.176 63.0904 131.208 60.3384 131.208C60.2744 132.488 59.8584 135.528 59.0904 140.328C59.0904 140.456 59.0584 140.776 58.9944 141.288C58.9304 141.8 58.8664 142.12 58.8024 142.248C58.0344 142.056 57.4264 141.96 56.9784 141.96C55.2504 141.704 53.4904 141.48 51.6984 141.288C49.9064 141.096 48.5624 140.968 47.6664 140.904C46.8344 140.776 46.0024 140.648 45.1704 140.52C44.3384 140.328 43.6024 140.136 42.9624 139.944L41.4264 139.368ZM86.8149 104.04C88.9909 106.792 90.0789 111.976 90.0789 119.592C90.0789 121.064 89.8869 123.208 89.5029 126.024C89.1189 128.84 88.7349 131.4 88.3509 133.704C87.9669 135.944 87.7749 137.096 87.7749 137.16C88.9909 136.968 90.2709 136.872 91.6149 136.872C93.0229 136.872 94.6549 136.936 96.5109 137.064C98.3669 137.128 99.8709 137.16 101.023 137.16C102.047 137.16 102.879 136.872 103.519 136.296C104.159 135.656 104.479 134.824 104.479 133.8C104.479 133.544 104.159 132.072 103.519 129.384C102.879 126.632 102.559 124.904 102.559 124.2C102.559 122.344 102.783 119.656 103.231 116.136C103.679 112.616 103.903 109.448 103.903 106.632C103.903 105.224 103.455 104.104 102.559 103.272C101.727 102.44 100.639 102.024 99.2949 102.024C96.9269 102.024 92.7669 102.696 86.8149 104.04ZM89.3109 93.768C89.3109 95.304 89.8229 96.648 90.8469 97.8C91.8709 98.888 93.0869 99.432 94.4949 99.432C96.9269 99.432 98.9749 98.728 100.639 97.32C102.303 95.912 103.135 94.088 103.135 91.848C103.135 88.584 101.087 86.952 96.9909 86.952C94.8789 86.952 93.0549 87.592 91.5189 88.872C90.0469 90.088 89.3109 91.72 89.3109 93.768ZM84.8949 104.712L84.9909 103.464C89.3429 102.376 91.9349 101.768 92.7669 101.64C91.4229 101.064 90.3029 100.136 89.4069 98.856C88.5749 97.512 88.1589 96.072 88.1589 94.536C88.1589 91.976 89.0869 89.896 90.9429 88.296C92.7989 86.632 95.0709 85.8 97.7589 85.8C100.383 85.8 102.367 86.44 103.711 87.72C105.119 89 105.823 90.632 105.823 92.616C105.823 96.456 104.063 99.24 100.543 100.968C102.271 101.096 103.711 101.768 104.863 102.984C106.015 104.136 106.591 105.608 106.591 107.4C106.591 110.28 106.367 113.512 105.919 117.096C105.471 120.616 105.247 123.24 105.247 124.968C105.247 125.352 105.567 126.888 106.207 129.576C106.847 132.2 107.167 133.864 107.167 134.568C107.167 136.168 106.623 137.448 105.535 138.408C104.511 139.368 103.263 139.848 101.791 139.848C100.575 139.848 99.0069 139.816 97.0869 139.752C95.1669 139.624 93.5349 139.56 92.1909 139.56C90.9109 139.56 89.7269 139.656 88.6389 139.848L86.7189 140.136L86.5269 138.216C86.5269 137.704 86.9109 135.048 87.6789 130.248C88.5109 125.448 88.9269 122.152 88.9269 120.36C88.9269 117.288 88.7029 114.728 88.2549 112.68C87.8709 110.568 87.4549 109.064 87.0069 108.168C86.5589 107.208 85.8549 106.056 84.8949 104.712ZM107.71 134.76C107.71 135.4 108.062 136.104 108.766 136.872C109.47 137.64 110.558 138.312 112.03 138.888C114.334 139.336 117.662 139.496 122.014 139.368L128.83 122.856C130.174 127.464 132.51 131.656 135.838 135.432C139.998 132.296 142.878 128.52 144.478 124.104C145.054 126.152 146.174 129.608 147.838 134.472C149.502 139.336 150.494 141.992 150.814 142.44C151.774 141.288 153.086 140.392 154.75 139.752C156.478 139.048 158.014 138.6 159.358 138.408C160.766 138.216 161.982 137.8 163.006 137.16C164.094 136.456 164.638 135.432 164.638 134.088C164.254 131.976 163.71 129.288 163.006 126.024C162.302 122.696 160.958 117.736 158.974 111.144C157.054 104.488 155.262 99.976 153.598 97.608C148.286 97.608 144.638 97.704 142.654 97.896L135.838 111.24C135.518 111.88 135.262 111.976 135.07 111.528C134.494 110.632 133.342 108.296 131.614 104.52C129.886 100.744 128.574 98.568 127.678 97.992L121.054 98.184C118.814 98.184 117.598 98.536 117.406 99.24C116.702 101.16 114.91 107.176 112.03 117.288C109.15 127.4 107.71 133.224 107.71 134.76ZM106.558 135.528C106.558 133.928 107.902 128.36 110.59 118.824C113.278 109.288 115.166 102.824 116.254 99.432C116.446 98.856 116.574 98.504 116.638 98.376C116.702 98.248 117.182 97.992 118.078 97.608C118.974 97.224 120.222 97.032 121.822 97.032C123.486 97.032 124.862 97.032 125.95 97.032C127.038 96.968 127.774 96.936 128.158 96.936C128.606 96.872 128.894 96.84 129.022 96.84C129.79 97.288 130.462 97.896 131.038 98.664C131.614 99.432 132.062 100.2 132.382 100.968C132.766 101.672 133.31 102.856 134.014 104.52C134.782 106.12 135.454 107.528 136.03 108.744C139.614 101.704 141.63 97.704 142.078 96.744C144.766 96.552 149.214 96.456 155.422 96.456C157.47 99.4 159.486 104.072 161.47 110.472C163.454 116.872 164.926 122.536 165.886 127.464L167.326 134.856C167.326 136.648 166.75 138.056 165.598 139.08C164.51 140.04 163.23 140.648 161.758 140.904C160.286 141.096 158.686 141.48 156.958 142.056C155.23 142.632 153.95 143.432 153.118 144.456L151.582 146.376L150.046 144.36C149.534 143.72 147.806 138.952 144.862 130.056C143.134 132.808 140.286 135.72 136.318 138.792C133.31 135.336 131.07 132.072 129.598 129L124.126 141.96L122.878 142.056C118.718 142.184 115.166 141.992 112.222 141.48C110.43 140.84 109.022 139.976 107.998 138.888C107.038 137.8 106.558 136.68 106.558 135.528ZM181.592 114.12C181.592 112.584 181.848 111.144 182.36 109.8C183.512 109.8 184.6 109.992 185.624 110.376C186.712 110.696 187.256 111.272 187.256 112.104C187.256 113.256 186.712 114.248 185.624 115.08C184.536 115.912 183.256 116.328 181.784 116.328C181.656 115.432 181.592 114.696 181.592 114.12ZM165.752 137.352C165.752 139.912 168.152 141.192 172.952 141.192C175.704 141.192 178.168 140.616 180.344 139.464C181.688 136.776 182.36 133.416 182.36 129.384C182.36 126.888 182.232 124.2 181.976 121.32C184.28 121.896 187.16 122.184 190.616 122.184C195.736 122.184 200.408 120.52 204.632 117.192C208.92 113.8 211.064 109.192 211.064 103.368C211.064 99.272 209.432 95.912 206.168 93.288C202.968 90.6 199.064 89.256 194.456 89.256C191.32 89.256 187.032 90.344 181.592 92.52C176.216 94.696 171.704 96.008 168.056 96.456C167.48 96.584 167.192 97 167.192 97.704C167.192 100.328 167.384 103.656 167.768 107.688C168.216 111.656 168.44 115.112 168.44 118.056C168.44 120.36 168.216 123.048 167.768 126.12C167.32 129.128 166.872 131.72 166.424 133.896C165.976 136.008 165.752 137.16 165.752 137.352ZM184.28 114.888C185.432 114.376 186.04 113.8 186.104 113.16C185.592 112.904 185.048 112.744 184.472 112.68C184.344 113.256 184.28 113.992 184.28 114.888ZM164.6 138.12C164.6 137.864 164.824 136.648 165.272 134.472C165.72 132.232 166.168 129.64 166.616 126.696C167.064 123.688 167.288 121.064 167.288 118.824C167.288 116.008 167.064 112.616 166.616 108.648C166.232 104.616 166.04 101.224 166.04 98.472C166.04 96.616 166.776 95.56 168.248 95.304C171.896 94.856 176.44 93.544 181.88 91.368C187.384 89.128 191.832 88.008 195.224 88.008C200.28 88.008 204.632 89.544 208.28 92.616C211.928 95.624 213.752 99.464 213.752 104.136C213.752 110.536 211.416 115.592 206.744 119.304C202.072 123.016 196.952 124.872 191.384 124.872C188.76 124.872 186.584 124.744 184.856 124.488C184.984 126.024 185.048 127.912 185.048 130.152C185.048 134.504 184.312 138.152 182.84 141.096L182.552 141.672L181.976 141.96C179.608 143.24 176.856 143.88 173.72 143.88C170.328 143.88 167.96 143.304 166.616 142.152C165.272 141 164.6 139.656 164.6 138.12ZM240.99 128.328C240.99 127.432 241.278 126.664 241.854 126.024C242.494 125.384 243.262 125.064 244.158 125.064C245.054 125.064 245.822 125.256 246.462 125.64C247.102 126.024 247.422 126.536 247.422 127.176C247.422 128.008 247.134 128.744 246.558 129.384C246.046 129.96 245.374 130.248 244.542 130.248C243.582 130.248 242.75 130.056 242.046 129.672C241.342 129.288 240.99 128.84 240.99 128.328ZM234.462 122.76C234.462 129.288 236.222 133.448 239.742 135.24L238.59 135.816C239.55 137.096 240.958 138.12 242.814 138.888C244.67 139.656 246.526 140.04 248.382 140.04C254.334 140.04 259.166 138.632 262.878 135.816C266.59 132.936 268.446 129.032 268.446 124.104C268.446 120.008 266.462 116.488 262.494 113.544C258.526 110.6 253.758 109.128 248.19 109.128C244.862 109.128 241.918 110.44 239.358 113.064C236.862 115.624 235.23 118.856 234.462 122.76ZM243.678 128.712C244.19 128.968 244.734 129.096 245.31 129.096C245.95 129.096 246.27 128.776 246.27 128.136C246.014 127.88 245.566 127.752 244.926 127.752C244.222 127.752 243.806 128.072 243.678 128.712ZM233.31 123.528V123.336V123.144C234.206 118.472 236.03 114.792 238.782 112.104C241.598 109.352 244.99 107.976 248.958 107.976C254.974 107.976 260.158 109.608 264.51 112.872C268.926 116.072 271.134 120.072 271.134 124.872C271.134 130.248 269.118 134.568 265.086 137.832C261.118 141.096 255.806 142.728 249.15 142.728C247.102 142.728 244.99 142.28 242.814 141.384C240.702 140.552 239.038 139.336 237.822 137.736C236.862 136.456 236.35 135.784 236.286 135.72C236.35 135.72 236.414 135.72 236.478 135.72C236.606 135.656 236.702 135.592 236.766 135.528C234.462 132.904 233.31 128.904 233.31 123.528ZM286.405 114.12C286.405 112.584 286.661 111.144 287.173 109.8C288.325 109.8 289.413 109.992 290.437 110.376C291.525 110.696 292.069 111.272 292.069 112.104C292.069 113.256 291.525 114.248 290.437 115.08C289.349 115.912 288.069 116.328 286.597 116.328C286.469 115.432 286.405 114.696 286.405 114.12ZM270.565 137.352C270.565 139.912 272.965 141.192 277.765 141.192C280.517 141.192 282.981 140.616 285.157 139.464C286.501 136.776 287.173 133.416 287.173 129.384C287.173 126.888 287.045 124.2 286.789 121.32C289.093 121.896 291.973 122.184 295.429 122.184C300.549 122.184 305.221 120.52 309.445 117.192C313.733 113.8 315.877 109.192 315.877 103.368C315.877 99.272 314.245 95.912 310.981 93.288C307.781 90.6 303.877 89.256 299.269 89.256C296.133 89.256 291.845 90.344 286.405 92.52C281.029 94.696 276.517 96.008 272.869 96.456C272.293 96.584 272.005 97 272.005 97.704C272.005 100.328 272.197 103.656 272.581 107.688C273.029 111.656 273.253 115.112 273.253 118.056C273.253 120.36 273.029 123.048 272.581 126.12C272.133 129.128 271.685 131.72 271.237 133.896C270.789 136.008 270.565 137.16 270.565 137.352ZM289.093 114.888C290.245 114.376 290.853 113.8 290.917 113.16C290.405 112.904 289.861 112.744 289.285 112.68C289.157 113.256 289.093 113.992 289.093 114.888ZM269.413 138.12C269.413 137.864 269.637 136.648 270.085 134.472C270.533 132.232 270.981 129.64 271.429 126.696C271.877 123.688 272.101 121.064 272.101 118.824C272.101 116.008 271.877 112.616 271.429 108.648C271.045 104.616 270.853 101.224 270.853 98.472C270.853 96.616 271.589 95.56 273.061 95.304C276.709 94.856 281.253 93.544 286.693 91.368C292.197 89.128 296.645 88.008 300.037 88.008C305.093 88.008 309.445 89.544 313.093 92.616C316.741 95.624 318.565 99.464 318.565 104.136C318.565 110.536 316.229 115.592 311.557 119.304C306.885 123.016 301.765 124.872 296.197 124.872C293.573 124.872 291.397 124.744 289.669 124.488C289.797 126.024 289.861 127.912 289.861 130.152C289.861 134.504 289.125 138.152 287.653 141.096L287.365 141.672L286.789 141.96C284.421 143.24 281.669 143.88 278.533 143.88C275.141 143.88 272.773 143.304 271.429 142.152C270.085 141 269.413 139.656 269.413 138.12ZM318.014 139.176C319.102 139.368 320.51 139.688 322.238 140.136C323.966 140.584 325.534 140.936 326.942 141.192C328.414 141.512 329.854 141.672 331.262 141.672C335.55 141.672 339.198 140.36 342.206 137.736C345.278 135.112 346.814 131.944 346.814 128.232C346.814 125.928 346.11 123.88 344.702 122.088C343.294 120.296 341.438 119.048 339.134 118.344C335.998 117.384 334.238 116.616 333.854 116.04C333.726 115.784 333.662 115.56 333.662 115.368C333.662 114.792 334.11 114.504 335.006 114.504C336.862 114.504 338.526 114.728 339.998 115.176C340.83 109.032 342.366 103.88 344.606 99.72C338.078 98.44 333.214 97.8 330.014 97.8C327.134 97.8 324.606 98.632 322.43 100.296C320.254 101.96 319.166 103.944 319.166 106.248C319.166 109.64 320.51 112.776 323.198 115.656C325.95 118.6 327.326 121.736 327.326 125.064C327.326 126.28 326.942 127.336 326.174 128.232C325.406 129.064 324.478 129.48 323.39 129.48C322.878 129.48 322.366 129.384 321.854 129.192C321.342 128.936 320.766 128.616 320.126 128.232C319.486 127.784 318.974 127.464 318.59 127.272L318.014 139.176ZM316.766 141.48L317.438 127.944C317.438 127.752 317.47 127.272 317.534 126.504C317.598 125.672 317.63 125.16 317.63 124.968L320.318 126.312C320.766 126.568 321.278 126.888 321.854 127.272C322.43 127.592 322.878 127.848 323.198 128.04C323.582 128.232 323.902 128.328 324.158 128.328C324.67 128.328 325.118 128.104 325.502 127.656C325.95 127.144 326.174 126.536 326.174 125.832C326.174 123.144 324.958 120.456 322.526 117.768C319.518 114.504 318.014 110.92 318.014 107.016C318.014 103.688 319.262 101.128 321.758 99.336C324.318 97.544 327.326 96.648 330.782 96.648C334.174 96.648 339.166 97.288 345.758 98.568C345.95 98.632 346.398 98.76 347.102 98.952C347.806 99.08 348.222 99.144 348.35 99.144C348.286 99.336 348.094 99.72 347.774 100.296C347.454 100.872 347.23 101.224 347.102 101.352C344.862 105.512 343.39 110.472 342.686 116.232C342.686 116.296 342.622 116.584 342.494 117.096C342.43 117.608 342.398 117.928 342.398 118.056C344.574 119.144 346.302 120.648 347.582 122.568C348.862 124.488 349.502 126.632 349.502 129C349.502 133.288 347.774 136.936 344.318 139.944C340.862 142.888 336.766 144.36 332.03 144.36C330.494 144.36 329.054 144.232 327.71 143.976C326.366 143.72 324.766 143.368 322.91 142.92C321.118 142.472 319.614 142.12 318.398 141.864L316.766 141.48Z" fill="url(#paint0_linear_175_2)"/>
<defs>
<linearGradient id="paint0_linear_175_2" x1="174.5" y1="6.92684e-08" x2="175.531" y2="196.525" gradientUnits="userSpaceOnUse">
<stop stop-color="#448C73"/>
<stop offset="1" stop-color="#222E2E"/>
</linearGradient>
</defs>
</svg>
