<svg width="316" height="154" viewBox="0 0 316 154" fill="none" xmlns="http://www.w3.org/2000/svg">
<path d="M40 26.7597L45.6667 23.743L53 22.7374L61.0001 24.7486H66.6667L69.6668 22.4022L72.6668 18.715L68.0001 38.4917L66.3334 44.8604L53 41.1732L48.3334 44.8604V48.8828L50.3334 53.9108H58.3334L64.3334 51.8996L69.1668 48.7152L72.0001 52.57L60.0001 59.9443H50L40 56.5923L35.3333 48.8828L34 43.1844V36.4805L36.3333 31.1173L40 26.7597Z" fill="#FDDA21"/>
<path d="M105 32.123C105 40.8238 93.354 46.8717 84.3334 46.8717C75.3127 46.8717 72 39.483 72 30.7822C72 22.0813 76.646 17.0391 85.6667 17.0391C94.6874 17.0391 105 23.4221 105 32.123Z" fill="#FDDA21"/>
<path d="M100.998 39.8323L108.998 37.4859L112.998 36.4803L115.665 44.525L118.998 38.1563L120.998 30.7819L123.998 28.7707L127.665 28.1003H133.998L134.331 39.8323L126.331 61.6201L118.665 70.0001L112.331 67.6537L106.331 60.9497L100.998 39.8323Z" fill="#FDDA21"/>
<path d="M135.333 20.7261L150.333 21.3965L165.666 20.7261L166.666 28.1004L166 35.1396H156.333L158 40.8379L158.333 47.8771L165.666 44.5251L166.666 60.9498L135.333 61.6202L137.333 42.1787L135.333 20.7261Z" fill="#FDDA21"/>
<path d="M170.337 18.0453L181.004 18.3805L195.004 13.6877H202.337L208.004 18.0453L210.337 23.0733L208.671 31.7884L201.337 37.4868L209.671 51.2299L215.004 51.9003L210.337 64.973L202.337 67.6546L195.004 66.3138L194.004 55.5875L192.337 48.8835L189.671 45.8667L188.337 58.269L187.671 64.973L168.004 63.9674L171.671 40.1684L171.004 26.7605L170.337 18.0453Z" fill="#FDDA21"/>
<path d="M212.334 15.0285L218.334 12.0117H226.667L241.667 13.3525H250.334L259.001 12.0117L260.667 18.3805L259.001 27.4308L255.334 31.118L243.334 29.7772L245.001 63.297L234.667 65.9785L227.334 64.6378L225.334 53.241V41.1739L226.001 31.118L213.001 32.4588L211.334 24.7492L212.334 15.0285Z" fill="#FDDA21"/>
<path d="M22 97.0559L26.3334 95.7151H33.3334L36.0001 97.0559L37.3334 101.078L38.6668 104.095L42.6668 108.453L58.3335 130.911V138.956L54.6668 143.313L36.6667 142.643L34.6667 136.609L29.6667 130.911L19.6667 129.235L17.3334 138.956L13.6667 143.313L8.00002 142.643L4.33334 141.637L1 137.615L3 134.263L10 128.564L15 118.509L17.3334 108.453L18 100.073L22 97.0559Z" fill="#FDDA21"/>
<path d="M62.0029 96.0504L71.6696 93.704L81.3363 90.0168L90.003 88.3408L101.67 91.6928L107.336 102.084L104.003 115.157L96.6697 121.525L79.003 123.201L76.003 142.308H67.0029L60.0029 139.961L63.0029 118.173L62.0029 106.106V96.0504Z" fill="#FDDA21"/>
<path d="M108 96.7207L122 98.3967L136 97.7263L138.333 100.408L139.667 104.43L137.667 112.81L129.667 111.469L130.667 124.877L133.667 123.872L139 120.855L139.667 124.542V138.956H108L109.667 117.838L108 96.7207Z" fill="#FDDA21"/>
<path d="M170.001 103.09L175.334 100.408L182.668 99.738L191.334 101.414L197.001 101.079L201.001 96.7212L202.334 96.386L195.668 122.196L187.001 118.509L178.334 119.85L177.668 127.224L180.001 130.911L189.001 130.576L199.001 125.548L201.001 129.235L193.668 135.269L181.668 136.945L169.668 133.593L165.001 127.559L163.001 119.179L164.668 108.788L170.001 103.09Z" fill="#FDDA21"/>
<path d="M204.669 92.0278L210.002 89.3462L222.002 90.3518L223.335 119.849L229.002 120.52L235.669 118.508L236.335 119.514L236.669 135.939L232.002 138.285L227.335 139.961L204.002 138.285L206.002 114.151L204.002 96.3853L204.669 92.0278Z" fill="#FDDA21"/>
<path d="M238.003 102.083L239.67 99.737L243.67 98.7314H249.003L254.336 99.737L256.003 104.765L257.336 110.799L259.67 113.815L262.003 112.139L263.336 106.106L260.67 100.743L262.003 98.061L265.003 97.3906L266.003 98.7314L268.336 102.083L269.336 110.799L266.67 126.218L259.003 135.603L248.336 134.933L241.67 132.586L239.003 126.888L239.67 110.128L238.003 102.083Z" fill="#FDDA21"/>
<path d="M271.667 94.7095L291 87H299.334L305.334 89.6816L309 96.0503L307.334 105.771L304.334 110.464L310 115.157L314.667 121.19L313.334 129.57L310 137.615L302.667 141.302L293.667 142.978L278.667 140.296L269.667 142.308L273.334 123.537L271.667 94.7095Z" fill="#FDDA21"/>
<path d="M33.951 40.48C33.951 46.048 35.775 50.528 39.423 53.92C43.071 57.312 47.551 59.008 52.863 59.008C59.391 59.008 65.247 56.64 70.431 51.904C69.855 50.688 69.215 49.792 68.511 49.216C66.783 50.88 64.575 52.224 61.887 53.248C59.263 54.272 56.703 54.784 54.207 54.784C51.711 54.784 49.695 54.208 48.159 53.056C46.623 51.84 45.855 49.984 45.855 47.488C45.855 45.376 46.623 43.616 48.159 42.208C49.759 40.736 51.679 40 53.919 40C57.503 40 61.023 41.28 64.479 43.84C65.375 39.36 66.367 35.2 67.455 31.36C67.903 29.76 68.671 27.68 69.759 25.12C70.911 22.56 71.647 20.896 71.967 20.128H71.583C71.135 21.536 70.175 22.784 68.703 23.872C67.231 24.96 65.823 25.504 64.479 25.504C62.495 25.504 60.127 25.184 57.375 24.544C54.623 23.904 52.255 23.584 50.271 23.584C45.919 23.584 42.111 25.344 38.847 28.864C35.583 32.32 33.951 36.192 33.951 40.48ZM32.799 41.152C32.799 35.776 34.463 31.296 37.791 27.712C41.119 24.128 45.471 22.336 50.847 22.336C53.023 22.336 55.519 22.688 58.335 23.392C61.151 24.032 63.455 24.352 65.247 24.352C66.079 24.352 67.071 23.968 68.223 23.2C69.375 22.368 70.143 21.376 70.527 20.224C70.591 20.096 70.687 19.84 70.815 19.456L70.911 18.976H75.135C72.703 24.608 71.007 29.184 70.047 32.704C68.831 36.736 67.871 40.8 67.167 44.896C67.039 45.216 66.847 46.208 66.591 47.872C65.631 47.232 64.831 46.656 64.191 46.144C61.119 43.84 57.951 42.688 54.687 42.688C52.959 42.688 51.487 43.232 50.271 44.32C49.119 45.408 48.543 46.72 48.543 48.256C48.543 51.84 50.687 53.632 54.975 53.632C57.279 53.632 59.615 53.152 61.983 52.192C64.415 51.232 66.399 50.016 67.935 48.544C68.575 47.904 68.991 47.52 69.183 47.392L70.431 48.448C71.071 49.024 71.615 49.6 72.063 50.176C72.383 50.688 72.703 51.296 73.023 52C73.087 52.064 73.183 52.256 73.311 52.576C73.439 52.832 73.503 53.024 73.503 53.152L72.543 54.112C67.039 59.168 60.735 61.696 53.631 61.696C47.807 61.696 42.879 59.808 38.847 56.032C34.815 52.256 32.799 47.296 32.799 41.152ZM78.3495 35.968C78.3495 35.2 78.6055 34.528 79.1175 33.952C79.6935 33.376 80.3335 33.088 81.0375 33.088C81.8055 33.088 82.4455 33.28 82.9575 33.664C83.5335 33.984 83.8215 34.368 83.8215 34.816C83.8215 35.52 83.5655 36.128 83.0535 36.64C82.6055 37.088 82.0615 37.312 81.4215 37.312C79.3735 37.312 78.3495 36.864 78.3495 35.968ZM71.8215 30.4C71.8215 36.928 73.5815 41.088 77.1015 42.88L75.9495 43.456C77.1655 45.12 79.7575 45.952 83.7255 45.952C89.4855 45.952 94.2855 44.672 98.1255 42.112C101.966 39.488 103.886 36.032 103.886 31.744C103.886 27.776 102.094 24.448 98.5095 21.76C94.9255 19.072 90.2855 17.728 84.5895 17.728C81.5175 17.728 78.7975 18.944 76.4295 21.376C74.0615 23.744 72.5255 26.752 71.8215 30.4ZM70.6695 31.168V30.976V30.784C72.5895 21.312 77.4855 16.576 85.3575 16.576C91.4375 16.576 96.4935 18.08 100.526 21.088C104.558 24.096 106.574 27.904 106.574 32.512C106.574 37.504 104.398 41.44 100.046 44.32C95.7575 47.2 90.5735 48.64 84.4935 48.64C79.8855 48.64 76.7815 47.552 75.1815 45.376L73.6455 43.36L74.1255 43.168C71.8215 40.48 70.6695 36.48 70.6695 31.168ZM101.73 42.496C101.73 44.032 102.306 46.848 103.458 50.944C104.61 54.976 105.474 57.664 106.05 59.008C107.074 61.632 108.61 63.872 110.658 65.728C112.77 67.648 115.106 68.608 117.666 68.608C120.034 66.816 122.37 63.52 124.674 58.72C126.978 53.856 128.866 49.184 130.338 44.704C131.81 40.224 132.674 36.96 132.93 34.912L133.41 31.84C133.41 29.472 132.706 28.288 131.298 28.288C128.994 28.288 126.978 28.512 125.25 28.96C122.946 29.536 121.474 30.72 120.834 32.512C118.338 39.552 116.77 44.608 116.13 47.68L112.386 36.832C110.658 37.152 108.994 37.632 107.394 38.272C105.026 39.232 103.49 40.032 102.786 40.672C102.082 41.248 101.73 41.856 101.73 42.496ZM100.482 43.072C100.482 41.984 100.994 40.96 102.018 40C103.042 39.04 104.386 38.272 106.05 37.696C107.714 37.056 109.186 36.576 110.466 36.256C111.81 35.872 113.122 35.584 114.402 35.392L116.61 42.016L119.682 32.704C120.514 30.144 122.434 28.512 125.442 27.808C127.362 27.36 129.57 27.136 132.066 27.136C133.282 27.136 134.242 27.648 134.946 28.672C135.714 29.696 136.098 31.008 136.098 32.608C136.098 33.248 135.906 34.56 135.522 36.544C135.202 38.464 134.306 41.728 132.834 46.336C131.362 50.88 129.474 55.552 127.17 60.352C124.61 65.472 121.922 69.12 119.106 71.296C115.394 71.296 112.386 70.176 110.082 67.936C107.778 65.696 106.082 63.2 104.994 60.448L104.514 59.008C104.194 57.984 103.81 56.8 103.362 55.456C102.914 54.048 102.466 52.576 102.018 51.04C101.57 49.504 101.218 48 100.962 46.528C100.642 45.056 100.482 43.904 100.482 43.072ZM133.683 22.528C133.683 20.544 134.739 19.552 136.851 19.552C140.883 20.512 144.691 20.992 148.275 20.992C152.947 20.992 158.259 20.768 164.211 20.32C164.275 20.32 164.403 20.32 164.595 20.32C164.851 20.256 165.011 20.224 165.075 20.224C165.203 20.416 165.299 20.544 165.363 20.608C165.427 20.608 165.459 20.64 165.459 20.704C165.523 20.704 165.619 20.8 165.747 20.992C167.667 23.168 168.627 25.856 168.627 29.056C168.627 31.168 168.147 33.76 167.187 36.832C167.123 36.96 166.995 37.408 166.803 38.176C166.611 38.88 166.483 39.296 166.419 39.424C166.227 39.36 165.843 39.104 165.267 38.656C164.755 38.144 164.403 37.856 164.211 37.792C162.739 36.64 160.819 36.064 158.451 36.064C158.259 36.064 158.067 36.064 157.875 36.064C157.747 36.064 157.651 36.096 157.587 36.16C157.523 36.16 157.459 36.16 157.395 36.16H157.299C158.451 37.696 159.027 39.712 159.027 42.208C159.027 42.976 158.963 44.32 158.835 46.24C158.835 46.304 158.803 46.432 158.739 46.624C158.739 46.816 158.739 46.944 158.739 47.008L158.163 47.584C160.211 47.008 162.163 45.888 164.019 44.224C164.147 44.096 164.435 43.808 164.883 43.36C165.395 42.912 165.715 42.624 165.843 42.496L166.995 44.8C168.147 47.296 168.723 50.08 168.723 53.152C168.723 56.672 168.435 59.36 167.859 61.216C167.795 61.344 167.699 61.568 167.571 61.888C167.507 62.144 167.475 62.336 167.475 62.464L166.227 62.56C160.083 63.072 154.259 63.328 148.755 63.328C144.083 63.328 139.859 63.2 136.083 62.944C135.955 62.944 135.603 62.944 135.027 62.944C134.515 62.88 134.195 62.848 134.067 62.848L134.259 60.832C134.451 59.104 134.707 57.088 135.027 54.784C135.411 52.416 135.699 50.336 135.891 48.544C136.083 46.688 136.179 44.736 136.179 42.688C136.179 35.648 135.347 28.928 133.683 22.528ZM135.219 22.816C136.627 28.64 137.331 34.624 137.331 40.768C137.331 43.328 137.203 45.824 136.947 48.256C136.755 50.688 136.467 53.152 136.083 55.648C135.699 58.08 135.475 59.616 135.411 60.256C139.187 60.512 143.379 60.64 147.987 60.64C153.363 60.64 159.123 60.384 165.267 59.872C165.779 58.08 166.035 55.584 166.035 52.384C166.035 49.504 165.523 47.008 164.499 44.896C161.427 47.648 157.939 49.024 154.035 49.024C151.475 49.024 149.043 48.672 146.739 47.968C146.739 47.392 146.963 46.592 147.411 45.568C149.075 46.272 150.355 46.624 151.251 46.624C153.363 46.624 154.995 46.176 156.147 45.28C156.275 43.36 156.339 42.08 156.339 41.44C156.339 39.392 155.891 37.76 154.995 36.544C152.243 37.248 149.971 37.6 148.179 37.6C147.987 36.896 147.891 36 147.891 34.912C152.051 33.888 155.315 33.376 157.683 33.376C160.243 33.376 162.547 34.08 164.595 35.488C165.491 32.672 165.939 30.272 165.939 28.288C165.939 25.6 165.139 23.328 163.539 21.472C157.587 21.92 152.243 22.144 147.507 22.144C145.395 22.144 143.155 21.984 140.787 21.664C138.483 21.344 137.171 21.184 136.851 21.184C135.763 21.184 135.219 21.728 135.219 22.816ZM185.472 31.168C187.456 31.168 189.088 31.328 190.368 31.648C191.712 31.968 192.384 32.384 192.384 32.896C192.384 33.728 192.096 34.4 191.52 34.912C191.008 35.36 190.336 35.712 189.504 35.968C188.736 36.224 187.776 36.448 186.624 36.64C186.304 36.704 186.08 36.736 185.952 36.736L185.472 31.168ZM168 62.656C172.928 63.68 178.336 64.192 184.224 64.192C185.248 64.192 186.016 63.84 186.528 63.136C187.104 62.432 187.392 61.568 187.392 60.544C187.392 53.824 186.976 47.68 186.144 42.112C189.6 44.608 191.872 47.36 192.96 50.368C194.048 53.312 194.592 58.176 194.592 64.96C196.32 66.24 198.304 66.88 200.544 66.88C204.192 66.88 207.232 65.312 209.664 62.176C212.096 59.04 213.44 55.616 213.696 51.904C211.008 51.904 209.024 51.488 207.744 50.656C206.464 49.824 205.6 48.352 205.152 46.24C204.64 43.744 203.616 41.76 202.08 40.288C200.544 38.752 198.528 37.984 196.032 37.984C200 36.896 203.168 35.136 205.536 32.704C207.968 30.208 209.184 27.296 209.184 23.968C209.184 21.344 208 19.072 205.632 17.152C203.328 15.168 200.544 14.176 197.28 14.176C194.784 14.176 191.648 15.04 187.872 16.768C184.096 18.432 180.96 19.264 178.464 19.264C177.504 19.264 176.608 19.232 175.776 19.168C174.944 19.04 174.016 18.912 172.992 18.784C171.968 18.656 171.072 18.56 170.304 18.496C170.432 20.416 170.624 22.816 170.88 25.696C171.136 28.512 171.328 31.04 171.456 33.28C171.648 35.52 171.744 37.92 171.744 40.48C171.744 43.04 171.552 45.472 171.168 47.776C170.784 50.08 170.24 52.64 169.536 55.456C168.832 58.208 168.32 60.608 168 62.656ZM166.56 64.96L166.848 63.136C167.232 61.024 167.744 58.56 168.384 55.744C169.088 52.928 169.632 50.432 170.016 48.256C170.4 46.08 170.592 43.744 170.592 41.248C170.592 38.752 170.496 36.384 170.304 34.144C170.176 31.904 169.984 29.376 169.728 26.56C169.472 23.744 169.28 21.344 169.152 19.36C169.152 19.168 169.12 18.784 169.056 18.208C168.992 17.632 168.96 17.28 168.96 17.152C169.088 17.152 169.472 17.184 170.112 17.248C170.752 17.312 171.136 17.344 171.264 17.344C171.968 17.408 173.184 17.568 174.912 17.824C176.64 18.016 178.08 18.112 179.232 18.112C181.408 18.112 184.416 17.28 188.256 15.616C192.096 13.888 195.36 13.024 198.048 13.024C201.76 13.024 204.992 14.208 207.744 16.576C210.496 18.88 211.872 21.6 211.872 24.736C211.872 30.56 208.8 35.136 202.656 38.464C205.344 40.192 207.072 42.912 207.84 46.624C208.16 48.16 208.736 49.248 209.568 49.888C210.464 50.464 212.096 50.752 214.464 50.752H216.48C216.48 50.816 216.448 51.136 216.384 51.712C216.384 52.288 216.384 52.64 216.384 52.768C216.064 56.928 214.528 60.768 211.776 64.288C209.024 67.808 205.536 69.568 201.312 69.568C198.624 69.568 196.256 68.8 194.208 67.264C194.144 67.264 194.016 67.168 193.824 66.976C193.632 66.784 193.504 66.688 193.44 66.688V65.728C193.44 60.544 193.152 56.672 192.576 54.112C192.064 51.552 191.04 49.376 189.504 47.584C189.888 51.232 190.08 55.808 190.08 61.312C190.08 62.784 189.632 64.064 188.736 65.152C187.84 66.304 186.592 66.88 184.992 66.88C179.04 66.88 173.504 66.368 168.384 65.344L166.56 64.96ZM211.605 25.792C211.605 28.096 211.989 30.24 212.757 32.224C215.061 30.752 217.717 30.016 220.725 30.016C222.773 30.016 224.789 30.24 226.773 30.688C226.005 35.296 225.621 40.672 225.621 46.816C225.621 48.608 225.685 50.464 225.813 52.384C226.005 54.304 226.229 56.384 226.485 58.624C226.741 60.864 226.933 62.72 227.061 64.192C229.685 64.64 232.885 64.864 236.661 64.864C238.453 64.864 240.021 64.448 241.365 63.616C242.709 62.72 243.381 61.408 243.381 59.68C243.381 58.144 243.093 55.36 242.517 51.328C242.005 47.296 241.685 43.84 241.557 40.96C241.557 39.936 241.493 38.048 241.365 35.296C241.301 32.48 241.237 30.4 241.173 29.056C242.069 29.12 243.733 29.344 246.165 29.728C248.661 30.048 250.645 30.208 252.117 30.208C255.253 30.208 257.077 29.248 257.589 27.328C258.741 22.912 259.317 18.816 259.317 15.04C259.317 13.824 258.709 13.216 257.493 13.216C256.341 13.216 254.453 13.44 251.829 13.888C249.269 14.272 247.157 14.464 245.493 14.464C242.805 14.464 239.029 14.144 234.165 13.504C229.365 12.864 225.749 12.512 223.317 12.448C217.493 12.448 214.133 13.632 213.237 16C212.149 18.88 211.605 22.144 211.605 25.792ZM210.357 26.56C210.357 22.016 210.869 18.4 211.893 15.712C213.109 12.512 217.173 10.912 224.085 10.912C226.773 10.976 230.485 11.392 235.221 12.16C240.021 12.928 243.701 13.312 246.261 13.312C247.733 13.312 249.749 13.12 252.309 12.736C254.869 12.288 256.853 12.064 258.261 12.064C259.285 12.064 260.149 12.384 260.853 13.024C261.621 13.728 262.005 14.656 262.005 15.808C262.005 19.2 261.397 23.424 260.181 28.48C259.413 31.424 256.981 32.896 252.885 32.896C251.349 32.896 248.341 32.576 243.861 31.936C243.925 33.216 243.989 34.976 244.053 37.216C244.181 39.456 244.245 40.96 244.245 41.728C244.373 44.48 244.693 47.872 245.205 51.904C245.781 55.872 246.069 58.72 246.069 60.448C246.069 62.816 245.173 64.576 243.381 65.728C241.589 66.944 239.605 67.552 237.429 67.552C233.461 67.552 230.133 67.328 227.445 66.88L226.005 66.592L225.909 65.152C225.781 63.808 225.589 61.984 225.333 59.68C225.077 57.376 224.853 55.264 224.661 53.344C224.533 51.36 224.469 49.44 224.469 47.584C224.469 41.888 224.757 37.024 225.333 32.992C223.989 32.8 222.709 32.704 221.493 32.704C218.677 32.704 216.373 33.312 214.581 34.528L212.565 35.872L211.701 33.664C210.805 31.296 210.357 28.928 210.357 26.56ZM19.3181 119.4C19.3181 118.184 19.6061 117.096 20.1821 116.136C20.8221 115.176 21.6541 114.6 22.6781 114.408L29.0141 124.104L28.6301 124.296C27.7981 123.528 27.1581 123.08 26.7101 122.952C25.8781 122.76 24.8541 122.6 23.6381 122.472C22.4861 122.28 21.6541 122.12 21.1421 121.992C20.6941 121.864 20.2781 121.608 19.8941 121.224C19.5101 120.84 19.3181 120.232 19.3181 119.4ZM1.27013 137.448C1.27013 138.664 1.97413 139.72 3.38213 140.616C4.79013 141.512 6.51813 141.96 8.56613 141.96C10.7421 141.96 12.5981 141.576 14.1341 140.808C15.6701 140.04 16.4381 139.144 16.4381 138.12C16.4381 133.384 16.6621 130.024 17.1101 128.04C23.2541 128.232 27.2861 128.744 29.2061 129.576C31.1901 130.344 32.9501 132.488 34.4861 136.008C35.3821 138.312 35.8621 139.912 35.9261 140.808C37.5261 140.936 39.9581 141.192 43.2221 141.576C46.4861 142.024 49.2701 142.248 51.5741 142.248C53.0461 142.248 54.3581 141.704 55.5101 140.616C56.7261 139.464 57.3341 138.408 57.3341 137.448C57.3341 135.208 56.5981 132.616 55.1261 129.672C53.7181 126.728 52.1821 124.168 50.5181 121.992C48.9181 119.752 46.6141 116.744 43.6061 112.968C40.5981 109.128 38.3901 106.248 36.9821 104.328C35.1261 101.704 34.0701 99.208 33.8141 96.84C30.0381 96.328 27.1261 96.328 25.0781 96.84C23.0301 97.288 20.7261 98.504 18.1661 100.488C18.1661 109.96 15.6701 119.08 10.6781 127.848C9.97413 129.064 8.21413 130.664 5.39813 132.648C2.64613 134.568 1.27013 136.168 1.27013 137.448ZM22.0061 120.168C22.0061 120.296 22.0061 120.424 22.0061 120.552L22.1021 120.744C22.4221 120.936 23.4461 121.128 25.1741 121.32C25.0461 121.128 24.7901 120.744 24.4061 120.168C24.0221 119.592 23.6701 119.08 23.3501 118.632C23.0301 118.12 22.8381 117.8 22.7741 117.672C22.2621 118.376 22.0061 119.208 22.0061 120.168ZM0.118125 138.216C0.118125 136.616 0.726125 135.24 1.94213 134.088C3.22213 132.872 4.66213 131.72 6.26213 130.632C7.92613 129.48 9.04613 128.424 9.62213 127.464C14.4861 118.952 16.9181 110.216 16.9181 101.256V100.008C19.1581 98.28 21.1421 97.064 22.8701 96.36C24.5981 95.592 26.8381 95.208 29.5901 95.208C30.4861 95.208 32.7261 95.464 36.3101 95.976C36.3101 96.04 36.3421 96.264 36.4061 96.648C36.4701 97.032 36.5021 97.288 36.5021 97.416C36.7581 99.592 37.6861 101.768 39.2861 103.944C40.7581 105.992 43.0621 109 46.1981 112.968C49.3341 116.936 51.7021 120.008 53.3021 122.184C54.9021 124.36 56.4061 126.984 57.8141 130.056C59.2861 133.064 60.0221 135.784 60.0221 138.216C60.0221 139.688 59.2221 141.16 57.6221 142.632C56.0861 144.168 54.3261 144.936 52.3421 144.936C49.9101 144.936 47.0301 144.712 43.7021 144.264C40.4381 143.816 38.0701 143.56 36.5981 143.496L34.9661 143.4C34.9661 143.336 34.9341 143.08 34.8701 142.632C34.8061 142.184 34.7741 141.896 34.7741 141.768C34.6461 140.744 34.2301 139.304 33.5261 137.448C32.2461 134.504 30.8381 132.712 29.3021 132.072C27.8301 131.432 24.5341 131.016 19.4141 130.824C19.2221 131.848 19.1261 134.536 19.1261 138.888C19.1261 140.552 18.1661 141.928 16.2461 143.016C14.3261 144.104 12.0221 144.648 9.33413 144.648C6.83813 144.648 4.66213 144.04 2.80613 142.824C1.01412 141.608 0.118125 140.072 0.118125 138.216ZM75.9049 114.12C75.9049 112.584 76.1609 111.144 76.6729 109.8C77.8249 109.8 78.9129 109.992 79.9369 110.376C81.0249 110.696 81.5689 111.272 81.5689 112.104C81.5689 113.256 81.0249 114.248 79.9369 115.08C78.8489 115.912 77.5689 116.328 76.0969 116.328C75.9689 115.432 75.9049 114.696 75.9049 114.12ZM60.0649 137.352C60.0649 139.912 62.4649 141.192 67.2649 141.192C70.0169 141.192 72.4809 140.616 74.6569 139.464C76.0009 136.776 76.6729 133.416 76.6729 129.384C76.6729 126.888 76.5449 124.2 76.2889 121.32C78.5929 121.896 81.4729 122.184 84.9289 122.184C90.0489 122.184 94.7209 120.52 98.9449 117.192C103.233 113.8 105.377 109.192 105.377 103.368C105.377 99.272 103.745 95.912 100.481 93.288C97.2809 90.6 93.3769 89.256 88.7689 89.256C85.6329 89.256 81.3449 90.344 75.9049 92.52C70.5289 94.696 66.0169 96.008 62.3689 96.456C61.7929 96.584 61.5049 97 61.5049 97.704C61.5049 100.328 61.6969 103.656 62.0809 107.688C62.5289 111.656 62.7529 115.112 62.7529 118.056C62.7529 120.36 62.5289 123.048 62.0809 126.12C61.6329 129.128 61.1849 131.72 60.7369 133.896C60.2889 136.008 60.0649 137.16 60.0649 137.352ZM78.5929 114.888C79.7449 114.376 80.3529 113.8 80.4169 113.16C79.9049 112.904 79.3609 112.744 78.7849 112.68C78.6569 113.256 78.5929 113.992 78.5929 114.888ZM58.9129 138.12C58.9129 137.864 59.1369 136.648 59.5849 134.472C60.0329 132.232 60.4809 129.64 60.9289 126.696C61.3769 123.688 61.6009 121.064 61.6009 118.824C61.6009 116.008 61.3769 112.616 60.9289 108.648C60.5449 104.616 60.3529 101.224 60.3529 98.472C60.3529 96.616 61.0889 95.56 62.5609 95.304C66.2089 94.856 70.7529 93.544 76.1929 91.368C81.6969 89.128 86.1449 88.008 89.5369 88.008C94.5929 88.008 98.9449 89.544 102.593 92.616C106.241 95.624 108.065 99.464 108.065 104.136C108.065 110.536 105.729 115.592 101.057 119.304C96.3849 123.016 91.2649 124.872 85.6969 124.872C83.0729 124.872 80.8969 124.744 79.1689 124.488C79.2969 126.024 79.3609 127.912 79.3609 130.152C79.3609 134.504 78.6249 138.152 77.1529 141.096L76.8649 141.672L76.2889 141.96C73.9209 143.24 71.1689 143.88 68.0329 143.88C64.6409 143.88 62.2729 143.304 60.9289 142.152C59.5849 141 58.9129 139.656 58.9129 138.12ZM106.074 99.528C106.074 97.544 107.13 96.552 109.242 96.552C113.274 97.512 117.082 97.992 120.666 97.992C125.338 97.992 130.65 97.768 136.602 97.32C136.666 97.32 136.794 97.32 136.986 97.32C137.242 97.256 137.402 97.224 137.466 97.224C137.594 97.416 137.69 97.544 137.754 97.608C137.818 97.608 137.85 97.64 137.85 97.704C137.914 97.704 138.01 97.8 138.138 97.992C140.058 100.168 141.018 102.856 141.018 106.056C141.018 108.168 140.538 110.76 139.578 113.832C139.514 113.96 139.386 114.408 139.194 115.176C139.002 115.88 138.874 116.296 138.81 116.424C138.618 116.36 138.234 116.104 137.658 115.656C137.146 115.144 136.794 114.856 136.602 114.792C135.13 113.64 133.21 113.064 130.842 113.064C130.65 113.064 130.458 113.064 130.266 113.064C130.138 113.064 130.042 113.096 129.978 113.16C129.914 113.16 129.85 113.16 129.786 113.16H129.69C130.842 114.696 131.418 116.712 131.418 119.208C131.418 119.976 131.354 121.32 131.226 123.24C131.226 123.304 131.194 123.432 131.13 123.624C131.13 123.816 131.13 123.944 131.13 124.008L130.554 124.584C132.602 124.008 134.554 122.888 136.41 121.224C136.538 121.096 136.826 120.808 137.274 120.36C137.786 119.912 138.106 119.624 138.234 119.496L139.386 121.8C140.538 124.296 141.114 127.08 141.114 130.152C141.114 133.672 140.826 136.36 140.25 138.216C140.186 138.344 140.09 138.568 139.962 138.888C139.898 139.144 139.866 139.336 139.866 139.464L138.618 139.56C132.474 140.072 126.65 140.328 121.146 140.328C116.474 140.328 112.25 140.2 108.474 139.944C108.346 139.944 107.994 139.944 107.418 139.944C106.906 139.88 106.586 139.848 106.458 139.848L106.65 137.832C106.842 136.104 107.098 134.088 107.418 131.784C107.802 129.416 108.09 127.336 108.282 125.544C108.474 123.688 108.57 121.736 108.57 119.688C108.57 112.648 107.738 105.928 106.074 99.528ZM107.61 99.816C109.018 105.64 109.722 111.624 109.722 117.768C109.722 120.328 109.594 122.824 109.338 125.256C109.146 127.688 108.858 130.152 108.474 132.648C108.09 135.08 107.866 136.616 107.802 137.256C111.578 137.512 115.77 137.64 120.378 137.64C125.754 137.64 131.514 137.384 137.658 136.872C138.17 135.08 138.426 132.584 138.426 129.384C138.426 126.504 137.914 124.008 136.89 121.896C133.818 124.648 130.33 126.024 126.426 126.024C123.866 126.024 121.434 125.672 119.13 124.968C119.13 124.392 119.354 123.592 119.802 122.568C121.466 123.272 122.746 123.624 123.642 123.624C125.754 123.624 127.386 123.176 128.538 122.28C128.666 120.36 128.73 119.08 128.73 118.44C128.73 116.392 128.282 114.76 127.386 113.544C124.634 114.248 122.362 114.6 120.57 114.6C120.378 113.896 120.282 113 120.282 111.912C124.442 110.888 127.706 110.376 130.074 110.376C132.634 110.376 134.938 111.08 136.986 112.488C137.882 109.672 138.33 107.272 138.33 105.288C138.33 102.6 137.53 100.328 135.93 98.472C129.978 98.92 124.634 99.144 119.898 99.144C117.786 99.144 115.546 98.984 113.178 98.664C110.874 98.344 109.562 98.184 109.242 98.184C108.154 98.184 107.61 98.728 107.61 99.816ZM163.092 117.48C163.092 123.048 164.916 127.528 168.564 130.92C172.212 134.312 176.692 136.008 182.004 136.008C188.532 136.008 194.388 133.64 199.572 128.904C198.996 127.688 198.356 126.792 197.652 126.216C195.924 127.88 193.716 129.224 191.028 130.248C188.404 131.272 185.844 131.784 183.348 131.784C180.852 131.784 178.836 131.208 177.3 130.056C175.764 128.84 174.996 126.984 174.996 124.488C174.996 122.376 175.764 120.616 177.3 119.208C178.9 117.736 180.82 117 183.06 117C186.644 117 190.164 118.28 193.62 120.84C194.516 116.36 195.508 112.2 196.596 108.36C197.044 106.76 197.812 104.68 198.9 102.12C200.052 99.56 200.788 97.896 201.108 97.128H200.724C200.276 98.536 199.316 99.784 197.844 100.872C196.372 101.96 194.964 102.504 193.62 102.504C191.636 102.504 189.268 102.184 186.516 101.544C183.764 100.904 181.396 100.584 179.412 100.584C175.06 100.584 171.252 102.344 167.988 105.864C164.724 109.32 163.092 113.192 163.092 117.48ZM161.94 118.152C161.94 112.776 163.604 108.296 166.932 104.712C170.26 101.128 174.612 99.336 179.988 99.336C182.164 99.336 184.66 99.688 187.476 100.392C190.292 101.032 192.596 101.352 194.388 101.352C195.22 101.352 196.212 100.968 197.364 100.2C198.516 99.368 199.284 98.376 199.668 97.224C199.732 97.096 199.828 96.84 199.956 96.456L200.052 95.976H204.276C201.844 101.608 200.148 106.184 199.188 109.704C197.972 113.736 197.012 117.8 196.308 121.896C196.18 122.216 195.988 123.208 195.732 124.872C194.772 124.232 193.972 123.656 193.332 123.144C190.26 120.84 187.092 119.688 183.828 119.688C182.1 119.688 180.628 120.232 179.412 121.32C178.26 122.408 177.684 123.72 177.684 125.256C177.684 128.84 179.828 130.632 184.116 130.632C186.42 130.632 188.756 130.152 191.124 129.192C193.556 128.232 195.54 127.016 197.076 125.544C197.716 124.904 198.132 124.52 198.324 124.392L199.572 125.448C200.212 126.024 200.756 126.6 201.204 127.176C201.524 127.688 201.844 128.296 202.164 129C202.228 129.064 202.324 129.256 202.452 129.576C202.58 129.832 202.644 130.024 202.644 130.152L201.684 131.112C196.18 136.168 189.876 138.696 182.772 138.696C176.948 138.696 172.02 136.808 167.988 133.032C163.956 129.256 161.94 124.296 161.94 118.152ZM204.078 95.592C204.078 97 204.366 99.688 204.942 103.656C205.518 107.624 205.806 111.144 205.806 114.216C205.806 119.528 205.55 124.328 205.038 128.616C204.526 132.904 204.27 135.688 204.27 136.968C206.958 136.968 210.318 137.288 214.35 137.928C218.382 138.568 221.646 138.92 224.142 138.984C229.966 138.984 233.326 137.832 234.222 135.528C235.246 132.84 235.758 129.544 235.758 125.64C235.758 123.144 235.406 121 234.702 119.208C232.398 120.68 229.71 121.416 226.638 121.416C224.654 121.416 222.67 121.192 220.686 120.744C220.878 118.824 221.038 117.096 221.166 115.56C221.294 114.024 221.358 112.488 221.358 110.952C221.422 109.352 221.454 108.136 221.454 107.304C221.454 106.472 221.39 105.16 221.262 103.368C221.198 101.576 221.134 100.424 221.07 99.912C221.07 99.4 220.974 97.992 220.782 95.688C220.59 93.32 220.462 91.784 220.398 91.08C217.774 90.632 214.574 90.408 210.798 90.408C209.006 90.408 207.438 90.856 206.094 91.752C204.75 92.584 204.078 93.864 204.078 95.592ZM202.926 96.168C202.926 93.928 203.694 92.2 205.23 90.984C206.766 89.768 208.814 89.16 211.374 89.16C215.022 89.16 218.382 89.416 221.454 89.928C222.094 89.928 222.606 89.992 222.99 90.12C222.99 90.248 222.99 90.536 222.99 90.984C223.054 91.368 223.086 91.592 223.086 91.656C223.662 98.568 223.982 103.144 224.046 105.384C224.11 107.624 223.95 112.424 223.566 119.784C225.486 120.04 226.766 120.168 227.406 120.168C229.838 120.168 232.11 119.464 234.222 118.056C235.118 117.416 235.79 116.968 236.238 116.712C236.302 116.84 236.654 117.704 237.294 119.304C238.062 121.48 238.446 123.848 238.446 126.408C238.446 130.632 237.902 134.152 236.814 136.968C235.598 140.104 231.63 141.672 224.91 141.672C222.222 141.608 218.862 141.256 214.83 140.616C210.862 139.976 207.598 139.656 205.038 139.656H203.118V137.736C203.118 136.2 203.374 133.352 203.886 129.192C204.398 124.968 204.654 120.232 204.654 114.984C204.654 111.912 204.366 108.424 203.79 104.52C203.214 100.552 202.926 97.768 202.926 96.168ZM237.636 102.216C237.764 102.92 238.148 104.2 238.788 106.056C239.428 107.848 239.748 109.192 239.748 110.088C239.748 110.792 239.556 112.744 239.172 115.944C238.852 119.08 238.692 121.736 238.692 123.912C238.692 127.048 239.908 129.704 242.34 131.88C244.772 133.992 248.036 135.048 252.132 135.048C256.804 135.048 260.548 132.616 263.364 127.752C266.18 122.824 267.588 116.424 267.588 108.552C267.588 105.736 267.204 103.304 266.436 101.256C265.668 99.208 264.772 98.184 263.748 98.184C262.084 98.184 261.06 98.888 260.676 100.296C260.804 100.872 261.252 101.96 262.02 103.56C262.788 105.16 263.172 106.44 263.172 107.4C263.172 109.448 262.692 111.208 261.732 112.68C260.772 114.088 259.588 114.792 258.18 114.792C257.028 114.792 256.036 113.512 255.204 110.952C254.372 108.392 253.956 105.288 253.956 101.64C253.956 100.936 253.06 100.36 251.268 99.912C249.54 99.4 247.428 99.144 244.932 99.144C241.092 99.144 238.66 100.168 237.636 102.216ZM236.196 102.216L236.58 101.64C238.244 99.208 241.284 97.992 245.7 97.992C248.516 97.992 251.044 98.344 253.284 99.048C255.524 99.752 256.644 100.872 256.644 102.408C256.644 104.584 256.804 106.568 257.124 108.36C257.444 110.088 257.764 111.336 258.084 112.104C258.468 112.872 258.788 113.384 259.044 113.64C259.748 113.512 260.42 112.936 261.06 111.912C261.7 110.888 262.02 109.64 262.02 108.168C262.02 107.464 261.668 106.408 260.964 105C260.26 103.528 259.812 102.408 259.62 101.64C259.62 101.576 259.588 101.512 259.524 101.448C259.524 101.384 259.492 101.288 259.428 101.16C259.556 100.904 259.62 100.712 259.62 100.584C259.876 99.496 260.484 98.632 261.444 97.992C262.404 97.352 263.428 97.032 264.516 97.032C266.308 97.032 267.716 98.216 268.74 100.584C269.764 102.952 270.276 105.864 270.276 109.32C270.276 117.896 268.676 124.776 265.476 129.96C262.276 135.144 258.084 137.736 252.9 137.736C248.356 137.736 244.644 136.488 241.764 133.992C238.948 131.496 237.54 128.392 237.54 124.68C237.54 122.376 237.7 119.656 238.02 116.52C238.404 113.32 238.596 111.464 238.596 110.952C238.596 110.312 238.276 109.032 237.636 107.112C236.996 105.128 236.612 103.848 236.484 103.272L236.196 102.216ZM287.358 125.16C287.742 125.224 288.254 125.256 288.894 125.256C291.454 125.256 292.734 124.36 292.734 122.568C292.734 120.776 291.582 119.624 289.278 119.112C288.638 121.8 287.998 123.816 287.358 125.16ZM267.39 145.32L268.638 141.384C270.878 133.256 271.998 125.672 271.998 118.632C271.998 111.592 271.582 104.168 270.75 96.36L270.558 94.536L272.382 94.056C273.534 93.8 275.422 93 278.046 91.656C280.734 90.312 283.582 89.096 286.59 88.008C289.598 86.92 292.542 86.376 295.422 86.376C299.39 86.376 302.782 87.56 305.598 89.928C308.414 92.296 309.822 95.656 309.822 100.008C309.822 104.872 308.222 108.648 305.022 111.336C308.03 112.616 310.526 114.44 312.51 116.808C314.494 119.112 315.486 121.864 315.486 125.064C315.486 131.272 313.182 136.072 308.574 139.464C303.966 142.856 298.462 144.552 292.062 144.552C289.95 144.552 287.422 144.168 284.478 143.4C281.534 142.632 279.614 142.248 278.718 142.248C277.438 142.248 276.19 142.344 274.974 142.536C273.758 142.792 272.926 142.984 272.478 143.112C272.03 143.304 271.102 143.688 269.694 144.264C268.286 144.904 267.518 145.256 267.39 145.32ZM283.902 125.352C284.478 124.52 285.086 123.08 285.726 121.032C286.43 118.92 286.782 117.288 286.782 116.136C288.702 116.136 290.366 116.648 291.774 117.672C293.182 118.696 293.886 120.072 293.886 121.8C293.886 124.872 291.966 126.408 288.126 126.408C286.398 126.408 284.99 126.056 283.902 125.352ZM286.494 103.848C287.902 102.888 288.958 102.408 289.662 102.408C290.942 102.408 291.582 103.08 291.582 104.424C291.582 105.576 291.038 106.696 289.95 107.784C288.862 108.872 287.806 109.608 286.782 109.992C286.59 106.728 286.494 104.68 286.494 103.848ZM269.886 141.096C272.318 140.072 275.006 139.56 277.95 139.56C279.23 139.56 281.31 139.944 284.19 140.712C287.134 141.48 289.502 141.864 291.294 141.864C297.31 141.864 302.398 140.36 306.558 137.352C310.718 134.28 312.798 129.928 312.798 124.296C312.798 120.968 311.518 118.184 308.958 115.944C306.462 113.64 303.486 112.008 300.03 111.048C302.526 109.576 304.318 108.008 305.406 106.344C306.558 104.616 307.134 102.248 307.134 99.24C307.134 95.464 305.918 92.584 303.486 90.6C301.118 88.552 298.174 87.528 294.654 87.528C292.03 87.528 289.278 88.104 286.398 89.256C283.582 90.344 280.862 91.56 278.238 92.904C275.614 94.248 273.534 95.048 271.998 95.304C272.894 103.688 273.342 111.208 273.342 117.864C273.342 125.224 272.19 132.968 269.886 141.096Z" fill="url(#paint0_linear_133_372)"/>
<defs>
<linearGradient id="paint0_linear_133_372" x1="157.5" y1="6.92684e-08" x2="158.644" y2="196.523" gradientUnits="userSpaceOnUse">
<stop stop-color="#448C73"/>
<stop offset="1" stop-color="#222E2E"/>
</linearGradient>
</defs>
</svg>
