<svg width="837" height="69" viewBox="0 0 837 69" fill="none" xmlns="http://www.w3.org/2000/svg">
<path d="M209 22L216 19H222.5L231 20.5L237 20L239 18.5L240.5 15.5H242L234 40.5L225.5 37.5L220 38L216.5 42.5L219 49L224.5 50.5L232.5 48.5L238.5 44L240.5 47L237.5 52.5L227.5 55H217.5L208.5 51L205.5 47L203.5 42.5L202.5 37.5L203 32L205.5 27L209 22Z" fill="#FDDA21"/>
<path d="M457 22L464 19H470.5L479 20.5L485 20L487.5 18L489 15H490L482 40L473.5 37.5L468 38L464.5 42.5L467 49L471 50H474.5L480.5 48L486.5 44L488.5 47L485.5 52.5L475.5 55H465.5L456.5 51L451.5 42.5L451 32L453.5 27L457 22Z" fill="#FDDA21"/>
<path d="M339 14L350 14.5L364 10L371.72 10.4211L377.411 14.7093L379.755 19.6572L377.411 28L370.715 33.8412L375 42.5L379.085 47.3654L384.442 48.0252L379.755 60.8897L371.72 63.5286L363.35 62L362.5 52L361 45.5L358.997 42.0877H356.988L357.658 54.2925L356.988 60.8897L336 59.5L338.5 48.0252L340 37L339.5 24L339 14Z" fill="#FDDA21"/>
<path d="M718.933 44.0001C718.933 53.3889 708.567 60.5001 700 60.5001C690.335 60.5001 684 53.3889 684 44.0001C684 34.6112 691.5 26.5 700.933 28.0001C710.5 28.5 718.933 34.6112 718.933 44.0001Z" fill="#FDDA21"/>
<path d="M274 27C274 36.3888 266.165 44 256.5 44C244.5 44 240.5 36.3888 240.5 27C242 20.5 245.835 13 255.5 13C264 15 274 17.6112 274 27Z" fill="#FDDA21"/>
<path d="M492.624 19.0176L501.5 16L510.729 15.3348L509 33.5L509.723 37.7663L517.77 36.4271V24.0396L518.44 16.674L520.39 15.3348L522.463 15L529 15.3348L535.5 17.6448L532.857 39.1055L534 61.5L516.428 58.8586L516.093 55.8454V54L517.434 48.4799H510.058L507.041 59.5282L492 58.6448L493.295 38.7707L492.624 19.0176Z" fill="#FDDA21"/>
<path d="M384 9.5L389 8H395.25L412.5 10L427 8.5L429.5 11L428.5 19.5L426 27H411.5L412 32.5L413.5 59L405 63L395.5 62L394.5 50.5L394 40.5L395 28.5L387 28L382 30L380.5 28.5L380 20.5L381.5 12.5L384 9.5Z" fill="#FDDA21"/>
<path d="M554.001 11.3955C554.001 15.3192 550.479 18.5 546.395 18.5C542.001 19.5 539.001 16.9237 539.001 13C538.501 8 543.917 5 548.001 5C551.804 6.04478 554.001 7.47183 554.001 11.3955Z" fill="#FDDA21"/>
<path d="M536 22L549 20L553.5 21.5L554.5 27L553.5 42L555.5 56.5L537 57.5L539 43.5V34L536 22Z" fill="#FDDA21"/>
<path d="M567 17.5L570 16.5H578.5L585.5 29L593 16H605.5L613.5 41L616 56L600.5 62L594 46.5L585.5 55.5L579 45L573.5 59H562.5L557 55.5L557.5 50.5L559 45.5L567 17.5Z" fill="#FDDA21"/>
<path d="M11 17.5L14 16.5H22.5L29.5 29L36 16.5H49L57.5 41L60 56L44.5 62L38 46.5L29.5 55.5L23 45L17.5 59H6.5L1 55.5L1.5 50.5L3 45.5L11 17.5Z" fill="#FDDA21"/>
<path d="M136 9L140.5 7.5L147 8.5L164.5 10L172 9.5L179 8.5L181.5 10L180.5 18.5L178 26L172 27L163.5 26L164 31.5L165.5 58L162.5 61.5L157 62L147.5 61L146.5 49.5L146 39.5L147 27.5L139 27L134 29L132.5 27.5L132 19.5L133.5 11.5L136 9Z" fill="#FDDA21"/>
<path d="M721.995 15.4343L730.5 13L743.271 8.6767L749.694 8L758.896 9.35246L767.207 17.1237L766.542 28.6116L762.552 35.7071L756.569 40.0995L748.257 42.1268H739.614L737.287 58.0071L731.635 62.0617L724.987 61.3859L721.694 61L720 58.0071L722.694 38L721.694 24.5L721.5 17.5L721.995 15.4343Z" fill="#FDDA21"/>
<path d="M617 15.5L626.5 13L638.5 8.5L644.5 7.5L653 9.5L661 16.5L661.542 27.6116L657.552 34.7071L651.569 39.0995L643.257 41.1268L639 42.5L634.614 41.1268L632.287 57.0071L626.635 61.0617L619.987 60.3859L616.694 60L615 57.0071L617.694 37L616.694 23.5L617 15.5Z" fill="#FDDA21"/>
<path d="M61 13.5L72.5 10H84L93.5 12.5L97.5 20L93.125 30.5L86 29.5L88 32L87.5 42L82.5 45.5L88.5 46L95 44.5L98 41L99 48.5L95 60.5L81.5 62L70.5 61L59.5 58.5L60 50.5L62 35L61 13.5Z" fill="#FDDA21"/>
<path d="M99 17L109.5 17.5H121L129 17L131.5 22.5L129 32L123.5 29.5L120.5 32L122 42L120 43L121.5 44L124.5 43.5L129 40.5L132.5 44.5L130.5 43.5L131 47V56.5L119 58.5H109H98.5L99.5 51L101 36.5L99 17Z" fill="#FDDA21"/>
<path d="M303.5 17L314 17.5H325.5L333.5 17L336 22.5L335 32L328 29.5L325 32L326.5 42L324.5 43L326 44L329 43.5L333.5 40.5L334.5 42L335 43.5L335.5 47V56.5L323.5 58.5H313.5L304 58L305 51L306 36.5L305 26.5L303.5 17Z" fill="#FDDA21"/>
<path d="M270 38L273 35L282 32.5L285 40L289.5 28L292 25.5L295.5 24H301L303 25L301 42.5L292 61.5L287.5 66L278 61.5L274.5 55L272 47.5L270 38Z" fill="#FDDA21"/>
<path d="M768.5 22.5L771.5 19.5L775 17L781 16.5L796 18.5L793 26L791 37L796 41.5L797.5 47L796 56L789.5 60L782.5 62L767 60L767.5 45L771 47.5H775L776.5 44.5L775 38.5L769 30L768.5 22.5Z" fill="#FDDA21"/>
<path d="M1.288 53.76C1.288 54.4 1.64 55.104 2.344 55.872C3.048 56.64 4.136 57.312 5.608 57.888C7.912 58.336 11.24 58.496 15.592 58.368L22.408 41.856C23.752 46.464 26.088 50.656 29.416 54.432C33.576 51.296 36.456 47.52 38.056 43.104C38.632 45.152 39.752 48.608 41.416 53.472C43.08 58.336 44.072 60.992 44.392 61.44C45.352 60.288 46.664 59.392 48.328 58.752C50.056 58.048 51.592 57.6 52.936 57.408C54.344 57.216 55.56 56.8 56.584 56.16C57.672 55.456 58.216 54.432 58.216 53.088C57.832 50.976 57.288 48.288 56.584 45.024C55.88 41.696 54.536 36.736 52.552 30.144C50.632 23.488 48.84 18.976 47.176 16.608C41.864 16.608 38.216 16.704 36.232 16.896L29.416 30.24C29.096 30.88 28.84 30.976 28.648 30.528C28.072 29.632 26.92 27.296 25.192 23.52C23.464 19.744 22.152 17.568 21.256 16.992L14.632 17.184C12.392 17.184 11.176 17.536 10.984 18.24C10.28 20.16 8.488 26.176 5.608 36.288C2.728 46.4 1.288 52.224 1.288 53.76ZM0.136 54.528C0.136 52.928 1.48 47.36 4.168 37.824C6.856 28.288 8.744 21.824 9.832 18.432C10.024 17.856 10.152 17.504 10.216 17.376C10.28 17.248 10.76 16.992 11.656 16.608C12.552 16.224 13.8 16.032 15.4 16.032C17.064 16.032 18.44 16.032 19.528 16.032C20.616 15.968 21.352 15.936 21.736 15.936C22.184 15.872 22.472 15.84 22.6 15.84C23.368 16.288 24.04 16.896 24.616 17.664C25.192 18.432 25.64 19.2 25.96 19.968C26.344 20.672 26.888 21.856 27.592 23.52C28.36 25.12 29.032 26.528 29.608 27.744C33.192 20.704 35.208 16.704 35.656 15.744C38.344 15.552 42.792 15.456 49 15.456C51.048 18.4 53.064 23.072 55.048 29.472C57.032 35.872 58.504 41.536 59.464 46.464L60.904 53.856C60.904 55.648 60.328 57.056 59.176 58.08C58.088 59.04 56.808 59.648 55.336 59.904C53.864 60.096 52.264 60.48 50.536 61.056C48.808 61.632 47.528 62.432 46.696 63.456L45.16 65.376L43.624 63.36C43.112 62.72 41.384 57.952 38.44 49.056C36.712 51.808 33.864 54.72 29.896 57.792C26.888 54.336 24.648 51.072 23.176 48L17.704 60.96L16.456 61.056C12.296 61.184 8.744 60.992 5.8 60.48C4.008 59.84 2.6 58.976 1.576 57.888C0.616 56.8 0.136 55.68 0.136 54.528ZM58.5625 56.352C63.8745 59.68 71.6825 61.344 81.9865 61.344C86.4025 61.344 89.9545 60.832 92.6425 59.808C94.7545 57.376 96.0985 54.912 96.6745 52.416C97.3145 49.92 97.7625 46.4 98.0185 41.856L97.8265 41.76C96.9305 43.808 95.6505 45.152 93.9865 45.792C92.3865 46.368 89.8905 46.656 86.4985 46.656C82.6585 46.656 78.7545 46.368 74.7865 45.792C74.5945 45.344 74.4985 44.928 74.4985 44.544C74.4985 44.096 74.6265 43.552 74.8825 42.912C80.0025 42.784 83.6185 42.464 85.7305 41.952C86.8825 37.536 87.4585 34.432 87.4585 32.64C87.4585 32.128 87.2025 31.872 86.6905 31.872C85.6665 31.872 84.0665 32.064 81.8905 32.448C79.7145 32.832 78.2425 33.024 77.4745 33.024C76.8985 33.024 76.3225 32.864 75.7465 32.544C75.1705 32.224 74.8825 31.84 74.8825 31.392C74.8825 28.704 76.8025 27.168 80.6425 26.784C81.6665 26.912 83.4265 27.392 85.9225 28.224C88.4825 29.056 90.0825 29.472 90.7225 29.472C91.9385 29.344 92.8025 29.088 93.3145 28.704C93.8265 28.256 94.2105 27.52 94.4665 26.496C94.9145 24.832 95.3305 21.696 95.7145 17.088C94.3705 12.608 89.3785 10.368 80.7385 10.368C73.9545 10.368 67.5865 11.552 61.6345 13.92C62.2105 20.256 62.4985 27.232 62.4985 34.848C62.4985 42.336 61.1865 49.504 58.5625 56.352ZM76.6105 30.72C76.8665 30.848 77.0905 30.912 77.2825 30.912C77.8585 30.912 79.0745 30.752 80.9305 30.432C82.7865 30.112 84.1625 29.92 85.0585 29.856C82.8825 29.152 81.3145 28.704 80.3545 28.512C78.0505 28.704 76.8025 29.44 76.6105 30.72ZM56.8345 57.6C59.7785 49.92 61.2505 42.528 61.2505 35.424C61.2505 27.872 60.9625 20.96 60.3865 14.688L60.1945 13.152L61.6345 12.576C68.0345 10.208 73.7625 9.024 78.8185 9.024C81.3785 9.024 83.4585 9.088 85.0585 9.216C86.7225 9.344 88.5785 9.664 90.6265 10.176C92.6745 10.624 94.3385 11.424 95.6185 12.576C96.9625 13.728 97.8905 15.232 98.4025 17.088L98.4985 17.472L97.1545 27.264C96.9625 29.888 95.1385 31.424 91.6825 31.872L91.5865 31.968H91.4905L89.7625 31.68C90.0185 32.128 90.1465 32.64 90.1465 33.216C90.1465 35.392 89.5385 38.688 88.3225 43.104L88.0345 44.16L86.9785 44.448C85.4425 44.896 83.9065 45.152 82.3705 45.216C84.6745 45.28 87.2985 45.28 90.2425 45.216C92.2265 45.152 93.6345 44.864 94.4665 44.352C95.3625 43.84 96.1625 42.88 96.8665 41.472L97.5385 40.224L100.515 42.432C100.259 47.744 99.7785 51.648 99.0745 54.144C98.4345 56.64 96.9305 59.264 94.5625 62.016C90.2105 63.232 86.2745 63.84 82.7545 63.84C77.8265 63.84 73.3785 63.392 69.4105 62.496C65.4425 61.664 62.7865 60.896 61.4425 60.192C60.1625 59.552 58.6265 58.688 56.8345 57.6ZM97.7455 18.528C97.7455 16.544 98.8015 15.552 100.914 15.552C104.946 16.512 108.754 16.992 112.338 16.992C117.01 16.992 122.322 16.768 128.274 16.32C128.338 16.32 128.466 16.32 128.658 16.32C128.914 16.256 129.074 16.224 129.138 16.224C129.266 16.416 129.362 16.544 129.426 16.608C129.49 16.608 129.522 16.64 129.522 16.704C129.586 16.704 129.682 16.8 129.81 16.992C131.73 19.168 132.69 21.856 132.69 25.056C132.69 27.168 132.21 29.76 131.25 32.832C131.186 32.96 131.058 33.408 130.866 34.176C130.674 34.88 130.546 35.296 130.482 35.424C130.29 35.36 129.906 35.104 129.33 34.656C128.818 34.144 128.466 33.856 128.274 33.792C126.802 32.64 124.882 32.064 122.514 32.064C122.322 32.064 122.13 32.064 121.938 32.064C121.81 32.064 121.714 32.096 121.65 32.16C121.586 32.16 121.522 32.16 121.458 32.16H121.362C122.514 33.696 123.09 35.712 123.09 38.208C123.09 38.976 123.026 40.32 122.898 42.24C122.898 42.304 122.866 42.432 122.802 42.624C122.802 42.816 122.802 42.944 122.802 43.008L122.226 43.584C124.274 43.008 126.226 41.888 128.082 40.224C128.21 40.096 128.498 39.808 128.946 39.36C129.458 38.912 129.778 38.624 129.906 38.496L131.058 40.8C132.21 43.296 132.786 46.08 132.786 49.152C132.786 52.672 132.498 55.36 131.922 57.216C131.858 57.344 131.762 57.568 131.634 57.888C131.57 58.144 131.538 58.336 131.538 58.464L130.29 58.56C124.146 59.072 118.322 59.328 112.818 59.328C108.146 59.328 103.922 59.2 100.146 58.944C100.018 58.944 99.6655 58.944 99.0895 58.944C98.5775 58.88 98.2575 58.848 98.1295 58.848L98.3215 56.832C98.5135 55.104 98.7695 53.088 99.0895 50.784C99.4735 48.416 99.7615 46.336 99.9535 44.544C100.146 42.688 100.242 40.736 100.242 38.688C100.242 31.648 99.4095 24.928 97.7455 18.528ZM99.2815 18.816C100.69 24.64 101.394 30.624 101.394 36.768C101.394 39.328 101.266 41.824 101.01 44.256C100.818 46.688 100.53 49.152 100.146 51.648C99.7615 54.08 99.5375 55.616 99.4735 56.256C103.25 56.512 107.442 56.64 112.049 56.64C117.426 56.64 123.186 56.384 129.33 55.872C129.842 54.08 130.098 51.584 130.098 48.384C130.098 45.504 129.586 43.008 128.562 40.896C125.49 43.648 122.002 45.024 118.098 45.024C115.538 45.024 113.106 44.672 110.802 43.968C110.802 43.392 111.026 42.592 111.474 41.568C113.138 42.272 114.418 42.624 115.314 42.624C117.426 42.624 119.058 42.176 120.21 41.28C120.338 39.36 120.402 38.08 120.402 37.44C120.402 35.392 119.954 33.76 119.058 32.544C116.306 33.248 114.034 33.6 112.242 33.6C112.05 32.896 111.954 32 111.954 30.912C116.114 29.888 119.378 29.376 121.746 29.376C124.306 29.376 126.61 30.08 128.658 31.488C129.554 28.672 130.002 26.272 130.002 24.288C130.002 21.6 129.202 19.328 127.602 17.472C121.65 17.92 116.306 18.144 111.57 18.144C109.458 18.144 107.218 17.984 104.85 17.664C102.546 17.344 101.234 17.184 100.914 17.184C99.8255 17.184 99.2815 17.728 99.2815 18.816ZM132.543 21.792C132.543 24.096 132.927 26.24 133.695 28.224C135.999 26.752 138.655 26.016 141.663 26.016C143.711 26.016 145.727 26.24 147.711 26.688C146.943 31.296 146.559 36.672 146.559 42.816C146.559 44.608 146.623 46.464 146.751 48.384C146.943 50.304 147.167 52.384 147.423 54.624C147.679 56.864 147.871 58.72 147.999 60.192C150.623 60.64 153.823 60.864 157.599 60.864C159.391 60.864 160.959 60.448 162.303 59.616C163.647 58.72 164.319 57.408 164.319 55.68C164.319 54.144 164.031 51.36 163.455 47.328C162.943 43.296 162.623 39.84 162.495 36.96C162.495 35.936 162.431 34.048 162.303 31.296C162.239 28.48 162.175 26.4 162.111 25.056C163.007 25.12 164.671 25.344 167.103 25.728C169.599 26.048 171.583 26.208 173.055 26.208C176.191 26.208 178.015 25.248 178.527 23.328C179.679 18.912 180.255 14.816 180.255 11.04C180.255 9.824 179.647 9.216 178.431 9.216C177.279 9.216 175.391 9.44 172.767 9.888C170.207 10.272 168.095 10.464 166.431 10.464C163.743 10.464 159.967 10.144 155.103 9.504C150.303 8.864 146.687 8.512 144.255 8.448C138.431 8.448 135.071 9.632 134.175 12C133.087 14.88 132.543 18.144 132.543 21.792ZM131.294 22.56C131.294 18.016 131.806 14.4 132.831 11.712C134.047 8.512 138.111 6.912 145.023 6.912C147.711 6.976 151.423 7.392 156.159 8.16C160.959 8.928 164.639 9.312 167.199 9.312C168.671 9.312 170.687 9.12 173.247 8.736C175.807 8.288 177.791 8.064 179.199 8.064C180.223 8.064 181.087 8.384 181.791 9.024C182.559 9.728 182.943 10.656 182.943 11.808C182.943 15.2 182.335 19.424 181.119 24.48C180.351 27.424 177.919 28.896 173.823 28.896C172.287 28.896 169.279 28.576 164.799 27.936C164.863 29.216 164.927 30.976 164.991 33.216C165.119 35.456 165.183 36.96 165.183 37.728C165.311 40.48 165.631 43.872 166.143 47.904C166.719 51.872 167.007 54.72 167.007 56.448C167.007 58.816 166.111 60.576 164.319 61.728C162.527 62.944 160.543 63.552 158.367 63.552C154.399 63.552 151.071 63.328 148.383 62.88L146.943 62.592L146.847 61.152C146.719 59.808 146.527 57.984 146.271 55.68C146.015 53.376 145.791 51.264 145.599 49.344C145.471 47.36 145.407 45.44 145.407 43.584C145.407 37.888 145.695 33.024 146.271 28.992C144.927 28.8 143.647 28.704 142.431 28.704C139.615 28.704 137.311 29.312 135.519 30.528L133.503 31.872L132.639 29.664C131.742 27.296 131.294 24.928 131.294 22.56ZM203.139 36.48C203.139 42.048 204.963 46.528 208.611 49.92C212.259 53.312 216.739 55.008 222.051 55.008C228.579 55.008 234.435 52.64 239.619 47.904C239.043 46.688 238.403 45.792 237.699 45.216C235.971 46.88 233.763 48.224 231.075 49.248C228.451 50.272 225.891 50.784 223.395 50.784C220.899 50.784 218.883 50.208 217.347 49.056C215.811 47.84 215.043 45.984 215.043 43.488C215.043 41.376 215.811 39.616 217.347 38.208C218.947 36.736 220.867 36 223.107 36C226.691 36 230.211 37.28 233.667 39.84C234.563 35.36 235.555 31.2 236.643 27.36C237.091 25.76 237.859 23.68 238.947 21.12C240.099 18.56 240.835 16.896 241.155 16.128H240.771C240.323 17.536 239.363 18.784 237.891 19.872C236.419 20.96 235.011 21.504 233.667 21.504C231.683 21.504 229.315 21.184 226.562 20.544C223.811 19.904 221.443 19.584 219.459 19.584C215.107 19.584 211.299 21.344 208.035 24.864C204.771 28.32 203.139 32.192 203.139 36.48ZM201.986 37.152C201.986 31.776 203.651 27.296 206.979 23.712C210.307 20.128 214.659 18.336 220.035 18.336C222.211 18.336 224.707 18.688 227.523 19.392C230.339 20.032 232.643 20.352 234.435 20.352C235.267 20.352 236.259 19.968 237.411 19.2C238.563 18.368 239.331 17.376 239.715 16.224C239.779 16.096 239.875 15.84 240.003 15.456L240.099 14.976H244.323C241.891 20.608 240.195 25.184 239.235 28.704C238.019 32.736 237.059 36.8 236.355 40.896C236.227 41.216 236.035 42.208 235.779 43.872C234.819 43.232 234.019 42.656 233.379 42.144C230.307 39.84 227.139 38.688 223.875 38.688C222.147 38.688 220.675 39.232 219.459 40.32C218.307 41.408 217.731 42.72 217.731 44.256C217.731 47.84 219.875 49.632 224.163 49.632C226.467 49.632 228.803 49.152 231.171 48.192C233.603 47.232 235.587 46.016 237.123 44.544C237.763 43.904 238.179 43.52 238.371 43.392L239.619 44.448C240.259 45.024 240.803 45.6 241.251 46.176C241.571 46.688 241.891 47.296 242.211 48C242.275 48.064 242.371 48.256 242.499 48.576C242.627 48.832 242.691 49.024 242.691 49.152L241.731 50.112C236.227 55.168 229.923 57.696 222.819 57.696C216.995 57.696 212.067 55.808 208.035 52.032C204.003 48.256 201.986 43.296 201.986 37.152ZM247.537 31.968C247.537 31.2 247.793 30.528 248.305 29.952C248.881 29.376 249.521 29.088 250.225 29.088C250.993 29.088 251.633 29.28 252.145 29.664C252.721 29.984 253.009 30.368 253.009 30.816C253.009 31.52 252.753 32.128 252.241 32.64C251.793 33.088 251.249 33.312 250.609 33.312C248.561 33.312 247.537 32.864 247.537 31.968ZM241.009 26.4C241.009 32.928 242.769 37.088 246.289 38.88L245.137 39.456C246.353 41.12 248.945 41.952 252.913 41.952C258.673 41.952 263.473 40.672 267.313 38.112C271.153 35.488 273.073 32.032 273.073 27.744C273.073 23.776 271.281 20.448 267.697 17.76C264.113 15.072 259.473 13.728 253.777 13.728C250.705 13.728 247.985 14.944 245.617 17.376C243.249 19.744 241.713 22.752 241.009 26.4ZM239.857 27.168V26.976V26.784C241.777 17.312 246.673 12.576 254.545 12.576C260.625 12.576 265.681 14.08 269.713 17.088C273.745 20.096 275.761 23.904 275.761 28.512C275.761 33.504 273.585 37.44 269.233 40.32C264.945 43.2 259.761 44.64 253.681 44.64C249.073 44.64 245.969 43.552 244.369 41.376L242.833 39.36L243.313 39.168C241.009 36.48 239.857 32.48 239.857 27.168ZM270.918 38.496C270.918 40.032 271.494 42.848 272.646 46.944C273.798 50.976 274.662 53.664 275.238 55.008C276.262 57.632 277.798 59.872 279.846 61.728C281.958 63.648 284.294 64.608 286.854 64.608C289.222 62.816 291.558 59.52 293.862 54.72C296.166 49.856 298.054 45.184 299.526 40.704C300.998 36.224 301.862 32.96 302.118 30.912L302.598 27.84C302.598 25.472 301.894 24.288 300.486 24.288C298.182 24.288 296.166 24.512 294.438 24.96C292.134 25.536 290.662 26.72 290.022 28.512C287.526 35.552 285.958 40.608 285.318 43.68L281.574 32.832C279.846 33.152 278.182 33.632 276.582 34.272C274.214 35.232 272.678 36.032 271.974 36.672C271.27 37.248 270.918 37.856 270.918 38.496ZM269.669 39.072C269.669 37.984 270.181 36.96 271.206 36C272.23 35.04 273.574 34.272 275.238 33.696C276.902 33.056 278.374 32.576 279.654 32.256C280.998 31.872 282.31 31.584 283.59 31.392L285.798 38.016L288.87 28.704C289.702 26.144 291.622 24.512 294.63 23.808C296.55 23.36 298.758 23.136 301.254 23.136C302.47 23.136 303.43 23.648 304.134 24.672C304.902 25.696 305.286 27.008 305.286 28.608C305.286 29.248 305.094 30.56 304.71 32.544C304.39 34.464 303.494 37.728 302.022 42.336C300.55 46.88 298.662 51.552 296.358 56.352C293.798 61.472 291.11 65.12 288.294 67.296C284.582 67.296 281.574 66.176 279.27 63.936C276.966 61.696 275.27 59.2 274.182 56.448L273.702 55.008C273.382 53.984 272.998 52.8 272.55 51.456C272.102 50.048 271.654 48.576 271.206 47.04C270.758 45.504 270.406 44 270.149 42.528C269.829 41.056 269.669 39.904 269.669 39.072ZM302.87 18.528C302.87 16.544 303.927 15.552 306.039 15.552C310.071 16.512 313.879 16.992 317.463 16.992C322.135 16.992 327.447 16.768 333.399 16.32C333.463 16.32 333.591 16.32 333.783 16.32C334.039 16.256 334.199 16.224 334.263 16.224C334.391 16.416 334.487 16.544 334.551 16.608C334.615 16.608 334.647 16.64 334.647 16.704C334.711 16.704 334.807 16.8 334.935 16.992C336.855 19.168 337.815 21.856 337.815 25.056C337.815 27.168 337.335 29.76 336.375 32.832C336.311 32.96 336.183 33.408 335.991 34.176C335.799 34.88 335.671 35.296 335.607 35.424C335.415 35.36 335.031 35.104 334.455 34.656C333.943 34.144 333.591 33.856 333.399 33.792C331.927 32.64 330.007 32.064 327.639 32.064C327.447 32.064 327.255 32.064 327.062 32.064C326.935 32.064 326.839 32.096 326.775 32.16C326.711 32.16 326.647 32.16 326.583 32.16H326.487C327.639 33.696 328.215 35.712 328.215 38.208C328.215 38.976 328.151 40.32 328.023 42.24C328.023 42.304 327.991 42.432 327.927 42.624C327.927 42.816 327.927 42.944 327.927 43.008L327.351 43.584C329.399 43.008 331.351 41.888 333.207 40.224C333.335 40.096 333.623 39.808 334.071 39.36C334.583 38.912 334.903 38.624 335.031 38.496L336.183 40.8C337.335 43.296 337.911 46.08 337.911 49.152C337.911 52.672 337.623 55.36 337.047 57.216C336.983 57.344 336.887 57.568 336.759 57.888C336.695 58.144 336.663 58.336 336.663 58.464L335.415 58.56C329.271 59.072 323.447 59.328 317.943 59.328C313.271 59.328 309.047 59.2 305.271 58.944C305.143 58.944 304.791 58.944 304.215 58.944C303.703 58.88 303.383 58.848 303.255 58.848L303.447 56.832C303.639 55.104 303.895 53.088 304.215 50.784C304.599 48.416 304.887 46.336 305.079 44.544C305.271 42.688 305.367 40.736 305.367 38.688C305.367 31.648 304.535 24.928 302.87 18.528ZM304.407 18.816C305.815 24.64 306.519 30.624 306.519 36.768C306.519 39.328 306.391 41.824 306.135 44.256C305.943 46.688 305.655 49.152 305.271 51.648C304.887 54.08 304.663 55.616 304.599 56.256C308.375 56.512 312.567 56.64 317.174 56.64C322.551 56.64 328.311 56.384 334.455 55.872C334.967 54.08 335.223 51.584 335.223 48.384C335.223 45.504 334.711 43.008 333.687 40.896C330.615 43.648 327.127 45.024 323.223 45.024C320.663 45.024 318.231 44.672 315.927 43.968C315.927 43.392 316.151 42.592 316.599 41.568C318.263 42.272 319.543 42.624 320.439 42.624C322.551 42.624 324.183 42.176 325.335 41.28C325.463 39.36 325.527 38.08 325.527 37.44C325.527 35.392 325.079 33.76 324.183 32.544C321.431 33.248 319.159 33.6 317.367 33.6C317.175 32.896 317.079 32 317.079 30.912C321.239 29.888 324.503 29.376 326.871 29.376C329.431 29.376 331.735 30.08 333.783 31.488C334.679 28.672 335.127 26.272 335.127 24.288C335.127 21.6 334.327 19.328 332.727 17.472C326.775 17.92 321.431 18.144 316.695 18.144C314.583 18.144 312.343 17.984 309.975 17.664C307.671 17.344 306.359 17.184 306.039 17.184C304.951 17.184 304.407 17.728 304.407 18.816ZM354.66 27.168C356.644 27.168 358.276 27.328 359.556 27.648C360.9 27.968 361.572 28.384 361.572 28.896C361.572 29.728 361.284 30.4 360.708 30.912C360.196 31.36 359.524 31.712 358.692 31.968C357.924 32.224 356.964 32.448 355.812 32.64C355.492 32.704 355.268 32.736 355.14 32.736L354.66 27.168ZM337.188 58.656C342.116 59.68 347.524 60.192 353.412 60.192C354.436 60.192 355.204 59.84 355.716 59.136C356.292 58.432 356.58 57.568 356.58 56.544C356.58 49.824 356.164 43.68 355.332 38.112C358.788 40.608 361.06 43.36 362.148 46.368C363.236 49.312 363.78 54.176 363.78 60.96C365.508 62.24 367.492 62.88 369.732 62.88C373.38 62.88 376.42 61.312 378.852 58.176C381.284 55.04 382.628 51.616 382.884 47.904C380.196 47.904 378.212 47.488 376.932 46.656C375.652 45.824 374.788 44.352 374.34 42.24C373.828 39.744 372.804 37.76 371.268 36.288C369.732 34.752 367.716 33.984 365.22 33.984C369.188 32.896 372.356 31.136 374.724 28.704C377.156 26.208 378.372 23.296 378.372 19.968C378.372 17.344 377.188 15.072 374.82 13.152C372.516 11.168 369.732 10.176 366.468 10.176C363.972 10.176 360.836 11.04 357.06 12.768C353.284 14.432 350.148 15.264 347.652 15.264C346.692 15.264 345.796 15.232 344.964 15.168C344.132 15.04 343.204 14.912 342.18 14.784C341.156 14.656 340.26 14.56 339.492 14.496C339.62 16.416 339.812 18.816 340.068 21.696C340.324 24.512 340.516 27.04 340.644 29.28C340.836 31.52 340.932 33.92 340.932 36.48C340.932 39.04 340.74 41.472 340.355 43.776C339.972 46.08 339.428 48.64 338.724 51.456C338.02 54.208 337.508 56.608 337.188 58.656ZM335.747 60.96L336.035 59.136C336.419 57.024 336.932 54.56 337.572 51.744C338.276 48.928 338.82 46.432 339.204 44.256C339.588 42.08 339.78 39.744 339.78 37.248C339.78 34.752 339.684 32.384 339.492 30.144C339.364 27.904 339.172 25.376 338.916 22.56C338.66 19.744 338.468 17.344 338.34 15.36C338.34 15.168 338.308 14.784 338.244 14.208C338.18 13.632 338.148 13.28 338.148 13.152C338.276 13.152 338.66 13.184 339.3 13.248C339.94 13.312 340.324 13.344 340.452 13.344C341.156 13.408 342.372 13.568 344.1 13.824C345.828 14.016 347.268 14.112 348.42 14.112C350.596 14.112 353.604 13.28 357.444 11.616C361.284 9.888 364.548 9.024 367.236 9.024C370.948 9.024 374.18 10.208 376.932 12.576C379.684 14.88 381.06 17.6 381.06 20.736C381.06 26.56 377.988 31.136 371.844 34.464C374.532 36.192 376.26 38.912 377.028 42.624C377.348 44.16 377.924 45.248 378.756 45.888C379.652 46.464 381.284 46.752 383.652 46.752H385.667C385.667 46.816 385.635 47.136 385.572 47.712C385.572 48.288 385.572 48.64 385.572 48.768C385.252 52.928 383.716 56.768 380.964 60.288C378.212 63.808 374.724 65.568 370.5 65.568C367.812 65.568 365.444 64.8 363.396 63.264C363.332 63.264 363.204 63.168 363.012 62.976C362.82 62.784 362.692 62.688 362.628 62.688V61.728C362.628 56.544 362.34 52.672 361.764 50.112C361.252 47.552 360.228 45.376 358.692 43.584C359.076 47.232 359.268 51.808 359.268 57.312C359.268 58.784 358.82 60.064 357.924 61.152C357.028 62.304 355.78 62.88 354.18 62.88C348.228 62.88 342.692 62.368 337.572 61.344L335.747 60.96ZM380.793 21.792C380.793 24.096 381.177 26.24 381.945 28.224C384.249 26.752 386.905 26.016 389.913 26.016C391.961 26.016 393.977 26.24 395.961 26.688C395.193 31.296 394.809 36.672 394.809 42.816C394.809 44.608 394.873 46.464 395.001 48.384C395.193 50.304 395.417 52.384 395.673 54.624C395.929 56.864 396.121 58.72 396.249 60.192C398.873 60.64 402.073 60.864 405.849 60.864C407.641 60.864 409.209 60.448 410.553 59.616C411.897 58.72 412.569 57.408 412.569 55.68C412.569 54.144 412.281 51.36 411.705 47.328C411.193 43.296 410.873 39.84 410.745 36.96C410.745 35.936 410.681 34.048 410.553 31.296C410.489 28.48 410.425 26.4 410.361 25.056C411.257 25.12 412.921 25.344 415.353 25.728C417.849 26.048 419.833 26.208 421.305 26.208C424.441 26.208 426.265 25.248 426.777 23.328C427.929 18.912 428.505 14.816 428.505 11.04C428.505 9.824 427.897 9.216 426.681 9.216C425.529 9.216 423.641 9.44 421.017 9.888C418.457 10.272 416.345 10.464 414.681 10.464C411.993 10.464 408.217 10.144 403.353 9.504C398.553 8.864 394.937 8.512 392.505 8.448C386.681 8.448 383.321 9.632 382.425 12C381.337 14.88 380.793 18.144 380.793 21.792ZM379.544 22.56C379.544 18.016 380.056 14.4 381.081 11.712C382.297 8.512 386.361 6.912 393.273 6.912C395.961 6.976 399.673 7.392 404.409 8.16C409.209 8.928 412.889 9.312 415.449 9.312C416.921 9.312 418.937 9.12 421.497 8.736C424.057 8.288 426.041 8.064 427.449 8.064C428.473 8.064 429.337 8.384 430.041 9.024C430.809 9.728 431.193 10.656 431.193 11.808C431.193 15.2 430.585 19.424 429.369 24.48C428.601 27.424 426.169 28.896 422.073 28.896C420.537 28.896 417.529 28.576 413.049 27.936C413.113 29.216 413.177 30.976 413.241 33.216C413.369 35.456 413.433 36.96 413.433 37.728C413.561 40.48 413.881 43.872 414.393 47.904C414.969 51.872 415.257 54.72 415.257 56.448C415.257 58.816 414.361 60.576 412.569 61.728C410.777 62.944 408.793 63.552 406.617 63.552C402.649 63.552 399.321 63.328 396.633 62.88L395.193 62.592L395.097 61.152C394.969 59.808 394.777 57.984 394.521 55.68C394.265 53.376 394.041 51.264 393.849 49.344C393.721 47.36 393.657 45.44 393.657 43.584C393.657 37.888 393.945 33.024 394.521 28.992C393.177 28.8 391.897 28.704 390.681 28.704C387.865 28.704 385.561 29.312 383.769 30.528L381.753 31.872L380.889 29.664C379.992 27.296 379.544 24.928 379.544 22.56ZM451.389 36.48C451.389 42.048 453.213 46.528 456.861 49.92C460.509 53.312 464.989 55.008 470.301 55.008C476.829 55.008 482.685 52.64 487.869 47.904C487.293 46.688 486.653 45.792 485.949 45.216C484.221 46.88 482.013 48.224 479.325 49.248C476.701 50.272 474.141 50.784 471.645 50.784C469.149 50.784 467.133 50.208 465.597 49.056C464.061 47.84 463.293 45.984 463.293 43.488C463.293 41.376 464.061 39.616 465.597 38.208C467.197 36.736 469.117 36 471.357 36C474.941 36 478.461 37.28 481.917 39.84C482.813 35.36 483.805 31.2 484.893 27.36C485.341 25.76 486.109 23.68 487.197 21.12C488.349 18.56 489.085 16.896 489.405 16.128H489.021C488.573 17.536 487.613 18.784 486.141 19.872C484.669 20.96 483.261 21.504 481.917 21.504C479.933 21.504 477.565 21.184 474.812 20.544C472.061 19.904 469.693 19.584 467.709 19.584C463.357 19.584 459.549 21.344 456.285 24.864C453.021 28.32 451.389 32.192 451.389 36.48ZM450.236 37.152C450.236 31.776 451.901 27.296 455.229 23.712C458.557 20.128 462.909 18.336 468.285 18.336C470.461 18.336 472.957 18.688 475.773 19.392C478.589 20.032 480.893 20.352 482.685 20.352C483.517 20.352 484.509 19.968 485.661 19.2C486.813 18.368 487.581 17.376 487.965 16.224C488.029 16.096 488.125 15.84 488.253 15.456L488.349 14.976H492.573C490.141 20.608 488.445 25.184 487.485 28.704C486.269 32.736 485.309 36.8 484.605 40.896C484.477 41.216 484.285 42.208 484.029 43.872C483.069 43.232 482.269 42.656 481.629 42.144C478.557 39.84 475.389 38.688 472.125 38.688C470.397 38.688 468.925 39.232 467.709 40.32C466.557 41.408 465.981 42.72 465.981 44.256C465.981 47.84 468.125 49.632 472.413 49.632C474.717 49.632 477.053 49.152 479.421 48.192C481.853 47.232 483.837 46.016 485.373 44.544C486.013 43.904 486.429 43.52 486.621 43.392L487.869 44.448C488.509 45.024 489.053 45.6 489.501 46.176C489.821 46.688 490.141 47.296 490.461 48C490.525 48.064 490.621 48.256 490.749 48.576C490.877 48.832 490.941 49.024 490.941 49.152L489.981 50.112C484.477 55.168 478.173 57.696 471.069 57.696C465.245 57.696 460.317 55.808 456.285 52.032C452.253 48.256 450.236 43.296 450.236 37.152ZM492.567 56.352C493.335 56.608 494.167 56.8 495.063 56.928C496.023 57.056 497.591 57.248 499.767 57.504C502.007 57.696 504.183 57.952 506.295 58.272C506.999 54.112 507.383 50.528 507.447 47.52C514.359 47.328 517.943 47.232 518.199 47.232C518.071 48.192 517.687 49.568 517.047 51.36C516.471 53.152 516.183 54.496 516.183 55.392C516.183 56.416 516.535 57.248 517.239 57.888C517.943 58.464 518.807 58.752 519.831 58.752C523.863 58.752 528.023 59.136 532.311 59.904C532.311 59.52 532.087 56.992 531.639 52.32C531.191 47.584 530.967 43.872 530.967 41.184C530.967 33.312 532.055 25.376 534.231 17.376C529.879 15.968 526.039 15.264 522.711 15.264C521.367 15.264 520.279 15.68 519.447 16.512C518.615 17.344 518.199 18.464 518.199 19.872V36.96C517.303 37.024 515.863 37.216 513.879 37.536C511.895 37.792 510.519 37.92 509.751 37.92C509.175 37.92 508.599 37.76 508.023 37.44C507.447 37.12 507.159 36.736 507.159 36.288C507.159 33.536 508.151 26.688 510.135 15.744C504.759 15.744 498.999 16.928 492.855 19.296C493.559 24.736 493.911 31.2 493.911 38.688C493.911 45.088 493.463 50.976 492.567 56.352ZM491.223 58.368L491.511 56.832C492.343 51.84 492.759 46.048 492.759 39.456C492.759 32.48 492.375 26.112 491.607 20.352C491.607 20.288 491.575 20 491.511 19.488C491.447 18.976 491.415 18.688 491.415 18.624L492.855 18.144C499.447 15.584 505.463 14.304 510.903 14.304H513.207C513.207 14.752 513.079 15.616 512.823 16.896C510.903 27.328 509.911 33.92 509.847 36.672C510.039 36.736 510.263 36.768 510.519 36.768C511.031 36.768 512.183 36.64 513.975 36.384C515.767 36.128 516.791 36 517.047 36C517.047 34.4 517.015 31.904 516.951 28.512C516.951 25.056 516.951 22.368 516.951 20.448C516.951 18.528 517.527 16.992 518.679 15.84C519.831 14.624 521.367 14.016 523.287 14.016C526.743 14.016 530.839 14.784 535.575 16.32C535.959 16.512 536.535 16.704 537.303 16.896C537.303 17.024 537.239 17.344 537.111 17.856C536.983 18.304 536.887 18.592 536.823 18.72C534.711 26.336 533.655 34.08 533.655 41.952C533.655 44.512 533.879 48.16 534.327 52.896C534.775 57.568 534.999 60.16 534.999 60.672V62.976C534.359 62.848 533.591 62.72 532.695 62.592C528.535 61.824 524.503 61.44 520.599 61.44C519.063 61.44 517.751 60.96 516.663 60C515.575 58.976 515.031 57.696 515.031 56.16C515.031 55.2 515.511 53.184 516.471 50.112C514.999 50.176 512.887 50.208 510.135 50.208C510.071 51.488 509.655 54.528 508.887 59.328C508.887 59.456 508.855 59.776 508.791 60.288C508.727 60.8 508.663 61.12 508.599 61.248C507.831 61.056 507.223 60.96 506.775 60.96C505.047 60.704 503.287 60.48 501.495 60.288C499.703 60.096 498.359 59.968 497.463 59.904C496.631 59.776 495.799 59.648 494.967 59.52C494.135 59.328 493.399 59.136 492.759 58.944L491.223 58.368ZM536.612 23.04C538.788 25.792 539.876 30.976 539.876 38.592C539.876 40.064 539.684 42.208 539.3 45.024C538.916 47.84 538.532 50.4 538.148 52.704C537.764 54.944 537.572 56.096 537.572 56.16C538.788 55.968 540.068 55.872 541.412 55.872C542.82 55.872 544.452 55.936 546.308 56.064C548.164 56.128 549.668 56.16 550.82 56.16C551.844 56.16 552.676 55.872 553.316 55.296C553.956 54.656 554.276 53.824 554.276 52.8C554.276 52.544 553.956 51.072 553.316 48.384C552.676 45.632 552.356 43.904 552.356 43.2C552.356 41.344 552.58 38.656 553.028 35.136C553.476 31.616 553.7 28.448 553.7 25.632C553.7 24.224 553.252 23.104 552.356 22.272C551.524 21.44 550.436 21.024 549.092 21.024C546.724 21.024 542.564 21.696 536.612 23.04ZM539.108 12.768C539.108 14.304 539.62 15.648 540.644 16.8C541.668 17.888 542.884 18.432 544.292 18.432C546.724 18.432 548.772 17.728 550.436 16.32C552.1 14.912 552.932 13.088 552.932 10.848C552.932 7.584 550.884 5.952 546.788 5.952C544.676 5.952 542.852 6.592 541.316 7.872C539.844 9.088 539.108 10.72 539.108 12.768ZM534.692 23.712L534.788 22.464C539.14 21.376 541.732 20.768 542.564 20.64C541.22 20.064 540.1 19.136 539.204 17.856C538.372 16.512 537.956 15.072 537.956 13.536C537.956 10.976 538.884 8.896 540.74 7.296C542.596 5.632 544.868 4.8 547.556 4.8C550.18 4.8 552.164 5.44 553.508 6.72C554.916 8 555.62 9.632 555.62 11.616C555.62 15.456 553.86 18.24 550.34 19.968C552.068 20.096 553.508 20.768 554.66 21.984C555.812 23.136 556.388 24.608 556.388 26.4C556.388 29.28 556.164 32.512 555.716 36.096C555.268 39.616 555.044 42.24 555.044 43.968C555.044 44.352 555.364 45.888 556.004 48.576C556.644 51.2 556.964 52.864 556.964 53.568C556.964 55.168 556.42 56.448 555.332 57.408C554.308 58.368 553.06 58.848 551.588 58.848C550.372 58.848 548.804 58.816 546.884 58.752C544.964 58.624 543.332 58.56 541.988 58.56C540.708 58.56 539.524 58.656 538.436 58.848L536.516 59.136L536.324 57.216C536.324 56.704 536.708 54.048 537.476 49.248C538.308 44.448 538.724 41.152 538.724 39.36C538.724 36.288 538.5 33.728 538.052 31.68C537.668 29.568 537.252 28.064 536.804 27.168C536.356 26.208 535.652 25.056 534.692 23.712ZM557.507 53.76C557.507 54.4 557.859 55.104 558.563 55.872C559.267 56.64 560.355 57.312 561.827 57.888C564.131 58.336 567.459 58.496 571.811 58.368L578.627 41.856C579.971 46.464 582.307 50.656 585.635 54.432C589.795 51.296 592.675 47.52 594.275 43.104C594.851 45.152 595.971 48.608 597.635 53.472C599.299 58.336 600.291 60.992 600.611 61.44C601.571 60.288 602.883 59.392 604.547 58.752C606.275 58.048 607.811 57.6 609.155 57.408C610.563 57.216 611.779 56.8 612.803 56.16C613.891 55.456 614.435 54.432 614.435 53.088C614.051 50.976 613.507 48.288 612.803 45.024C612.099 41.696 610.755 36.736 608.771 30.144C606.851 23.488 605.059 18.976 603.395 16.608C598.083 16.608 594.435 16.704 592.451 16.896L585.635 30.24C585.315 30.88 585.059 30.976 584.867 30.528C584.291 29.632 583.139 27.296 581.411 23.52C579.683 19.744 578.371 17.568 577.475 16.992L570.851 17.184C568.611 17.184 567.395 17.536 567.203 18.24C566.499 20.16 564.707 26.176 561.827 36.288C558.947 46.4 557.507 52.224 557.507 53.76ZM556.355 54.528C556.355 52.928 557.699 47.36 560.387 37.824C563.075 28.288 564.963 21.824 566.051 18.432C566.243 17.856 566.371 17.504 566.435 17.376C566.499 17.248 566.979 16.992 567.875 16.608C568.771 16.224 570.019 16.032 571.619 16.032C573.283 16.032 574.659 16.032 575.747 16.032C576.835 15.968 577.571 15.936 577.955 15.936C578.403 15.872 578.691 15.84 578.819 15.84C579.587 16.288 580.259 16.896 580.835 17.664C581.411 18.432 581.859 19.2 582.179 19.968C582.563 20.672 583.107 21.856 583.811 23.52C584.579 25.12 585.251 26.528 585.827 27.744C589.411 20.704 591.427 16.704 591.875 15.744C594.563 15.552 599.011 15.456 605.219 15.456C607.267 18.4 609.283 23.072 611.267 29.472C613.251 35.872 614.723 41.536 615.683 46.464L617.123 53.856C617.123 55.648 616.547 57.056 615.395 58.08C614.307 59.04 613.027 59.648 611.555 59.904C610.083 60.096 608.483 60.48 606.755 61.056C605.027 61.632 603.747 62.432 602.915 63.456L601.379 65.376L599.843 63.36C599.331 62.72 597.603 57.952 594.659 49.056C592.931 51.808 590.083 54.72 586.115 57.792C583.107 54.336 580.867 51.072 579.395 48L573.923 60.96L572.675 61.056C568.515 61.184 564.963 60.992 562.019 60.48C560.227 59.84 558.819 58.976 557.795 57.888C556.835 56.8 556.355 55.68 556.355 54.528ZM631.389 33.12C631.389 31.584 631.645 30.144 632.157 28.8C633.309 28.8 634.397 28.992 635.421 29.376C636.509 29.696 637.053 30.272 637.053 31.104C637.053 32.256 636.509 33.248 635.421 34.08C634.333 34.912 633.053 35.328 631.581 35.328C631.453 34.432 631.389 33.696 631.389 33.12ZM615.549 56.352C615.549 58.912 617.949 60.192 622.749 60.192C625.501 60.192 627.965 59.616 630.141 58.464C631.485 55.776 632.157 52.416 632.157 48.384C632.157 45.888 632.029 43.2 631.773 40.32C634.077 40.896 636.957 41.184 640.413 41.184C645.533 41.184 650.205 39.52 654.429 36.192C658.717 32.8 660.861 28.192 660.861 22.368C660.861 18.272 659.229 14.912 655.965 12.288C652.765 9.6 648.861 8.256 644.253 8.256C641.117 8.256 636.829 9.344 631.389 11.52C626.013 13.696 621.501 15.008 617.853 15.456C617.277 15.584 616.989 16 616.989 16.704C616.989 19.328 617.181 22.656 617.565 26.688C618.013 30.656 618.237 34.112 618.237 37.056C618.237 39.36 618.013 42.048 617.565 45.12C617.117 48.128 616.669 50.72 616.221 52.896C615.773 55.008 615.549 56.16 615.549 56.352ZM634.077 33.888C635.229 33.376 635.837 32.8 635.901 32.16C635.389 31.904 634.845 31.744 634.269 31.68C634.141 32.256 634.077 32.992 634.077 33.888ZM614.397 57.12C614.397 56.864 614.621 55.648 615.069 53.472C615.517 51.232 615.965 48.64 616.413 45.696C616.861 42.688 617.085 40.064 617.085 37.824C617.085 35.008 616.861 31.616 616.413 27.648C616.029 23.616 615.837 20.224 615.837 17.472C615.837 15.616 616.573 14.56 618.045 14.304C621.693 13.856 626.237 12.544 631.677 10.368C637.181 8.128 641.629 7.008 645.021 7.008C650.077 7.008 654.429 8.544 658.077 11.616C661.725 14.624 663.549 18.464 663.549 23.136C663.549 29.536 661.213 34.592 656.541 38.304C651.869 42.016 646.749 43.872 641.181 43.872C638.557 43.872 636.381 43.744 634.653 43.488C634.781 45.024 634.845 46.912 634.845 49.152C634.845 53.504 634.109 57.152 632.637 60.096L632.349 60.672L631.773 60.96C629.405 62.24 626.653 62.88 623.517 62.88C620.125 62.88 617.757 62.304 616.413 61.152C615.069 60 614.397 58.656 614.397 57.12ZM690.787 47.328C690.787 46.432 691.075 45.664 691.651 45.024C692.291 44.384 693.059 44.064 693.955 44.064C694.851 44.064 695.619 44.256 696.259 44.64C696.899 45.024 697.219 45.536 697.219 46.176C697.219 47.008 696.931 47.744 696.355 48.384C695.843 48.96 695.171 49.248 694.339 49.248C693.379 49.248 692.547 49.056 691.843 48.672C691.139 48.288 690.787 47.84 690.787 47.328ZM684.259 41.76C684.259 48.288 686.019 52.448 689.539 54.24L688.387 54.816C689.347 56.096 690.755 57.12 692.611 57.888C694.467 58.656 696.323 59.04 698.179 59.04C704.131 59.04 708.963 57.632 712.675 54.816C716.387 51.936 718.243 48.032 718.243 43.104C718.243 39.008 716.259 35.488 712.291 32.544C708.323 29.6 703.555 28.128 697.987 28.128C694.659 28.128 691.715 29.44 689.155 32.064C686.659 34.624 685.027 37.856 684.259 41.76ZM693.475 47.712C693.987 47.968 694.531 48.096 695.107 48.096C695.747 48.096 696.067 47.776 696.067 47.136C695.811 46.88 695.363 46.752 694.723 46.752C694.019 46.752 693.603 47.072 693.475 47.712ZM683.107 42.528V42.336V42.144C684.003 37.472 685.827 33.792 688.579 31.104C691.395 28.352 694.787 26.976 698.755 26.976C704.771 26.976 709.955 28.608 714.307 31.872C718.723 35.072 720.931 39.072 720.931 43.872C720.931 49.248 718.915 53.568 714.883 56.832C710.915 60.096 705.603 61.728 698.947 61.728C696.899 61.728 694.787 61.28 692.611 60.384C690.499 59.552 688.835 58.336 687.619 56.736C686.659 55.456 686.147 54.784 686.083 54.72C686.147 54.72 686.211 54.72 686.275 54.72C686.403 54.656 686.499 54.592 686.563 54.528C684.259 51.904 683.107 47.904 683.107 42.528ZM736.202 33.12C736.202 31.584 736.458 30.144 736.97 28.8C738.122 28.8 739.21 28.992 740.234 29.376C741.322 29.696 741.866 30.272 741.866 31.104C741.866 32.256 741.322 33.248 740.234 34.08C739.146 34.912 737.866 35.328 736.394 35.328C736.266 34.432 736.202 33.696 736.202 33.12ZM720.362 56.352C720.362 58.912 722.762 60.192 727.562 60.192C730.314 60.192 732.778 59.616 734.954 58.464C736.298 55.776 736.97 52.416 736.97 48.384C736.97 45.888 736.842 43.2 736.586 40.32C738.89 40.896 741.77 41.184 745.226 41.184C750.346 41.184 755.018 39.52 759.242 36.192C763.53 32.8 765.674 28.192 765.674 22.368C765.674 18.272 764.042 14.912 760.778 12.288C757.578 9.6 753.674 8.256 749.066 8.256C745.93 8.256 741.642 9.344 736.202 11.52C730.826 13.696 726.314 15.008 722.666 15.456C722.09 15.584 721.802 16 721.802 16.704C721.802 19.328 721.994 22.656 722.378 26.688C722.826 30.656 723.05 34.112 723.05 37.056C723.05 39.36 722.826 42.048 722.378 45.12C721.93 48.128 721.482 50.72 721.034 52.896C720.586 55.008 720.362 56.16 720.362 56.352ZM738.89 33.888C740.042 33.376 740.65 32.8 740.714 32.16C740.202 31.904 739.658 31.744 739.082 31.68C738.954 32.256 738.89 32.992 738.89 33.888ZM719.21 57.12C719.21 56.864 719.434 55.648 719.882 53.472C720.33 51.232 720.778 48.64 721.226 45.696C721.674 42.688 721.898 40.064 721.898 37.824C721.898 35.008 721.674 31.616 721.226 27.648C720.842 23.616 720.65 20.224 720.65 17.472C720.65 15.616 721.386 14.56 722.858 14.304C726.506 13.856 731.05 12.544 736.49 10.368C741.994 8.128 746.442 7.008 749.834 7.008C754.89 7.008 759.242 8.544 762.89 11.616C766.538 14.624 768.362 18.464 768.362 23.136C768.362 29.536 766.026 34.592 761.354 38.304C756.682 42.016 751.562 43.872 745.994 43.872C743.37 43.872 741.194 43.744 739.466 43.488C739.594 45.024 739.658 46.912 739.658 49.152C739.658 53.504 738.922 57.152 737.45 60.096L737.162 60.672L736.586 60.96C734.218 62.24 731.466 62.88 728.33 62.88C724.938 62.88 722.57 62.304 721.226 61.152C719.882 60 719.21 58.656 719.21 57.12ZM767.811 58.176C768.899 58.368 770.307 58.688 772.035 59.136C773.763 59.584 775.331 59.936 776.739 60.192C778.211 60.512 779.651 60.672 781.059 60.672C785.347 60.672 788.995 59.36 792.003 56.736C795.075 54.112 796.611 50.944 796.611 47.232C796.611 44.928 795.907 42.88 794.499 41.088C793.091 39.296 791.235 38.048 788.931 37.344C785.795 36.384 784.035 35.616 783.651 35.04C783.523 34.784 783.459 34.56 783.459 34.368C783.459 33.792 783.907 33.504 784.803 33.504C786.659 33.504 788.323 33.728 789.795 34.176C790.627 28.032 792.163 22.88 794.403 18.72C787.875 17.44 783.011 16.8 779.811 16.8C776.931 16.8 774.403 17.632 772.227 19.296C770.051 20.96 768.963 22.944 768.963 25.248C768.963 28.64 770.307 31.776 772.995 34.656C775.747 37.6 777.123 40.736 777.123 44.064C777.123 45.28 776.739 46.336 775.971 47.232C775.203 48.064 774.275 48.48 773.187 48.48C772.675 48.48 772.163 48.384 771.651 48.192C771.139 47.936 770.563 47.616 769.923 47.232C769.283 46.784 768.771 46.464 768.387 46.272L767.811 58.176ZM766.562 60.48L767.235 46.944C767.235 46.752 767.267 46.272 767.331 45.504C767.395 44.672 767.427 44.16 767.427 43.968L770.115 45.312C770.563 45.568 771.075 45.888 771.651 46.272C772.227 46.592 772.675 46.848 772.995 47.04C773.379 47.232 773.699 47.328 773.955 47.328C774.467 47.328 774.915 47.104 775.299 46.656C775.747 46.144 775.971 45.536 775.971 44.832C775.971 42.144 774.755 39.456 772.323 36.768C769.315 33.504 767.811 29.92 767.811 26.016C767.811 22.688 769.059 20.128 771.555 18.336C774.115 16.544 777.123 15.648 780.579 15.648C783.971 15.648 788.963 16.288 795.555 17.568C795.747 17.632 796.195 17.76 796.899 17.952C797.603 18.08 798.019 18.144 798.147 18.144C798.083 18.336 797.891 18.72 797.571 19.296C797.251 19.872 797.027 20.224 796.899 20.352C794.659 24.512 793.187 29.472 792.483 35.232C792.483 35.296 792.419 35.584 792.291 36.096C792.227 36.608 792.195 36.928 792.195 37.056C794.371 38.144 796.099 39.648 797.379 41.568C798.659 43.488 799.299 45.632 799.299 48C799.299 52.288 797.571 55.936 794.115 58.944C790.659 61.888 786.563 63.36 781.827 63.36C780.291 63.36 778.851 63.232 777.507 62.976C776.163 62.72 774.563 62.368 772.707 61.92C770.915 61.472 769.411 61.12 768.195 60.864L766.562 60.48Z" fill="white"/>
</svg>
