<svg width="226" height="76" viewBox="0 0 226 76" fill="none" xmlns="http://www.w3.org/2000/svg">
<path d="M104.5 13.5L108 11.5H111L115.5 12L118 12.5L120 11.5L120.5 10L121.5 10L117.5 22L112.743 20.5163L109.981 20.7704L108.224 23.0573L109.479 26.3606L112.241 27.1229L114.5 27L116.259 26.1065L118.079 25.3442L119.5 24L120.276 25.3442L121 26L118.77 28.1392L113.748 29.4097L111.5 30L108.726 29.4097L104.206 27.377L102.699 25.3442L101.846 23.0573L101.695 20.5709L102 18L103 15.5L104.5 13.5Z" fill="#FDDA21"/>
<path d="M29.8319 51.5L33.3665 49.5H36.3962L40.9407 50L43.4654 50.5L45.178 49.5L45.9901 48L47 48L42.9609 60L38.1573 58.5163L35.3679 58.7704L33.5929 61.0573L34.8608 64.3606L37.6502 65.1229L39.9313 65L41.7075 64.1065L43.5458 63.3442L44.9807 62L45.7648 63.3442L46.4956 64L44.2433 66.1392L39.1716 67.4097L36.9016 68L34.1 67.4097L29.5356 65.377L28.0141 63.3442L27.1523 61.0573L27 58.5709L27.3072 56L28.3171 53.5L29.8319 51.5Z" fill="#FDDA21"/>
<path d="M170 8.99984L175 9.49984L182.5 7L186.174 6.75488L189.032 8.93412L190.209 11.4486L189.032 15.6884L185.669 18.6569L187.5 21L187.821 23.0573L189.873 25.5299L192.563 25.8651L190.209 32.4028L186.174 33.7439L181.97 32.9671L181.544 27.8851L180.79 24.5818L179.785 22.8477H178.776L179.112 29.0502L178.776 32.4028L168.5 32L170 26L170.5 23.0573V20.5L170.244 13.6321L170 8.99984Z" fill="#FDDA21"/>
<path d="M161 62.4167C161 67.3007 156.054 70.5 152 70.5C147.427 70.5 143.5 66.3839 143.5 61.4998C143.5 56.6158 148.037 53.2195 152.5 53.9998C157.027 54.2599 161 57.5326 161 62.4167Z" fill="#FDDA21"/>
<path d="M137.101 15.1807C138 19.5 133.166 23.82 128.312 23.82C122.286 23.82 120.5 19.952 120.5 15.1807C121.253 11.8774 123.146 8.5 128 8.5C132.269 9.51639 137.101 10.4093 137.101 15.1807Z" fill="#FDDA21"/>
<path d="M48 49.4557L52.7891 47.9323L57.0847 47.1728L56.2531 56.5484L56.6008 58.7504L60.4714 58.0592V51.6656L60.4517 49.9635L60.7939 47.864L61.732 47.1728L62.7292 47L65.7198 47.4245L69 48.365L67.7286 59.4416L68.2785 71L59.8263 69.6367L59.4939 68.2445L59.665 67.129L60.3101 64.2799H56.7621L55.3107 69.9823L47.5 69L48.5 59L48 49.4557Z" fill="#FDDA21"/>
<path d="M192.5 6.5L195 6L197.992 5.5249L207 7L214 6.5L215.192 7.04949L214.69 11.3692L213.434 15.1806H206.152L206.403 17.9757L207.157 31.4429L202.888 33.4757L198.117 32.9675L197.615 27.1233L197.364 22.0413L197.866 15.9429L193.848 15.6888L191.337 16.7052L190.942 15.6888L190.333 11.8774L191.086 7.81179L192.5 6.5Z" fill="#FDDA21"/>
<path d="M79.0058 46.014C79.0058 47.8824 77.1403 49.397 74.9772 49.397C72.6496 49.8732 70.5003 48.8684 70.5003 47C69.9563 43.659 74.1538 42.5 76.3169 42.5C78.3312 42.9975 79.0058 44.1456 79.0058 46.014Z" fill="#FDDA21"/>
<path d="M69.5 51.5257L76.0211 50L78.5292 51.0171L78.9962 53.2348L78.4923 60.9882L79.5 68.4831L70.1792 69L71.1869 61.7635V56.8531L69.5 51.5257Z" fill="#FDDA21"/>
<path d="M85.0249 49L85.5274 48.5H87.0349L90.8563 48.3521L94.6067 54.1964L97.5872 48.0002L104.12 48L108.738 60.2948L110 67.9177L101.607 71L98.8966 63.0898L94.0697 68L91.0548 62L88.5503 69.4423H82.9986L81.005 68.5L80 67.5L80.4751 65.1226L81.005 62.5L85.0249 49Z" fill="#FDDA21"/>
<path d="M6.02197 10.5082L7.52856 10H11.7972L15.3126 16.3525L18.5769 10H25.1055L29.3741 22.4508L30.6296 30.0738L22.8456 33.1229L19.5813 25.2459L15.3126 29.8197L13.5 27.5L12.0483 24.4836L9.28625 31.5984H3.76208L1 29.8197L1.2511 27.2787L2.00439 24.7377L6.02197 10.5082Z" fill="#FDDA21"/>
<path d="M68.5 6.49991L70.5 6L73.5771 5.51367L82.5 7L87 6.5L90 6.28431H91.0014L90.4963 10.6513L90.5 13L89.5 15L86 15.5L82 15L82.163 17.3302L82.9206 30.9449L81.4054 32.743L78.6276 32.9999L74.0014 32.4999L73.3246 26.5779L73.5014 21.4999L74.0014 16.9999L73.5771 15.2751L69.5014 15.4999L67.5014 16.4999L66.2539 15.2751L66.5 10.9999L67.5 7.49991L68.5 6.49991Z" fill="#FDDA21"/>
<path d="M163 47.5L166.487 46.9238L172.5 44.5L176.097 44L180.775 44.6755L185 48.5566L184.662 54.294L182.634 57.8377L179.592 60.0314L175.366 61.0439H170.972L169.789 68.975L166.915 71L163.535 70.6625L162.5 70.5L161.5 68.975L161.931 64.6132L163 60L162.5 56L162.37 52.289L162 48.5L163 47.5Z" fill="#FDDA21"/>
<path d="M110.031 47.5959L114.93 46.3117L120.964 44.2236L124.044 44L128.152 44.7292L132.259 48.2669L133 53.8174L130.943 57.4622L127.857 59.7185L124.558 61.4072L121.376 61.4652L118.91 61.4072L117.883 61.9126L117.914 68.9173L115 71L111.571 70.6529L109.874 70.4546L109.5 70L109 68.9173L110 64L110.182 58.88L109.669 51.8045V49L110.031 47.5959Z" fill="#FDDA21"/>
<path d="M30.7576 8.75L36.5658 7H42.3741H45.225L47.325 8L48.9 9.5L49.5 11.5L48 17L43.3842 16.75L45.225 18V20.5L44.1418 23L41.6165 24.75L44.6468 25L48 24.5L49.5 22.5L50.475 23.5V27.25L47.9297 32.25L41.1114 33L35.5557 32.5L30 31.25L30.2525 27.25L31.05 23.5L31.2627 19.5V14.1254L30.7576 8.75Z" fill="#FDDA21"/>
<path d="M50.215 10.0981L55.5 11L61.5 10.5H65.2809L66.2853 13L65.2809 17.7211L64.5 18L62.5 17L61.0122 17.7211L61.7655 22.8031L60.7611 23.3113L61.5144 23.8195L63.021 23.5654L65.2809 22.0408L65.5 23L66.0342 23.5654L66.2853 25.344V30.1719L60.2589 31.1883H55.2369H49.9639L50.4661 27.3768L51.2194 20.008L49.9639 11.5L50.215 10.0981Z" fill="#FDDA21"/>
<path d="M152.5 10.5L157.001 10.4998L160.001 10.9998L163.001 10.4998L167.001 10.3521L168.237 12.893L168.501 15.4998L167.501 17.9998L164.001 16.9998L162.713 17.7209L163.501 19.9998L163.466 22.8029L162.462 23.3111L163.215 23.8193L164.501 23.9998L167.001 22.4998H167.986L168.097 23.3111L168.501 24.9998V27.4998L167.986 30.1717L161.96 31.1881H156.938L152.501 30.9998L152.669 27.3766L153.293 23.8193L153.5 19.5L152.669 14.9258L152.5 10.5Z" fill="#FDDA21"/>
<path d="M135.091 20.7705L136.597 19.2459L141.117 17.9754L143 22.5L145.5 15.5L146.5 14.5L148 14L150.659 13.6558L151.663 14.164L152.5 17.5L150.659 23.0574L146.139 32.7131L143.879 35L139.108 32.7131L137.351 29.4099L136.095 25.5984L135.091 20.7705Z" fill="#FDDA21"/>
<path d="M185.688 51.8768L186.943 49.5165L188.701 48.7662L191.714 48L199.247 49.011L197.74 52.8022L196.736 58.3626L199.247 60.6374L200 62.1538V63.4176V65L199.247 67.967L195.983 69.989L192.467 71L185 69.989L185.5 62.5778L186.692 63.6703L188.701 63.8952L189.5 63.0752L189.848 62.1538L189.5 61.0858L188.701 59.1209L185.688 54.8242V51.8768Z" fill="#FDDA21"/>
<path d="M1.19088 28.88C1.19088 29.2 1.36688 29.552 1.71888 29.936C2.07088 30.32 2.61488 30.656 3.35088 30.944C4.50288 31.168 6.16688 31.248 8.34288 31.184L11.7509 22.928C12.4229 25.232 13.5909 27.328 15.2549 29.216C17.3349 27.648 18.7749 25.76 19.5749 23.552C19.8629 24.576 20.4229 26.304 21.2549 28.736C22.0869 31.168 22.5829 32.496 22.7429 32.72C23.2229 32.144 23.8789 31.696 24.7109 31.376C25.5749 31.024 26.3429 30.8 27.0149 30.704C27.7189 30.608 28.3269 30.4 28.8389 30.08C29.3829 29.728 29.6549 29.216 29.6549 28.544C29.4629 27.488 29.1909 26.144 28.8389 24.512C28.4869 22.848 27.8149 20.368 26.8229 17.072C25.8629 13.744 24.9669 11.488 24.1349 10.304C21.4789 10.304 19.6549 10.352 18.6629 10.448L15.2549 17.12C15.0949 17.44 14.9669 17.488 14.8709 17.264C14.5829 16.816 14.0069 15.648 13.1429 13.76C12.2789 11.872 11.6229 10.784 11.1749 10.496L7.86288 10.592C6.74288 10.592 6.13488 10.768 6.03888 11.12C5.68688 12.08 4.79088 15.088 3.35088 20.144C1.91088 25.2 1.19088 28.112 1.19088 28.88ZM0.614875 29.264C0.614875 28.464 1.28687 25.68 2.63087 20.912C3.97488 16.144 4.91888 12.912 5.46288 11.216C5.55888 10.928 5.62288 10.752 5.65488 10.688C5.68688 10.624 5.92688 10.496 6.37488 10.304C6.82288 10.112 7.44688 10.016 8.24688 10.016C9.07888 10.016 9.76688 10.016 10.3109 10.016C10.8549 9.984 11.2229 9.968 11.4149 9.968C11.6389 9.936 11.7829 9.92 11.8469 9.92C12.2309 10.144 12.5669 10.448 12.8549 10.832C13.1429 11.216 13.3669 11.6 13.5269 11.984C13.7189 12.336 13.9909 12.928 14.3429 13.76C14.7269 14.56 15.0629 15.264 15.3509 15.872C17.1429 12.352 18.1509 10.352 18.3749 9.872C19.7189 9.776 21.9429 9.728 25.0469 9.728C26.0709 11.2 27.0789 13.536 28.0709 16.736C29.0629 19.936 29.7989 22.768 30.2789 25.232L30.9989 28.928C30.9989 29.824 30.7109 30.528 30.1349 31.04C29.5909 31.52 28.9509 31.824 28.2149 31.952C27.4789 32.048 26.6789 32.24 25.8149 32.528C24.9509 32.816 24.3109 33.216 23.8949 33.728L23.1269 34.688L22.3589 33.68C22.1029 33.36 21.2389 30.976 19.7669 26.528C18.9029 27.904 17.4789 29.36 15.4949 30.896C13.9909 29.168 12.8709 27.536 12.1349 26L9.39888 32.48L8.77488 32.528C6.69488 32.592 4.91888 32.496 3.44688 32.24C2.55088 31.92 1.84688 31.488 1.33488 30.944C0.854875 30.4 0.614875 29.84 0.614875 29.264ZM29.8281 30.176C32.4841 31.84 36.3881 32.672 41.5401 32.672C43.7481 32.672 45.5241 32.416 46.8681 31.904C47.9241 30.688 48.5961 29.456 48.8841 28.208C49.2041 26.96 49.4281 25.2 49.5561 22.928L49.4601 22.88C49.0121 23.904 48.3721 24.576 47.5401 24.896C46.7401 25.184 45.4921 25.328 43.7961 25.328C41.8761 25.328 39.9241 25.184 37.9401 24.896C37.8441 24.672 37.7961 24.464 37.7961 24.272C37.7961 24.048 37.8601 23.776 37.9881 23.456C40.5481 23.392 42.3561 23.232 43.4121 22.976C43.9881 20.768 44.2761 19.216 44.2761 18.32C44.2761 18.064 44.1481 17.936 43.8921 17.936C43.3801 17.936 42.5801 18.032 41.4921 18.224C40.4041 18.416 39.6681 18.512 39.2841 18.512C38.9961 18.512 38.7081 18.432 38.4201 18.272C38.1321 18.112 37.9881 17.92 37.9881 17.696C37.9881 16.352 38.9481 15.584 40.8681 15.392C41.3801 15.456 42.2601 15.696 43.5081 16.112C44.7881 16.528 45.5881 16.736 45.9081 16.736C46.5161 16.672 46.9481 16.544 47.2041 16.352C47.4601 16.128 47.6521 15.76 47.7801 15.248C48.0041 14.416 48.2121 12.848 48.4041 10.544C47.7321 8.304 45.2361 7.184 40.9161 7.184C37.5241 7.184 34.3401 7.776 31.3641 8.96C31.6521 12.128 31.7961 15.616 31.7961 19.424C31.7961 23.168 31.1401 26.752 29.8281 30.176ZM38.8521 17.36C38.9801 17.424 39.0921 17.456 39.1881 17.456C39.4761 17.456 40.0841 17.376 41.0121 17.216C41.9401 17.056 42.6281 16.96 43.0761 16.928C41.9881 16.576 41.2041 16.352 40.7241 16.256C39.5721 16.352 38.9481 16.72 38.8521 17.36ZM28.9641 30.8C30.4361 26.96 31.1721 23.264 31.1721 19.712C31.1721 15.936 31.0281 12.48 30.7401 9.344L30.6441 8.576L31.3641 8.288C34.5641 7.104 37.4281 6.512 39.9561 6.512C41.2361 6.512 42.2761 6.544 43.0761 6.608C43.9081 6.672 44.8361 6.832 45.8601 7.088C46.8841 7.312 47.7161 7.712 48.3561 8.288C49.0281 8.864 49.4921 9.616 49.7481 10.544L49.7961 10.736L49.1241 15.632C49.0281 16.944 48.1161 17.712 46.3881 17.936L46.3401 17.984H46.2921L45.4281 17.84C45.5561 18.064 45.6201 18.32 45.6201 18.608C45.6201 19.696 45.3161 21.344 44.7081 23.552L44.5641 24.08L44.0361 24.224C43.2681 24.448 42.5001 24.576 41.7321 24.608C42.8841 24.64 44.1961 24.64 45.6681 24.608C46.6601 24.576 47.3641 24.432 47.7801 24.176C48.2281 23.92 48.6281 23.44 48.9801 22.736L49.3161 22.112L50.8041 23.216C50.6761 25.872 50.4361 27.824 50.0841 29.072C49.7641 30.32 49.0121 31.632 47.8281 33.008C45.6521 33.616 43.6841 33.92 41.9241 33.92C39.4601 33.92 37.2361 33.696 35.2521 33.248C33.2681 32.832 31.9401 32.448 31.2681 32.096C30.6281 31.776 29.8601 31.344 28.9641 30.8ZM49.4196 11.264C49.4196 10.272 49.9476 9.776 51.0036 9.776C53.0196 10.256 54.9236 10.496 56.7156 10.496C59.0516 10.496 61.7076 10.384 64.6836 10.16C64.7156 10.16 64.7796 10.16 64.8756 10.16C65.0036 10.128 65.0836 10.112 65.1156 10.112C65.1796 10.208 65.2276 10.272 65.2596 10.304C65.2916 10.304 65.3076 10.32 65.3076 10.352C65.3396 10.352 65.3876 10.4 65.4516 10.496C66.4116 11.584 66.8916 12.928 66.8916 14.528C66.8916 15.584 66.6516 16.88 66.1716 18.416C66.1396 18.48 66.0756 18.704 65.9796 19.088C65.8836 19.44 65.8196 19.648 65.7876 19.712C65.6916 19.68 65.4996 19.552 65.2116 19.328C64.9556 19.072 64.7796 18.928 64.6836 18.896C63.9476 18.32 62.9876 18.032 61.8036 18.032C61.7076 18.032 61.6116 18.032 61.5156 18.032C61.4516 18.032 61.4036 18.048 61.3716 18.08C61.3396 18.08 61.3076 18.08 61.2756 18.08H61.2276C61.8036 18.848 62.0916 19.856 62.0916 21.104C62.0916 21.488 62.0596 22.16 61.9956 23.12C61.9956 23.152 61.9796 23.216 61.9476 23.312C61.9476 23.408 61.9476 23.472 61.9476 23.504L61.6596 23.792C62.6836 23.504 63.6596 22.944 64.5876 22.112C64.6516 22.048 64.7956 21.904 65.0196 21.68C65.2756 21.456 65.4356 21.312 65.4996 21.248L66.0756 22.4C66.6516 23.648 66.9396 25.04 66.9396 26.576C66.9396 28.336 66.7956 29.68 66.5076 30.608C66.4756 30.672 66.4276 30.784 66.3636 30.944C66.3316 31.072 66.3156 31.168 66.3156 31.232L65.6916 31.28C62.6196 31.536 59.7076 31.664 56.9556 31.664C54.6196 31.664 52.5076 31.6 50.6196 31.472C50.5556 31.472 50.3796 31.472 50.0916 31.472C49.8356 31.44 49.6756 31.424 49.6116 31.424L49.7076 30.416C49.8036 29.552 49.9316 28.544 50.0916 27.392C50.2836 26.208 50.4276 25.168 50.5236 24.272C50.6196 23.344 50.6676 22.368 50.6676 21.344C50.6676 17.824 50.2516 14.464 49.4196 11.264ZM50.1876 11.408C50.8916 14.32 51.2436 17.312 51.2436 20.384C51.2436 21.664 51.1796 22.912 51.0516 24.128C50.9556 25.344 50.8116 26.576 50.6196 27.824C50.4276 29.04 50.3156 29.808 50.2836 30.128C52.1716 30.256 54.2676 30.32 56.5716 30.32C59.2596 30.32 62.1396 30.192 65.2116 29.936C65.4676 29.04 65.5956 27.792 65.5956 26.192C65.5956 24.752 65.3396 23.504 64.8276 22.448C63.2916 23.824 61.5476 24.512 59.5956 24.512C58.3156 24.512 57.0996 24.336 55.9476 23.984C55.9476 23.696 56.0596 23.296 56.2836 22.784C57.1156 23.136 57.7556 23.312 58.2036 23.312C59.2596 23.312 60.0756 23.088 60.6516 22.64C60.7156 21.68 60.7476 21.04 60.7476 20.72C60.7476 19.696 60.5236 18.88 60.0756 18.272C58.6996 18.624 57.5636 18.8 56.6676 18.8C56.5716 18.448 56.5236 18 56.5236 17.456C58.6036 16.944 60.2356 16.688 61.4196 16.688C62.6996 16.688 63.8516 17.04 64.8756 17.744C65.3236 16.336 65.5476 15.136 65.5476 14.144C65.5476 12.8 65.1476 11.664 64.3476 10.736C61.3716 10.96 58.6996 11.072 56.3316 11.072C55.2756 11.072 54.1556 10.992 52.9716 10.832C51.8196 10.672 51.1636 10.592 51.0036 10.592C50.4596 10.592 50.1876 10.864 50.1876 11.408ZM66.8181 12.896C66.8181 14.048 67.0101 15.12 67.3941 16.112C68.5461 15.376 69.8741 15.008 71.3781 15.008C72.4021 15.008 73.4101 15.12 74.4021 15.344C74.0181 17.648 73.8261 20.336 73.8261 23.408C73.8261 24.304 73.8581 25.232 73.9221 26.192C74.0181 27.152 74.1301 28.192 74.2581 29.312C74.3861 30.432 74.4821 31.36 74.5461 32.096C75.8581 32.32 77.4581 32.432 79.3461 32.432C80.2421 32.432 81.0261 32.224 81.6981 31.808C82.3701 31.36 82.7061 30.704 82.7061 29.84C82.7061 29.072 82.5621 27.68 82.2741 25.664C82.0181 23.648 81.8581 21.92 81.7941 20.48C81.7941 19.968 81.7621 19.024 81.6981 17.648C81.6661 16.24 81.6341 15.2 81.6021 14.528C82.0501 14.56 82.8821 14.672 84.0981 14.864C85.3461 15.024 86.3381 15.104 87.0741 15.104C88.6421 15.104 89.5541 14.624 89.8101 13.664C90.3861 11.456 90.6741 9.408 90.6741 7.52C90.6741 6.912 90.3701 6.608 89.7621 6.608C89.1861 6.608 88.2421 6.72 86.9301 6.944C85.6501 7.136 84.5941 7.232 83.7621 7.232C82.4181 7.232 80.5301 7.072 78.0981 6.752C75.6981 6.432 73.8901 6.256 72.6741 6.224C69.7621 6.224 68.0821 6.816 67.6341 8C67.0901 9.44 66.8181 11.072 66.8181 12.896ZM66.1941 13.28C66.1941 11.008 66.4501 9.2 66.9621 7.856C67.5701 6.256 69.6021 5.456 73.0581 5.456C74.4021 5.488 76.2581 5.696 78.6261 6.08C81.0261 6.464 82.8661 6.656 84.1461 6.656C84.8821 6.656 85.8901 6.56 87.1701 6.368C88.4501 6.144 89.4421 6.032 90.1461 6.032C90.6581 6.032 91.0901 6.192 91.4421 6.512C91.8261 6.864 92.0181 7.328 92.0181 7.904C92.0181 9.6 91.7141 11.712 91.1061 14.24C90.7221 15.712 89.5061 16.448 87.4581 16.448C86.6901 16.448 85.1861 16.288 82.9461 15.968C82.9781 16.608 83.0101 17.488 83.0421 18.608C83.1061 19.728 83.1381 20.48 83.1381 20.864C83.2021 22.24 83.3621 23.936 83.6181 25.952C83.9061 27.936 84.0501 29.36 84.0501 30.224C84.0501 31.408 83.6021 32.288 82.7061 32.864C81.8101 33.472 80.8181 33.776 79.7301 33.776C77.7461 33.776 76.0821 33.664 74.7381 33.44L74.0181 33.296L73.9701 32.576C73.9061 31.904 73.8101 30.992 73.6821 29.84C73.5541 28.688 73.4421 27.632 73.3461 26.672C73.2821 25.68 73.2501 24.72 73.2501 23.792C73.2501 20.944 73.3941 18.512 73.6821 16.496C73.0101 16.4 72.3701 16.352 71.7621 16.352C70.3541 16.352 69.2021 16.656 68.3061 17.264L67.2981 17.936L66.8661 16.832C66.4181 15.648 66.1941 14.464 66.1941 13.28ZM102.116 20.24C102.116 23.024 103.028 25.264 104.852 26.96C106.676 28.656 108.916 29.504 111.572 29.504C114.836 29.504 117.764 28.32 120.356 25.952C120.068 25.344 119.748 24.896 119.396 24.608C118.532 25.44 117.428 26.112 116.084 26.624C114.772 27.136 113.492 27.392 112.244 27.392C110.996 27.392 109.988 27.104 109.22 26.528C108.452 25.92 108.068 24.992 108.068 23.744C108.068 22.688 108.452 21.808 109.22 21.104C110.02 20.368 110.98 20 112.1 20C113.892 20 115.652 20.64 117.38 21.92C117.828 19.68 118.324 17.6 118.868 15.68C119.092 14.88 119.476 13.84 120.02 12.56C120.596 11.28 120.964 10.448 121.124 10.064H120.932C120.708 10.768 120.228 11.392 119.492 11.936C118.756 12.48 118.052 12.752 117.38 12.752C116.388 12.752 115.204 12.592 113.828 12.272C112.452 11.952 111.268 11.792 110.276 11.792C108.1 11.792 106.196 12.672 104.564 14.432C102.932 16.16 102.116 18.096 102.116 20.24ZM101.54 20.576C101.54 17.888 102.372 15.648 104.036 13.856C105.7 12.064 107.876 11.168 110.564 11.168C111.652 11.168 112.9 11.344 114.308 11.696C115.716 12.016 116.868 12.176 117.764 12.176C118.18 12.176 118.676 11.984 119.252 11.6C119.828 11.184 120.212 10.688 120.404 10.112C120.436 10.048 120.484 9.92 120.548 9.728L120.596 9.488H122.708C121.492 12.304 120.644 14.592 120.164 16.352C119.556 18.368 119.076 20.4 118.724 22.448C118.66 22.608 118.564 23.104 118.436 23.936C117.956 23.616 117.556 23.328 117.236 23.072C115.7 21.92 114.116 21.344 112.484 21.344C111.62 21.344 110.884 21.616 110.276 22.16C109.7 22.704 109.412 23.36 109.412 24.128C109.412 25.92 110.484 26.816 112.628 26.816C113.78 26.816 114.948 26.576 116.132 26.096C117.348 25.616 118.34 25.008 119.108 24.272C119.428 23.952 119.636 23.76 119.732 23.696L120.356 24.224C120.676 24.512 120.948 24.8 121.172 25.088C121.332 25.344 121.492 25.648 121.652 26C121.684 26.032 121.732 26.128 121.796 26.288C121.86 26.416 121.892 26.512 121.892 26.576L121.412 27.056C118.66 29.584 115.508 30.848 111.956 30.848C109.044 30.848 106.58 29.904 104.564 28.016C102.548 26.128 101.54 23.648 101.54 20.576ZM124.315 17.984C124.315 17.6 124.443 17.264 124.699 16.976C124.987 16.688 125.307 16.544 125.659 16.544C126.043 16.544 126.363 16.64 126.619 16.832C126.907 16.992 127.051 17.184 127.051 17.408C127.051 17.76 126.923 18.064 126.667 18.32C126.443 18.544 126.171 18.656 125.851 18.656C124.827 18.656 124.315 18.432 124.315 17.984ZM121.051 15.2C121.051 18.464 121.931 20.544 123.691 21.44L123.115 21.728C123.723 22.56 125.019 22.976 127.003 22.976C129.883 22.976 132.283 22.336 134.203 21.056C136.123 19.744 137.083 18.016 137.083 15.872C137.083 13.888 136.187 12.224 134.395 10.88C132.603 9.536 130.283 8.864 127.435 8.864C125.899 8.864 124.539 9.472 123.355 10.688C122.171 11.872 121.403 13.376 121.051 15.2ZM120.475 15.584V15.488V15.392C121.435 10.656 123.883 8.288 127.819 8.288C130.859 8.288 133.387 9.04 135.403 10.544C137.419 12.048 138.427 13.952 138.427 16.256C138.427 18.752 137.339 20.72 135.163 22.16C133.019 23.6 130.427 24.32 127.387 24.32C125.083 24.32 123.531 23.776 122.731 22.688L121.963 21.68L122.203 21.584C121.051 20.24 120.475 18.24 120.475 15.584ZM136.006 21.248C136.006 22.016 136.294 23.424 136.87 25.472C137.446 27.488 137.878 28.832 138.166 29.504C138.678 30.816 139.446 31.936 140.47 32.864C141.526 33.824 142.694 34.304 143.974 34.304C145.158 33.408 146.326 31.76 147.478 29.36C148.63 26.928 149.574 24.592 150.31 22.352C151.046 20.112 151.478 18.48 151.606 17.456L151.846 15.92C151.846 14.736 151.494 14.144 150.79 14.144C149.638 14.144 148.63 14.256 147.766 14.48C146.614 14.768 145.878 15.36 145.558 16.256C144.31 19.776 143.526 22.304 143.206 23.84L141.334 18.416C140.47 18.576 139.638 18.816 138.838 19.136C137.654 19.616 136.886 20.016 136.534 20.336C136.182 20.624 136.006 20.928 136.006 21.248ZM135.382 21.536C135.382 20.992 135.638 20.48 136.15 20C136.662 19.52 137.334 19.136 138.166 18.848C138.998 18.528 139.734 18.288 140.374 18.128C141.046 17.936 141.702 17.792 142.342 17.696L143.446 21.008L144.982 16.352C145.398 15.072 146.358 14.256 147.862 13.904C148.822 13.68 149.926 13.568 151.174 13.568C151.782 13.568 152.262 13.824 152.614 14.336C152.998 14.848 153.19 15.504 153.19 16.304C153.19 16.624 153.094 17.28 152.902 18.272C152.742 19.232 152.294 20.864 151.558 23.168C150.822 25.44 149.878 27.776 148.726 30.176C147.446 32.736 146.102 34.56 144.694 35.648C142.838 35.648 141.334 35.088 140.182 33.968C139.03 32.848 138.182 31.6 137.638 30.224L137.398 29.504C137.238 28.992 137.046 28.4 136.822 27.728C136.598 27.024 136.374 26.288 136.15 25.52C135.926 24.752 135.75 24 135.622 23.264C135.462 22.528 135.382 21.952 135.382 21.536ZM151.982 11.264C151.982 10.272 152.51 9.776 153.566 9.776C155.582 10.256 157.486 10.496 159.278 10.496C161.614 10.496 164.27 10.384 167.246 10.16C167.278 10.16 167.342 10.16 167.438 10.16C167.566 10.128 167.646 10.112 167.678 10.112C167.742 10.208 167.79 10.272 167.822 10.304C167.854 10.304 167.87 10.32 167.87 10.352C167.902 10.352 167.95 10.4 168.014 10.496C168.974 11.584 169.454 12.928 169.454 14.528C169.454 15.584 169.214 16.88 168.734 18.416C168.702 18.48 168.638 18.704 168.542 19.088C168.446 19.44 168.382 19.648 168.35 19.712C168.254 19.68 168.062 19.552 167.774 19.328C167.518 19.072 167.342 18.928 167.246 18.896C166.51 18.32 165.55 18.032 164.366 18.032C164.27 18.032 164.174 18.032 164.078 18.032C164.014 18.032 163.966 18.048 163.934 18.08C163.902 18.08 163.87 18.08 163.838 18.08H163.79C164.366 18.848 164.654 19.856 164.654 21.104C164.654 21.488 164.622 22.16 164.558 23.12C164.558 23.152 164.542 23.216 164.51 23.312C164.51 23.408 164.51 23.472 164.51 23.504L164.222 23.792C165.246 23.504 166.222 22.944 167.15 22.112C167.214 22.048 167.358 21.904 167.582 21.68C167.838 21.456 167.998 21.312 168.062 21.248L168.638 22.4C169.214 23.648 169.502 25.04 169.502 26.576C169.502 28.336 169.358 29.68 169.07 30.608C169.038 30.672 168.99 30.784 168.926 30.944C168.894 31.072 168.878 31.168 168.878 31.232L168.254 31.28C165.182 31.536 162.27 31.664 159.518 31.664C157.182 31.664 155.07 31.6 153.182 31.472C153.118 31.472 152.942 31.472 152.654 31.472C152.398 31.44 152.238 31.424 152.174 31.424L152.27 30.416C152.366 29.552 152.494 28.544 152.654 27.392C152.846 26.208 152.99 25.168 153.086 24.272C153.182 23.344 153.23 22.368 153.23 21.344C153.23 17.824 152.814 14.464 151.982 11.264ZM152.75 11.408C153.454 14.32 153.806 17.312 153.806 20.384C153.806 21.664 153.742 22.912 153.614 24.128C153.518 25.344 153.374 26.576 153.182 27.824C152.99 29.04 152.878 29.808 152.846 30.128C154.734 30.256 156.83 30.32 159.134 30.32C161.822 30.32 164.702 30.192 167.774 29.936C168.03 29.04 168.158 27.792 168.158 26.192C168.158 24.752 167.902 23.504 167.39 22.448C165.854 23.824 164.11 24.512 162.158 24.512C160.878 24.512 159.662 24.336 158.51 23.984C158.51 23.696 158.622 23.296 158.846 22.784C159.678 23.136 160.318 23.312 160.766 23.312C161.822 23.312 162.638 23.088 163.214 22.64C163.278 21.68 163.31 21.04 163.31 20.72C163.31 19.696 163.086 18.88 162.638 18.272C161.262 18.624 160.126 18.8 159.23 18.8C159.134 18.448 159.086 18 159.086 17.456C161.166 16.944 162.798 16.688 163.982 16.688C165.262 16.688 166.414 17.04 167.438 17.744C167.886 16.336 168.11 15.136 168.11 14.144C168.11 12.8 167.71 11.664 166.91 10.736C163.934 10.96 161.262 11.072 158.894 11.072C157.838 11.072 156.718 10.992 155.534 10.832C154.382 10.672 153.726 10.592 153.566 10.592C153.022 10.592 152.75 10.864 152.75 11.408ZM177.877 15.584C178.869 15.584 179.685 15.664 180.325 15.824C180.997 15.984 181.333 16.192 181.333 16.448C181.333 16.864 181.189 17.2 180.901 17.456C180.645 17.68 180.309 17.856 179.893 17.984C179.509 18.112 179.029 18.224 178.453 18.32C178.293 18.352 178.181 18.368 178.117 18.368L177.877 15.584ZM169.141 31.328C171.605 31.84 174.309 32.096 177.253 32.096C177.765 32.096 178.149 31.92 178.405 31.568C178.693 31.216 178.837 30.784 178.837 30.272C178.837 26.912 178.629 23.84 178.213 21.056C179.941 22.304 181.077 23.68 181.621 25.184C182.165 26.656 182.437 29.088 182.437 32.48C183.301 33.12 184.293 33.44 185.413 33.44C187.237 33.44 188.757 32.656 189.973 31.088C191.189 29.52 191.861 27.808 191.989 25.952C190.645 25.952 189.653 25.744 189.013 25.328C188.373 24.912 187.941 24.176 187.717 23.12C187.461 21.872 186.949 20.88 186.181 20.144C185.413 19.376 184.405 18.992 183.157 18.992C185.141 18.448 186.725 17.568 187.909 16.352C189.125 15.104 189.733 13.648 189.733 11.984C189.733 10.672 189.141 9.536 187.957 8.576C186.805 7.584 185.413 7.088 183.781 7.088C182.533 7.088 180.965 7.52 179.077 8.384C177.189 9.216 175.621 9.632 174.373 9.632C173.893 9.632 173.445 9.616 173.029 9.584C172.613 9.52 172.149 9.456 171.637 9.392C171.125 9.328 170.677 9.28 170.293 9.248C170.357 10.208 170.453 11.408 170.581 12.848C170.709 14.256 170.805 15.52 170.869 16.64C170.965 17.76 171.013 18.96 171.013 20.24C171.013 21.52 170.917 22.736 170.725 23.888C170.533 25.04 170.261 26.32 169.909 27.728C169.557 29.104 169.301 30.304 169.141 31.328ZM168.421 32.48L168.565 31.568C168.757 30.512 169.013 29.28 169.333 27.872C169.685 26.464 169.957 25.216 170.149 24.128C170.341 23.04 170.437 21.872 170.437 20.624C170.437 19.376 170.389 18.192 170.293 17.072C170.229 15.952 170.133 14.688 170.005 13.28C169.877 11.872 169.781 10.672 169.717 9.68C169.717 9.584 169.701 9.392 169.669 9.104C169.637 8.816 169.621 8.64 169.621 8.576C169.685 8.576 169.877 8.592 170.197 8.624C170.517 8.656 170.709 8.672 170.773 8.672C171.125 8.704 171.733 8.784 172.597 8.912C173.461 9.008 174.181 9.056 174.757 9.056C175.845 9.056 177.349 8.64 179.269 7.808C181.189 6.944 182.821 6.512 184.165 6.512C186.021 6.512 187.637 7.104 189.013 8.288C190.389 9.44 191.077 10.8 191.077 12.368C191.077 15.28 189.541 17.568 186.469 19.232C187.813 20.096 188.677 21.456 189.061 23.312C189.221 24.08 189.509 24.624 189.925 24.944C190.373 25.232 191.189 25.376 192.373 25.376H193.381C193.381 25.408 193.365 25.568 193.333 25.856C193.333 26.144 193.333 26.32 193.333 26.384C193.173 28.464 192.405 30.384 191.029 32.144C189.653 33.904 187.909 34.784 185.797 34.784C184.453 34.784 183.269 34.4 182.245 33.632C182.213 33.632 182.149 33.584 182.053 33.488C181.957 33.392 181.893 33.344 181.861 33.344V32.864C181.861 30.272 181.717 28.336 181.429 27.056C181.173 25.776 180.661 24.688 179.893 23.792C180.085 25.616 180.181 27.904 180.181 30.656C180.181 31.392 179.957 32.032 179.509 32.576C179.061 33.152 178.437 33.44 177.637 33.44C174.661 33.44 171.893 33.184 169.333 32.672L168.421 32.48ZM190.943 12.896C190.943 14.048 191.135 15.12 191.519 16.112C192.671 15.376 193.999 15.008 195.503 15.008C196.527 15.008 197.535 15.12 198.527 15.344C198.143 17.648 197.951 20.336 197.951 23.408C197.951 24.304 197.983 25.232 198.047 26.192C198.143 27.152 198.255 28.192 198.383 29.312C198.511 30.432 198.607 31.36 198.671 32.096C199.983 32.32 201.583 32.432 203.471 32.432C204.367 32.432 205.151 32.224 205.823 31.808C206.495 31.36 206.831 30.704 206.831 29.84C206.831 29.072 206.687 27.68 206.399 25.664C206.143 23.648 205.983 21.92 205.919 20.48C205.919 19.968 205.887 19.024 205.823 17.648C205.791 16.24 205.759 15.2 205.727 14.528C206.175 14.56 207.007 14.672 208.223 14.864C209.471 15.024 210.463 15.104 211.199 15.104C212.767 15.104 213.679 14.624 213.935 13.664C214.511 11.456 214.799 9.408 214.799 7.52C214.799 6.912 214.495 6.608 213.887 6.608C213.311 6.608 212.367 6.72 211.055 6.944C209.775 7.136 208.719 7.232 207.887 7.232C206.543 7.232 204.655 7.072 202.223 6.752C199.823 6.432 198.015 6.256 196.799 6.224C193.887 6.224 192.207 6.816 191.759 8C191.215 9.44 190.943 11.072 190.943 12.896ZM190.319 13.28C190.319 11.008 190.575 9.2 191.087 7.856C191.695 6.256 193.727 5.456 197.183 5.456C198.527 5.488 200.383 5.696 202.751 6.08C205.151 6.464 206.991 6.656 208.271 6.656C209.007 6.656 210.015 6.56 211.295 6.368C212.575 6.144 213.567 6.032 214.271 6.032C214.783 6.032 215.215 6.192 215.567 6.512C215.951 6.864 216.143 7.328 216.143 7.904C216.143 9.6 215.839 11.712 215.231 14.24C214.847 15.712 213.631 16.448 211.583 16.448C210.815 16.448 209.311 16.288 207.071 15.968C207.103 16.608 207.135 17.488 207.167 18.608C207.231 19.728 207.263 20.48 207.263 20.864C207.327 22.24 207.487 23.936 207.743 25.952C208.031 27.936 208.175 29.36 208.175 30.224C208.175 31.408 207.727 32.288 206.831 32.864C205.935 33.472 204.943 33.776 203.855 33.776C201.871 33.776 200.207 33.664 198.863 33.44L198.143 33.296L198.095 32.576C198.031 31.904 197.935 30.992 197.807 29.84C197.679 28.688 197.567 27.632 197.471 26.672C197.407 25.68 197.375 24.72 197.375 23.792C197.375 20.944 197.519 18.512 197.807 16.496C197.135 16.4 196.495 16.352 195.887 16.352C194.479 16.352 193.327 16.656 192.431 17.264L191.423 17.936L190.991 16.832C190.543 15.648 190.319 14.464 190.319 13.28ZM27.0458 58.24C27.0458 61.024 27.9578 63.264 29.7818 64.96C31.6058 66.656 33.8458 67.504 36.5018 67.504C39.7658 67.504 42.6938 66.32 45.2858 63.952C44.9978 63.344 44.6778 62.896 44.3258 62.608C43.4618 63.44 42.3578 64.112 41.0138 64.624C39.7018 65.136 38.4218 65.392 37.1738 65.392C35.9258 65.392 34.9178 65.104 34.1498 64.528C33.3818 63.92 32.9978 62.992 32.9978 61.744C32.9978 60.688 33.3818 59.808 34.1498 59.104C34.9498 58.368 35.9098 58 37.0298 58C38.8218 58 40.5818 58.64 42.3098 59.92C42.7578 57.68 43.2538 55.6 43.7978 53.68C44.0218 52.88 44.4058 51.84 44.9498 50.56C45.5258 49.28 45.8938 48.448 46.0538 48.064H45.8618C45.6378 48.768 45.1578 49.392 44.4218 49.936C43.6858 50.48 42.9818 50.752 42.3098 50.752C41.3178 50.752 40.1338 50.592 38.7578 50.272C37.3818 49.952 36.1978 49.792 35.2058 49.792C33.0298 49.792 31.1258 50.672 29.4938 52.432C27.8618 54.16 27.0458 56.096 27.0458 58.24ZM26.4698 58.576C26.4698 55.888 27.3018 53.648 28.9658 51.856C30.6298 50.064 32.8058 49.168 35.4938 49.168C36.5818 49.168 37.8298 49.344 39.2378 49.696C40.6458 50.016 41.7978 50.176 42.6938 50.176C43.1098 50.176 43.6058 49.984 44.1818 49.6C44.7578 49.184 45.1418 48.688 45.3338 48.112C45.3658 48.048 45.4138 47.92 45.4778 47.728L45.5258 47.488H47.6378C46.4218 50.304 45.5738 52.592 45.0938 54.352C44.4858 56.368 44.0058 58.4 43.6538 60.448C43.5898 60.608 43.4938 61.104 43.3658 61.936C42.8858 61.616 42.4858 61.328 42.1658 61.072C40.6298 59.92 39.0458 59.344 37.4138 59.344C36.5498 59.344 35.8138 59.616 35.2058 60.16C34.6298 60.704 34.3418 61.36 34.3418 62.128C34.3418 63.92 35.4138 64.816 37.5578 64.816C38.7098 64.816 39.8778 64.576 41.0618 64.096C42.2778 63.616 43.2698 63.008 44.0378 62.272C44.3578 61.952 44.5658 61.76 44.6618 61.696L45.2858 62.224C45.6058 62.512 45.8778 62.8 46.1018 63.088C46.2618 63.344 46.4218 63.648 46.5818 64C46.6138 64.032 46.6618 64.128 46.7258 64.288C46.7898 64.416 46.8218 64.512 46.8218 64.576L46.3418 65.056C43.5898 67.584 40.4378 68.848 36.8858 68.848C33.9738 68.848 31.5098 67.904 29.4938 66.016C27.4778 64.128 26.4698 61.648 26.4698 58.576ZM47.6352 68.176C48.0192 68.304 48.4352 68.4 48.8832 68.464C49.3632 68.528 50.1472 68.624 51.2352 68.752C52.3552 68.848 53.4432 68.976 54.4992 69.136C54.8512 67.056 55.0432 65.264 55.0752 63.76C58.5312 63.664 60.3232 63.616 60.4512 63.616C60.3872 64.096 60.1952 64.784 59.8752 65.68C59.5872 66.576 59.4432 67.248 59.4432 67.696C59.4432 68.208 59.6192 68.624 59.9712 68.944C60.3232 69.232 60.7552 69.376 61.2672 69.376C63.2832 69.376 65.3632 69.568 67.5072 69.952C67.5072 69.76 67.3952 68.496 67.1712 66.16C66.9472 63.792 66.8352 61.936 66.8352 60.592C66.8352 56.656 67.3792 52.688 68.4672 48.688C66.2912 47.984 64.3712 47.632 62.7072 47.632C62.0352 47.632 61.4912 47.84 61.0752 48.256C60.6592 48.672 60.4512 49.232 60.4512 49.936V58.48C60.0032 58.512 59.2832 58.608 58.2912 58.768C57.2992 58.896 56.6112 58.96 56.2272 58.96C55.9392 58.96 55.6512 58.88 55.3632 58.72C55.0752 58.56 54.9312 58.368 54.9312 58.144C54.9312 56.768 55.4272 53.344 56.4192 47.872C53.7312 47.872 50.8512 48.464 47.7792 49.648C48.1312 52.368 48.3072 55.6 48.3072 59.344C48.3072 62.544 48.0832 65.488 47.6352 68.176ZM46.9632 69.184L47.1072 68.416C47.5232 65.92 47.7312 63.024 47.7312 59.728C47.7312 56.24 47.5392 53.056 47.1552 50.176C47.1552 50.144 47.1392 50 47.1072 49.744C47.0752 49.488 47.0592 49.344 47.0592 49.312L47.7792 49.072C51.0752 47.792 54.0832 47.152 56.8032 47.152H57.9552C57.9552 47.376 57.8912 47.808 57.7632 48.448C56.8032 53.664 56.3072 56.96 56.2752 58.336C56.3712 58.368 56.4832 58.384 56.6112 58.384C56.8672 58.384 57.4432 58.32 58.3392 58.192C59.2352 58.064 59.7472 58 59.8752 58C59.8752 57.2 59.8592 55.952 59.8272 54.256C59.8272 52.528 59.8272 51.184 59.8272 50.224C59.8272 49.264 60.1152 48.496 60.6912 47.92C61.2672 47.312 62.0352 47.008 62.9952 47.008C64.7232 47.008 66.7712 47.392 69.1392 48.16C69.3312 48.256 69.6192 48.352 70.0032 48.448C70.0032 48.512 69.9712 48.672 69.9072 48.928C69.8432 49.152 69.7952 49.296 69.7632 49.36C68.7072 53.168 68.1792 57.04 68.1792 60.976C68.1792 62.256 68.2912 64.08 68.5152 66.448C68.7392 68.784 68.8512 70.08 68.8512 70.336V71.488C68.5312 71.424 68.1472 71.36 67.6992 71.296C65.6192 70.912 63.6032 70.72 61.6512 70.72C60.8832 70.72 60.2272 70.48 59.6832 70C59.1392 69.488 58.8672 68.848 58.8672 68.08C58.8672 67.6 59.1072 66.592 59.5872 65.056C58.8512 65.088 57.7952 65.104 56.4192 65.104C56.3872 65.744 56.1792 67.264 55.7952 69.664C55.7952 69.728 55.7792 69.888 55.7472 70.144C55.7152 70.4 55.6832 70.56 55.6512 70.624C55.2672 70.528 54.9632 70.48 54.7392 70.48C53.8752 70.352 52.9952 70.24 52.0992 70.144C51.2032 70.048 50.5312 69.984 50.0832 69.952C49.6672 69.888 49.2512 69.824 48.8352 69.76C48.4192 69.664 48.0512 69.568 47.7312 69.472L46.9632 69.184ZM69.6574 51.52C70.7454 52.896 71.2894 55.488 71.2894 59.296C71.2894 60.032 71.1934 61.104 71.0014 62.512C70.8094 63.92 70.6174 65.2 70.4254 66.352C70.2334 67.472 70.1374 68.048 70.1374 68.08C70.7454 67.984 71.3854 67.936 72.0574 67.936C72.7614 67.936 73.5774 67.968 74.5054 68.032C75.4334 68.064 76.1854 68.08 76.7614 68.08C77.2734 68.08 77.6894 67.936 78.0094 67.648C78.3294 67.328 78.4894 66.912 78.4894 66.4C78.4894 66.272 78.3294 65.536 78.0094 64.192C77.6894 62.816 77.5294 61.952 77.5294 61.6C77.5294 60.672 77.6414 59.328 77.8654 57.568C78.0894 55.808 78.2014 54.224 78.2014 52.816C78.2014 52.112 77.9774 51.552 77.5294 51.136C77.1134 50.72 76.5694 50.512 75.8974 50.512C74.7134 50.512 72.6334 50.848 69.6574 51.52ZM70.9054 46.384C70.9054 47.152 71.1614 47.824 71.6734 48.4C72.1854 48.944 72.7934 49.216 73.4974 49.216C74.7134 49.216 75.7374 48.864 76.5694 48.16C77.4014 47.456 77.8174 46.544 77.8174 45.424C77.8174 43.792 76.7934 42.976 74.7454 42.976C73.6894 42.976 72.7774 43.296 72.0094 43.936C71.2734 44.544 70.9054 45.36 70.9054 46.384ZM68.6974 51.856L68.7454 51.232C70.9214 50.688 72.2174 50.384 72.6334 50.32C71.9614 50.032 71.4014 49.568 70.9534 48.928C70.5374 48.256 70.3294 47.536 70.3294 46.768C70.3294 45.488 70.7934 44.448 71.7214 43.648C72.6494 42.816 73.7854 42.4 75.1294 42.4C76.4414 42.4 77.4334 42.72 78.1054 43.36C78.8094 44 79.1614 44.816 79.1614 45.808C79.1614 47.728 78.2814 49.12 76.5214 49.984C77.3854 50.048 78.1054 50.384 78.6814 50.992C79.2574 51.568 79.5454 52.304 79.5454 53.2C79.5454 54.64 79.4334 56.256 79.2094 58.048C78.9854 59.808 78.8734 61.12 78.8734 61.984C78.8734 62.176 79.0334 62.944 79.3534 64.288C79.6734 65.6 79.8334 66.432 79.8334 66.784C79.8334 67.584 79.5614 68.224 79.0174 68.704C78.5054 69.184 77.8814 69.424 77.1454 69.424C76.5374 69.424 75.7534 69.408 74.7934 69.376C73.8334 69.312 73.0174 69.28 72.3454 69.28C71.7054 69.28 71.1134 69.328 70.5694 69.424L69.6094 69.568L69.5134 68.608C69.5134 68.352 69.7054 67.024 70.0894 64.624C70.5054 62.224 70.7134 60.576 70.7134 59.68C70.7134 58.144 70.6014 56.864 70.3774 55.84C70.1854 54.784 69.9774 54.032 69.7534 53.584C69.5294 53.104 69.1774 52.528 68.6974 51.856ZM80.1049 66.88C80.1049 67.2 80.2809 67.552 80.6329 67.936C80.9849 68.32 81.5289 68.656 82.2649 68.944C83.4169 69.168 85.0809 69.248 87.2569 69.184L90.6649 60.928C91.3369 63.232 92.5049 65.328 94.1689 67.216C96.2489 65.648 97.6889 63.76 98.4889 61.552C98.7769 62.576 99.3369 64.304 100.169 66.736C101.001 69.168 101.497 70.496 101.657 70.72C102.137 70.144 102.793 69.696 103.625 69.376C104.489 69.024 105.257 68.8 105.929 68.704C106.633 68.608 107.241 68.4 107.753 68.08C108.297 67.728 108.569 67.216 108.569 66.544C108.377 65.488 108.105 64.144 107.753 62.512C107.401 60.848 106.729 58.368 105.737 55.072C104.777 51.744 103.881 49.488 103.049 48.304C100.393 48.304 98.5689 48.352 97.5769 48.448L94.1689 55.12C94.0089 55.44 93.8809 55.488 93.7849 55.264C93.4969 54.816 92.9209 53.648 92.0569 51.76C91.1929 49.872 90.5369 48.784 90.0889 48.496L86.7769 48.592C85.6569 48.592 85.0489 48.768 84.9529 49.12C84.6009 50.08 83.7049 53.088 82.2649 58.144C80.8249 63.2 80.1049 66.112 80.1049 66.88ZM79.5289 67.264C79.5289 66.464 80.2009 63.68 81.5449 58.912C82.8889 54.144 83.8329 50.912 84.3769 49.216C84.4729 48.928 84.5369 48.752 84.5689 48.688C84.6009 48.624 84.8409 48.496 85.2889 48.304C85.7369 48.112 86.3609 48.016 87.1609 48.016C87.9929 48.016 88.6809 48.016 89.2249 48.016C89.7689 47.984 90.1369 47.968 90.3289 47.968C90.5529 47.936 90.6969 47.92 90.7609 47.92C91.1449 48.144 91.4809 48.448 91.7689 48.832C92.0569 49.216 92.2809 49.6 92.4409 49.984C92.6329 50.336 92.9049 50.928 93.2569 51.76C93.6409 52.56 93.9769 53.264 94.2649 53.872C96.0569 50.352 97.0649 48.352 97.2889 47.872C98.6329 47.776 100.857 47.728 103.961 47.728C104.985 49.2 105.993 51.536 106.985 54.736C107.977 57.936 108.713 60.768 109.193 63.232L109.913 66.928C109.913 67.824 109.625 68.528 109.049 69.04C108.505 69.52 107.865 69.824 107.129 69.952C106.393 70.048 105.593 70.24 104.729 70.528C103.865 70.816 103.225 71.216 102.809 71.728L102.041 72.688L101.273 71.68C101.017 71.36 100.153 68.976 98.6809 64.528C97.8169 65.904 96.3929 67.36 94.4089 68.896C92.9049 67.168 91.7849 65.536 91.0489 64L88.3129 70.48L87.6889 70.528C85.6089 70.592 83.8329 70.496 82.3609 70.24C81.4649 69.92 80.7609 69.488 80.2489 68.944C79.7689 68.4 79.5289 67.84 79.5289 67.264ZM117.046 56.56C117.046 55.792 117.174 55.072 117.43 54.4C118.006 54.4 118.55 54.496 119.062 54.688C119.606 54.848 119.878 55.136 119.878 55.552C119.878 56.128 119.606 56.624 119.062 57.04C118.518 57.456 117.878 57.664 117.142 57.664C117.078 57.216 117.046 56.848 117.046 56.56ZM109.126 68.176C109.126 69.456 110.326 70.096 112.726 70.096C114.102 70.096 115.334 69.808 116.422 69.232C117.094 67.888 117.43 66.208 117.43 64.192C117.43 62.944 117.366 61.6 117.238 60.16C118.39 60.448 119.83 60.592 121.558 60.592C124.118 60.592 126.454 59.76 128.566 58.096C130.71 56.4 131.782 54.096 131.782 51.184C131.782 49.136 130.966 47.456 129.334 46.144C127.734 44.8 125.782 44.128 123.478 44.128C121.91 44.128 119.766 44.672 117.046 45.76C114.358 46.848 112.102 47.504 110.278 47.728C109.99 47.792 109.846 48 109.846 48.352C109.846 49.664 109.942 51.328 110.134 53.344C110.358 55.328 110.47 57.056 110.47 58.528C110.47 59.68 110.358 61.024 110.134 62.56C109.91 64.064 109.686 65.36 109.462 66.448C109.238 67.504 109.126 68.08 109.126 68.176ZM118.39 56.944C118.966 56.688 119.27 56.4 119.302 56.08C119.046 55.952 118.774 55.872 118.486 55.84C118.422 56.128 118.39 56.496 118.39 56.944ZM108.55 68.56C108.55 68.432 108.662 67.824 108.886 66.736C109.11 65.616 109.334 64.32 109.558 62.848C109.782 61.344 109.894 60.032 109.894 58.912C109.894 57.504 109.782 55.808 109.558 53.824C109.366 51.808 109.27 50.112 109.27 48.736C109.27 47.808 109.638 47.28 110.374 47.152C112.198 46.928 114.47 46.272 117.19 45.184C119.942 44.064 122.166 43.504 123.862 43.504C126.39 43.504 128.566 44.272 130.39 45.808C132.214 47.312 133.126 49.232 133.126 51.568C133.126 54.768 131.958 57.296 129.622 59.152C127.286 61.008 124.726 61.936 121.942 61.936C120.63 61.936 119.542 61.872 118.678 61.744C118.742 62.512 118.774 63.456 118.774 64.576C118.774 66.752 118.406 68.576 117.67 70.048L117.526 70.336L117.238 70.48C116.054 71.12 114.678 71.44 113.11 71.44C111.414 71.44 110.23 71.152 109.558 70.576C108.886 70 108.55 69.328 108.55 68.56ZM146.745 63.664C146.745 63.216 146.889 62.832 147.177 62.512C147.497 62.192 147.881 62.032 148.329 62.032C148.777 62.032 149.161 62.128 149.481 62.32C149.801 62.512 149.961 62.768 149.961 63.088C149.961 63.504 149.817 63.872 149.529 64.192C149.273 64.48 148.937 64.624 148.521 64.624C148.041 64.624 147.625 64.528 147.273 64.336C146.921 64.144 146.745 63.92 146.745 63.664ZM143.481 60.88C143.481 64.144 144.361 66.224 146.121 67.12L145.545 67.408C146.025 68.048 146.729 68.56 147.657 68.944C148.585 69.328 149.513 69.52 150.441 69.52C153.417 69.52 155.833 68.816 157.689 67.408C159.545 65.968 160.473 64.016 160.473 61.552C160.473 59.504 159.481 57.744 157.497 56.272C155.513 54.8 153.129 54.064 150.345 54.064C148.681 54.064 147.209 54.72 145.929 56.032C144.681 57.312 143.865 58.928 143.481 60.88ZM148.089 63.856C148.345 63.984 148.617 64.048 148.905 64.048C149.225 64.048 149.385 63.888 149.385 63.568C149.257 63.44 149.033 63.376 148.713 63.376C148.361 63.376 148.153 63.536 148.089 63.856ZM142.905 61.264V61.168V61.072C143.353 58.736 144.265 56.896 145.641 55.552C147.049 54.176 148.745 53.488 150.729 53.488C153.737 53.488 156.329 54.304 158.505 55.936C160.713 57.536 161.817 59.536 161.817 61.936C161.817 64.624 160.809 66.784 158.793 68.416C156.809 70.048 154.153 70.864 150.825 70.864C149.801 70.864 148.745 70.64 147.657 70.192C146.601 69.776 145.769 69.168 145.161 68.368C144.681 67.728 144.425 67.392 144.393 67.36C144.425 67.36 144.457 67.36 144.489 67.36C144.553 67.328 144.601 67.296 144.633 67.264C143.481 65.952 142.905 63.952 142.905 61.264ZM169.452 56.56C169.452 55.792 169.58 55.072 169.836 54.4C170.412 54.4 170.956 54.496 171.468 54.688C172.012 54.848 172.284 55.136 172.284 55.552C172.284 56.128 172.012 56.624 171.468 57.04C170.924 57.456 170.284 57.664 169.548 57.664C169.484 57.216 169.452 56.848 169.452 56.56ZM161.532 68.176C161.532 69.456 162.732 70.096 165.132 70.096C166.508 70.096 167.74 69.808 168.828 69.232C169.5 67.888 169.836 66.208 169.836 64.192C169.836 62.944 169.772 61.6 169.644 60.16C170.796 60.448 172.236 60.592 173.964 60.592C176.524 60.592 178.86 59.76 180.972 58.096C183.116 56.4 184.188 54.096 184.188 51.184C184.188 49.136 183.372 47.456 181.74 46.144C180.14 44.8 178.188 44.128 175.884 44.128C174.316 44.128 172.172 44.672 169.452 45.76C166.764 46.848 164.508 47.504 162.684 47.728C162.396 47.792 162.252 48 162.252 48.352C162.252 49.664 162.348 51.328 162.54 53.344C162.764 55.328 162.876 57.056 162.876 58.528C162.876 59.68 162.764 61.024 162.54 62.56C162.316 64.064 162.092 65.36 161.868 66.448C161.644 67.504 161.532 68.08 161.532 68.176ZM170.796 56.944C171.372 56.688 171.676 56.4 171.708 56.08C171.452 55.952 171.18 55.872 170.892 55.84C170.828 56.128 170.796 56.496 170.796 56.944ZM160.956 68.56C160.956 68.432 161.068 67.824 161.292 66.736C161.516 65.616 161.74 64.32 161.964 62.848C162.188 61.344 162.3 60.032 162.3 58.912C162.3 57.504 162.188 55.808 161.964 53.824C161.772 51.808 161.676 50.112 161.676 48.736C161.676 47.808 162.044 47.28 162.78 47.152C164.604 46.928 166.876 46.272 169.596 45.184C172.348 44.064 174.572 43.504 176.268 43.504C178.796 43.504 180.972 44.272 182.796 45.808C184.62 47.312 185.532 49.232 185.532 51.568C185.532 54.768 184.364 57.296 182.028 59.152C179.692 61.008 177.132 61.936 174.348 61.936C173.036 61.936 171.948 61.872 171.084 61.744C171.148 62.512 171.18 63.456 171.18 64.576C171.18 66.752 170.812 68.576 170.076 70.048L169.932 70.336L169.644 70.48C168.46 71.12 167.084 71.44 165.516 71.44C163.82 71.44 162.636 71.152 161.964 70.576C161.292 70 160.956 69.328 160.956 68.56ZM185.257 69.088C185.801 69.184 186.505 69.344 187.369 69.568C188.233 69.792 189.017 69.968 189.721 70.096C190.457 70.256 191.177 70.336 191.881 70.336C194.025 70.336 195.849 69.68 197.353 68.368C198.889 67.056 199.657 65.472 199.657 63.616C199.657 62.464 199.305 61.44 198.601 60.544C197.897 59.648 196.969 59.024 195.817 58.672C194.249 58.192 193.369 57.808 193.177 57.52C193.113 57.392 193.081 57.28 193.081 57.184C193.081 56.896 193.305 56.752 193.753 56.752C194.681 56.752 195.513 56.864 196.249 57.088C196.665 54.016 197.433 51.44 198.553 49.36C195.289 48.72 192.857 48.4 191.257 48.4C189.817 48.4 188.553 48.816 187.465 49.648C186.377 50.48 185.833 51.472 185.833 52.624C185.833 54.32 186.505 55.888 187.849 57.328C189.225 58.8 189.913 60.368 189.913 62.032C189.913 62.64 189.721 63.168 189.337 63.616C188.953 64.032 188.489 64.24 187.945 64.24C187.689 64.24 187.433 64.192 187.177 64.096C186.921 63.968 186.633 63.808 186.313 63.616C185.993 63.392 185.737 63.232 185.545 63.136L185.257 69.088ZM184.633 70.24L184.969 63.472C184.969 63.376 184.985 63.136 185.017 62.752C185.049 62.336 185.065 62.08 185.065 61.984L186.409 62.656C186.633 62.784 186.889 62.944 187.177 63.136C187.465 63.296 187.689 63.424 187.849 63.52C188.041 63.616 188.201 63.664 188.329 63.664C188.585 63.664 188.809 63.552 189.001 63.328C189.225 63.072 189.337 62.768 189.337 62.416C189.337 61.072 188.729 59.728 187.513 58.384C186.009 56.752 185.257 54.96 185.257 53.008C185.257 51.344 185.881 50.064 187.129 49.168C188.409 48.272 189.913 47.824 191.641 47.824C193.337 47.824 195.833 48.144 199.129 48.784C199.225 48.816 199.449 48.88 199.801 48.976C200.153 49.04 200.361 49.072 200.425 49.072C200.393 49.168 200.297 49.36 200.137 49.648C199.977 49.936 199.865 50.112 199.801 50.176C198.681 52.256 197.945 54.736 197.593 57.616C197.593 57.648 197.561 57.792 197.497 58.048C197.465 58.304 197.449 58.464 197.449 58.528C198.537 59.072 199.401 59.824 200.041 60.784C200.681 61.744 201.001 62.816 201.001 64C201.001 66.144 200.137 67.968 198.409 69.472C196.681 70.944 194.633 71.68 192.265 71.68C191.497 71.68 190.777 71.616 190.105 71.488C189.433 71.36 188.633 71.184 187.705 70.96C186.809 70.736 186.057 70.56 185.449 70.432L184.633 70.24Z" fill="white"/>
</svg>
