<svg width="168" height="68" viewBox="0 0 168 68" fill="none" xmlns="http://www.w3.org/2000/svg">
<path d="M39.5 31C39.5 35.911 35.3043 37.1694 30.6232 39.0001C25.8607 39.0001 22.5 35.9114 22.5 31.0003C22.5 26.0893 26.5 23.5 30.6232 23.5C35.5 24.5 39.5 26.089 39.5 31Z" fill="#FDDA21"/>
<path d="M2 24L7.22498 24.2698L14.4501 22H16.5L18.4341 22.2124L20 23L21.3714 24.3754L22.5809 26.8711L21.3714 31.0793L17.9157 34.0256L20.127 36.3048V38.3931L21.9998 40.5H24.4998L24.9998 41.18L22.5809 47.6689L18.4341 49L14.4998 48.5V44L13.4998 39.5L11.8683 38.1851H10.8316L11.4998 45L10.8316 47.6689L1 47L2.5 41.5L3 35.5L2.5 28.5L2 24Z" fill="#FDDA21"/>
<path d="M122.5 27.0001L124 25.5001L126 25.0001L128.5 24.5H131L133.165 29.1064L138.461 35.7447L143 42.6383L142.748 47.2341L139.47 48.0001L131.652 47.2341L130.391 43.4043L127.365 41.1064L123.078 41.3618L122.07 47.2341L118.539 48.0001L115.261 47.2341L114.5 46.5001L114 45.4469L114.252 44.1703L115.009 43.6596L118.5 41.0001L119.5 39.0001L121 36.0001L122 32.5001L122.5 28.5001V27.0001Z" fill="#FDDA21"/>
<path d="M41.2783 26.2979L44.5 24.5001L46.8636 24.2554L49.5 24.5L56.6174 35.7447L59 39.0001L61 42.6383L61.5 45L60.7565 47.2341L57.5913 48.0001L50.1324 47.2341L48.8261 43.4043L45.9043 41.1064L42.2522 41.3618L40.7913 47.2341L37.3826 48.0001L34.2174 47.2341L33.5 46.5L33 45.4469L33.2435 44.1703L33.9739 43.6596L36.5 41.5L38.113 39.5745L40.5478 32.9362L41.2783 28.5958V26.2979Z" fill="#FDDA21"/>
<path d="M144.5 24.7156L148.691 23.7469L154.831 21.338L158.097 21H160.5L162.775 21.6755L167 25.5566L166.662 31.294L164.634 34.8377L161.591 37.0314L157.366 38.0439H152.972L151.789 45.975L148.915 48L145.535 47.6625L144.37 47L143.861 45L144.5 40.5L145 35.5L144.5 29V24.7156Z" fill="#FDDA21"/>
<path d="M62.5 28L71.9574 25.4944L77.0638 25L82.9362 27.4719L86 33.8989L84.7234 39.3371L84 42L82.1702 44.2809L79.5 46.5L76.2979 47L68.383 46.5056L63 47V38.5L62.5 28Z" fill="#FDDA21"/>
<path d="M90.5 26L91.6098 25.25H95.9319L98 27.5L99.4912 31.5H100L103.305 25H109.661L113.728 37.5L115 45L107.118 48L103.813 40.25L100 45L96.1861 39.5L93.3895 46.5H87.7963L85.5 44.75L86 42.5L86.5 39L89 30L90.5 26Z" fill="#FDDA21"/>
<path d="M9.736 30.584C10.728 30.584 11.544 30.664 12.184 30.824C12.856 30.984 13.192 31.192 13.192 31.448C13.192 31.864 13.048 32.2 12.76 32.456C12.504 32.68 12.168 32.856 11.752 32.984C11.368 33.112 10.888 33.224 10.312 33.32C10.152 33.352 10.04 33.368 9.976 33.368L9.736 30.584ZM1 46.328C3.464 46.84 6.168 47.096 9.112 47.096C9.624 47.096 10.008 46.92 10.264 46.568C10.552 46.216 10.696 45.784 10.696 45.272C10.696 41.912 10.488 38.84 10.072 36.056C11.8 37.304 12.936 38.68 13.48 40.184C14.024 41.656 14.296 44.088 14.296 47.48C15.16 48.12 16.152 48.44 17.272 48.44C19.096 48.44 20.616 47.656 21.832 46.088C23.048 44.52 23.72 42.808 23.848 40.952C22.504 40.952 21.512 40.744 20.872 40.328C20.232 39.912 19.8 39.176 19.576 38.12C19.32 36.872 18.808 35.88 18.04 35.144C17.272 34.376 16.264 33.992 15.016 33.992C17 33.448 18.584 32.568 19.768 31.352C20.984 30.104 21.592 28.648 21.592 26.984C21.592 25.672 21 24.536 19.816 23.576C18.664 22.584 17.272 22.088 15.64 22.088C14.392 22.088 12.824 22.52 10.936 23.384C9.048 24.216 7.48 24.632 6.232 24.632C5.752 24.632 5.304 24.616 4.888 24.584C4.472 24.52 4.008 24.456 3.496 24.392C2.984 24.328 2.536 24.28 2.152 24.248C2.216 25.208 2.312 26.408 2.44 27.848C2.568 29.256 2.664 30.52 2.728 31.64C2.824 32.76 2.872 33.96 2.872 35.24C2.872 36.52 2.776 37.736 2.584 38.888C2.392 40.04 2.12 41.32 1.768 42.728C1.416 44.104 1.16 45.304 1 46.328ZM0.28 47.48L0.424 46.568C0.616 45.512 0.872 44.28 1.192 42.872C1.544 41.464 1.816 40.216 2.008 39.128C2.2 38.04 2.296 36.872 2.296 35.624C2.296 34.376 2.248 33.192 2.152 32.072C2.088 30.952 1.992 29.688 1.864 28.28C1.736 26.872 1.64 25.672 1.576 24.68C1.576 24.584 1.56 24.392 1.528 24.104C1.496 23.816 1.48 23.64 1.48 23.576C1.544 23.576 1.736 23.592 2.056 23.624C2.376 23.656 2.568 23.672 2.632 23.672C2.984 23.704 3.592 23.784 4.456 23.912C5.32 24.008 6.04 24.056 6.616 24.056C7.704 24.056 9.208 23.64 11.128 22.808C13.048 21.944 14.68 21.512 16.024 21.512C17.88 21.512 19.496 22.104 20.872 23.288C22.248 24.44 22.936 25.8 22.936 27.368C22.936 30.28 21.4 32.568 18.328 34.232C19.672 35.096 20.536 36.456 20.92 38.312C21.08 39.08 21.368 39.624 21.784 39.944C22.232 40.232 23.048 40.376 24.232 40.376H25.24C25.24 40.408 25.224 40.568 25.192 40.856C25.192 41.144 25.192 41.32 25.192 41.384C25.032 43.464 24.264 45.384 22.888 47.144C21.512 48.904 19.768 49.784 17.656 49.784C16.312 49.784 15.128 49.4 14.104 48.632C14.072 48.632 14.008 48.584 13.912 48.488C13.816 48.392 13.752 48.344 13.72 48.344V47.864C13.72 45.272 13.576 43.336 13.288 42.056C13.032 40.776 12.52 39.688 11.752 38.792C11.944 40.616 12.04 42.904 12.04 45.656C12.04 46.392 11.816 47.032 11.368 47.576C10.92 48.152 10.296 48.44 9.496 48.44C6.52 48.44 3.752 48.184 1.192 47.672L0.28 47.48ZM25.7373 32.984C25.7373 32.6 25.8653 32.264 26.1213 31.976C26.4093 31.688 26.7293 31.544 27.0813 31.544C27.4653 31.544 27.7853 31.64 28.0413 31.832C28.3293 31.992 28.4733 32.184 28.4733 32.408C28.4733 32.76 28.3453 33.064 28.0893 33.32C27.8653 33.544 27.5933 33.656 27.2733 33.656C26.2493 33.656 25.7373 33.432 25.7373 32.984ZM22.4733 30.2C22.4733 33.464 23.3533 35.544 25.1133 36.44L24.5373 36.728C25.1453 37.56 26.4413 37.976 28.4253 37.976C31.3053 37.976 33.7053 37.336 35.6253 36.056C37.5453 34.744 38.5053 33.016 38.5053 30.872C38.5053 28.888 37.6093 27.224 35.8173 25.88C34.0253 24.536 31.7053 23.864 28.8573 23.864C27.3213 23.864 25.9613 24.472 24.7773 25.688C23.5933 26.872 22.8253 28.376 22.4733 30.2ZM21.8972 30.584V30.488V30.392C22.8573 25.656 25.3053 23.288 29.2413 23.288C32.2813 23.288 34.8093 24.04 36.8253 25.544C38.8413 27.048 39.8493 28.952 39.8493 31.256C39.8493 33.752 38.7613 35.72 36.5853 37.16C34.4413 38.6 31.8493 39.32 28.8093 39.32C26.5053 39.32 24.9533 38.776 24.1533 37.688L23.3853 36.68L23.6253 36.584C22.4733 35.24 21.8972 33.24 21.8972 30.584ZM41.7138 36.2C41.7138 35.592 41.8578 35.048 42.1458 34.568C42.4658 34.088 42.8818 33.8 43.3938 33.704L46.5618 38.552L46.3698 38.648C45.9538 38.264 45.6338 38.04 45.4098 37.976C44.9938 37.88 44.4818 37.8 43.8738 37.736C43.2978 37.64 42.8818 37.56 42.6258 37.496C42.4018 37.432 42.1938 37.304 42.0018 37.112C41.8098 36.92 41.7138 36.616 41.7138 36.2ZM32.6898 45.224C32.6898 45.832 33.0418 46.36 33.7458 46.808C34.4498 47.256 35.3138 47.48 36.3378 47.48C37.4258 47.48 38.3538 47.288 39.1218 46.904C39.8898 46.52 40.2738 46.072 40.2738 45.56C40.2738 43.192 40.3858 41.512 40.6098 40.52C43.6818 40.616 45.6978 40.872 46.6578 41.288C47.6498 41.672 48.5298 42.744 49.2978 44.504C49.7458 45.656 49.9858 46.456 50.0178 46.904C50.8178 46.968 52.0338 47.096 53.6658 47.288C55.2978 47.512 56.6898 47.624 57.8418 47.624C58.5778 47.624 59.2338 47.352 59.8098 46.808C60.4178 46.232 60.7218 45.704 60.7218 45.224C60.7218 44.104 60.3538 42.808 59.6178 41.336C58.9138 39.864 58.1458 38.584 57.3138 37.496C56.5138 36.376 55.3618 34.872 53.8578 32.984C52.3538 31.064 51.2498 29.624 50.5458 28.664C49.6178 27.352 49.0898 26.104 48.9618 24.92C47.0738 24.664 45.6178 24.664 44.5938 24.92C43.5698 25.144 42.4178 25.752 41.1378 26.744C41.1378 31.48 39.8898 36.04 37.3938 40.424C37.0418 41.032 36.1618 41.832 34.7538 42.824C33.3778 43.784 32.6898 44.584 32.6898 45.224ZM43.0578 36.584C43.0578 36.648 43.0578 36.712 43.0578 36.776L43.1058 36.872C43.2658 36.968 43.7778 37.064 44.6418 37.16C44.5778 37.064 44.4498 36.872 44.2578 36.584C44.0658 36.296 43.8898 36.04 43.7298 35.816C43.5698 35.56 43.4738 35.4 43.4418 35.336C43.1858 35.688 43.0578 36.104 43.0578 36.584ZM32.1137 45.608C32.1137 44.808 32.4177 44.12 33.0258 43.544C33.6658 42.936 34.3858 42.36 35.1858 41.816C36.0178 41.24 36.5778 40.712 36.8658 40.232C39.2978 35.976 40.5138 31.608 40.5138 27.128V26.504C41.6338 25.64 42.6258 25.032 43.4898 24.68C44.3538 24.296 45.4738 24.104 46.8498 24.104C47.2978 24.104 48.4178 24.232 50.2098 24.488C50.2098 24.52 50.2258 24.632 50.2578 24.824C50.2898 25.016 50.3058 25.144 50.3058 25.208C50.4338 26.296 50.8978 27.384 51.6978 28.472C52.4338 29.496 53.5858 31 55.1538 32.984C56.7218 34.968 57.9058 36.504 58.7058 37.592C59.5058 38.68 60.2578 39.992 60.9618 41.528C61.6978 43.032 62.0658 44.392 62.0658 45.608C62.0658 46.344 61.6658 47.08 60.8658 47.816C60.0978 48.584 59.2178 48.968 58.2258 48.968C57.0098 48.968 55.5698 48.856 53.9058 48.632C52.2738 48.408 51.0898 48.28 50.3538 48.248L49.5378 48.2C49.5378 48.168 49.5218 48.04 49.4898 47.816C49.4578 47.592 49.4418 47.448 49.4418 47.384C49.3778 46.872 49.1698 46.152 48.8178 45.224C48.1778 43.752 47.4738 42.856 46.7057 42.536C45.9698 42.216 44.3218 42.008 41.7618 41.912C41.6658 42.424 41.6178 43.768 41.6178 45.944C41.6178 46.776 41.1378 47.464 40.1778 48.008C39.2178 48.552 38.0658 48.824 36.7218 48.824C35.4738 48.824 34.3858 48.52 33.4578 47.912C32.5617 47.304 32.1137 46.536 32.1137 45.608ZM69.5271 38.696C69.5271 37.8 69.6871 36.968 70.0071 36.2C70.8391 36.2 71.4951 36.408 71.9751 36.824C72.4871 37.24 72.7431 37.8 72.7431 38.504C72.7431 39.112 72.4231 39.656 71.7831 40.136C71.1751 40.584 70.4871 40.84 69.7191 40.904C69.5911 39.88 69.5271 39.144 69.5271 38.696ZM62.4231 28.52C62.4231 29.384 62.4711 31.48 62.5671 34.808C62.6951 38.104 62.7591 40.6 62.7591 42.296C62.7591 43.896 62.7111 45.224 62.6151 46.28C63.9591 46.088 65.2231 45.992 66.4071 45.992C67.1751 45.992 68.3111 46.136 69.8151 46.424C71.3511 46.68 72.7911 46.808 74.1351 46.808C77.2071 46.808 79.7511 45.672 81.7671 43.4C83.8151 41.128 84.8391 38.296 84.8391 34.904C84.8391 32.344 83.9271 30.152 82.1031 28.328C80.3111 26.504 78.1351 25.592 75.5751 25.592C73.9431 25.592 71.8151 25.928 69.1911 26.6C66.5991 27.272 64.4871 27.704 62.8551 27.896C62.5671 27.96 62.4231 28.168 62.4231 28.52ZM70.8711 39.08C70.8711 39.432 70.8871 39.784 70.9191 40.136C71.7511 39.784 72.1671 39.368 72.1671 38.888C72.1671 38.216 71.7991 37.8 71.0631 37.64C70.9351 38.216 70.8711 38.696 70.8711 39.08ZM61.7991 28.904C61.7991 28.392 61.8791 28.008 62.0391 27.752C62.2311 27.496 62.5831 27.336 63.0951 27.272C64.6951 27.048 66.7911 26.616 69.3831 25.976C72.0071 25.304 74.1991 24.968 75.9591 24.968C78.7751 24.968 81.1751 25.976 83.1591 27.992C85.1751 30.008 86.1831 32.44 86.1831 35.288C86.1831 38.904 85.0791 41.96 82.8711 44.456C80.6631 46.92 77.8791 48.152 74.5191 48.152C73.1111 48.152 71.6391 48.008 70.1031 47.72C68.5991 47.464 67.4951 47.336 66.7911 47.336C65.6391 47.336 64.4231 47.432 63.1431 47.624L61.9431 47.768L62.0391 46.616C62.1351 45.08 62.1831 43.768 62.1831 42.68C62.1831 41.016 62.1191 38.536 61.9911 35.24C61.8631 31.912 61.7991 29.8 61.7991 28.904ZM85.3784 43.88C85.3784 44.2 85.5544 44.552 85.9064 44.936C86.2584 45.32 86.8024 45.656 87.5384 45.944C88.6904 46.168 90.3544 46.248 92.5304 46.184L95.9384 37.928C96.6104 40.232 97.7784 42.328 99.4424 44.216C101.522 42.648 102.962 40.76 103.762 38.552C104.05 39.576 104.61 41.304 105.442 43.736C106.274 46.168 106.77 47.496 106.93 47.72C107.41 47.144 108.066 46.696 108.898 46.376C109.762 46.024 110.53 45.8 111.202 45.704C111.906 45.608 112.514 45.4 113.026 45.08C113.57 44.728 113.842 44.216 113.842 43.544C113.65 42.488 113.378 41.144 113.026 39.512C112.674 37.848 112.002 35.368 111.01 32.072C110.05 28.744 109.154 26.488 108.322 25.304C105.666 25.304 103.842 25.352 102.85 25.448L99.4424 32.12C99.2824 32.44 99.1544 32.488 99.0584 32.264C98.7704 31.816 98.1944 30.648 97.3304 28.76C96.4664 26.872 95.8104 25.784 95.3624 25.496L92.0504 25.592C90.9304 25.592 90.3224 25.768 90.2264 26.12C89.8744 27.08 88.9784 30.088 87.5384 35.144C86.0984 40.2 85.3784 43.112 85.3784 43.88ZM84.8024 44.264C84.8024 43.464 85.4744 40.68 86.8184 35.912C88.1624 31.144 89.1064 27.912 89.6504 26.216C89.7464 25.928 89.8104 25.752 89.8424 25.688C89.8744 25.624 90.1144 25.496 90.5624 25.304C91.0104 25.112 91.6344 25.016 92.4344 25.016C93.2664 25.016 93.9544 25.016 94.4984 25.016C95.0424 24.984 95.4104 24.968 95.6024 24.968C95.8264 24.936 95.9704 24.92 96.0344 24.92C96.4184 25.144 96.7544 25.448 97.0424 25.832C97.3304 26.216 97.5544 26.6 97.7144 26.984C97.9064 27.336 98.1784 27.928 98.5304 28.76C98.9144 29.56 99.2504 30.264 99.5384 30.872C101.33 27.352 102.338 25.352 102.562 24.872C103.906 24.776 106.13 24.728 109.234 24.728C110.258 26.2 111.266 28.536 112.258 31.736C113.25 34.936 113.986 37.768 114.466 40.232L115.186 43.928C115.186 44.824 114.898 45.528 114.322 46.04C113.778 46.52 113.138 46.824 112.402 46.952C111.666 47.048 110.866 47.24 110.002 47.528C109.138 47.816 108.498 48.216 108.082 48.728L107.314 49.688L106.546 48.68C106.29 48.36 105.426 45.976 103.954 41.528C103.09 42.904 101.666 44.36 99.6824 45.896C98.1784 44.168 97.0584 42.536 96.3224 41L93.5864 47.48L92.9624 47.528C90.8824 47.592 89.1064 47.496 87.6344 47.24C86.7384 46.92 86.0344 46.488 85.5224 45.944C85.0424 45.4 84.8024 44.84 84.8024 44.264ZM123.136 36.2C123.136 35.592 123.28 35.048 123.568 34.568C123.888 34.088 124.304 33.8 124.816 33.704L127.984 38.552L127.792 38.648C127.376 38.264 127.056 38.04 126.832 37.976C126.416 37.88 125.904 37.8 125.296 37.736C124.72 37.64 124.304 37.56 124.048 37.496C123.824 37.432 123.616 37.304 123.424 37.112C123.232 36.92 123.136 36.616 123.136 36.2ZM114.112 45.224C114.112 45.832 114.464 46.36 115.168 46.808C115.872 47.256 116.736 47.48 117.76 47.48C118.848 47.48 119.776 47.288 120.544 46.904C121.312 46.52 121.696 46.072 121.696 45.56C121.696 43.192 121.808 41.512 122.032 40.52C125.104 40.616 127.12 40.872 128.08 41.288C129.072 41.672 129.952 42.744 130.72 44.504C131.168 45.656 131.408 46.456 131.44 46.904C132.24 46.968 133.456 47.096 135.088 47.288C136.72 47.512 138.112 47.624 139.264 47.624C140 47.624 140.656 47.352 141.232 46.808C141.84 46.232 142.144 45.704 142.144 45.224C142.144 44.104 141.776 42.808 141.04 41.336C140.336 39.864 139.568 38.584 138.736 37.496C137.936 36.376 136.784 34.872 135.28 32.984C133.776 31.064 132.672 29.624 131.968 28.664C131.04 27.352 130.512 26.104 130.384 24.92C128.496 24.664 127.04 24.664 126.016 24.92C124.992 25.144 123.84 25.752 122.56 26.744C122.56 31.48 121.312 36.04 118.816 40.424C118.464 41.032 117.584 41.832 116.176 42.824C114.8 43.784 114.112 44.584 114.112 45.224ZM124.48 36.584C124.48 36.648 124.48 36.712 124.48 36.776L124.528 36.872C124.688 36.968 125.2 37.064 126.064 37.16C126 37.064 125.872 36.872 125.68 36.584C125.488 36.296 125.312 36.04 125.152 35.816C124.992 35.56 124.896 35.4 124.864 35.336C124.608 35.688 124.48 36.104 124.48 36.584ZM113.536 45.608C113.536 44.808 113.84 44.12 114.448 43.544C115.088 42.936 115.808 42.36 116.608 41.816C117.44 41.24 118 40.712 118.288 40.232C120.72 35.976 121.936 31.608 121.936 27.128V26.504C123.056 25.64 124.048 25.032 124.912 24.68C125.776 24.296 126.896 24.104 128.272 24.104C128.72 24.104 129.84 24.232 131.632 24.488C131.632 24.52 131.648 24.632 131.68 24.824C131.712 25.016 131.728 25.144 131.728 25.208C131.856 26.296 132.32 27.384 133.12 28.472C133.856 29.496 135.008 31 136.576 32.984C138.144 34.968 139.328 36.504 140.128 37.592C140.928 38.68 141.68 39.992 142.384 41.528C143.12 43.032 143.488 44.392 143.488 45.608C143.488 46.344 143.088 47.08 142.288 47.816C141.52 48.584 140.64 48.968 139.648 48.968C138.432 48.968 136.992 48.856 135.328 48.632C133.696 48.408 132.512 48.28 131.776 48.248L130.96 48.2C130.96 48.168 130.944 48.04 130.912 47.816C130.88 47.592 130.864 47.448 130.864 47.384C130.8 46.872 130.592 46.152 130.24 45.224C129.6 43.752 128.896 42.856 128.128 42.536C127.392 42.216 125.744 42.008 123.184 41.912C123.088 42.424 123.04 43.768 123.04 45.944C123.04 46.776 122.56 47.464 121.6 48.008C120.64 48.552 119.488 48.824 118.144 48.824C116.896 48.824 115.808 48.52 114.88 47.912C113.984 47.304 113.536 46.536 113.536 45.608ZM151.429 33.56C151.429 32.792 151.557 32.072 151.813 31.4C152.389 31.4 152.933 31.496 153.445 31.688C153.989 31.848 154.261 32.136 154.261 32.552C154.261 33.128 153.989 33.624 153.445 34.04C152.901 34.456 152.261 34.664 151.525 34.664C151.461 34.216 151.429 33.848 151.429 33.56ZM143.509 45.176C143.509 46.456 144.709 47.096 147.109 47.096C148.485 47.096 149.717 46.808 150.805 46.232C151.477 44.888 151.813 43.208 151.813 41.192C151.813 39.944 151.749 38.6 151.621 37.16C152.773 37.448 154.213 37.592 155.941 37.592C158.501 37.592 160.837 36.76 162.949 35.096C165.093 33.4 166.165 31.096 166.165 28.184C166.165 26.136 165.349 24.456 163.717 23.144C162.117 21.8 160.165 21.128 157.861 21.128C156.293 21.128 154.149 21.672 151.429 22.76C148.741 23.848 146.485 24.504 144.661 24.728C144.373 24.792 144.229 25 144.229 25.352C144.229 26.664 144.325 28.328 144.517 30.344C144.741 32.328 144.853 34.056 144.853 35.528C144.853 36.68 144.741 38.024 144.517 39.56C144.293 41.064 144.069 42.36 143.845 43.448C143.621 44.504 143.509 45.08 143.509 45.176ZM152.773 33.944C153.349 33.688 153.653 33.4 153.685 33.08C153.429 32.952 153.157 32.872 152.869 32.84C152.805 33.128 152.773 33.496 152.773 33.944ZM142.933 45.56C142.933 45.432 143.045 44.824 143.269 43.736C143.493 42.616 143.717 41.32 143.941 39.848C144.165 38.344 144.277 37.032 144.277 35.912C144.277 34.504 144.165 32.808 143.941 30.824C143.749 28.808 143.653 27.112 143.653 25.736C143.653 24.808 144.021 24.28 144.757 24.152C146.581 23.928 148.853 23.272 151.573 22.184C154.325 21.064 156.549 20.504 158.245 20.504C160.773 20.504 162.949 21.272 164.773 22.808C166.597 24.312 167.509 26.232 167.509 28.568C167.509 31.768 166.341 34.296 164.005 36.152C161.669 38.008 159.109 38.936 156.325 38.936C155.013 38.936 153.925 38.872 153.061 38.744C153.125 39.512 153.157 40.456 153.157 41.576C153.157 43.752 152.789 45.576 152.053 47.048L151.909 47.336L151.621 47.48C150.437 48.12 149.061 48.44 147.493 48.44C145.797 48.44 144.613 48.152 143.941 47.576C143.269 47 142.933 46.328 142.933 45.56Z" fill="white"/>
</svg>
