<svg width="335" height="68" viewBox="0 0 335 68" fill="none" xmlns="http://www.w3.org/2000/svg">
<path d="M77.9688 29.0001C77.9688 38.3889 70.4688 40.0001 60.9688 43.5001C51.3038 43.5001 43.4688 38.3889 43.4688 29.0001C43.4688 19.6113 49.9688 12 60.9688 13.0001C69.9688 15.5001 77.9688 19.6113 77.9688 29.0001Z" fill="#FDDA21"/>
<path d="M3.46875 14L14.4688 14.5L28.4688 10L36.1884 10.4211L41.8799 14.7093L44.2235 19.6572L41.8799 28L35.184 33.8412L39.4688 42.5L43.5539 47.3654L48.9107 48.0252L44.2235 60.8897L36.1884 63.5286L27.8184 62L26.9688 52L25.4688 45.5L23.466 42.0877H21.4572L22.1268 54.2925L21.4572 60.8897L0.46875 59.5L2.96875 48.0252L4.46875 37L3.96875 24L3.46875 14Z" fill="#FDDA21"/>
<path d="M243.969 19.5L246.969 17L250.969 15.5L255.969 15L260.969 15.5L265.469 25L275.969 38L284.969 51.5L284.469 60.5L277.969 62L262.469 60.5L259.969 53L253.969 48.5L245.469 49L243.469 60.5L236.469 62L229.969 60.5L227.969 59.5L227.469 57L227.969 54.5L229.469 53.5L237.969 45L242.469 32.5L243.969 24V19.5Z" fill="#FDDA21"/>
<path d="M81.4688 19.5L87.9688 15.5L92.9688 15L97.9688 15.5L112.969 38L121.969 51.5L121.469 60.5L114.969 62L99.6514 60.5L96.9688 53L90.9688 48.5L83.4688 49L80.4688 60.5L73.4688 62L66.9688 60.5L64.4688 57L64.9688 54.5L66.4688 53.5L74.9688 45.5L79.9688 32.5L81.4688 24V19.5Z" fill="#FDDA21"/>
<path d="M287.463 15.4343L296.663 13.5L308.74 8.6767L315.163 8L324.364 9.35246L332.675 17.1237L332.01 28.6116L328.021 35.7071L322.037 40.0995L313.726 42.1268H305.083L302.756 58.0071L297.104 62.0617L290.455 61.3859L287.163 61L285.469 58.0071L288.163 38L287.163 24.5L287.463 15.4343Z" fill="#FDDA21"/>
<path d="M123.969 21.5L143.469 17.5L153.469 16.5L164.969 21.5L170.969 34.5L168.469 45.5L163.469 55.5L151.969 61L136.469 60H123.969L124.469 44L123.969 21.5Z" fill="#FDDA21"/>
<path d="M179.469 17.5L182.469 16.5H190.969L197.969 29L205.469 16H217.969L225.969 41L228.469 56L212.969 62L206.469 46.5L197.969 55.5L191.469 45L185.969 59H174.969L169.469 55.5L169.969 50.5L171.469 45.5L179.469 17.5Z" fill="#FDDA21"/>
<path d="M18.9408 27.168C20.9248 27.168 22.5568 27.328 23.8368 27.648C25.1808 27.968 25.8528 28.384 25.8528 28.896C25.8528 29.728 25.5648 30.4 24.9888 30.912C24.4768 31.36 23.8048 31.712 22.9728 31.968C22.2048 32.224 21.2448 32.448 20.0928 32.64C19.7728 32.704 19.5488 32.736 19.4208 32.736L18.9408 27.168ZM1.46875 58.656C6.39675 59.68 11.8048 60.192 17.6928 60.192C18.7168 60.192 19.4848 59.84 19.9968 59.136C20.5728 58.432 20.8608 57.568 20.8608 56.544C20.8608 49.824 20.4448 43.68 19.6128 38.112C23.0688 40.608 25.3408 43.36 26.4288 46.368C27.5168 49.312 28.0608 54.176 28.0608 60.96C29.7888 62.24 31.7728 62.88 34.0128 62.88C37.6608 62.88 40.7008 61.312 43.1328 58.176C45.5648 55.04 46.9088 51.616 47.1648 47.904C44.4768 47.904 42.4928 47.488 41.2128 46.656C39.9328 45.824 39.0688 44.352 38.6208 42.24C38.1088 39.744 37.0848 37.76 35.5488 36.288C34.0128 34.752 31.9968 33.984 29.5008 33.984C33.4688 32.896 36.6368 31.136 39.0048 28.704C41.4368 26.208 42.6528 23.296 42.6528 19.968C42.6528 17.344 41.4688 15.072 39.1008 13.152C36.7968 11.168 34.0128 10.176 30.7488 10.176C28.2528 10.176 25.1168 11.04 21.3408 12.768C17.5648 14.432 14.4288 15.264 11.9328 15.264C10.9728 15.264 10.0768 15.232 9.24475 15.168C8.41275 15.04 7.48475 14.912 6.46075 14.784C5.43675 14.656 4.54075 14.56 3.77275 14.496C3.90075 16.416 4.09275 18.816 4.34875 21.696C4.60475 24.512 4.79675 27.04 4.92475 29.28C5.11675 31.52 5.21275 33.92 5.21275 36.48C5.21275 39.04 5.02075 41.472 4.63675 43.776C4.25275 46.08 3.70875 48.64 3.00475 51.456C2.30075 54.208 1.78875 56.608 1.46875 58.656ZM0.0287499 60.96L0.31675 59.136C0.70075 57.024 1.21275 54.56 1.85275 51.744C2.55675 48.928 3.10075 46.432 3.48475 44.256C3.86875 42.08 4.06075 39.744 4.06075 37.248C4.06075 34.752 3.96475 32.384 3.77275 30.144C3.64475 27.904 3.45275 25.376 3.19675 22.56C2.94075 19.744 2.74875 17.344 2.62075 15.36C2.62075 15.168 2.58875 14.784 2.52475 14.208C2.46075 13.632 2.42875 13.28 2.42875 13.152C2.55675 13.152 2.94075 13.184 3.58075 13.248C4.22075 13.312 4.60475 13.344 4.73275 13.344C5.43675 13.408 6.65275 13.568 8.38075 13.824C10.1088 14.016 11.5488 14.112 12.7008 14.112C14.8768 14.112 17.8848 13.28 21.7248 11.616C25.5648 9.888 28.8288 9.024 31.5168 9.024C35.2288 9.024 38.4608 10.208 41.2128 12.576C43.9648 14.88 45.3408 17.6 45.3408 20.736C45.3408 26.56 42.2688 31.136 36.1248 34.464C38.8128 36.192 40.5408 38.912 41.3088 42.624C41.6288 44.16 42.2048 45.248 43.0368 45.888C43.9328 46.464 45.5648 46.752 47.9328 46.752H49.9487C49.9487 46.816 49.9167 47.136 49.8528 47.712C49.8528 48.288 49.8528 48.64 49.8528 48.768C49.5328 52.928 47.9968 56.768 45.2448 60.288C42.4928 63.808 39.0048 65.568 34.7808 65.568C32.0928 65.568 29.7248 64.8 27.6768 63.264C27.6128 63.264 27.4848 63.168 27.2928 62.976C27.1008 62.784 26.9728 62.688 26.9088 62.688V61.728C26.9088 56.544 26.6208 52.672 26.0448 50.112C25.5328 47.552 24.5088 45.376 22.9728 43.584C23.3568 47.232 23.5488 51.808 23.5488 57.312C23.5488 58.784 23.1008 60.064 22.2048 61.152C21.3088 62.304 20.0608 62.88 18.4608 62.88C12.5088 62.88 6.97275 62.368 1.85275 61.344L0.0287499 60.96ZM50.9433 31.968C50.9433 31.2 51.1993 30.528 51.7113 29.952C52.2873 29.376 52.9273 29.088 53.6313 29.088C54.3993 29.088 55.0393 29.28 55.5513 29.664C56.1273 29.984 56.4153 30.368 56.4153 30.816C56.4153 31.52 56.1593 32.128 55.6473 32.64C55.1993 33.088 54.6553 33.312 54.0153 33.312C51.9673 33.312 50.9433 32.864 50.9433 31.968ZM44.4153 26.4C44.4153 32.928 46.1753 37.088 49.6953 38.88L48.5433 39.456C49.7593 41.12 52.3513 41.952 56.3193 41.952C62.0793 41.952 66.8793 40.672 70.7193 38.112C74.5593 35.488 76.4793 32.032 76.4793 27.744C76.4793 23.776 74.6873 20.448 71.1033 17.76C67.5193 15.072 62.8793 13.728 57.1833 13.728C54.1113 13.728 51.3913 14.944 49.0233 17.376C46.6553 19.744 45.1193 22.752 44.4153 26.4ZM43.2632 27.168V26.976V26.784C45.1833 17.312 50.0793 12.576 57.9513 12.576C64.0313 12.576 69.0873 14.08 73.1193 17.088C77.1513 20.096 79.1673 23.904 79.1673 28.512C79.1673 33.504 76.9913 37.44 72.6393 40.32C68.3513 43.2 63.1673 44.64 57.0873 44.64C52.4793 44.64 49.3753 43.552 47.7753 41.376L46.2393 39.36L46.7193 39.168C44.4153 36.48 43.2632 32.48 43.2632 27.168ZM82.8963 38.4C82.8963 37.184 83.1843 36.096 83.7603 35.136C84.4003 34.176 85.2323 33.6 86.2563 33.408L92.5923 43.104L92.2083 43.296C91.3763 42.528 90.7363 42.08 90.2883 41.952C89.4563 41.76 88.4323 41.6 87.2163 41.472C86.0643 41.28 85.2323 41.12 84.7203 40.992C84.2723 40.864 83.8563 40.608 83.4723 40.224C83.0883 39.84 82.8963 39.232 82.8963 38.4ZM64.8483 56.448C64.8483 57.664 65.5523 58.72 66.9603 59.616C68.3683 60.512 70.0963 60.96 72.1443 60.96C74.3203 60.96 76.1763 60.576 77.7123 59.808C79.2483 59.04 80.0163 58.144 80.0163 57.12C80.0163 52.384 80.2403 49.024 80.6883 47.04C86.8323 47.232 90.8643 47.744 92.7843 48.576C94.7683 49.344 96.5283 51.488 98.0643 55.008C98.9603 57.312 99.4403 58.912 99.5043 59.808C101.104 59.936 103.536 60.192 106.8 60.576C110.064 61.024 112.848 61.248 115.152 61.248C116.624 61.248 117.936 60.704 119.088 59.616C120.304 58.464 120.912 57.408 120.912 56.448C120.912 54.208 120.176 51.616 118.704 48.672C117.296 45.728 115.76 43.168 114.096 40.992C112.496 38.752 110.192 35.744 107.184 31.968C104.176 28.128 101.968 25.248 100.56 23.328C98.7043 20.704 97.6483 18.208 97.3923 15.84C93.6163 15.328 90.7043 15.328 88.6562 15.84C86.6083 16.288 84.3043 17.504 81.7443 19.488C81.7443 28.96 79.2483 38.08 74.2563 46.848C73.5523 48.064 71.7923 49.664 68.9763 51.648C66.2243 53.568 64.8483 55.168 64.8483 56.448ZM85.5843 39.168C85.5843 39.296 85.5843 39.424 85.5843 39.552L85.6803 39.744C86.0003 39.936 87.0243 40.128 88.7523 40.32C88.6243 40.128 88.3683 39.744 87.9843 39.168C87.6003 38.592 87.2483 38.08 86.9283 37.632C86.6083 37.12 86.4163 36.8 86.3523 36.672C85.8403 37.376 85.5843 38.208 85.5843 39.168ZM63.6962 57.216C63.6962 55.616 64.3042 54.24 65.5203 53.088C66.8003 51.872 68.2403 50.72 69.8403 49.632C71.5043 48.48 72.6243 47.424 73.2003 46.464C78.0643 37.952 80.4963 29.216 80.4963 20.256V19.008C82.7363 17.28 84.7203 16.064 86.4483 15.36C88.1763 14.592 90.4163 14.208 93.1683 14.208C94.0643 14.208 96.3043 14.464 99.8883 14.976C99.8883 15.04 99.9203 15.264 99.9843 15.648C100.048 16.032 100.08 16.288 100.08 16.416C100.336 18.592 101.264 20.768 102.864 22.944C104.336 24.992 106.64 28 109.776 31.968C112.912 35.936 115.28 39.008 116.88 41.184C118.48 43.36 119.984 45.984 121.392 49.056C122.864 52.064 123.6 54.784 123.6 57.216C123.6 58.688 122.8 60.16 121.2 61.632C119.664 63.168 117.904 63.936 115.92 63.936C113.488 63.936 110.608 63.712 107.28 63.264C104.016 62.816 101.648 62.56 100.176 62.496L98.5443 62.4C98.5443 62.336 98.5123 62.08 98.4483 61.632C98.3843 61.184 98.3523 60.896 98.3523 60.768C98.2243 59.744 97.8083 58.304 97.1043 56.448C95.8243 53.504 94.4163 51.712 92.8802 51.072C91.4083 50.432 88.1123 50.016 82.9923 49.824C82.8003 50.848 82.7043 53.536 82.7043 57.888C82.7043 59.552 81.7443 60.928 79.8243 62.016C77.9043 63.104 75.6003 63.648 72.9123 63.648C70.4163 63.648 68.2403 63.04 66.3843 61.824C64.5922 60.608 63.6962 59.072 63.6962 57.216ZM138.523 43.392C138.523 41.6 138.843 39.936 139.483 38.4C141.147 38.4 142.459 38.816 143.419 39.648C144.443 40.48 144.955 41.6 144.955 43.008C144.955 44.224 144.315 45.312 143.035 46.272C141.819 47.168 140.443 47.68 138.907 47.808C138.651 45.76 138.523 44.288 138.523 43.392ZM124.315 23.04C124.315 24.768 124.411 28.96 124.603 35.616C124.859 42.208 124.987 47.2 124.987 50.592C124.987 53.792 124.891 56.448 124.699 58.56C127.387 58.176 129.915 57.984 132.283 57.984C133.819 57.984 136.091 58.272 139.099 58.848C142.171 59.36 145.051 59.616 147.739 59.616C153.883 59.616 158.971 57.344 163.003 52.8C167.099 48.256 169.147 42.592 169.147 35.808C169.147 30.688 167.323 26.304 163.675 22.656C160.091 19.008 155.739 17.184 150.619 17.184C147.355 17.184 143.099 17.856 137.851 19.2C132.667 20.544 128.443 21.408 125.179 21.792C124.603 21.92 124.315 22.336 124.315 23.04ZM141.211 44.16C141.211 44.864 141.243 45.568 141.307 46.272C142.971 45.568 143.803 44.736 143.803 43.776C143.803 42.432 143.067 41.6 141.595 41.28C141.339 42.432 141.211 43.392 141.211 44.16ZM123.067 23.808C123.067 22.784 123.227 22.016 123.547 21.504C123.931 20.992 124.635 20.672 125.659 20.544C128.859 20.096 133.051 19.232 138.235 17.952C143.483 16.608 147.867 15.936 151.387 15.936C157.019 15.936 161.819 17.952 165.787 21.984C169.819 26.016 171.835 30.88 171.835 36.576C171.835 43.808 169.627 49.92 165.211 54.912C160.795 59.84 155.227 62.304 148.507 62.304C145.691 62.304 142.747 62.016 139.675 61.44C136.667 60.928 134.459 60.672 133.051 60.672C130.747 60.672 128.315 60.864 125.755 61.248L123.355 61.536L123.547 59.232C123.739 56.16 123.835 53.536 123.835 51.36C123.835 48.032 123.707 43.072 123.451 36.48C123.195 29.824 123.067 25.6 123.067 23.808ZM170.226 53.76C170.226 54.4 170.578 55.104 171.282 55.872C171.986 56.64 173.074 57.312 174.546 57.888C176.85 58.336 180.178 58.496 184.53 58.368L191.346 41.856C192.69 46.464 195.026 50.656 198.354 54.432C202.514 51.296 205.394 47.52 206.994 43.104C207.57 45.152 208.69 48.608 210.354 53.472C212.018 58.336 213.01 60.992 213.33 61.44C214.29 60.288 215.602 59.392 217.266 58.752C218.994 58.048 220.53 57.6 221.874 57.408C223.282 57.216 224.498 56.8 225.522 56.16C226.61 55.456 227.154 54.432 227.154 53.088C226.77 50.976 226.226 48.288 225.522 45.024C224.818 41.696 223.474 36.736 221.49 30.144C219.57 23.488 217.778 18.976 216.114 16.608C210.802 16.608 207.154 16.704 205.17 16.896L198.354 30.24C198.034 30.88 197.778 30.976 197.586 30.528C197.01 29.632 195.858 27.296 194.13 23.52C192.402 19.744 191.09 17.568 190.194 16.992L183.57 17.184C181.33 17.184 180.114 17.536 179.922 18.24C179.218 20.16 177.426 26.176 174.546 36.288C171.666 46.4 170.226 52.224 170.226 53.76ZM169.073 54.528C169.073 52.928 170.417 47.36 173.105 37.824C175.794 28.288 177.682 21.824 178.77 18.432C178.962 17.856 179.09 17.504 179.154 17.376C179.218 17.248 179.698 16.992 180.594 16.608C181.49 16.224 182.738 16.032 184.338 16.032C186.002 16.032 187.378 16.032 188.466 16.032C189.554 15.968 190.29 15.936 190.674 15.936C191.122 15.872 191.41 15.84 191.538 15.84C192.306 16.288 192.978 16.896 193.554 17.664C194.13 18.432 194.578 19.2 194.898 19.968C195.282 20.672 195.826 21.856 196.53 23.52C197.298 25.12 197.97 26.528 198.546 27.744C202.13 20.704 204.146 16.704 204.594 15.744C207.282 15.552 211.73 15.456 217.938 15.456C219.986 18.4 222.002 23.072 223.986 29.472C225.97 35.872 227.442 41.536 228.402 46.464L229.842 53.856C229.842 55.648 229.266 57.056 228.114 58.08C227.026 59.04 225.746 59.648 224.274 59.904C222.802 60.096 221.202 60.48 219.474 61.056C217.746 61.632 216.466 62.432 215.634 63.456L214.098 65.376L212.562 63.36C212.05 62.72 210.322 57.952 207.378 49.056C205.65 51.808 202.802 54.72 198.834 57.792C195.826 54.336 193.586 51.072 192.114 48L186.642 60.96L185.394 61.056C181.234 61.184 177.682 60.992 174.738 60.48C172.946 59.84 171.538 58.976 170.514 57.888C169.553 56.8 169.073 55.68 169.073 54.528ZM245.74 38.4C245.74 37.184 246.028 36.096 246.604 35.136C247.244 34.176 248.076 33.6 249.1 33.408L255.436 43.104L255.052 43.296C254.22 42.528 253.58 42.08 253.132 41.952C252.3 41.76 251.276 41.6 250.06 41.472C248.908 41.28 248.076 41.12 247.564 40.992C247.116 40.864 246.7 40.608 246.316 40.224C245.932 39.84 245.74 39.232 245.74 38.4ZM227.692 56.448C227.692 57.664 228.396 58.72 229.804 59.616C231.212 60.512 232.94 60.96 234.988 60.96C237.164 60.96 239.02 60.576 240.556 59.808C242.092 59.04 242.86 58.144 242.86 57.12C242.86 52.384 243.084 49.024 243.532 47.04C249.676 47.232 253.708 47.744 255.628 48.576C257.612 49.344 259.372 51.488 260.908 55.008C261.804 57.312 262.284 58.912 262.348 59.808C263.948 59.936 266.38 60.192 269.644 60.576C272.908 61.024 275.692 61.248 277.996 61.248C279.468 61.248 280.78 60.704 281.932 59.616C283.148 58.464 283.756 57.408 283.756 56.448C283.756 54.208 283.02 51.616 281.548 48.672C280.14 45.728 278.604 43.168 276.94 40.992C275.34 38.752 273.036 35.744 270.028 31.968C267.02 28.128 264.812 25.248 263.404 23.328C261.548 20.704 260.492 18.208 260.236 15.84C256.46 15.328 253.548 15.328 251.5 15.84C249.452 16.288 247.148 17.504 244.588 19.488C244.588 28.96 242.092 38.08 237.1 46.848C236.396 48.064 234.636 49.664 231.82 51.648C229.068 53.568 227.692 55.168 227.692 56.448ZM248.428 39.168C248.428 39.296 248.428 39.424 248.428 39.552L248.524 39.744C248.844 39.936 249.868 40.128 251.596 40.32C251.468 40.128 251.212 39.744 250.828 39.168C250.444 38.592 250.092 38.08 249.772 37.632C249.452 37.12 249.26 36.8 249.196 36.672C248.684 37.376 248.428 38.208 248.428 39.168ZM226.54 57.216C226.54 55.616 227.148 54.24 228.364 53.088C229.644 51.872 231.084 50.72 232.684 49.632C234.348 48.48 235.468 47.424 236.044 46.464C240.908 37.952 243.34 29.216 243.34 20.256V19.008C245.58 17.28 247.564 16.064 249.292 15.36C251.02 14.592 253.26 14.208 256.012 14.208C256.908 14.208 259.148 14.464 262.732 14.976C262.732 15.04 262.764 15.264 262.828 15.648C262.892 16.032 262.924 16.288 262.924 16.416C263.18 18.592 264.108 20.768 265.708 22.944C267.18 24.992 269.484 28 272.62 31.968C275.756 35.936 278.124 39.008 279.724 41.184C281.324 43.36 282.828 45.984 284.236 49.056C285.708 52.064 286.444 54.784 286.444 57.216C286.444 58.688 285.644 60.16 284.044 61.632C282.508 63.168 280.748 63.936 278.764 63.936C276.332 63.936 273.452 63.712 270.124 63.264C266.86 62.816 264.492 62.56 263.02 62.496L261.388 62.4C261.388 62.336 261.356 62.08 261.292 61.632C261.228 61.184 261.196 60.896 261.196 60.768C261.068 59.744 260.652 58.304 259.948 56.448C258.668 53.504 257.26 51.712 255.724 51.072C254.252 50.432 250.956 50.016 245.836 49.824C245.644 50.848 245.548 53.536 245.548 57.888C245.548 59.552 244.588 60.928 242.668 62.016C240.748 63.104 238.444 63.648 235.756 63.648C233.26 63.648 231.084 63.04 229.228 61.824C227.436 60.608 226.54 59.072 226.54 57.216ZM302.327 33.12C302.327 31.584 302.583 30.144 303.095 28.8C304.247 28.8 305.335 28.992 306.359 29.376C307.447 29.696 307.991 30.272 307.991 31.104C307.991 32.256 307.447 33.248 306.359 34.08C305.271 34.912 303.991 35.328 302.519 35.328C302.391 34.432 302.327 33.696 302.327 33.12ZM286.487 56.352C286.487 58.912 288.887 60.192 293.687 60.192C296.439 60.192 298.903 59.616 301.079 58.464C302.423 55.776 303.095 52.416 303.095 48.384C303.095 45.888 302.967 43.2 302.711 40.32C305.015 40.896 307.895 41.184 311.351 41.184C316.471 41.184 321.143 39.52 325.367 36.192C329.655 32.8 331.799 28.192 331.799 22.368C331.799 18.272 330.167 14.912 326.903 12.288C323.703 9.6 319.799 8.256 315.191 8.256C312.055 8.256 307.767 9.344 302.327 11.52C296.951 13.696 292.439 15.008 288.791 15.456C288.215 15.584 287.927 16 287.927 16.704C287.927 19.328 288.119 22.656 288.503 26.688C288.951 30.656 289.175 34.112 289.175 37.056C289.175 39.36 288.951 42.048 288.503 45.12C288.055 48.128 287.607 50.72 287.159 52.896C286.711 55.008 286.487 56.16 286.487 56.352ZM305.015 33.888C306.167 33.376 306.775 32.8 306.839 32.16C306.327 31.904 305.783 31.744 305.207 31.68C305.079 32.256 305.015 32.992 305.015 33.888ZM285.335 57.12C285.335 56.864 285.559 55.648 286.007 53.472C286.455 51.232 286.903 48.64 287.351 45.696C287.799 42.688 288.023 40.064 288.023 37.824C288.023 35.008 287.799 31.616 287.351 27.648C286.967 23.616 286.775 20.224 286.775 17.472C286.775 15.616 287.511 14.56 288.983 14.304C292.631 13.856 297.175 12.544 302.615 10.368C308.119 8.128 312.567 7.008 315.959 7.008C321.015 7.008 325.367 8.544 329.015 11.616C332.663 14.624 334.487 18.464 334.487 23.136C334.487 29.536 332.151 34.592 327.479 38.304C322.807 42.016 317.687 43.872 312.119 43.872C309.495 43.872 307.319 43.744 305.591 43.488C305.719 45.024 305.783 46.912 305.783 49.152C305.783 53.504 305.047 57.152 303.575 60.096L303.287 60.672L302.711 60.96C300.343 62.24 297.591 62.88 294.455 62.88C291.063 62.88 288.695 62.304 287.351 61.152C286.007 60 285.335 58.656 285.335 57.12Z" fill="white"/>
</svg>
 