<svg width="352" height="69" viewBox="0 0 352 69" fill="none" xmlns="http://www.w3.org/2000/svg">
<path d="M236 19.5L242.5 15.5L247.5 15L252.5 15.5L267.5 38L276.5 51.5L276 60.5L269.5 62L254.183 60.5L251.5 53L245.5 48.5L238 49L235 60.5L228 62L221.5 60.5L219 57L219.5 54.5L221 53.5L229.5 45.5L234.5 32.5L236 24V19.5Z" fill="#FDDA21"/>
<path d="M36 44C36 53.3888 28.165 61 18.5 61C8.83502 61 1 53.3888 1 44C1 34.6112 8.83502 27 18.5 27C27.5 29.5 36 34.6112 36 44Z" fill="#FDDA21"/>
<path d="M37.5 22.5L41.5 20L47.5 19.5L54 20.5L55 24L57 33L59.5 35L62 33.5L62.5 29L60.5 22.5L61.5 19H64L67.5 19.5L69 36L64 52.5L58 56L52 57L41.5 54L38.5 47L39.5 32L37.5 22.5Z" fill="#FDDA21"/>
<path d="M70.5 14L81.7925 15.0392L95.5 10L103.22 10.4211L108.911 14.7093L111.255 19.6572L109.581 28.2336L102.215 33.8412L110.585 47.3654L115.942 48.0252L111.255 60.8897L103.22 63.5286L94.8496 62V51.6536L93.1757 45.0564L90.4973 42.0877L89.1581 54.2925L88.4885 60.8897L68 60L72.4181 36.4801L71.5 23.5L70.5 14Z" fill="#FDDA21"/>
<path d="M141 9L152.25 7.5L169.5 10L184.5 9L186.5 10.5L183 26.5H168.5L169 32L170.5 58.5L162 62.5L152.5 61.5L151.5 50L151 40L152 28L144 27.5L139 29.5L137.5 28L137 20L138.5 12L141 9Z" fill="#FDDA21"/>
<path d="M186.5 16.5L201.5 17.5L216.5 17L218.5 25L217 32.5L207.5 31.5L208.5 44L213 43L216.5 40L218.5 46.5V57.5H186.5L188.5 36.5L186.5 16.5Z" fill="#FDDA21"/>
<path d="M287.5 17H299.5L306 29L313 16.5H325.5L333.5 41.5L336 56.5L321 62.5L314 47L306.5 55.5L298.5 46.5L293.5 59.5L283 58.5L277 56L279 46L287.5 17Z" fill="#FDDA21"/>
<path d="M7.912 47.328C7.912 46.432 8.2 45.664 8.776 45.024C9.416 44.384 10.184 44.064 11.08 44.064C11.976 44.064 12.744 44.256 13.384 44.64C14.024 45.024 14.344 45.536 14.344 46.176C14.344 47.008 14.056 47.744 13.48 48.384C12.968 48.96 12.296 49.248 11.464 49.248C10.504 49.248 9.672 49.056 8.968 48.672C8.264 48.288 7.912 47.84 7.912 47.328ZM1.384 41.76C1.384 48.288 3.144 52.448 6.664 54.24L5.512 54.816C6.472 56.096 7.88 57.12 9.736 57.888C11.592 58.656 13.448 59.04 15.304 59.04C21.256 59.04 26.088 57.632 29.8 54.816C33.512 51.936 35.368 48.032 35.368 43.104C35.368 39.008 33.384 35.488 29.416 32.544C25.448 29.6 20.68 28.128 15.112 28.128C11.784 28.128 8.84 29.44 6.28 32.064C3.784 34.624 2.152 37.856 1.384 41.76ZM10.6 47.712C11.112 47.968 11.656 48.096 12.232 48.096C12.872 48.096 13.192 47.776 13.192 47.136C12.936 46.88 12.488 46.752 11.848 46.752C11.144 46.752 10.728 47.072 10.6 47.712ZM0.232 42.528V42.336V42.144C1.128 37.472 2.952 33.792 5.704 31.104C8.52 28.352 11.912 26.976 15.88 26.976C21.896 26.976 27.08 28.608 31.432 31.872C35.848 35.072 38.056 39.072 38.056 43.872C38.056 49.248 36.04 53.568 32.008 56.832C28.04 60.096 22.728 61.728 16.072 61.728C14.024 61.728 11.912 61.28 9.736 60.384C7.624 59.552 5.96 58.336 4.744 56.736C3.784 55.456 3.272 54.784 3.208 54.72C3.272 54.72 3.336 54.72 3.4 54.72C3.528 54.656 3.624 54.592 3.688 54.528C1.384 51.904 0.232 47.904 0.232 42.528ZM37.8708 23.136C37.9988 23.84 38.3828 25.12 39.0228 26.976C39.6628 28.768 39.9828 30.112 39.9828 31.008C39.9828 31.712 39.7908 33.664 39.4068 36.864C39.0868 40 38.9268 42.656 38.9268 44.832C38.9268 47.968 40.1428 50.624 42.5748 52.8C45.0068 54.912 48.2708 55.968 52.3668 55.968C57.0388 55.968 60.7828 53.536 63.5988 48.672C66.4148 43.744 67.8228 37.344 67.8228 29.472C67.8228 26.656 67.4388 24.224 66.6708 22.176C65.9028 20.128 65.0068 19.104 63.9828 19.104C62.3188 19.104 61.2948 19.808 60.9108 21.216C61.0388 21.792 61.4868 22.88 62.2548 24.48C63.0228 26.08 63.4068 27.36 63.4068 28.32C63.4068 30.368 62.9268 32.128 61.9668 33.6C61.0068 35.008 59.8228 35.712 58.4148 35.712C57.2628 35.712 56.2708 34.432 55.4388 31.872C54.6068 29.312 54.1908 26.208 54.1908 22.56C54.1908 21.856 53.2948 21.28 51.5028 20.832C49.7748 20.32 47.6628 20.064 45.1668 20.064C41.3268 20.064 38.8948 21.088 37.8708 23.136ZM36.4307 23.136L36.8148 22.56C38.4788 20.128 41.5188 18.912 45.9348 18.912C48.7508 18.912 51.2788 19.264 53.5188 19.968C55.7588 20.672 56.8788 21.792 56.8788 23.328C56.8788 25.504 57.0388 27.488 57.3588 29.28C57.6788 31.008 57.9988 32.256 58.3188 33.024C58.7028 33.792 59.0228 34.304 59.2788 34.56C59.9828 34.432 60.6548 33.856 61.2948 32.832C61.9348 31.808 62.2548 30.56 62.2548 29.088C62.2548 28.384 61.9028 27.328 61.1988 25.92C60.4948 24.448 60.0468 23.328 59.8548 22.56C59.8548 22.496 59.8228 22.432 59.7588 22.368C59.7588 22.304 59.7268 22.208 59.6628 22.08C59.7908 21.824 59.8548 21.632 59.8548 21.504C60.1108 20.416 60.7188 19.552 61.6788 18.912C62.6388 18.272 63.6628 17.952 64.7508 17.952C66.5428 17.952 67.9508 19.136 68.9748 21.504C69.9988 23.872 70.5108 26.784 70.5108 30.24C70.5108 38.816 68.9108 45.696 65.7108 50.88C62.5108 56.064 58.3188 58.656 53.1348 58.656C48.5908 58.656 44.8788 57.408 41.9988 54.912C39.1828 52.416 37.7748 49.312 37.7748 45.6C37.7748 43.296 37.9348 40.576 38.2548 37.44C38.6388 34.24 38.8308 32.384 38.8308 31.872C38.8308 31.232 38.5108 29.952 37.8708 28.032C37.2308 26.048 36.8468 24.768 36.7188 24.192L36.4307 23.136ZM86.4408 27.168C88.4248 27.168 90.0568 27.328 91.3368 27.648C92.6808 27.968 93.3528 28.384 93.3528 28.896C93.3528 29.728 93.0648 30.4 92.4888 30.912C91.9768 31.36 91.3048 31.712 90.4728 31.968C89.7048 32.224 88.7448 32.448 87.5928 32.64C87.2728 32.704 87.0488 32.736 86.9208 32.736L86.4408 27.168ZM68.9688 58.656C73.8968 59.68 79.3048 60.192 85.1928 60.192C86.2168 60.192 86.9848 59.84 87.4968 59.136C88.0728 58.432 88.3608 57.568 88.3608 56.544C88.3608 49.824 87.9448 43.68 87.1128 38.112C90.5688 40.608 92.8408 43.36 93.9288 46.368C95.0168 49.312 95.5608 54.176 95.5608 60.96C97.2888 62.24 99.2728 62.88 101.513 62.88C105.161 62.88 108.201 61.312 110.633 58.176C113.065 55.04 114.409 51.616 114.665 47.904C111.977 47.904 109.993 47.488 108.713 46.656C107.433 45.824 106.569 44.352 106.121 42.24C105.609 39.744 104.585 37.76 103.049 36.288C101.513 34.752 99.4968 33.984 97.0008 33.984C100.969 32.896 104.137 31.136 106.505 28.704C108.937 26.208 110.153 23.296 110.153 19.968C110.153 17.344 108.969 15.072 106.601 13.152C104.297 11.168 101.513 10.176 98.2488 10.176C95.7528 10.176 92.6168 11.04 88.8408 12.768C85.0648 14.432 81.9288 15.264 79.4328 15.264C78.4728 15.264 77.5768 15.232 76.7448 15.168C75.9128 15.04 74.9848 14.912 73.9608 14.784C72.9368 14.656 72.0408 14.56 71.2728 14.496C71.4008 16.416 71.5928 18.816 71.8488 21.696C72.1048 24.512 72.2968 27.04 72.4248 29.28C72.6168 31.52 72.7128 33.92 72.7128 36.48C72.7128 39.04 72.5208 41.472 72.1367 43.776C71.7528 46.08 71.2088 48.64 70.5048 51.456C69.8008 54.208 69.2888 56.608 68.9688 58.656ZM67.5287 60.96L67.8167 59.136C68.2007 57.024 68.7128 54.56 69.3528 51.744C70.0568 48.928 70.6008 46.432 70.9848 44.256C71.3688 42.08 71.5608 39.744 71.5608 37.248C71.5608 34.752 71.4648 32.384 71.2728 30.144C71.1448 27.904 70.9528 25.376 70.6968 22.56C70.4408 19.744 70.2488 17.344 70.1208 15.36C70.1208 15.168 70.0888 14.784 70.0248 14.208C69.9608 13.632 69.9288 13.28 69.9288 13.152C70.0568 13.152 70.4408 13.184 71.0808 13.248C71.7208 13.312 72.1048 13.344 72.2328 13.344C72.9368 13.408 74.1528 13.568 75.8808 13.824C77.6088 14.016 79.0488 14.112 80.2008 14.112C82.3768 14.112 85.3848 13.28 89.2248 11.616C93.0648 9.888 96.3288 9.024 99.0168 9.024C102.729 9.024 105.961 10.208 108.713 12.576C111.465 14.88 112.841 17.6 112.841 20.736C112.841 26.56 109.769 31.136 103.625 34.464C106.313 36.192 108.041 38.912 108.809 42.624C109.129 44.16 109.705 45.248 110.537 45.888C111.433 46.464 113.065 46.752 115.433 46.752H117.449C117.449 46.816 117.417 47.136 117.353 47.712C117.353 48.288 117.353 48.64 117.353 48.768C117.033 52.928 115.497 56.768 112.745 60.288C109.993 63.808 106.505 65.568 102.281 65.568C99.5928 65.568 97.2248 64.8 95.1768 63.264C95.1128 63.264 94.9848 63.168 94.7928 62.976C94.6008 62.784 94.4728 62.688 94.4088 62.688V61.728C94.4088 56.544 94.1208 52.672 93.5448 50.112C93.0328 47.552 92.0088 45.376 90.4728 43.584C90.8568 47.232 91.0488 51.808 91.0488 57.312C91.0488 58.784 90.6008 60.064 89.7048 61.152C88.8088 62.304 87.5608 62.88 85.9608 62.88C80.0088 62.88 74.4728 62.368 69.3528 61.344L67.5287 60.96ZM137.418 21.792C137.418 24.096 137.802 26.24 138.57 28.224C140.874 26.752 143.53 26.016 146.538 26.016C148.586 26.016 150.602 26.24 152.586 26.688C151.818 31.296 151.434 36.672 151.434 42.816C151.434 44.608 151.498 46.464 151.626 48.384C151.818 50.304 152.042 52.384 152.298 54.624C152.554 56.864 152.746 58.72 152.874 60.192C155.498 60.64 158.698 60.864 162.474 60.864C164.266 60.864 165.834 60.448 167.178 59.616C168.522 58.72 169.194 57.408 169.194 55.68C169.194 54.144 168.906 51.36 168.33 47.328C167.818 43.296 167.498 39.84 167.37 36.96C167.37 35.936 167.306 34.048 167.178 31.296C167.114 28.48 167.05 26.4 166.986 25.056C167.882 25.12 169.546 25.344 171.978 25.728C174.474 26.048 176.458 26.208 177.93 26.208C181.066 26.208 182.89 25.248 183.402 23.328C184.554 18.912 185.13 14.816 185.13 11.04C185.13 9.824 184.522 9.216 183.306 9.216C182.154 9.216 180.266 9.44 177.642 9.888C175.082 10.272 172.97 10.464 171.306 10.464C168.618 10.464 164.842 10.144 159.978 9.504C155.178 8.864 151.562 8.512 149.13 8.448C143.306 8.448 139.946 9.632 139.05 12C137.962 14.88 137.418 18.144 137.418 21.792ZM136.169 22.56C136.169 18.016 136.681 14.4 137.706 11.712C138.922 8.512 142.986 6.912 149.898 6.912C152.586 6.976 156.298 7.392 161.034 8.16C165.834 8.928 169.514 9.312 172.074 9.312C173.546 9.312 175.562 9.12 178.122 8.736C180.682 8.288 182.666 8.064 184.074 8.064C185.098 8.064 185.962 8.384 186.666 9.024C187.434 9.728 187.818 10.656 187.818 11.808C187.818 15.2 187.21 19.424 185.994 24.48C185.226 27.424 182.794 28.896 178.698 28.896C177.162 28.896 174.154 28.576 169.674 27.936C169.738 29.216 169.802 30.976 169.866 33.216C169.994 35.456 170.058 36.96 170.058 37.728C170.186 40.48 170.506 43.872 171.018 47.904C171.594 51.872 171.882 54.72 171.882 56.448C171.882 58.816 170.986 60.576 169.194 61.728C167.402 62.944 165.418 63.552 163.242 63.552C159.274 63.552 155.946 63.328 153.258 62.88L151.818 62.592L151.722 61.152C151.594 59.808 151.402 57.984 151.146 55.68C150.89 53.376 150.666 51.264 150.474 49.344C150.346 47.36 150.282 45.44 150.282 43.584C150.282 37.888 150.57 33.024 151.146 28.992C149.802 28.8 148.522 28.704 147.306 28.704C144.49 28.704 142.186 29.312 140.394 30.528L138.378 31.872L137.514 29.664C136.617 27.296 136.169 24.928 136.169 22.56ZM185.12 18.528C185.12 16.544 186.177 15.552 188.289 15.552C192.321 16.512 196.129 16.992 199.713 16.992C204.385 16.992 209.697 16.768 215.649 16.32C215.713 16.32 215.841 16.32 216.033 16.32C216.289 16.256 216.449 16.224 216.513 16.224C216.641 16.416 216.737 16.544 216.801 16.608C216.865 16.608 216.897 16.64 216.897 16.704C216.961 16.704 217.057 16.8 217.185 16.992C219.105 19.168 220.065 21.856 220.065 25.056C220.065 27.168 219.585 29.76 218.625 32.832C218.561 32.96 218.433 33.408 218.241 34.176C218.049 34.88 217.921 35.296 217.857 35.424C217.665 35.36 217.281 35.104 216.705 34.656C216.193 34.144 215.841 33.856 215.649 33.792C214.177 32.64 212.257 32.064 209.889 32.064C209.697 32.064 209.505 32.064 209.312 32.064C209.185 32.064 209.089 32.096 209.025 32.16C208.961 32.16 208.897 32.16 208.833 32.16H208.737C209.889 33.696 210.465 35.712 210.465 38.208C210.465 38.976 210.401 40.32 210.273 42.24C210.273 42.304 210.241 42.432 210.177 42.624C210.177 42.816 210.177 42.944 210.177 43.008L209.601 43.584C211.649 43.008 213.601 41.888 215.457 40.224C215.585 40.096 215.873 39.808 216.321 39.36C216.833 38.912 217.153 38.624 217.281 38.496L218.433 40.8C219.585 43.296 220.161 46.08 220.161 49.152C220.161 52.672 219.873 55.36 219.297 57.216C219.233 57.344 219.137 57.568 219.009 57.888C218.945 58.144 218.913 58.336 218.913 58.464L217.665 58.56C211.521 59.072 205.697 59.328 200.193 59.328C195.521 59.328 191.297 59.2 187.521 58.944C187.393 58.944 187.041 58.944 186.465 58.944C185.953 58.88 185.633 58.848 185.505 58.848L185.697 56.832C185.889 55.104 186.145 53.088 186.465 50.784C186.849 48.416 187.137 46.336 187.329 44.544C187.521 42.688 187.617 40.736 187.617 38.688C187.617 31.648 186.785 24.928 185.12 18.528ZM186.657 18.816C188.065 24.64 188.769 30.624 188.769 36.768C188.769 39.328 188.641 41.824 188.385 44.256C188.193 46.688 187.905 49.152 187.521 51.648C187.137 54.08 186.913 55.616 186.849 56.256C190.625 56.512 194.817 56.64 199.424 56.64C204.801 56.64 210.561 56.384 216.705 55.872C217.217 54.08 217.473 51.584 217.473 48.384C217.473 45.504 216.961 43.008 215.937 40.896C212.865 43.648 209.377 45.024 205.473 45.024C202.913 45.024 200.481 44.672 198.177 43.968C198.177 43.392 198.401 42.592 198.849 41.568C200.513 42.272 201.793 42.624 202.689 42.624C204.801 42.624 206.433 42.176 207.585 41.28C207.713 39.36 207.777 38.08 207.777 37.44C207.777 35.392 207.329 33.76 206.433 32.544C203.681 33.248 201.409 33.6 199.617 33.6C199.425 32.896 199.329 32 199.329 30.912C203.489 29.888 206.753 29.376 209.121 29.376C211.681 29.376 213.985 30.08 216.033 31.488C216.929 28.672 217.377 26.272 217.377 24.288C217.377 21.6 216.577 19.328 214.977 17.472C209.025 17.92 203.681 18.144 198.945 18.144C196.833 18.144 194.593 17.984 192.225 17.664C189.921 17.344 188.609 17.184 188.289 17.184C187.201 17.184 186.657 17.728 186.657 18.816ZM237.678 38.4C237.678 37.184 237.966 36.096 238.542 35.136C239.182 34.176 240.014 33.6 241.038 33.408L247.374 43.104L246.99 43.296C246.158 42.528 245.518 42.08 245.07 41.952C244.238 41.76 243.214 41.6 241.998 41.472C240.846 41.28 240.014 41.12 239.502 40.992C239.054 40.864 238.638 40.608 238.254 40.224C237.87 39.84 237.678 39.232 237.678 38.4ZM219.63 56.448C219.63 57.664 220.334 58.72 221.742 59.616C223.15 60.512 224.878 60.96 226.926 60.96C229.102 60.96 230.958 60.576 232.494 59.808C234.03 59.04 234.798 58.144 234.798 57.12C234.798 52.384 235.022 49.024 235.47 47.04C241.614 47.232 245.646 47.744 247.566 48.576C249.55 49.344 251.31 51.488 252.846 55.008C253.742 57.312 254.222 58.912 254.286 59.808C255.886 59.936 258.318 60.192 261.582 60.576C264.846 61.024 267.63 61.248 269.934 61.248C271.406 61.248 272.718 60.704 273.87 59.616C275.086 58.464 275.694 57.408 275.694 56.448C275.694 54.208 274.958 51.616 273.486 48.672C272.078 45.728 270.542 43.168 268.878 40.992C267.278 38.752 264.974 35.744 261.966 31.968C258.958 28.128 256.75 25.248 255.342 23.328C253.486 20.704 252.43 18.208 252.174 15.84C248.398 15.328 245.486 15.328 243.438 15.84C241.39 16.288 239.086 17.504 236.526 19.488C236.526 28.96 234.03 38.08 229.038 46.848C228.334 48.064 226.574 49.664 223.758 51.648C221.006 53.568 219.63 55.168 219.63 56.448ZM240.366 39.168C240.366 39.296 240.366 39.424 240.366 39.552L240.462 39.744C240.782 39.936 241.806 40.128 243.534 40.32C243.406 40.128 243.15 39.744 242.766 39.168C242.382 38.592 242.03 38.08 241.71 37.632C241.39 37.12 241.198 36.8 241.134 36.672C240.622 37.376 240.366 38.208 240.366 39.168ZM218.477 57.216C218.477 55.616 219.085 54.24 220.302 53.088C221.582 51.872 223.022 50.72 224.622 49.632C226.286 48.48 227.406 47.424 227.982 46.464C232.846 37.952 235.278 29.216 235.278 20.256V19.008C237.518 17.28 239.502 16.064 241.23 15.36C242.958 14.592 245.198 14.208 247.95 14.208C248.846 14.208 251.086 14.464 254.67 14.976C254.67 15.04 254.702 15.264 254.766 15.648C254.83 16.032 254.862 16.288 254.862 16.416C255.118 18.592 256.046 20.768 257.646 22.944C259.118 24.992 261.422 28 264.558 31.968C267.694 35.936 270.062 39.008 271.662 41.184C273.262 43.36 274.766 45.984 276.174 49.056C277.646 52.064 278.382 54.784 278.382 57.216C278.382 58.688 277.582 60.16 275.982 61.632C274.446 63.168 272.686 63.936 270.702 63.936C268.27 63.936 265.39 63.712 262.062 63.264C258.798 62.816 256.43 62.56 254.958 62.496L253.326 62.4C253.326 62.336 253.294 62.08 253.23 61.632C253.166 61.184 253.134 60.896 253.134 60.768C253.006 59.744 252.59 58.304 251.886 56.448C250.606 53.504 249.198 51.712 247.661 51.072C246.19 50.432 242.894 50.016 237.774 49.824C237.582 50.848 237.486 53.536 237.486 57.888C237.486 59.552 236.526 60.928 234.606 62.016C232.686 63.104 230.382 63.648 227.694 63.648C225.198 63.648 223.022 63.04 221.166 61.824C219.373 60.608 218.477 59.072 218.477 57.216ZM277.944 53.76C277.944 54.4 278.296 55.104 279 55.872C279.704 56.64 280.792 57.312 282.264 57.888C284.568 58.336 287.896 58.496 292.248 58.368L299.064 41.856C300.408 46.464 302.744 50.656 306.072 54.432C310.232 51.296 313.112 47.52 314.712 43.104C315.288 45.152 316.408 48.608 318.072 53.472C319.736 58.336 320.728 60.992 321.048 61.44C322.008 60.288 323.32 59.392 324.984 58.752C326.712 58.048 328.248 57.6 329.592 57.408C331 57.216 332.216 56.8 333.24 56.16C334.328 55.456 334.872 54.432 334.872 53.088C334.488 50.976 333.944 48.288 333.24 45.024C332.536 41.696 331.192 36.736 329.208 30.144C327.288 23.488 325.496 18.976 323.832 16.608C318.52 16.608 314.872 16.704 312.888 16.896L306.072 30.24C305.752 30.88 305.496 30.976 305.304 30.528C304.728 29.632 303.576 27.296 301.848 23.52C300.12 19.744 298.808 17.568 297.912 16.992L291.288 17.184C289.048 17.184 287.832 17.536 287.64 18.24C286.936 20.16 285.144 26.176 282.264 36.288C279.384 46.4 277.944 52.224 277.944 53.76ZM276.792 54.528C276.792 52.928 278.136 47.36 280.824 37.824C283.512 28.288 285.4 21.824 286.488 18.432C286.68 17.856 286.808 17.504 286.872 17.376C286.936 17.248 287.416 16.992 288.312 16.608C289.208 16.224 290.456 16.032 292.056 16.032C293.72 16.032 295.096 16.032 296.184 16.032C297.272 15.968 298.008 15.936 298.392 15.936C298.84 15.872 299.128 15.84 299.256 15.84C300.024 16.288 300.696 16.896 301.272 17.664C301.848 18.432 302.296 19.2 302.616 19.968C303 20.672 303.544 21.856 304.248 23.52C305.016 25.12 305.688 26.528 306.264 27.744C309.848 20.704 311.864 16.704 312.312 15.744C315 15.552 319.448 15.456 325.656 15.456C327.704 18.4 329.72 23.072 331.704 29.472C333.688 35.872 335.16 41.536 336.12 46.464L337.56 53.856C337.56 55.648 336.984 57.056 335.832 58.08C334.744 59.04 333.464 59.648 331.992 59.904C330.52 60.096 328.92 60.48 327.192 61.056C325.464 61.632 324.184 62.432 323.352 63.456L321.816 65.376L320.28 63.36C319.768 62.72 318.04 57.952 315.096 49.056C313.368 51.808 310.52 54.72 306.552 57.792C303.544 54.336 301.304 51.072 299.832 48L294.36 60.96L293.112 61.056C288.952 61.184 285.4 60.992 282.456 60.48C280.664 59.84 279.256 58.976 278.232 57.888C277.272 56.8 276.792 55.68 276.792 54.528Z" fill="white"/>
</svg>
