 <svg width="168" height="28" viewBox="0 0 168 28" fill="none" xmlns="http://www.w3.org/2000/svg">
<path d="M118 5.5001L121 4.0001L123.349 3.25586L126 3.5L133.461 14.7448L138 21.6384L137.748 26.2341L134.47 27.0001L126.744 26.2341L125.391 22.4044L122.365 20.1065L118.583 20.3618L117.07 26.2341L113.539 27.0001L110.261 26.2341L109 24.4469L109.5 23.5001L110 23.0001L112.5 21.0001L114 19.5001L114.5 18.5001L116 15.5001L117 12.0001L117.5 9.5001L118 7.5001V5.5001Z" fill="#FDDA21"/>
<path d="M18 17.5C18 22.1944 13.9706 26 9 26C3.5 26.5 0.5 22.1944 0.5 17.5C1 13 4.02944 9.5 9 9.5C13.6286 10.75 18 12.8056 18 17.5Z" fill="#FDDA21"/>
<path d="M18.5 7.25L20.5317 6L23.5794 5.75L26.881 6.25L27.3889 8L28.4048 12.5L29.6746 13.5L30.9444 12.75L31.1984 10.5L30.1825 7.25L30.6905 5.5H31.9603L33.7381 5.75L34.5 14L31.9603 22.25L28.9127 24L25.8651 24.5L20.5317 23L19.0079 19.5L19.5159 12L18.5 7.25Z" fill="#FDDA21"/>
<path d="M35.2515 3.01761L40.9046 3.54178L47.7666 1L51.6311 1.21243L54.4804 3.3754L55.6536 5.87113L54.8156 10.1971L51.1283 13.0256L55 19.5H57.5L58 20.18L55.6536 26.6689L51.6311 28L47.4411 27.229V22.0102L46.6031 18.6826L45.2622 17.1851L44.5918 23.3413L44.2566 26.6689L34 26.2202L36.2117 14.3566L35.7521 7.80945L35.2515 3.01761Z" fill="#FDDA21"/>
<path d="M70.5 0.5L73.5 0H76.3939L84.5 1L92 0.5L93 1.52727L91.303 9.67273H84.2727L84.5152 12.4727L85.2424 25.9636L81 27.5L76.5 27L75.5 21.5V16.5L75.7879 10.305L72.3939 10.1818L69.9697 11.2L69.2424 10.4364L68.5 8.5V6.5L69 2.5L70.5 0.5Z" fill="#FDDA21"/>
<path d="M93 4L97 4.5L100.5 5L108 4.2561L109 8.35366L108.25 12.1951L103.5 11.6829L104 14.5V18.0854L106.25 17.5732L108 16.0366L109 19.3659V25H93L94 14.2439L93 4Z" fill="#FDDA21"/>
<path d="M143.5 4.5L149.441 4.25L152.746 10.25H153.102L156.305 4H162.661L166.729 16.5L168 24L160.373 27L156.814 19.25L153.5 24L149.5 19H148.932L146.39 25.5L141.051 25L138.5 24L139.5 19L143.5 4.5Z" fill="#FDDA21"/>
</svg>
