<svg width="897" height="172" viewBox="0 0 897 172" fill="none" xmlns="http://www.w3.org/2000/svg">
<path d="M10.5 105.5L19 101L30 99.5L42 102.5H50.5L55 99L59.5 93.5L52.5 123L50 132.5L30 127L23 132.5V138.5L26 146H38L47 143L54.25 138.25L58.5 144L40.5 155H25.5L10.5 150L3.5 138.5L1.5 130V120L5 112L10.5 105.5Z" fill="#FDDA21"/>
<path d="M383 105L391.5 100.5L402.5 99L414.5 102H423L427.5 98.5L432 93L425 122.5L422.5 132L402.5 126.5L395.5 132V138L398.5 145.5H410.5L419.5 142.5L426.75 137.75L431 143.5L413 154.5H398L383 149.5L376 138L374 129.5V119.5L377.5 111.5L383 105Z" fill="#FDDA21"/>
<path d="M108 113.5C108 126.479 90.531 135.5 77 135.5C63.469 135.5 58.5 124.479 58.5 111.5C58.5 98.5213 65.469 91 79 91C92.531 91 108 100.521 108 113.5Z" fill="#FDDA21"/>
<path d="M775.5 137C777 152 759.531 160.5 746 160.5C732.469 160.5 723 148.479 723 135.5C723 122.521 732.469 113 746 113C759.531 113 776.5 122.5 775.5 137Z" fill="#FDDA21"/>
<path d="M102 125L114 121.5L120 120L124 132L129 122.5L132 111.5L136.5 108.5L142 107.5H151.5L152 125L140 157.5L128.5 170L119 166.5L110 156.5L102 125Z" fill="#FDDA21"/>
<path d="M153.5 96.5L176 97.5L199 96.5L200.5 107.5L199.5 118H185L187.5 126.5L188 137L199 132L200.5 156.5L153.5 157.5L156.5 128.5L153.5 96.5Z" fill="#FDDA21"/>
<path d="M206 92.5L222 93L243 86H254L262.5 92.5L266 100L263.5 113L252.5 121.5L265 142L273 143L266 162.5L254 166.5L243 164.5L241.5 148.5L239 138.5L235 134L233 152.5L232 162.5L202.5 161L208 125.5L207 105.5L206 92.5Z" fill="#FDDA21"/>
<path d="M269 88L278 83.5H290.5L313 85.5H326L339 83.5L341.5 93L339 106.5L333.5 112L315.5 110L318 160L302.5 164L291.5 162L288.5 145V127L289.5 112L270 114L267.5 102.5L269 88Z" fill="#FDDA21"/>
<path d="M528.999 90C528.999 94.4183 524.351 99 518 99C510.501 103 505.5 94.9183 505.5 90.5C505.5 84.1009 511.148 79 517.499 79C523.85 79 528.999 85.5817 528.999 90Z" fill="#FDDA21"/>
<path d="M436 99.5L449.5 95L463 94L461.5 127.5L473.5 125.5V107L474.5 96L480.5 93.5L502 96L496 129.5L498.5 164L471.5 159L471 154.5L473 143.5H462L457.5 160L436 158.5L437 129L436 99.5Z" fill="#FDDA21"/>
<path d="M501 105L519.5 101L530 105V155.5L502.5 157L506.5 130.5L505.5 118L501 105Z" fill="#FDDA21"/>
<path d="M548 97L561 95.5L566.5 97L576 114L585.5 95.5H602.5L608.5 103.5L620.5 154L598.5 164L596 160L588 143L575 153L565 141L555 160L537 157.5L532.5 153.5L537 133L548 97Z" fill="#FDDA21"/>
<path d="M622 94.5L654 84.5L663 82L677.5 85.5L690 97L689 114L683 124.5L674 131L661.5 134H648.5L645 157.5L636.5 163.5L620.5 160.5L624 128L622 94.5Z" fill="#FDDA21"/>
<path d="M779.5 94.5L811.5 84.5L820.5 82L835 85.5L847.5 97L846.5 114L840.5 124.5L831.5 131L819 134H806L802.5 157.5L794 163.5L784 162.5L776.5 157.5L781.5 128L779.5 94.5Z" fill="#FDDA21"/>
<path d="M865.5 95L891.5 98.5L886 113L884.5 126L891.5 133.5L893 142.5L891 155L881 161.5L868.5 163.5L848 160.5L849.5 139.5L852.5 141L859.5 142.5L862 138.5L860.5 131.5L852 119.5L849.5 107.5L853 100L865.5 95Z" fill="#FDDA21"/>
<path d="M1.864 125.72C1.864 134.072 4.6 140.792 10.072 145.88C15.544 150.968 22.264 153.512 30.232 153.512C40.024 153.512 48.808 149.96 56.584 142.856C55.72 141.032 54.76 139.688 53.704 138.824C51.112 141.32 47.8 143.336 43.768 144.872C39.832 146.408 35.992 147.176 32.248 147.176C28.504 147.176 25.48 146.312 23.176 144.584C20.872 142.76 19.72 139.976 19.72 136.232C19.72 133.064 20.872 130.424 23.176 128.312C25.576 126.104 28.456 125 31.816 125C37.192 125 42.472 126.92 47.656 130.76C49 124.04 50.488 117.8 52.12 112.04C52.792 109.64 53.944 106.52 55.576 102.68C57.304 98.84 58.408 96.344 58.888 95.192H58.312C57.64 97.304 56.2 99.176 53.992 100.808C51.784 102.44 49.672 103.256 47.656 103.256C44.68 103.256 41.128 102.776 37 101.816C32.872 100.856 29.32 100.376 26.344 100.376C19.816 100.376 14.104 103.016 9.208 108.296C4.312 113.48 1.864 119.288 1.864 125.72ZM0.136 126.728C0.136 118.664 2.632 111.944 7.624 106.568C12.616 101.192 19.144 98.504 27.208 98.504C30.472 98.504 34.216 99.032 38.44 100.088C42.664 101.048 46.12 101.528 48.808 101.528C50.056 101.528 51.544 100.952 53.272 99.8C55 98.552 56.152 97.064 56.728 95.336C56.824 95.144 56.968 94.76 57.16 94.184L57.304 93.464H63.64C59.992 101.912 57.448 108.776 56.008 114.056C54.184 120.104 52.744 126.2 51.688 132.344C51.496 132.824 51.208 134.312 50.824 136.808C49.384 135.848 48.184 134.984 47.224 134.216C42.616 130.76 37.864 129.032 32.968 129.032C30.376 129.032 28.168 129.848 26.344 131.48C24.616 133.112 23.752 135.08 23.752 137.384C23.752 142.76 26.968 145.448 33.4 145.448C36.856 145.448 40.36 144.728 43.912 143.288C47.56 141.848 50.536 140.024 52.84 137.816C53.8 136.856 54.424 136.28 54.712 136.088L56.584 137.672C57.544 138.536 58.36 139.4 59.032 140.264C59.512 141.032 59.992 141.944 60.472 143C60.568 143.096 60.712 143.384 60.904 143.864C61.096 144.248 61.192 144.536 61.192 144.728L59.752 146.168C51.496 153.752 42.04 157.544 31.384 157.544C22.648 157.544 15.256 154.712 9.208 149.048C3.16 143.384 0.136 135.944 0.136 126.728ZM68.4618 118.952C68.4618 117.8 68.8458 116.792 69.6138 115.928C70.4778 115.064 71.4378 114.632 72.4938 114.632C73.6458 114.632 74.6058 114.92 75.3738 115.496C76.2378 115.976 76.6698 116.552 76.6698 117.224C76.6698 118.28 76.2858 119.192 75.5178 119.96C74.8458 120.632 74.0298 120.968 73.0698 120.968C69.9978 120.968 68.4618 120.296 68.4618 118.952ZM58.6698 110.6C58.6698 120.392 61.3098 126.632 66.5898 129.32L64.8618 130.184C66.6858 132.68 70.5738 133.928 76.5258 133.928C85.1658 133.928 92.3658 132.008 98.1258 128.168C103.886 124.232 106.766 119.048 106.766 112.616C106.766 106.664 104.078 101.672 98.7018 97.64C93.3258 93.608 86.3658 91.592 77.8218 91.592C73.2138 91.592 69.1338 93.416 65.5818 97.064C62.0298 100.616 59.7258 105.128 58.6698 110.6ZM56.9417 111.752V111.464V111.176C59.8218 96.968 67.1658 89.864 78.9738 89.864C88.0938 89.864 95.6778 92.12 101.726 96.632C107.774 101.144 110.798 106.856 110.798 113.768C110.798 121.256 107.534 127.16 101.006 131.48C94.5738 135.8 86.7978 137.96 77.6778 137.96C70.7658 137.96 66.1098 136.328 63.7098 133.064L61.4058 130.04L62.1258 129.752C58.6698 125.72 56.9417 119.72 56.9417 111.752ZM103.533 128.744C103.533 131.048 104.397 135.272 106.125 141.416C107.853 147.464 109.149 151.496 110.013 153.512C111.549 157.448 113.853 160.808 116.925 163.592C120.093 166.472 123.597 167.912 127.437 167.912C130.989 165.224 134.493 160.28 137.949 153.08C141.405 145.784 144.237 138.776 146.445 132.056C148.653 125.336 149.949 120.44 150.333 117.368L151.053 112.76C151.053 109.208 149.997 107.432 147.885 107.432C144.429 107.432 141.405 107.768 138.812 108.44C135.357 109.304 133.149 111.08 132.189 113.768C128.445 124.328 126.093 131.912 125.133 136.52L119.517 120.248C116.925 120.728 114.429 121.448 112.029 122.408C108.477 123.848 106.173 125.048 105.117 126.008C104.061 126.872 103.533 127.784 103.533 128.744ZM101.66 129.608C101.66 127.976 102.428 126.44 103.965 125C105.501 123.56 107.517 122.408 110.013 121.544C112.509 120.584 114.717 119.864 116.637 119.384C118.653 118.808 120.621 118.376 122.541 118.088L125.853 128.024L130.461 114.056C131.709 110.216 134.589 107.768 139.101 106.712C141.981 106.04 145.293 105.704 149.037 105.704C150.861 105.704 152.301 106.472 153.357 108.008C154.509 109.544 155.085 111.512 155.085 113.912C155.085 114.872 154.797 116.84 154.221 119.816C153.741 122.696 152.397 127.592 150.189 134.504C147.981 141.32 145.149 148.328 141.693 155.528C137.853 163.208 133.821 168.68 129.597 171.944C124.029 171.944 119.517 170.264 116.061 166.904C112.605 163.544 110.061 159.8 108.429 155.672L107.709 153.512C107.229 151.976 106.653 150.2 105.981 148.184C105.309 146.072 104.637 143.864 103.965 141.56C103.293 139.256 102.765 137 102.38 134.792C101.9 132.584 101.66 130.856 101.66 129.608ZM151.462 98.792C151.462 95.816 153.046 94.328 156.214 94.328C162.262 95.768 167.974 96.488 173.35 96.488C180.358 96.488 188.326 96.152 197.254 95.48C197.35 95.48 197.542 95.48 197.83 95.48C198.214 95.384 198.454 95.336 198.55 95.336C198.742 95.624 198.886 95.816 198.982 95.912C199.078 95.912 199.126 95.96 199.126 96.056C199.222 96.056 199.366 96.2 199.558 96.488C202.438 99.752 203.878 103.784 203.878 108.584C203.878 111.752 203.158 115.64 201.718 120.248C201.622 120.44 201.43 121.112 201.142 122.264C200.854 123.32 200.662 123.944 200.566 124.136C200.278 124.04 199.702 123.656 198.838 122.984C198.07 122.216 197.542 121.784 197.254 121.688C195.046 119.96 192.166 119.096 188.614 119.096C188.326 119.096 188.038 119.096 187.75 119.096C187.558 119.096 187.414 119.144 187.318 119.24C187.222 119.24 187.126 119.24 187.03 119.24H186.886C188.614 121.544 189.478 124.568 189.478 128.312C189.478 129.464 189.382 131.48 189.19 134.36C189.19 134.456 189.142 134.648 189.046 134.936C189.046 135.224 189.046 135.416 189.046 135.512L188.182 136.376C191.254 135.512 194.182 133.832 196.966 131.336C197.158 131.144 197.59 130.712 198.262 130.04C199.03 129.368 199.51 128.936 199.702 128.744L201.43 132.2C203.158 135.944 204.022 140.12 204.022 144.728C204.022 150.008 203.59 154.04 202.726 156.824C202.63 157.016 202.486 157.352 202.294 157.832C202.198 158.216 202.15 158.504 202.15 158.696L200.278 158.84C191.062 159.608 182.326 159.992 174.07 159.992C167.062 159.992 160.726 159.8 155.062 159.416C154.87 159.416 154.342 159.416 153.478 159.416C152.71 159.32 152.23 159.272 152.038 159.272L152.326 156.248C152.614 153.656 152.998 150.632 153.478 147.176C154.054 143.624 154.486 140.504 154.774 137.816C155.062 135.032 155.206 132.104 155.206 129.032C155.206 118.472 153.958 108.392 151.462 98.792ZM153.766 99.224C155.878 107.96 156.934 116.936 156.934 126.152C156.934 129.992 156.742 133.736 156.358 137.384C156.07 141.032 155.638 144.728 155.062 148.472C154.486 152.12 154.15 154.424 154.054 155.384C159.718 155.768 166.006 155.96 172.918 155.96C180.982 155.96 189.622 155.576 198.838 154.808C199.606 152.12 199.99 148.376 199.99 143.576C199.99 139.256 199.222 135.512 197.686 132.344C193.078 136.472 187.846 138.536 181.99 138.536C178.15 138.536 174.502 138.008 171.046 136.952C171.046 136.088 171.382 134.888 172.054 133.352C174.55 134.408 176.47 134.936 177.814 134.936C180.982 134.936 183.43 134.264 185.158 132.92C185.35 130.04 185.446 128.12 185.446 127.16C185.446 124.088 184.774 121.64 183.43 119.816C179.302 120.872 175.894 121.4 173.206 121.4C172.918 120.344 172.774 119 172.774 117.368C179.014 115.832 183.91 115.064 187.462 115.064C191.302 115.064 194.758 116.12 197.83 118.232C199.174 114.008 199.846 110.408 199.846 107.432C199.846 103.4 198.646 99.992 196.246 97.208C187.318 97.88 179.302 98.216 172.198 98.216C169.03 98.216 165.67 97.976 162.118 97.496C158.662 97.016 156.694 96.776 156.214 96.776C154.582 96.776 153.766 97.592 153.766 99.224ZM229.146 111.752C232.122 111.752 234.57 111.992 236.49 112.472C238.506 112.952 239.514 113.576 239.514 114.344C239.514 115.592 239.082 116.6 238.218 117.368C237.45 118.04 236.442 118.568 235.194 118.952C234.042 119.336 232.602 119.672 230.874 119.96C230.394 120.056 230.058 120.104 229.866 120.104L229.146 111.752ZM202.938 158.984C210.33 160.52 218.442 161.288 227.274 161.288C228.81 161.288 229.962 160.76 230.73 159.704C231.594 158.648 232.026 157.352 232.026 155.816C232.026 145.736 231.402 136.52 230.154 128.168C235.338 131.912 238.746 136.04 240.378 140.552C242.01 144.968 242.826 152.264 242.826 162.44C245.418 164.36 248.394 165.32 251.754 165.32C257.226 165.32 261.786 162.968 265.434 158.264C269.082 153.56 271.098 148.424 271.482 142.856C267.45 142.856 264.474 142.232 262.554 140.984C260.634 139.736 259.338 137.528 258.666 134.36C257.898 130.616 256.362 127.64 254.058 125.432C251.754 123.128 248.73 121.976 244.986 121.976C250.938 120.344 255.69 117.704 259.242 114.056C262.89 110.312 264.714 105.944 264.714 100.952C264.714 97.016 262.938 93.608 259.386 90.728C255.93 87.752 251.754 86.264 246.858 86.264C243.114 86.264 238.41 87.56 232.746 90.152C227.082 92.648 222.378 93.896 218.634 93.896C217.194 93.896 215.85 93.848 214.602 93.752C213.354 93.56 211.962 93.368 210.426 93.176C208.89 92.984 207.546 92.84 206.394 92.744C206.586 95.624 206.874 99.224 207.258 103.544C207.642 107.768 207.93 111.56 208.122 114.92C208.41 118.28 208.554 121.88 208.554 125.72C208.554 129.56 208.266 133.208 207.689 136.664C207.114 140.12 206.298 143.96 205.242 148.184C204.186 152.312 203.418 155.912 202.938 158.984ZM200.777 162.44L201.209 159.704C201.785 156.536 202.554 152.84 203.514 148.616C204.57 144.392 205.386 140.648 205.962 137.384C206.538 134.12 206.826 130.616 206.826 126.872C206.826 123.128 206.682 119.576 206.394 116.216C206.202 112.856 205.914 109.064 205.53 104.84C205.146 100.616 204.858 97.016 204.666 94.04C204.666 93.752 204.618 93.176 204.522 92.312C204.426 91.448 204.378 90.92 204.378 90.728C204.57 90.728 205.146 90.776 206.106 90.872C207.066 90.968 207.642 91.016 207.834 91.016C208.89 91.112 210.714 91.352 213.306 91.736C215.898 92.024 218.058 92.168 219.786 92.168C223.05 92.168 227.562 90.92 233.322 88.424C239.082 85.832 243.978 84.536 248.01 84.536C253.578 84.536 258.426 86.312 262.554 89.864C266.682 93.32 268.746 97.4 268.746 102.104C268.746 110.84 264.138 117.704 254.922 122.696C258.954 125.288 261.546 129.368 262.698 134.936C263.178 137.24 264.042 138.872 265.29 139.832C266.634 140.696 269.082 141.128 272.634 141.128H275.657C275.657 141.224 275.609 141.704 275.514 142.568C275.514 143.432 275.514 143.96 275.514 144.152C275.034 150.392 272.73 156.152 268.602 161.432C264.474 166.712 259.242 169.352 252.906 169.352C248.874 169.352 245.322 168.2 242.25 165.896C242.154 165.896 241.962 165.752 241.674 165.464C241.386 165.176 241.194 165.032 241.098 165.032V163.592C241.098 155.816 240.666 150.008 239.802 146.168C239.034 142.328 237.498 139.064 235.194 136.376C235.77 141.848 236.058 148.712 236.058 156.968C236.058 159.176 235.386 161.096 234.042 162.728C232.698 164.456 230.826 165.32 228.426 165.32C219.498 165.32 211.194 164.552 203.514 163.016L200.777 162.44ZM268.345 103.688C268.345 107.144 268.921 110.36 270.073 113.336C273.529 111.128 277.513 110.024 282.025 110.024C285.097 110.024 288.121 110.36 291.097 111.032C289.945 117.944 289.369 126.008 289.369 135.224C289.369 137.912 289.465 140.696 289.657 143.576C289.945 146.456 290.281 149.576 290.665 152.936C291.049 156.296 291.337 159.08 291.529 161.288C295.465 161.96 300.265 162.296 305.929 162.296C308.617 162.296 310.969 161.672 312.985 160.424C315.001 159.08 316.009 157.112 316.009 154.52C316.009 152.216 315.577 148.04 314.713 141.992C313.945 135.944 313.465 130.76 313.273 126.44C313.273 124.904 313.177 122.072 312.985 117.944C312.889 113.72 312.793 110.6 312.697 108.584C314.041 108.68 316.537 109.016 320.185 109.592C323.929 110.072 326.905 110.312 329.113 110.312C333.817 110.312 336.553 108.872 337.321 105.992C339.049 99.368 339.913 93.224 339.913 87.56C339.913 85.736 339.001 84.824 337.177 84.824C335.449 84.824 332.617 85.16 328.681 85.832C324.841 86.408 321.673 86.696 319.177 86.696C315.145 86.696 309.481 86.216 302.185 85.256C294.985 84.296 289.561 83.768 285.913 83.672C277.177 83.672 272.137 85.448 270.793 89C269.161 93.32 268.345 98.216 268.345 103.688ZM266.473 104.84C266.473 98.024 267.241 92.6 268.777 88.568C270.601 83.768 276.697 81.368 287.065 81.368C291.097 81.464 296.665 82.088 303.769 83.24C310.969 84.392 316.489 84.968 320.329 84.968C322.537 84.968 325.561 84.68 329.401 84.104C333.241 83.432 336.217 83.096 338.329 83.096C339.865 83.096 341.161 83.576 342.217 84.536C343.369 85.592 343.945 86.984 343.945 88.712C343.945 93.8 343.033 100.136 341.209 107.72C340.057 112.136 336.409 114.344 330.265 114.344C327.961 114.344 323.449 113.864 316.729 112.904C316.825 114.824 316.921 117.464 317.017 120.824C317.209 124.184 317.305 126.44 317.305 127.592C317.497 131.72 317.977 136.808 318.745 142.856C319.609 148.808 320.041 153.08 320.041 155.672C320.041 159.224 318.697 161.864 316.009 163.592C313.321 165.416 310.345 166.328 307.081 166.328C301.129 166.328 296.137 165.992 292.105 165.32L289.945 164.888L289.801 162.728C289.609 160.712 289.321 157.976 288.937 154.52C288.553 151.064 288.217 147.896 287.929 145.016C287.737 142.04 287.641 139.16 287.641 136.376C287.641 127.832 288.073 120.536 288.937 114.488C286.921 114.2 285.001 114.056 283.177 114.056C278.953 114.056 275.497 114.968 272.809 116.792L269.785 118.808L268.489 115.496C267.145 111.944 266.473 108.392 266.473 104.84ZM374.239 125.72C374.239 134.072 376.975 140.792 382.447 145.88C387.919 150.968 394.639 153.512 402.607 153.512C412.399 153.512 421.183 149.96 428.959 142.856C428.095 141.032 427.135 139.688 426.079 138.824C423.487 141.32 420.175 143.336 416.143 144.872C412.207 146.408 408.367 147.176 404.623 147.176C400.879 147.176 397.855 146.312 395.551 144.584C393.247 142.76 392.095 139.976 392.095 136.232C392.095 133.064 393.247 130.424 395.551 128.312C397.951 126.104 400.831 125 404.191 125C409.567 125 414.847 126.92 420.031 130.76C421.375 124.04 422.863 117.8 424.495 112.04C425.167 109.64 426.319 106.52 427.951 102.68C429.679 98.84 430.783 96.344 431.263 95.192H430.687C430.015 97.304 428.575 99.176 426.367 100.808C424.159 102.44 422.047 103.256 420.031 103.256C417.055 103.256 413.503 102.776 409.375 101.816C405.247 100.856 401.695 100.376 398.719 100.376C392.191 100.376 386.479 103.016 381.583 108.296C376.687 113.48 374.239 119.288 374.239 125.72ZM372.511 126.728C372.511 118.664 375.007 111.944 379.999 106.568C384.991 101.192 391.519 98.504 399.583 98.504C402.847 98.504 406.591 99.032 410.815 100.088C415.039 101.048 418.495 101.528 421.183 101.528C422.431 101.528 423.919 100.952 425.647 99.8C427.375 98.552 428.527 97.064 429.103 95.336C429.199 95.144 429.343 94.76 429.535 94.184L429.679 93.464H436.015C432.367 101.912 429.823 108.776 428.383 114.056C426.559 120.104 425.119 126.2 424.063 132.344C423.871 132.824 423.583 134.312 423.199 136.808C421.759 135.848 420.559 134.984 419.599 134.216C414.991 130.76 410.239 129.032 405.343 129.032C402.751 129.032 400.543 129.848 398.719 131.48C396.991 133.112 396.127 135.08 396.127 137.384C396.127 142.76 399.343 145.448 405.775 145.448C409.231 145.448 412.735 144.728 416.287 143.288C419.935 141.848 422.911 140.024 425.215 137.816C426.175 136.856 426.799 136.28 427.087 136.088L428.959 137.672C429.919 138.536 430.735 139.4 431.407 140.264C431.887 141.032 432.367 141.944 432.847 143C432.943 143.096 433.087 143.384 433.279 143.864C433.471 144.248 433.567 144.536 433.567 144.728L432.127 146.168C423.871 153.752 414.415 157.544 403.759 157.544C395.023 157.544 387.631 154.712 381.583 149.048C375.535 143.384 372.511 135.944 372.511 126.728ZM436.007 155.528C437.159 155.912 438.407 156.2 439.751 156.392C441.191 156.584 443.543 156.872 446.807 157.256C450.167 157.544 453.431 157.928 456.599 158.408C457.655 152.168 458.231 146.792 458.327 142.28C468.695 141.992 474.071 141.848 474.455 141.848C474.263 143.288 473.687 145.352 472.727 148.04C471.863 150.728 471.431 152.744 471.431 154.088C471.431 155.624 471.959 156.872 473.015 157.832C474.071 158.696 475.367 159.128 476.903 159.128C482.951 159.128 489.191 159.704 495.623 160.856C495.623 160.28 495.287 156.488 494.615 149.48C493.943 142.376 493.607 136.808 493.607 132.776C493.607 120.968 495.239 109.064 498.503 97.064C491.975 94.952 486.215 93.896 481.223 93.896C479.207 93.896 477.575 94.52 476.327 95.768C475.079 97.016 474.455 98.696 474.455 100.808V126.44C473.111 126.536 470.951 126.824 467.975 127.304C464.999 127.688 462.935 127.88 461.783 127.88C460.919 127.88 460.055 127.64 459.191 127.16C458.327 126.68 457.895 126.104 457.895 125.432C457.895 121.304 459.383 111.032 462.359 94.616C454.295 94.616 445.655 96.392 436.439 99.944C437.495 108.104 438.023 117.8 438.023 129.032C438.023 138.632 437.351 147.464 436.007 155.528ZM433.991 158.552L434.423 156.248C435.671 148.76 436.295 140.072 436.295 130.184C436.295 119.72 435.719 110.168 434.567 101.528C434.567 101.432 434.519 101 434.423 100.232C434.327 99.464 434.279 99.032 434.279 98.936L436.439 98.216C446.327 94.376 455.351 92.456 463.511 92.456H466.967C466.967 93.128 466.775 94.424 466.391 96.344C463.511 111.992 462.023 121.88 461.927 126.008C462.215 126.104 462.551 126.152 462.935 126.152C463.703 126.152 465.431 125.96 468.119 125.576C470.807 125.192 472.343 125 472.727 125C472.727 122.6 472.679 118.856 472.583 113.768C472.583 108.584 472.583 104.552 472.583 101.672C472.583 98.792 473.447 96.488 475.175 94.76C476.903 92.936 479.207 92.024 482.087 92.024C487.271 92.024 493.415 93.176 500.519 95.48C501.095 95.768 501.959 96.056 503.111 96.344C503.111 96.536 503.015 97.016 502.823 97.784C502.631 98.456 502.487 98.888 502.391 99.08C499.223 110.504 497.639 122.12 497.639 133.928C497.639 137.768 497.975 143.24 498.647 150.344C499.319 157.352 499.655 161.24 499.655 162.008V165.464C498.695 165.272 497.543 165.08 496.199 164.888C489.959 163.736 483.911 163.16 478.055 163.16C475.751 163.16 473.783 162.44 472.151 161C470.519 159.464 469.703 157.544 469.703 155.24C469.703 153.8 470.423 150.776 471.863 146.168C469.655 146.264 466.487 146.312 462.359 146.312C462.263 148.232 461.639 152.792 460.487 159.992C460.487 160.184 460.439 160.664 460.343 161.432C460.247 162.2 460.151 162.68 460.055 162.872C458.903 162.584 457.991 162.44 457.319 162.44C454.727 162.056 452.087 161.72 449.399 161.432C446.711 161.144 444.695 160.952 443.351 160.856C442.103 160.664 440.855 160.472 439.607 160.28C438.359 159.992 437.255 159.704 436.295 159.416L433.991 158.552ZM502.074 105.56C505.338 109.688 506.97 117.464 506.97 128.888C506.97 131.096 506.682 134.312 506.106 138.536C505.53 142.76 504.954 146.6 504.378 150.056C503.802 153.416 503.514 155.144 503.514 155.24C505.338 154.952 507.258 154.808 509.274 154.808C511.386 154.808 513.834 154.904 516.618 155.096C519.402 155.192 521.658 155.24 523.386 155.24C524.922 155.24 526.17 154.808 527.13 153.944C528.09 152.984 528.57 151.736 528.57 150.2C528.57 149.816 528.09 147.608 527.13 143.576C526.17 139.448 525.69 136.856 525.69 135.8C525.69 133.016 526.026 128.984 526.698 123.704C527.37 118.424 527.706 113.672 527.706 109.448C527.706 107.336 527.034 105.656 525.69 104.408C524.442 103.16 522.81 102.536 520.794 102.536C517.242 102.536 511.002 103.544 502.074 105.56ZM505.818 90.152C505.818 92.456 506.586 94.472 508.122 96.2C509.658 97.832 511.482 98.648 513.594 98.648C517.242 98.648 520.314 97.592 522.81 95.48C525.306 93.368 526.554 90.632 526.554 87.272C526.554 82.376 523.482 79.928 517.338 79.928C514.17 79.928 511.434 80.888 509.13 82.808C506.922 84.632 505.818 87.08 505.818 90.152ZM499.194 106.568L499.338 104.696C505.866 103.064 509.754 102.152 511.002 101.96C508.986 101.096 507.306 99.704 505.962 97.784C504.714 95.768 504.09 93.608 504.09 91.304C504.09 87.464 505.482 84.344 508.266 81.944C511.05 79.448 514.458 78.2 518.49 78.2C522.426 78.2 525.402 79.16 527.418 81.08C529.53 83 530.586 85.448 530.586 88.424C530.586 94.184 527.946 98.36 522.666 100.952C525.258 101.144 527.418 102.152 529.146 103.976C530.874 105.704 531.738 107.912 531.738 110.6C531.738 114.92 531.402 119.768 530.73 125.144C530.058 130.424 529.722 134.36 529.722 136.952C529.722 137.528 530.202 139.832 531.162 143.864C532.122 147.8 532.602 150.296 532.602 151.352C532.602 153.752 531.786 155.672 530.154 157.112C528.618 158.552 526.746 159.272 524.538 159.272C522.714 159.272 520.362 159.224 517.482 159.128C514.602 158.936 512.154 158.84 510.138 158.84C508.218 158.84 506.442 158.984 504.81 159.272L501.93 159.704L501.642 156.824C501.642 156.056 502.218 152.072 503.37 144.872C504.618 137.672 505.242 132.728 505.242 130.04C505.242 125.432 504.906 121.592 504.234 118.52C503.658 115.352 503.034 113.096 502.362 111.752C501.69 110.312 500.634 108.584 499.194 106.568ZM533.416 151.64C533.416 152.6 533.944 153.656 535 154.808C536.056 155.96 537.688 156.968 539.896 157.832C543.352 158.504 548.344 158.744 554.872 158.552L565.096 133.784C567.112 140.696 570.616 146.984 575.608 152.648C581.848 147.944 586.168 142.28 588.568 135.656C589.432 138.728 591.112 143.912 593.608 151.208C596.104 158.504 597.592 162.488 598.072 163.16C599.512 161.432 601.48 160.088 603.976 159.128C606.568 158.072 608.872 157.4 610.888 157.112C613 156.824 614.824 156.2 616.36 155.24C617.992 154.184 618.808 152.648 618.808 150.632C618.232 147.464 617.416 143.432 616.36 138.536C615.304 133.544 613.288 126.104 610.312 116.216C607.432 106.232 604.744 99.464 602.248 95.912C594.28 95.912 588.808 96.056 585.832 96.344L575.608 116.36C575.128 117.32 574.744 117.464 574.456 116.792C573.592 115.448 571.864 111.944 569.272 106.28C566.68 100.616 564.712 97.352 563.368 96.488L553.432 96.776C550.072 96.776 548.248 97.304 547.96 98.36C546.904 101.24 544.216 110.264 539.896 125.432C535.576 140.6 533.416 149.336 533.416 151.64ZM531.688 152.792C531.688 150.392 533.704 142.04 537.736 127.736C541.768 113.432 544.6 103.736 546.232 98.648C546.52 97.784 546.712 97.256 546.808 97.064C546.904 96.872 547.624 96.488 548.968 95.912C550.312 95.336 552.184 95.048 554.584 95.048C557.08 95.048 559.144 95.048 560.776 95.048C562.408 94.952 563.512 94.904 564.088 94.904C564.76 94.808 565.192 94.76 565.384 94.76C566.536 95.432 567.544 96.344 568.408 97.496C569.272 98.648 569.944 99.8 570.424 100.952C571 102.008 571.816 103.784 572.872 106.28C574.024 108.68 575.032 110.792 575.896 112.616C581.272 102.056 584.296 96.056 584.968 94.616C589 94.328 595.672 94.184 604.984 94.184C608.056 98.6 611.08 105.608 614.056 115.208C617.032 124.808 619.24 133.304 620.68 140.696L622.84 151.784C622.84 154.472 621.976 156.584 620.248 158.12C618.616 159.56 616.696 160.472 614.488 160.856C612.28 161.144 609.88 161.72 607.288 162.584C604.696 163.448 602.776 164.648 601.528 166.184L599.224 169.064L596.92 166.04C596.152 165.08 593.56 157.928 589.144 144.584C586.552 148.712 582.28 153.08 576.328 157.688C571.816 152.504 568.456 147.608 566.248 143L558.04 162.44L556.168 162.584C549.928 162.776 544.6 162.488 540.184 161.72C537.496 160.76 535.384 159.464 533.848 157.832C532.408 156.2 531.688 154.52 531.688 152.792ZM644.24 120.68C644.24 118.376 644.624 116.216 645.392 114.2C647.12 114.2 648.752 114.488 650.288 115.064C651.92 115.544 652.736 116.408 652.736 117.656C652.736 119.384 651.92 120.872 650.288 122.12C648.656 123.368 646.736 123.992 644.528 123.992C644.336 122.648 644.24 121.544 644.24 120.68ZM620.48 155.528C620.48 159.368 624.08 161.288 631.28 161.288C635.408 161.288 639.104 160.424 642.368 158.696C644.384 154.664 645.392 149.624 645.392 143.576C645.392 139.832 645.2 135.8 644.816 131.48C648.272 132.344 652.592 132.776 657.776 132.776C665.456 132.776 672.464 130.28 678.8 125.288C685.232 120.2 688.448 113.288 688.448 104.552C688.448 98.408 686 93.368 681.104 89.432C676.304 85.4 670.448 83.384 663.536 83.384C658.832 83.384 652.4 85.016 644.24 88.28C636.176 91.544 629.408 93.512 623.936 94.184C623.072 94.376 622.64 95 622.64 96.056C622.64 99.992 622.928 104.984 623.504 111.032C624.176 116.984 624.512 122.168 624.512 126.584C624.512 130.04 624.176 134.072 623.504 138.68C622.832 143.192 622.16 147.08 621.488 150.344C620.816 153.512 620.48 155.24 620.48 155.528ZM648.272 121.832C650 121.064 650.912 120.2 651.008 119.24C650.24 118.856 649.424 118.616 648.56 118.52C648.368 119.384 648.272 120.488 648.272 121.832ZM618.752 156.68C618.752 156.296 619.088 154.472 619.76 151.208C620.432 147.848 621.104 143.96 621.776 139.544C622.448 135.032 622.784 131.096 622.784 127.736C622.784 123.512 622.448 118.424 621.776 112.472C621.2 106.424 620.912 101.336 620.912 97.208C620.912 94.424 622.016 92.84 624.224 92.456C629.696 91.784 636.512 89.816 644.672 86.552C652.928 83.192 659.6 81.512 664.688 81.512C672.272 81.512 678.8 83.816 684.272 88.424C689.744 92.936 692.48 98.696 692.48 105.704C692.48 115.304 688.976 122.888 681.968 128.456C674.96 134.024 667.28 136.808 658.928 136.808C654.992 136.808 651.728 136.616 649.136 136.232C649.328 138.536 649.424 141.368 649.424 144.728C649.424 151.256 648.32 156.728 646.112 161.144L645.68 162.008L644.816 162.44C641.264 164.36 637.136 165.32 632.432 165.32C627.344 165.32 623.792 164.456 621.776 162.728C619.76 161 618.752 158.984 618.752 156.68ZM733.337 141.992C733.337 140.648 733.769 139.496 734.633 138.536C735.593 137.576 736.745 137.096 738.089 137.096C739.433 137.096 740.585 137.384 741.545 137.96C742.505 138.536 742.985 139.304 742.985 140.264C742.985 141.512 742.553 142.616 741.689 143.576C740.921 144.44 739.913 144.872 738.665 144.872C737.225 144.872 735.977 144.584 734.921 144.008C733.865 143.432 733.337 142.76 733.337 141.992ZM723.545 133.64C723.545 143.432 726.185 149.672 731.465 152.36L729.737 153.224C731.177 155.144 733.289 156.68 736.073 157.832C738.857 158.984 741.641 159.56 744.425 159.56C753.353 159.56 760.601 157.448 766.169 153.224C771.737 148.904 774.521 143.048 774.521 135.656C774.521 129.512 771.545 124.232 765.593 119.816C759.641 115.4 752.489 113.192 744.137 113.192C739.145 113.192 734.729 115.16 730.889 119.096C727.145 122.936 724.697 127.784 723.545 133.64ZM737.369 142.568C738.137 142.952 738.953 143.144 739.817 143.144C740.777 143.144 741.257 142.664 741.257 141.704C740.873 141.32 740.201 141.128 739.241 141.128C738.185 141.128 737.561 141.608 737.369 142.568ZM721.817 134.792V134.504V134.216C723.161 127.208 725.897 121.688 730.025 117.656C734.249 113.528 739.337 111.464 745.289 111.464C754.313 111.464 762.089 113.912 768.617 118.808C775.241 123.608 778.553 129.608 778.553 136.808C778.553 144.872 775.529 151.352 769.481 156.248C763.529 161.144 755.561 163.592 745.577 163.592C742.505 163.592 739.337 162.92 736.073 161.576C732.905 160.328 730.409 158.504 728.585 156.104C727.145 154.184 726.377 153.176 726.281 153.08C726.377 153.08 726.473 153.08 726.569 153.08C726.761 152.984 726.905 152.888 727.001 152.792C723.545 148.856 721.817 142.856 721.817 134.792ZM801.459 120.68C801.459 118.376 801.843 116.216 802.611 114.2C804.339 114.2 805.971 114.488 807.507 115.064C809.139 115.544 809.955 116.408 809.955 117.656C809.955 119.384 809.139 120.872 807.507 122.12C805.875 123.368 803.955 123.992 801.747 123.992C801.555 122.648 801.459 121.544 801.459 120.68ZM777.699 155.528C777.699 159.368 781.299 161.288 788.499 161.288C792.627 161.288 796.323 160.424 799.587 158.696C801.603 154.664 802.611 149.624 802.611 143.576C802.611 139.832 802.419 135.8 802.035 131.48C805.491 132.344 809.811 132.776 814.995 132.776C822.675 132.776 829.683 130.28 836.019 125.288C842.451 120.2 845.667 113.288 845.667 104.552C845.667 98.408 843.219 93.368 838.323 89.432C833.523 85.4 827.667 83.384 820.755 83.384C816.051 83.384 809.619 85.016 801.459 88.28C793.395 91.544 786.627 93.512 781.155 94.184C780.291 94.376 779.859 95 779.859 96.056C779.859 99.992 780.147 104.984 780.723 111.032C781.395 116.984 781.731 122.168 781.731 126.584C781.731 130.04 781.395 134.072 780.723 138.68C780.051 143.192 779.379 147.08 778.707 150.344C778.035 153.512 777.699 155.24 777.699 155.528ZM805.491 121.832C807.219 121.064 808.131 120.2 808.227 119.24C807.459 118.856 806.643 118.616 805.779 118.52C805.587 119.384 805.491 120.488 805.491 121.832ZM775.971 156.68C775.971 156.296 776.307 154.472 776.979 151.208C777.651 147.848 778.323 143.96 778.995 139.544C779.667 135.032 780.003 131.096 780.003 127.736C780.003 123.512 779.667 118.424 778.995 112.472C778.419 106.424 778.131 101.336 778.131 97.208C778.131 94.424 779.235 92.84 781.443 92.456C786.915 91.784 793.731 89.816 801.891 86.552C810.147 83.192 816.819 81.512 821.907 81.512C829.491 81.512 836.019 83.816 841.491 88.424C846.963 92.936 849.699 98.696 849.699 105.704C849.699 115.304 846.195 122.888 839.187 128.456C832.179 134.024 824.499 136.808 816.147 136.808C812.211 136.808 808.947 136.616 806.355 136.232C806.547 138.536 806.643 141.368 806.643 144.728C806.643 151.256 805.539 156.728 803.331 161.144L802.899 162.008L802.035 162.44C798.483 164.36 794.355 165.32 789.651 165.32C784.563 165.32 781.011 164.456 778.995 162.728C776.979 161 775.971 158.984 775.971 156.68ZM848.872 158.264C850.504 158.552 852.616 159.032 855.208 159.704C857.8 160.376 860.152 160.904 862.264 161.288C864.472 161.768 866.632 162.008 868.744 162.008C875.176 162.008 880.648 160.04 885.16 156.104C889.768 152.168 892.072 147.416 892.072 141.848C892.072 138.392 891.016 135.32 888.904 132.632C886.792 129.944 884.008 128.072 880.552 127.016C875.848 125.576 873.208 124.424 872.632 123.56C872.44 123.176 872.344 122.84 872.344 122.552C872.344 121.688 873.016 121.256 874.36 121.256C877.144 121.256 879.64 121.592 881.848 122.264C883.096 113.048 885.4 105.32 888.76 99.08C878.968 97.16 871.672 96.2 866.872 96.2C862.552 96.2 858.76 97.448 855.496 99.944C852.232 102.44 850.6 105.416 850.6 108.872C850.6 113.96 852.616 118.664 856.648 122.984C860.776 127.4 862.84 132.104 862.84 137.096C862.84 138.92 862.264 140.504 861.112 141.848C859.96 143.096 858.568 143.72 856.936 143.72C856.168 143.72 855.4 143.576 854.632 143.288C853.864 142.904 853 142.424 852.04 141.848C851.08 141.176 850.312 140.696 849.736 140.408L848.872 158.264ZM847 161.72L848.008 141.416C848.008 141.128 848.056 140.408 848.152 139.256C848.248 138.008 848.296 137.24 848.296 136.952L852.328 138.968C853 139.352 853.768 139.832 854.632 140.408C855.496 140.888 856.168 141.272 856.648 141.56C857.224 141.848 857.704 141.992 858.088 141.992C858.856 141.992 859.528 141.656 860.104 140.984C860.776 140.216 861.112 139.304 861.112 138.248C861.112 134.216 859.288 130.184 855.64 126.152C851.128 121.256 848.872 115.88 848.872 110.024C848.872 105.032 850.744 101.192 854.488 98.504C858.328 95.816 862.84 94.472 868.024 94.472C873.112 94.472 880.6 95.432 890.488 97.352C890.776 97.448 891.448 97.64 892.504 97.928C893.56 98.12 894.184 98.216 894.376 98.216C894.28 98.504 893.992 99.08 893.512 99.944C893.032 100.808 892.696 101.336 892.504 101.528C889.144 107.768 886.936 115.208 885.88 123.848C885.88 123.944 885.784 124.376 885.592 125.144C885.496 125.912 885.448 126.392 885.448 126.584C888.712 128.216 891.304 130.472 893.224 133.352C895.144 136.232 896.104 139.448 896.104 143C896.104 149.432 893.512 154.904 888.328 159.416C883.144 163.832 877 166.04 869.896 166.04C867.592 166.04 865.432 165.848 863.416 165.464C861.4 165.08 859 164.552 856.216 163.88C853.528 163.208 851.272 162.68 849.448 162.296L847 161.72Z" fill="url(#paint0_linear_174_2)"/>
<defs>
<linearGradient id="paint0_linear_174_2" x1="447.5" y1="7.73647e-08" x2="448" y2="219.5" gradientUnits="userSpaceOnUse">
<stop stop-color="#448C73"/>
<stop offset="1" stop-color="#222E2E"/>
</linearGradient>
</defs>
</svg>
