<svg width="845" height="172" viewBox="0 0 845 172" fill="none" xmlns="http://www.w3.org/2000/svg">
<path d="M10.5 105.5L19 101L30 99.5L42 102.5H50.5L55 99L59.5 93.5L52.5 123L50 132.5L30 127L23 132.5V138.5L26 146H38L47 143L54.25 138.25L58.5 144L40.5 155H25.5L10.5 150L3.5 138.5L1.5 130V120L5 112L10.5 105.5Z" fill="#FDDA21"/>
<path d="M108 113.5C108 126.479 90.531 135.5 77 135.5C63.469 135.5 58.5 124.479 58.5 111.5C58.5 98.5213 65.469 91 79 91C92.531 91 108 100.521 108 113.5Z" fill="#FDDA21"/>
<path d="M102 125L114 121.5L120 120L124 132L129 122.5L132 111.5L136.5 108.5L142 107.5H151.5L152 125L140 157.5L128.5 170L119 166.5L110 156.5L102 125Z" fill="#FDDA21"/>
<path d="M153.5 96.5L176 97.5L199 96.5L200.5 107.5L199.5 118H185L187.5 126.5L188 137L199 132L200.5 156.5L153.5 157.5L156.5 128.5L153.5 96.5Z" fill="#FDDA21"/>
<path d="M206 92.5L222 93L243 86H254L262.5 92.5L266 100L263.5 113L252.5 121.5L265 142L273 143L266 162.5L254 166.5L243 164.5L241.5 148.5L239 138.5L235 134L233 152.5L232 162.5L202.5 161L208 125.5L207 105.5L206 92.5Z" fill="#FDDA21"/>
<path d="M269 88L278 83.5H290.5L313 85.5H326L339 83.5L341.5 93L339 106.5L333.5 112L315.5 110L318 160L302.5 164L291.5 162L288.5 145V127L289.5 112L270 114L267.5 102.5L269 88Z" fill="#FDDA21"/>
<path d="M404 95.5L410.5 93.5H421L425 95.5L427 101.5L429 106L435 112.5L458.5 146V158L453 164.5L426 163.5L423 154.5L415.5 146L400.5 143.5L397 158L391.5 164.5L383 163.5L377.5 162L372.5 156L375.5 151L386 142.5L393.5 127.5L397 112.5L398 100L404 95.5Z" fill="#FDDA21"/>
<path d="M464 94L478.5 90.5L493 85L506 82.5L523.5 87.5L532 103L527 122.5L516 132L489.5 134.5L485 163H471.5L461 159.5L465.5 127L464 109V94Z" fill="#FDDA21"/>
<path d="M533 95L554 97.5L575 96.5L578.5 100.5L580.5 106.5L577.5 119L565.5 117L567 137L571.5 135.5L579.5 131L580.5 136.5V158H533L535.5 126.5L533 95Z" fill="#FDDA21"/>
<path d="M626 104.5L634 100.5L645 99.5L658 102L666.5 101.5L672.5 95L674.5 94.5L664.5 133L651.5 127.5L638.5 129.5L637.5 140.5L641 146L654.5 145.5L669.5 138L672.5 143.5L661.5 152.5L643.5 155L625.5 150L618.5 141L615.5 128.5L618 113L626 104.5Z" fill="#FDDA21"/>
<path d="M678 88L686 84L704 85.5L706 129.5L714.5 130.5L724.5 127.5L725.5 129L726 153.5L719 157L712 159.5L677 157L680 121L677 94.5L678 88Z" fill="#FDDA21"/>
<path d="M728 103L730.5 99.5L736.5 98H744.5L752.5 99.5L755 107L757 116L760.5 120.5L764 118L766 109L762 101L764 97L768.5 96L770 98L773.5 103L775 116L771 139L759.5 153L743.5 152L733.5 148.5L729.5 140L730.5 115L728 103Z" fill="#FDDA21"/>
<path d="M778.5 92L807.5 80.5H820L829 84.5L834.5 94L832 108.5L827.5 115.5L836 122.5L843 131.5L841 144L836 156L825 161.5L811.5 164L789 160L775.5 163L781 135L778.5 92Z" fill="#FDDA21"/>
<path d="M1.864 125.72C1.864 134.072 4.6 140.792 10.072 145.88C15.544 150.968 22.264 153.512 30.232 153.512C40.024 153.512 48.808 149.96 56.584 142.856C55.72 141.032 54.76 139.688 53.704 138.824C51.112 141.32 47.8 143.336 43.768 144.872C39.832 146.408 35.992 147.176 32.248 147.176C28.504 147.176 25.48 146.312 23.176 144.584C20.872 142.76 19.72 139.976 19.72 136.232C19.72 133.064 20.872 130.424 23.176 128.312C25.576 126.104 28.456 125 31.816 125C37.192 125 42.472 126.92 47.656 130.76C49 124.04 50.488 117.8 52.12 112.04C52.792 109.64 53.944 106.52 55.576 102.68C57.304 98.84 58.408 96.344 58.888 95.192H58.312C57.64 97.304 56.2 99.176 53.992 100.808C51.784 102.44 49.672 103.256 47.656 103.256C44.68 103.256 41.128 102.776 37 101.816C32.872 100.856 29.32 100.376 26.344 100.376C19.816 100.376 14.104 103.016 9.208 108.296C4.312 113.48 1.864 119.288 1.864 125.72ZM0.136 126.728C0.136 118.664 2.632 111.944 7.624 106.568C12.616 101.192 19.144 98.504 27.208 98.504C30.472 98.504 34.216 99.032 38.44 100.088C42.664 101.048 46.12 101.528 48.808 101.528C50.056 101.528 51.544 100.952 53.272 99.8C55 98.552 56.152 97.064 56.728 95.336C56.824 95.144 56.968 94.76 57.16 94.184L57.304 93.464H63.64C59.992 101.912 57.448 108.776 56.008 114.056C54.184 120.104 52.744 126.2 51.688 132.344C51.496 132.824 51.208 134.312 50.824 136.808C49.384 135.848 48.184 134.984 47.224 134.216C42.616 130.76 37.864 129.032 32.968 129.032C30.376 129.032 28.168 129.848 26.344 131.48C24.616 133.112 23.752 135.08 23.752 137.384C23.752 142.76 26.968 145.448 33.4 145.448C36.856 145.448 40.36 144.728 43.912 143.288C47.56 141.848 50.536 140.024 52.84 137.816C53.8 136.856 54.424 136.28 54.712 136.088L56.584 137.672C57.544 138.536 58.36 139.4 59.032 140.264C59.512 141.032 59.992 141.944 60.472 143C60.568 143.096 60.712 143.384 60.904 143.864C61.096 144.248 61.192 144.536 61.192 144.728L59.752 146.168C51.496 153.752 42.04 157.544 31.384 157.544C22.648 157.544 15.256 154.712 9.208 149.048C3.16 143.384 0.136 135.944 0.136 126.728ZM68.4618 118.952C68.4618 117.8 68.8458 116.792 69.6138 115.928C70.4778 115.064 71.4378 114.632 72.4938 114.632C73.6458 114.632 74.6058 114.92 75.3738 115.496C76.2378 115.976 76.6698 116.552 76.6698 117.224C76.6698 118.28 76.2858 119.192 75.5178 119.96C74.8458 120.632 74.0298 120.968 73.0698 120.968C69.9978 120.968 68.4618 120.296 68.4618 118.952ZM58.6698 110.6C58.6698 120.392 61.3098 126.632 66.5898 129.32L64.8618 130.184C66.6858 132.68 70.5738 133.928 76.5258 133.928C85.1658 133.928 92.3658 132.008 98.1258 128.168C103.886 124.232 106.766 119.048 106.766 112.616C106.766 106.664 104.078 101.672 98.7018 97.64C93.3258 93.608 86.3658 91.592 77.8218 91.592C73.2138 91.592 69.1338 93.416 65.5818 97.064C62.0298 100.616 59.7258 105.128 58.6698 110.6ZM56.9417 111.752V111.464V111.176C59.8218 96.968 67.1658 89.864 78.9738 89.864C88.0938 89.864 95.6778 92.12 101.726 96.632C107.774 101.144 110.798 106.856 110.798 113.768C110.798 121.256 107.534 127.16 101.006 131.48C94.5738 135.8 86.7978 137.96 77.6778 137.96C70.7658 137.96 66.1098 136.328 63.7098 133.064L61.4058 130.04L62.1258 129.752C58.6698 125.72 56.9417 119.72 56.9417 111.752ZM103.533 128.744C103.533 131.048 104.397 135.272 106.125 141.416C107.853 147.464 109.149 151.496 110.013 153.512C111.549 157.448 113.853 160.808 116.925 163.592C120.093 166.472 123.597 167.912 127.437 167.912C130.989 165.224 134.493 160.28 137.949 153.08C141.405 145.784 144.237 138.776 146.445 132.056C148.653 125.336 149.949 120.44 150.333 117.368L151.053 112.76C151.053 109.208 149.997 107.432 147.885 107.432C144.429 107.432 141.405 107.768 138.812 108.44C135.357 109.304 133.149 111.08 132.189 113.768C128.445 124.328 126.093 131.912 125.133 136.52L119.517 120.248C116.925 120.728 114.429 121.448 112.029 122.408C108.477 123.848 106.173 125.048 105.117 126.008C104.061 126.872 103.533 127.784 103.533 128.744ZM101.66 129.608C101.66 127.976 102.428 126.44 103.965 125C105.501 123.56 107.517 122.408 110.013 121.544C112.509 120.584 114.717 119.864 116.637 119.384C118.653 118.808 120.621 118.376 122.541 118.088L125.853 128.024L130.461 114.056C131.709 110.216 134.589 107.768 139.101 106.712C141.981 106.04 145.293 105.704 149.037 105.704C150.861 105.704 152.301 106.472 153.357 108.008C154.509 109.544 155.085 111.512 155.085 113.912C155.085 114.872 154.797 116.84 154.221 119.816C153.741 122.696 152.397 127.592 150.189 134.504C147.981 141.32 145.149 148.328 141.693 155.528C137.853 163.208 133.821 168.68 129.597 171.944C124.029 171.944 119.517 170.264 116.061 166.904C112.605 163.544 110.061 159.8 108.429 155.672L107.709 153.512C107.229 151.976 106.653 150.2 105.981 148.184C105.309 146.072 104.637 143.864 103.965 141.56C103.293 139.256 102.765 137 102.38 134.792C101.9 132.584 101.66 130.856 101.66 129.608ZM151.462 98.792C151.462 95.816 153.046 94.328 156.214 94.328C162.262 95.768 167.974 96.488 173.35 96.488C180.358 96.488 188.326 96.152 197.254 95.48C197.35 95.48 197.542 95.48 197.83 95.48C198.214 95.384 198.454 95.336 198.55 95.336C198.742 95.624 198.886 95.816 198.982 95.912C199.078 95.912 199.126 95.96 199.126 96.056C199.222 96.056 199.366 96.2 199.558 96.488C202.438 99.752 203.878 103.784 203.878 108.584C203.878 111.752 203.158 115.64 201.718 120.248C201.622 120.44 201.43 121.112 201.142 122.264C200.854 123.32 200.662 123.944 200.566 124.136C200.278 124.04 199.702 123.656 198.838 122.984C198.07 122.216 197.542 121.784 197.254 121.688C195.046 119.96 192.166 119.096 188.614 119.096C188.326 119.096 188.038 119.096 187.75 119.096C187.558 119.096 187.414 119.144 187.318 119.24C187.222 119.24 187.126 119.24 187.03 119.24H186.886C188.614 121.544 189.478 124.568 189.478 128.312C189.478 129.464 189.382 131.48 189.19 134.36C189.19 134.456 189.142 134.648 189.046 134.936C189.046 135.224 189.046 135.416 189.046 135.512L188.182 136.376C191.254 135.512 194.182 133.832 196.966 131.336C197.158 131.144 197.59 130.712 198.262 130.04C199.03 129.368 199.51 128.936 199.702 128.744L201.43 132.2C203.158 135.944 204.022 140.12 204.022 144.728C204.022 150.008 203.59 154.04 202.726 156.824C202.63 157.016 202.486 157.352 202.294 157.832C202.198 158.216 202.15 158.504 202.15 158.696L200.278 158.84C191.062 159.608 182.326 159.992 174.07 159.992C167.062 159.992 160.726 159.8 155.062 159.416C154.87 159.416 154.342 159.416 153.478 159.416C152.71 159.32 152.23 159.272 152.038 159.272L152.326 156.248C152.614 153.656 152.998 150.632 153.478 147.176C154.054 143.624 154.486 140.504 154.774 137.816C155.062 135.032 155.206 132.104 155.206 129.032C155.206 118.472 153.958 108.392 151.462 98.792ZM153.766 99.224C155.878 107.96 156.934 116.936 156.934 126.152C156.934 129.992 156.742 133.736 156.358 137.384C156.07 141.032 155.638 144.728 155.062 148.472C154.486 152.12 154.15 154.424 154.054 155.384C159.718 155.768 166.006 155.96 172.918 155.96C180.982 155.96 189.622 155.576 198.838 154.808C199.606 152.12 199.99 148.376 199.99 143.576C199.99 139.256 199.222 135.512 197.686 132.344C193.078 136.472 187.846 138.536 181.99 138.536C178.15 138.536 174.502 138.008 171.046 136.952C171.046 136.088 171.382 134.888 172.054 133.352C174.55 134.408 176.47 134.936 177.814 134.936C180.982 134.936 183.43 134.264 185.158 132.92C185.35 130.04 185.446 128.12 185.446 127.16C185.446 124.088 184.774 121.64 183.43 119.816C179.302 120.872 175.894 121.4 173.206 121.4C172.918 120.344 172.774 119 172.774 117.368C179.014 115.832 183.91 115.064 187.462 115.064C191.302 115.064 194.758 116.12 197.83 118.232C199.174 114.008 199.846 110.408 199.846 107.432C199.846 103.4 198.646 99.992 196.246 97.208C187.318 97.88 179.302 98.216 172.198 98.216C169.03 98.216 165.67 97.976 162.118 97.496C158.662 97.016 156.694 96.776 156.214 96.776C154.582 96.776 153.766 97.592 153.766 99.224ZM229.146 111.752C232.122 111.752 234.57 111.992 236.49 112.472C238.506 112.952 239.514 113.576 239.514 114.344C239.514 115.592 239.082 116.6 238.218 117.368C237.45 118.04 236.442 118.568 235.194 118.952C234.042 119.336 232.602 119.672 230.874 119.96C230.394 120.056 230.058 120.104 229.866 120.104L229.146 111.752ZM202.938 158.984C210.33 160.52 218.442 161.288 227.274 161.288C228.81 161.288 229.962 160.76 230.73 159.704C231.594 158.648 232.026 157.352 232.026 155.816C232.026 145.736 231.402 136.52 230.154 128.168C235.338 131.912 238.746 136.04 240.378 140.552C242.01 144.968 242.826 152.264 242.826 162.44C245.418 164.36 248.394 165.32 251.754 165.32C257.226 165.32 261.786 162.968 265.434 158.264C269.082 153.56 271.098 148.424 271.482 142.856C267.45 142.856 264.474 142.232 262.554 140.984C260.634 139.736 259.338 137.528 258.666 134.36C257.898 130.616 256.362 127.64 254.058 125.432C251.754 123.128 248.73 121.976 244.986 121.976C250.938 120.344 255.69 117.704 259.242 114.056C262.89 110.312 264.714 105.944 264.714 100.952C264.714 97.016 262.938 93.608 259.386 90.728C255.93 87.752 251.754 86.264 246.858 86.264C243.114 86.264 238.41 87.56 232.746 90.152C227.082 92.648 222.378 93.896 218.634 93.896C217.194 93.896 215.85 93.848 214.602 93.752C213.354 93.56 211.962 93.368 210.426 93.176C208.89 92.984 207.546 92.84 206.394 92.744C206.586 95.624 206.874 99.224 207.258 103.544C207.642 107.768 207.93 111.56 208.122 114.92C208.41 118.28 208.554 121.88 208.554 125.72C208.554 129.56 208.266 133.208 207.689 136.664C207.114 140.12 206.298 143.96 205.242 148.184C204.186 152.312 203.418 155.912 202.938 158.984ZM200.777 162.44L201.209 159.704C201.785 156.536 202.554 152.84 203.514 148.616C204.57 144.392 205.386 140.648 205.962 137.384C206.538 134.12 206.826 130.616 206.826 126.872C206.826 123.128 206.682 119.576 206.394 116.216C206.202 112.856 205.914 109.064 205.53 104.84C205.146 100.616 204.858 97.016 204.666 94.04C204.666 93.752 204.618 93.176 204.522 92.312C204.426 91.448 204.378 90.92 204.378 90.728C204.57 90.728 205.146 90.776 206.106 90.872C207.066 90.968 207.642 91.016 207.834 91.016C208.89 91.112 210.714 91.352 213.306 91.736C215.898 92.024 218.058 92.168 219.786 92.168C223.05 92.168 227.562 90.92 233.322 88.424C239.082 85.832 243.978 84.536 248.01 84.536C253.578 84.536 258.426 86.312 262.554 89.864C266.682 93.32 268.746 97.4 268.746 102.104C268.746 110.84 264.138 117.704 254.922 122.696C258.954 125.288 261.546 129.368 262.698 134.936C263.178 137.24 264.042 138.872 265.29 139.832C266.634 140.696 269.082 141.128 272.634 141.128H275.657C275.657 141.224 275.609 141.704 275.514 142.568C275.514 143.432 275.514 143.96 275.514 144.152C275.034 150.392 272.73 156.152 268.602 161.432C264.474 166.712 259.242 169.352 252.906 169.352C248.874 169.352 245.322 168.2 242.25 165.896C242.154 165.896 241.962 165.752 241.674 165.464C241.386 165.176 241.194 165.032 241.098 165.032V163.592C241.098 155.816 240.666 150.008 239.802 146.168C239.034 142.328 237.498 139.064 235.194 136.376C235.77 141.848 236.058 148.712 236.058 156.968C236.058 159.176 235.386 161.096 234.042 162.728C232.698 164.456 230.826 165.32 228.426 165.32C219.498 165.32 211.194 164.552 203.514 163.016L200.777 162.44ZM268.345 103.688C268.345 107.144 268.921 110.36 270.073 113.336C273.529 111.128 277.513 110.024 282.025 110.024C285.097 110.024 288.121 110.36 291.097 111.032C289.945 117.944 289.369 126.008 289.369 135.224C289.369 137.912 289.465 140.696 289.657 143.576C289.945 146.456 290.281 149.576 290.665 152.936C291.049 156.296 291.337 159.08 291.529 161.288C295.465 161.96 300.265 162.296 305.929 162.296C308.617 162.296 310.969 161.672 312.985 160.424C315.001 159.08 316.009 157.112 316.009 154.52C316.009 152.216 315.577 148.04 314.713 141.992C313.945 135.944 313.465 130.76 313.273 126.44C313.273 124.904 313.177 122.072 312.985 117.944C312.889 113.72 312.793 110.6 312.697 108.584C314.041 108.68 316.537 109.016 320.185 109.592C323.929 110.072 326.905 110.312 329.113 110.312C333.817 110.312 336.553 108.872 337.321 105.992C339.049 99.368 339.913 93.224 339.913 87.56C339.913 85.736 339.001 84.824 337.177 84.824C335.449 84.824 332.617 85.16 328.681 85.832C324.841 86.408 321.673 86.696 319.177 86.696C315.145 86.696 309.481 86.216 302.185 85.256C294.985 84.296 289.561 83.768 285.913 83.672C277.177 83.672 272.137 85.448 270.793 89C269.161 93.32 268.345 98.216 268.345 103.688ZM266.473 104.84C266.473 98.024 267.241 92.6 268.777 88.568C270.601 83.768 276.697 81.368 287.065 81.368C291.097 81.464 296.665 82.088 303.769 83.24C310.969 84.392 316.489 84.968 320.329 84.968C322.537 84.968 325.561 84.68 329.401 84.104C333.241 83.432 336.217 83.096 338.329 83.096C339.865 83.096 341.161 83.576 342.217 84.536C343.369 85.592 343.945 86.984 343.945 88.712C343.945 93.8 343.033 100.136 341.209 107.72C340.057 112.136 336.409 114.344 330.265 114.344C327.961 114.344 323.449 113.864 316.729 112.904C316.825 114.824 316.921 117.464 317.017 120.824C317.209 124.184 317.305 126.44 317.305 127.592C317.497 131.72 317.977 136.808 318.745 142.856C319.609 148.808 320.041 153.08 320.041 155.672C320.041 159.224 318.697 161.864 316.009 163.592C313.321 165.416 310.345 166.328 307.081 166.328C301.129 166.328 296.137 165.992 292.105 165.32L289.945 164.888L289.801 162.728C289.609 160.712 289.321 157.976 288.937 154.52C288.553 151.064 288.217 147.896 287.929 145.016C287.737 142.04 287.641 139.16 287.641 136.376C287.641 127.832 288.073 120.536 288.937 114.488C286.921 114.2 285.001 114.056 283.177 114.056C278.953 114.056 275.497 114.968 272.809 116.792L269.785 118.808L268.489 115.496C267.145 111.944 266.473 108.392 266.473 104.84ZM400.735 128.6C400.735 126.776 401.167 125.144 402.031 123.704C402.991 122.264 404.239 121.4 405.775 121.112L415.279 135.656L414.703 135.944C413.455 134.792 412.495 134.12 411.823 133.928C410.575 133.64 409.039 133.4 407.215 133.208C405.487 132.92 404.239 132.68 403.471 132.488C402.799 132.296 402.175 131.912 401.599 131.336C401.023 130.76 400.735 129.848 400.735 128.6ZM373.663 155.672C373.663 157.496 374.719 159.08 376.831 160.424C378.943 161.768 381.535 162.44 384.607 162.44C387.871 162.44 390.655 161.864 392.959 160.712C395.263 159.56 396.415 158.216 396.415 156.68C396.415 149.576 396.751 144.536 397.423 141.56C406.639 141.848 412.687 142.616 415.567 143.864C418.543 145.016 421.183 148.232 423.487 153.512C424.831 156.968 425.551 159.368 425.647 160.712C428.047 160.904 431.695 161.288 436.591 161.864C441.487 162.536 445.663 162.872 449.119 162.872C451.327 162.872 453.295 162.056 455.023 160.424C456.847 158.696 457.759 157.112 457.759 155.672C457.759 152.312 456.655 148.424 454.447 144.008C452.335 139.592 450.031 135.752 447.535 132.488C445.135 129.128 441.679 124.616 437.167 118.952C432.655 113.192 429.343 108.872 427.231 105.992C424.447 102.056 422.863 98.312 422.479 94.76C416.815 93.992 412.447 93.992 409.375 94.76C406.303 95.432 402.847 97.256 399.007 100.232C399.007 114.44 395.263 128.12 387.775 141.272C386.719 143.096 384.079 145.496 379.855 148.472C375.727 151.352 373.663 153.752 373.663 155.672ZM404.767 129.752C404.767 129.944 404.767 130.136 404.767 130.328L404.911 130.616C405.391 130.904 406.927 131.192 409.519 131.48C409.327 131.192 408.943 130.616 408.367 129.752C407.791 128.888 407.263 128.12 406.783 127.448C406.303 126.68 406.015 126.2 405.919 126.008C405.151 127.064 404.767 128.312 404.767 129.752ZM371.935 156.824C371.935 154.424 372.847 152.36 374.671 150.632C376.591 148.808 378.751 147.08 381.151 145.448C383.647 143.72 385.327 142.136 386.191 140.696C393.487 127.928 397.135 114.824 397.135 101.384V99.512C400.495 96.92 403.471 95.096 406.063 94.04C408.655 92.888 412.015 92.312 416.143 92.312C417.487 92.312 420.847 92.696 426.223 93.464C426.223 93.56 426.271 93.896 426.367 94.472C426.463 95.048 426.511 95.432 426.511 95.624C426.895 98.888 428.287 102.152 430.687 105.416C432.895 108.488 436.351 113 441.055 118.952C445.759 124.904 449.311 129.512 451.711 132.776C454.111 136.04 456.367 139.976 458.479 144.584C460.687 149.096 461.791 153.176 461.791 156.824C461.791 159.032 460.591 161.24 458.191 163.448C455.887 165.752 453.247 166.904 450.271 166.904C446.623 166.904 442.303 166.568 437.311 165.896C432.415 165.224 428.863 164.84 426.655 164.744L424.207 164.6C424.207 164.504 424.159 164.12 424.063 163.448C423.967 162.776 423.919 162.344 423.919 162.152C423.727 160.616 423.103 158.456 422.047 155.672C420.127 151.256 418.015 148.568 415.711 147.608C413.503 146.648 408.559 146.024 400.879 145.736C400.591 147.272 400.447 151.304 400.447 157.832C400.447 160.328 399.007 162.392 396.127 164.024C393.247 165.656 389.791 166.472 385.759 166.472C382.015 166.472 378.751 165.56 375.967 163.736C373.279 161.912 371.935 159.608 371.935 156.824ZM485.615 120.68C485.615 118.376 485.999 116.216 486.767 114.2C488.495 114.2 490.127 114.488 491.663 115.064C493.295 115.544 494.111 116.408 494.111 117.656C494.111 119.384 493.295 120.872 491.663 122.12C490.031 123.368 488.111 123.992 485.903 123.992C485.711 122.648 485.615 121.544 485.615 120.68ZM461.855 155.528C461.855 159.368 465.455 161.288 472.655 161.288C476.783 161.288 480.479 160.424 483.743 158.696C485.759 154.664 486.767 149.624 486.767 143.576C486.767 139.832 486.575 135.8 486.191 131.48C489.647 132.344 493.967 132.776 499.151 132.776C506.831 132.776 513.839 130.28 520.175 125.288C526.607 120.2 529.823 113.288 529.823 104.552C529.823 98.408 527.375 93.368 522.479 89.432C517.679 85.4 511.823 83.384 504.911 83.384C500.207 83.384 493.775 85.016 485.615 88.28C477.551 91.544 470.783 93.512 465.311 94.184C464.447 94.376 464.015 95 464.015 96.056C464.015 99.992 464.303 104.984 464.879 111.032C465.551 116.984 465.887 122.168 465.887 126.584C465.887 130.04 465.551 134.072 464.879 138.68C464.207 143.192 463.535 147.08 462.863 150.344C462.191 153.512 461.855 155.24 461.855 155.528ZM489.647 121.832C491.375 121.064 492.287 120.2 492.383 119.24C491.615 118.856 490.799 118.616 489.935 118.52C489.743 119.384 489.647 120.488 489.647 121.832ZM460.127 156.68C460.127 156.296 460.463 154.472 461.135 151.208C461.807 147.848 462.479 143.96 463.151 139.544C463.823 135.032 464.159 131.096 464.159 127.736C464.159 123.512 463.823 118.424 463.151 112.472C462.575 106.424 462.287 101.336 462.287 97.208C462.287 94.424 463.391 92.84 465.599 92.456C471.071 91.784 477.887 89.816 486.047 86.552C494.303 83.192 500.975 81.512 506.063 81.512C513.647 81.512 520.175 83.816 525.647 88.424C531.119 92.936 533.855 98.696 533.855 105.704C533.855 115.304 530.351 122.888 523.343 128.456C516.335 134.024 508.655 136.808 500.303 136.808C496.367 136.808 493.103 136.616 490.511 136.232C490.703 138.536 490.799 141.368 490.799 144.728C490.799 151.256 489.695 156.728 487.487 161.144L487.055 162.008L486.191 162.44C482.639 164.36 478.511 165.32 473.807 165.32C468.719 165.32 465.167 164.456 463.151 162.728C461.135 161 460.127 158.984 460.127 156.68ZM530.868 98.792C530.868 95.816 532.452 94.328 535.62 94.328C541.668 95.768 547.38 96.488 552.756 96.488C559.764 96.488 567.732 96.152 576.66 95.48C576.756 95.48 576.948 95.48 577.236 95.48C577.62 95.384 577.86 95.336 577.956 95.336C578.148 95.624 578.292 95.816 578.388 95.912C578.484 95.912 578.532 95.96 578.532 96.056C578.628 96.056 578.772 96.2 578.964 96.488C581.844 99.752 583.284 103.784 583.284 108.584C583.284 111.752 582.564 115.64 581.124 120.248C581.028 120.44 580.836 121.112 580.548 122.264C580.26 123.32 580.068 123.944 579.972 124.136C579.684 124.04 579.108 123.656 578.244 122.984C577.476 122.216 576.948 121.784 576.66 121.688C574.452 119.96 571.572 119.096 568.02 119.096C567.732 119.096 567.444 119.096 567.156 119.096C566.964 119.096 566.82 119.144 566.724 119.24C566.628 119.24 566.532 119.24 566.436 119.24H566.292C568.02 121.544 568.884 124.568 568.884 128.312C568.884 129.464 568.788 131.48 568.596 134.36C568.596 134.456 568.548 134.648 568.452 134.936C568.452 135.224 568.452 135.416 568.452 135.512L567.588 136.376C570.66 135.512 573.588 133.832 576.372 131.336C576.564 131.144 576.996 130.712 577.668 130.04C578.436 129.368 578.916 128.936 579.108 128.744L580.836 132.2C582.564 135.944 583.428 140.12 583.428 144.728C583.428 150.008 582.996 154.04 582.132 156.824C582.036 157.016 581.892 157.352 581.7 157.832C581.604 158.216 581.556 158.504 581.556 158.696L579.684 158.84C570.468 159.608 561.732 159.992 553.476 159.992C546.468 159.992 540.132 159.8 534.468 159.416C534.276 159.416 533.748 159.416 532.884 159.416C532.116 159.32 531.636 159.272 531.444 159.272L531.732 156.248C532.02 153.656 532.404 150.632 532.884 147.176C533.46 143.624 533.892 140.504 534.18 137.816C534.468 135.032 534.612 132.104 534.612 129.032C534.612 118.472 533.364 108.392 530.868 98.792ZM533.172 99.224C535.284 107.96 536.34 116.936 536.34 126.152C536.34 129.992 536.148 133.736 535.764 137.384C535.476 141.032 535.044 144.728 534.468 148.472C533.892 152.12 533.556 154.424 533.46 155.384C539.124 155.768 545.412 155.96 552.324 155.96C560.388 155.96 569.028 155.576 578.244 154.808C579.012 152.12 579.396 148.376 579.396 143.576C579.396 139.256 578.628 135.512 577.092 132.344C572.484 136.472 567.252 138.536 561.396 138.536C557.556 138.536 553.908 138.008 550.452 136.952C550.452 136.088 550.788 134.888 551.46 133.352C553.956 134.408 555.876 134.936 557.22 134.936C560.388 134.936 562.836 134.264 564.564 132.92C564.756 130.04 564.852 128.12 564.852 127.16C564.852 124.088 564.18 121.64 562.836 119.816C558.708 120.872 555.3 121.4 552.612 121.4C552.324 120.344 552.18 119 552.18 117.368C558.42 115.832 563.316 115.064 566.868 115.064C570.708 115.064 574.164 116.12 577.236 118.232C578.58 114.008 579.252 110.408 579.252 107.432C579.252 103.4 578.052 99.992 575.652 97.208C566.724 97.88 558.708 98.216 551.604 98.216C548.436 98.216 545.076 97.976 541.524 97.496C538.068 97.016 536.1 96.776 535.62 96.776C533.988 96.776 533.172 97.592 533.172 99.224ZM616.395 125.72C616.395 134.072 619.131 140.792 624.603 145.88C630.075 150.968 636.795 153.512 644.763 153.512C654.555 153.512 663.339 149.96 671.115 142.856C670.251 141.032 669.291 139.688 668.235 138.824C665.643 141.32 662.331 143.336 658.299 144.872C654.363 146.408 650.523 147.176 646.779 147.176C643.035 147.176 640.011 146.312 637.707 144.584C635.403 142.76 634.251 139.976 634.251 136.232C634.251 133.064 635.403 130.424 637.707 128.312C640.107 126.104 642.987 125 646.347 125C651.723 125 657.003 126.92 662.187 130.76C663.531 124.04 665.019 117.8 666.651 112.04C667.323 109.64 668.475 106.52 670.107 102.68C671.835 98.84 672.939 96.344 673.419 95.192H672.843C672.171 97.304 670.731 99.176 668.523 100.808C666.315 102.44 664.203 103.256 662.187 103.256C659.211 103.256 655.659 102.776 651.531 101.816C647.403 100.856 643.851 100.376 640.875 100.376C634.347 100.376 628.635 103.016 623.739 108.296C618.843 113.48 616.395 119.288 616.395 125.72ZM614.667 126.728C614.667 118.664 617.163 111.944 622.155 106.568C627.147 101.192 633.675 98.504 641.739 98.504C645.003 98.504 648.747 99.032 652.971 100.088C657.195 101.048 660.651 101.528 663.339 101.528C664.587 101.528 666.075 100.952 667.803 99.8C669.531 98.552 670.683 97.064 671.259 95.336C671.355 95.144 671.499 94.76 671.691 94.184L671.835 93.464H678.171C674.523 101.912 671.979 108.776 670.539 114.056C668.715 120.104 667.275 126.2 666.219 132.344C666.027 132.824 665.739 134.312 665.355 136.808C663.915 135.848 662.715 134.984 661.755 134.216C657.147 130.76 652.395 129.032 647.499 129.032C644.907 129.032 642.699 129.848 640.875 131.48C639.147 133.112 638.283 135.08 638.283 137.384C638.283 142.76 641.499 145.448 647.931 145.448C651.387 145.448 654.891 144.728 658.443 143.288C662.091 141.848 665.067 140.024 667.371 137.816C668.331 136.856 668.955 136.28 669.243 136.088L671.115 137.672C672.075 138.536 672.891 139.4 673.563 140.264C674.043 141.032 674.523 141.944 675.003 143C675.099 143.096 675.243 143.384 675.435 143.864C675.627 144.248 675.723 144.536 675.723 144.728L674.283 146.168C666.027 153.752 656.571 157.544 645.915 157.544C637.179 157.544 629.787 154.712 623.739 149.048C617.691 143.384 614.667 135.944 614.667 126.728ZM677.875 92.888C677.875 95 678.307 99.032 679.171 104.984C680.035 110.936 680.467 116.216 680.467 120.824C680.467 128.792 680.083 135.992 679.315 142.424C678.547 148.856 678.163 153.032 678.163 154.952C682.195 154.952 687.235 155.432 693.283 156.392C699.331 157.352 704.227 157.88 707.971 157.976C716.707 157.976 721.747 156.248 723.091 152.792C724.627 148.76 725.395 143.816 725.395 137.96C725.395 134.216 724.867 131 723.811 128.312C720.355 130.52 716.323 131.624 711.715 131.624C708.739 131.624 705.763 131.288 702.787 130.616C703.075 127.736 703.315 125.144 703.507 122.84C703.699 120.536 703.795 118.232 703.795 115.928C703.891 113.528 703.939 111.704 703.939 110.456C703.939 109.208 703.843 107.24 703.651 104.552C703.555 101.864 703.459 100.136 703.363 99.368C703.363 98.6 703.219 96.488 702.931 93.032C702.643 89.48 702.451 87.176 702.355 86.12C698.419 85.448 693.619 85.112 687.955 85.112C685.267 85.112 682.915 85.784 680.899 87.128C678.883 88.376 677.875 90.296 677.875 92.888ZM676.147 93.752C676.147 90.392 677.299 87.8 679.603 85.976C681.907 84.152 684.979 83.24 688.819 83.24C694.291 83.24 699.331 83.624 703.939 84.392C704.899 84.392 705.667 84.488 706.243 84.68C706.243 84.872 706.243 85.304 706.243 85.976C706.339 86.552 706.387 86.888 706.387 86.984C707.251 97.352 707.731 104.216 707.827 107.576C707.923 110.936 707.683 118.136 707.107 129.176C709.987 129.56 711.907 129.752 712.867 129.752C716.515 129.752 719.923 128.696 723.091 126.584C724.435 125.624 725.443 124.952 726.115 124.568C726.211 124.76 726.739 126.056 727.699 128.456C728.851 131.72 729.427 135.272 729.427 139.112C729.427 145.448 728.611 150.728 726.979 154.952C725.155 159.656 719.203 162.008 709.123 162.008C705.091 161.912 700.051 161.384 694.003 160.424C688.051 159.464 683.155 158.984 679.315 158.984H676.435V156.104C676.435 153.8 676.819 149.528 677.587 143.288C678.355 136.952 678.739 129.848 678.739 121.976C678.739 117.368 678.307 112.136 677.443 106.28C676.579 100.328 676.147 96.152 676.147 93.752ZM728.212 102.824C728.404 103.88 728.98 105.8 729.94 108.584C730.9 111.272 731.38 113.288 731.38 114.632C731.38 115.688 731.092 118.616 730.516 123.416C730.036 128.12 729.796 132.104 729.796 135.368C729.796 140.072 731.62 144.056 735.268 147.32C738.916 150.488 743.812 152.072 749.956 152.072C756.964 152.072 762.58 148.424 766.804 141.128C771.028 133.736 773.14 124.136 773.14 112.328C773.14 108.104 772.564 104.456 771.412 101.384C770.26 98.312 768.916 96.776 767.38 96.776C764.884 96.776 763.348 97.832 762.772 99.944C762.964 100.808 763.636 102.44 764.788 104.84C765.94 107.24 766.516 109.16 766.516 110.6C766.516 113.672 765.796 116.312 764.356 118.52C762.916 120.632 761.14 121.688 759.028 121.688C757.3 121.688 755.812 119.768 754.564 115.928C753.316 112.088 752.692 107.432 752.692 101.96C752.692 100.904 751.348 100.04 748.66 99.368C746.068 98.6 742.9 98.216 739.156 98.216C733.396 98.216 729.748 99.752 728.212 102.824ZM726.052 102.824L726.628 101.96C729.124 98.312 733.684 96.488 740.308 96.488C744.532 96.488 748.324 97.016 751.684 98.072C755.044 99.128 756.724 100.808 756.724 103.112C756.724 106.376 756.964 109.352 757.444 112.04C757.924 114.632 758.404 116.504 758.884 117.656C759.46 118.808 759.94 119.576 760.324 119.96C761.38 119.768 762.388 118.904 763.348 117.368C764.308 115.832 764.788 113.96 764.788 111.752C764.788 110.696 764.26 109.112 763.204 107C762.148 104.792 761.476 103.112 761.188 101.96C761.188 101.864 761.14 101.768 761.044 101.672C761.044 101.576 760.996 101.432 760.9 101.24C761.092 100.856 761.188 100.568 761.188 100.376C761.572 98.744 762.484 97.448 763.924 96.488C765.364 95.528 766.9 95.048 768.532 95.048C771.22 95.048 773.332 96.824 774.868 100.376C776.404 103.928 777.172 108.296 777.172 113.48C777.172 126.344 774.772 136.664 769.972 144.44C765.172 152.216 758.884 156.104 751.108 156.104C744.292 156.104 738.724 154.232 734.404 150.488C730.18 146.744 728.068 142.088 728.068 136.52C728.068 133.064 728.308 128.984 728.788 124.28C729.364 119.48 729.652 116.696 729.652 115.928C729.652 114.968 729.172 113.048 728.212 110.168C727.252 107.192 726.676 105.272 726.484 104.408L726.052 102.824ZM802.795 137.24C803.371 137.336 804.139 137.384 805.099 137.384C808.939 137.384 810.859 136.04 810.859 133.352C810.859 130.664 809.131 128.936 805.675 128.168C804.715 132.2 803.755 135.224 802.795 137.24ZM772.843 167.48L774.715 161.576C778.075 149.384 779.755 138.008 779.755 127.448C779.755 116.888 779.131 105.752 777.883 94.04L777.595 91.304L780.331 90.584C782.059 90.2 784.891 89 788.827 86.984C792.859 84.968 797.131 83.144 801.643 81.512C806.155 79.88 810.571 79.064 814.891 79.064C820.843 79.064 825.931 80.84 830.155 84.392C834.379 87.944 836.491 92.984 836.491 99.512C836.491 106.808 834.091 112.472 829.291 116.504C833.803 118.424 837.547 121.16 840.523 124.712C843.499 128.168 844.987 132.296 844.987 137.096C844.987 146.408 841.531 153.608 834.619 158.696C827.707 163.784 819.451 166.328 809.851 166.328C806.683 166.328 802.891 165.752 798.475 164.6C794.059 163.448 791.179 162.872 789.835 162.872C787.915 162.872 786.043 163.016 784.219 163.304C782.395 163.688 781.147 163.976 780.475 164.168C779.803 164.456 778.411 165.032 776.299 165.896C774.187 166.856 773.035 167.384 772.843 167.48ZM797.611 137.528C798.475 136.28 799.387 134.12 800.347 131.048C801.403 127.88 801.931 125.432 801.931 123.704C804.811 123.704 807.307 124.472 809.419 126.008C811.531 127.544 812.587 129.608 812.587 132.2C812.587 136.808 809.707 139.112 803.947 139.112C801.355 139.112 799.243 138.584 797.611 137.528ZM801.499 105.272C803.611 103.832 805.195 103.112 806.251 103.112C808.171 103.112 809.131 104.12 809.131 106.136C809.131 107.864 808.315 109.544 806.683 111.176C805.051 112.808 803.467 113.912 801.931 114.488C801.643 109.592 801.499 106.52 801.499 105.272ZM776.587 161.144C780.235 159.608 784.267 158.84 788.683 158.84C790.603 158.84 793.723 159.416 798.043 160.568C802.459 161.72 806.011 162.296 808.699 162.296C817.723 162.296 825.355 160.04 831.595 155.528C837.835 150.92 840.955 144.392 840.955 135.944C840.955 130.952 839.035 126.776 835.195 123.416C831.451 119.96 826.987 117.512 821.803 116.072C825.547 113.864 828.235 111.512 829.867 109.016C831.595 106.424 832.459 102.872 832.459 98.36C832.459 92.696 830.635 88.376 826.987 85.4C823.435 82.328 819.019 80.792 813.739 80.792C809.803 80.792 805.675 81.656 801.355 83.384C797.131 85.016 793.051 86.84 789.115 88.856C785.179 90.872 782.059 92.072 779.755 92.456C781.099 105.032 781.771 116.312 781.771 126.296C781.771 137.336 780.043 148.952 776.587 161.144Z" fill="url(#paint0_linear_120_44)"/>
<defs>
<linearGradient id="paint0_linear_120_44" x1="422" y1="7.64652e-08" x2="422.518" y2="216.948" gradientUnits="userSpaceOnUse">
<stop stop-color="#448C73"/>
<stop offset="1" stop-color="#222E2E"/>
</linearGradient>
</defs>
</svg>
